<svg width="25" height="24" viewBox="0 0 25 24" fill="none" xmlns="http://www.w3.org/2000/svg">
<path d="M12.373 2.16221C15.5772 2.16221 15.9567 2.1744 17.222 2.23213C18.392 2.28553 19.0274 2.48102 19.4503 2.64531C20.0104 2.863 20.4102 3.12308 20.8301 3.54297C21.25 3.96287 21.51 4.36266 21.7277 4.92274C21.892 5.34564 22.0875 5.98103 22.1409 7.15097C22.1986 8.41637 22.2108 8.79587 22.2108 12C22.2108 15.2042 22.1986 15.5837 22.1409 16.849C22.0875 18.019 21.892 18.6544 21.7277 19.0773C21.51 19.6374 21.25 20.0372 20.8301 20.4571C20.4102 20.877 20.0104 21.137 19.4503 21.3547C19.0274 21.519 18.392 21.7145 17.222 21.7679C15.9569 21.8256 15.5774 21.8378 12.373 21.8378C9.16868 21.8378 8.78918 21.8256 7.52402 21.7679C6.35403 21.7145 5.71864 21.519 5.29579 21.3547C4.73566 21.137 4.33587 20.877 3.91597 20.4571C3.49608 20.0372 3.236 19.6374 3.01836 19.0773C2.85402 18.6544 2.65853 18.019 2.60513 16.8491C2.5474 15.5837 2.53521 15.2042 2.53521 12C2.53521 8.79587 2.5474 8.41637 2.60513 7.15102C2.65853 5.98103 2.85402 5.34564 3.01836 4.92274C3.236 4.36266 3.49608 3.96287 3.91597 3.54297C4.33587 3.12308 4.73566 2.863 5.29579 2.64531C5.71864 2.48102 6.35403 2.28553 7.52397 2.23213C8.78937 2.1744 9.16887 2.16221 12.373 2.16221ZM12.373 0C9.114 0 8.70539 0.0138139 7.42546 0.0722133C6.14815 0.130517 5.27588 0.333343 4.51254 0.630008C3.72344 0.936677 3.05423 1.347 2.38711 2.01411C1.72 2.68123 1.30968 3.35044 1.00301 4.13954C0.706343 4.90288 0.503517 5.77516 0.445212 7.05246C0.386813 8.33234 0.373047 8.741 0.373047 12C0.373047 15.2591 0.386813 15.6677 0.445212 16.9476C0.503517 18.2249 0.706343 19.0972 1.00301 19.8605C1.30968 20.6496 1.72 21.3188 2.38711 21.9859C3.05423 22.6531 3.72344 23.0634 4.51254 23.37C5.27588 23.6667 6.14815 23.8695 7.42546 23.9278C8.70539 23.9862 9.114 24 12.373 24C15.6321 24 16.0407 23.9862 17.3206 23.9278C18.5979 23.8695 19.4702 23.6667 20.2335 23.37C21.0226 23.0634 21.6918 22.6531 22.3589 21.9859C23.0261 21.3188 23.4364 20.6496 23.743 19.8605C24.0397 19.0972 24.2425 18.2249 24.3008 16.9476C24.3592 15.6677 24.373 15.2591 24.373 12C24.373 8.741 24.3592 8.33234 24.3008 7.05246C24.2425 5.77516 24.0397 4.90288 23.743 4.13954C23.4364 3.35044 23.0261 2.68123 22.3589 2.01411C21.6918 1.347 21.0226 0.936677 20.2335 0.630008C19.4702 0.333343 18.5979 0.130517 17.3206 0.0722133C16.0407 0.0138139 15.6321 0 12.373 0ZM12.373 5.83784C8.96976 5.83784 6.21084 8.59676 6.21084 12C6.21084 15.4033 8.96976 18.1622 12.373 18.1622C15.7763 18.1622 18.5352 15.4033 18.5352 12C18.5352 8.59676 15.7763 5.83784 12.373 5.83784ZM12.373 16C10.1639 16 8.373 14.2091 8.373 12C8.373 9.7909 10.1639 8 12.373 8C14.5821 8 16.373 9.7909 16.373 12C16.373 14.2091 14.5821 16 12.373 16ZM20.2186 5.59438C20.2186 6.38968 19.574 7.03441 18.7787 7.03441C17.9834 7.03441 17.3386 6.38968 17.3386 5.59438C17.3386 4.79909 17.9834 4.15441 18.7787 4.15441C19.574 4.15441 20.2186 4.79909 20.2186 5.59438Z" fill="#050000"/>
</svg>
