<svg width="263" height="55" viewBox="0 0 263 55" fill="none" xmlns="http://www.w3.org/2000/svg">
<path d="M9.5324 52.7247C0.453812 46.1825 -2.96943 35.768 2.92473 24.7124C3.31325 23.9837 4.46874 24.2413 4.70943 25.0312C5.56919 27.8527 7.31254 29.2612 7.31254 29.2612C6.75802 27.982 4.60132 14.1666 15.0066 7.81312C15.6126 7.44314 16.3532 7.99075 16.259 8.69411C15.7856 12.2319 15.4326 19.824 21.5881 17.6923C27.1718 15.7587 23.159 5.6541 21.1064 1.27083C20.7726 0.558036 21.4858 -0.233313 22.2148 0.0644096C34.5832 5.11574 44.2599 13.353 40.7641 28.2676C41.6858 28.4403 44.7104 27.9125 46.4264 25.4343C46.8751 24.7863 47.9088 24.7571 48.133 25.5126C49.8309 31.2353 52.3519 46.2693 38.874 54.2268C38.1137 52.316 36.6423 50.8736 36.0848 50.4188C35.9457 50.3053 35.8129 50.3447 35.7059 50.4888C35.1781 51.1999 33.4081 53.4063 31.6732 53.5401C28.4705 53.7872 26.685 50.3075 27.4686 46.5139C27.5569 46.0863 27.1741 45.6867 26.7582 45.8206C21.7122 47.4463 20.3974 50.8007 20.3974 50.8007C18.2133 49.0252 16.281 45.7383 16.6903 38.2681C16.7211 37.707 16.0209 37.4414 15.7079 37.9083C13.7285 40.861 9.83077 47.3122 9.5324 52.7247Z" fill="black"/>
<path d="M75.338 21.2744C73.3259 21.2744 71.8048 21.7173 70.7748 22.603C69.7449 23.4647 69.2299 24.7693 69.2299 26.5167V28.0607H79.5777V32.7285H69.2299V41.8845H63.4092V26.5526C63.4092 23.3211 64.4152 20.8077 66.4273 19.0124C68.4633 17.2171 71.3018 16.3194 74.9427 16.3194C76.3799 16.3194 77.7333 16.475 79.0028 16.7862C80.2724 17.0734 81.3742 17.5043 82.3084 18.0788L80.5119 22.6748C79.0747 21.7412 77.3501 21.2744 75.338 21.2744Z" fill="black"/>
<path d="M84.9925 22.5671H90.5976V41.8845H84.9925V22.5671ZM87.795 19.8741C86.765 19.8741 85.9267 19.5749 85.2799 18.9765C84.6332 18.378 84.3098 17.636 84.3098 16.7503C84.3098 15.8646 84.6332 15.1225 85.2799 14.5241C85.9267 13.9257 86.765 13.6265 87.795 13.6265C88.825 13.6265 89.6634 13.9137 90.3101 14.4882C90.9569 15.0627 91.2803 15.7808 91.2803 16.6426C91.2803 17.5761 90.9569 18.3541 90.3101 18.9765C89.6634 19.5749 88.825 19.8741 87.795 19.8741Z" fill="black"/>
<path d="M101.512 25.1164C102.183 24.1828 103.081 23.4767 104.207 22.9979C105.357 22.5192 106.674 22.2798 108.16 22.2798V27.4503C107.537 27.4024 107.118 27.3785 106.902 27.3785C105.297 27.3785 104.04 27.8333 103.129 28.7429C102.219 29.6286 101.764 30.9691 101.764 32.7644V41.8845H96.1589V22.5671H101.512V25.1164Z" fill="black"/>
<path d="M121.413 37.6835C122.419 37.6835 123.306 37.5399 124.072 37.2526C124.863 36.9414 125.593 36.4627 126.264 35.8164L129.246 39.0479C127.426 41.1305 124.767 42.1717 121.27 42.1717C119.09 42.1717 117.162 41.7528 115.485 40.915C113.808 40.0533 112.515 38.8684 111.604 37.3603C110.694 35.8523 110.239 34.1408 110.239 32.2258C110.239 30.3347 110.682 28.6352 111.568 27.1271C112.479 25.5951 113.712 24.4102 115.269 23.5724C116.85 22.7107 118.623 22.2798 120.587 22.2798C122.431 22.2798 124.108 22.6748 125.617 23.4647C127.126 24.2307 128.324 25.3558 129.21 26.8399C130.12 28.3001 130.575 30.0355 130.575 32.0463L116.275 34.811C116.682 35.7685 117.317 36.4866 118.18 36.9654C119.066 37.4441 120.144 37.6835 121.413 37.6835ZM120.587 26.5167C119.174 26.5167 118.024 26.9715 117.138 27.8812C116.251 28.7908 115.784 30.0475 115.736 31.6513L125.15 29.8201C124.886 28.8147 124.348 28.0128 123.533 27.4144C122.719 26.8159 121.737 26.5167 120.587 26.5167Z" fill="black"/>
<path d="M143.361 42.3154C141.373 42.3154 139.445 42.0521 137.577 41.5254C135.732 40.9749 134.247 40.2687 133.121 39.407L135.098 35.0265C136.175 35.8164 137.457 36.4507 138.942 36.9295C140.427 37.4082 141.912 37.6476 143.397 37.6476C145.05 37.6476 146.272 37.4082 147.062 36.9295C147.853 36.4268 148.248 35.7685 148.248 34.9546C148.248 34.3562 148.008 33.8655 147.529 33.4825C147.074 33.0756 146.475 32.7524 145.733 32.513C145.014 32.2737 144.032 32.0103 142.787 31.7231C140.87 31.2683 139.301 30.8135 138.08 30.3587C136.858 29.9039 135.804 29.1738 134.918 28.1684C134.056 27.163 133.624 25.8225 133.624 24.1469C133.624 22.6868 134.02 21.3702 134.81 20.1973C135.601 19.0004 136.786 18.0549 138.367 17.3607C139.972 16.6665 141.924 16.3194 144.224 16.3194C145.829 16.3194 147.398 16.5109 148.931 16.8939C150.464 17.2769 151.805 17.8275 152.955 18.5456L151.158 22.962C148.835 21.6455 146.511 20.9872 144.188 20.9872C142.559 20.9872 141.349 21.2505 140.559 21.7771C139.792 22.3038 139.409 22.9979 139.409 23.8597C139.409 24.7214 139.852 25.3677 140.739 25.7986C141.649 26.2055 143.026 26.6125 144.871 27.0194C146.787 27.4742 148.356 27.929 149.577 28.3838C150.799 28.8386 151.841 29.5568 152.703 30.5382C153.59 31.5196 154.033 32.8482 154.033 34.5238C154.033 35.96 153.626 37.2766 152.811 38.4734C152.021 39.6464 150.823 40.5799 149.218 41.2741C147.613 41.9683 145.661 42.3154 143.361 42.3154Z" fill="black"/>
<path d="M169.615 40.9509C169.064 41.3579 168.382 41.6691 167.567 41.8845C166.777 42.076 165.951 42.1717 165.088 42.1717C162.765 42.1717 160.98 41.5853 159.735 40.4124C158.489 39.2394 157.866 37.5159 157.866 35.2419V18.2942H163.471V22.9979H168.25V27.3067H163.471V35.1701C163.471 35.9839 163.675 36.6183 164.082 37.0731C164.489 37.504 165.076 37.7194 165.843 37.7194C166.705 37.7194 167.472 37.48 168.142 37.0013L169.615 40.9509Z" fill="black"/>
<path d="M192.162 22.5671V41.8845H186.808V39.6583C185.419 41.3339 183.407 42.1717 180.772 42.1717C178.952 42.1717 177.299 41.7648 175.814 40.9509C174.352 40.1371 173.203 38.9761 172.364 37.4681C171.526 35.96 171.107 34.2126 171.107 32.2258C171.107 30.239 171.526 28.4916 172.364 26.9835C173.203 25.4755 174.352 24.3145 175.814 23.5006C177.299 22.6868 178.952 22.2798 180.772 22.2798C183.239 22.2798 185.167 23.0578 186.557 24.6137V22.5671H192.162ZM181.742 37.5758C183.155 37.5758 184.329 37.097 185.263 36.1395C186.197 35.1581 186.665 33.8535 186.665 32.2258C186.665 30.598 186.197 29.3054 185.263 28.3479C184.329 27.3665 183.155 26.8758 181.742 26.8758C180.305 26.8758 179.119 27.3665 178.185 28.3479C177.251 29.3054 176.784 30.598 176.784 32.2258C176.784 33.8535 177.251 35.1581 178.185 36.1395C179.119 37.097 180.305 37.5758 181.742 37.5758Z" fill="black"/>
<path d="M203.064 25.1164C203.735 24.1828 204.633 23.4767 205.759 22.9979C206.909 22.5192 208.226 22.2798 209.711 22.2798V27.4503C209.088 27.4024 208.669 27.3785 208.454 27.3785C206.849 27.3785 205.591 27.8333 204.681 28.7429C203.771 29.6286 203.316 30.9691 203.316 32.7644V41.8845H197.711V22.5671H203.064V25.1164Z" fill="black"/>
<path d="M225.045 40.9509C224.494 41.3579 223.811 41.6691 222.997 41.8845C222.206 42.076 221.38 42.1717 220.517 42.1717C218.194 42.1717 216.409 41.5853 215.164 40.4124C213.918 39.2394 213.295 37.5159 213.295 35.2419V18.2942H218.901V22.9979H223.679V27.3067H218.901V35.1701C218.901 35.9839 219.104 36.6183 219.511 37.0731C219.919 37.504 220.505 37.7194 221.272 37.7194C222.134 37.7194 222.901 37.48 223.571 37.0013L225.045 40.9509Z" fill="black"/>
<path d="M237.71 37.6835C238.716 37.6835 239.603 37.5399 240.369 37.2526C241.16 36.9414 241.89 36.4627 242.561 35.8164L245.543 39.0479C243.723 41.1305 241.064 42.1717 237.567 42.1717C235.387 42.1717 233.459 41.7528 231.782 40.915C230.105 40.0533 228.812 38.8684 227.901 37.3603C226.991 35.8523 226.536 34.1408 226.536 32.2258C226.536 30.3347 226.979 28.6352 227.865 27.1271C228.776 25.5951 230.009 24.4102 231.566 23.5724C233.147 22.7107 234.92 22.2798 236.884 22.2798C238.728 22.2798 240.405 22.6748 241.914 23.4647C243.423 24.2307 244.621 25.3558 245.507 26.8399C246.417 28.3001 246.872 30.0355 246.872 32.0463L232.572 34.811C232.979 35.7685 233.614 36.4866 234.477 36.9654C235.363 37.4441 236.441 37.6835 237.71 37.6835ZM236.884 26.5167C235.471 26.5167 234.321 26.9715 233.435 27.8812C232.548 28.7908 232.081 30.0475 232.033 31.6513L241.447 29.8201C241.183 28.8147 240.645 28.0128 239.83 27.4144C239.016 26.8159 238.034 26.5167 236.884 26.5167Z" fill="black"/>
<path d="M256.353 25.1164C257.024 24.1828 257.922 23.4767 259.048 22.9979C260.197 22.5192 261.515 22.2798 263 22.2798V27.4503C262.377 27.4024 261.958 27.3785 261.742 27.3785C260.138 27.3785 258.88 27.8333 257.97 28.7429C257.06 29.6286 256.604 30.9691 256.604 32.7644V41.8845H250.999V22.5671H256.353V25.1164Z" fill="black"/>
</svg>
