<svg width="193" height="59" viewBox="0 0 193 59" fill="none" xmlns="http://www.w3.org/2000/svg">
<path fill-rule="evenodd" clip-rule="evenodd" d="M28.6174 0.00949864C27.3615 0.0856677 26.7354 0.132494 26.4734 0.169881C26.3049 0.193923 25.8702 0.255304 25.5074 0.306316C20.9084 0.952404 16.4025 2.7408 12.5726 5.44015C6.96222 9.39433 2.88529 15.1295 1.08163 21.605C0.54548 23.5297 0.241877 25.2973 0.0593764 27.5571C-0.0898096 29.4037 0.0527323 32.4499 0.368304 34.1603C0.394267 34.301 0.45953 34.6567 0.513343 34.9508C0.567108 35.2449 0.660974 35.6948 0.721855 35.9506C0.782735 36.2064 0.847433 36.4888 0.865622 36.5784C0.978006 37.1311 1.65354 39.282 1.93179 39.973C2.52679 41.4506 3.31357 43.0808 3.97916 44.2152C6.60165 48.6845 10.4255 52.4706 14.8952 55.0233C15.9456 55.6233 17.651 56.4565 18.4627 56.7665C18.6571 56.8407 18.8586 56.9205 18.9104 56.9439C19.4007 57.1649 20.9458 57.6758 21.9262 57.941C25.65 58.9485 29.5623 59.2421 33.3766 58.8004C34.2241 58.7022 35.5242 58.4916 36.1847 58.3455C37.2957 58.0996 37.5195 58.0452 38.0416 57.8943C40.9991 57.0393 43.508 55.9277 45.9643 54.3839C46.537 54.024 46.6519 53.947 47.422 53.4069C48.922 52.3548 50.9396 50.5599 52.1468 49.2034C52.3972 48.9221 52.6693 48.6187 52.7514 48.5292C52.8335 48.4397 52.949 48.3036 53.008 48.2269C53.0669 48.1502 53.2667 47.8991 53.452 47.6689C54.0407 46.9372 54.6234 46.1172 55.3355 45.0183C56.0059 43.9839 57.1089 41.8407 57.6211 40.5775C59.0849 36.9667 59.79 33.3471 59.7861 29.4637C59.7827 26.116 59.283 23.1019 58.2172 20.0007C57.637 18.3122 56.7594 16.3595 56.0446 15.1664C55.9265 14.9693 55.8299 14.8011 55.8299 14.7925C55.8299 14.7581 55.3718 14.0141 55.0137 13.4672C51.1469 7.56065 45.0941 3.10053 38.3244 1.16929C37.3484 0.890837 36.1557 0.607784 35.4971 0.498227C35.3416 0.472372 35.0341 0.418849 34.8138 0.379277C34.2576 0.279392 33.0638 0.133006 32.3368 0.0756234C31.7036 0.0255881 29.1116 -0.0204482 28.6174 0.00949864ZM22.2324 21.0702L22.256 24.6043L29.9014 24.6161L37.5469 24.6278V21.0986C37.5469 17.9232 37.5544 17.5665 37.6214 17.5411C37.6624 17.5255 38.4215 17.5128 39.3083 17.5128C40.4996 17.5128 40.9355 17.5274 40.9773 17.5686C41.0667 17.6569 41.0588 41.0571 40.9694 41.1304C40.9233 41.1681 40.4289 41.1797 39.2377 41.171L37.5704 41.1587L37.5584 37.5199L37.5463 33.881L29.9011 33.8928L22.256 33.9045L22.2324 37.5316L22.2089 41.1587L20.539 41.171C19.6206 41.1777 18.8518 41.166 18.8305 41.145C18.7879 41.1029 18.7769 17.622 18.8195 17.554C18.8349 17.5294 19.5522 17.5168 20.5275 17.5239L22.2089 17.5361L22.2324 21.0702ZM128.398 22.5227C128.399 25.1246 128.384 27.2589 128.363 27.2655C128.343 27.272 128.275 27.2031 128.212 27.1122C128.036 26.8573 127.438 26.3274 127.013 26.0502C126.104 25.4574 125.24 25.1416 123.944 24.9288C123.523 24.8598 122.119 24.9003 121.541 24.9982C119.438 25.3537 117.737 26.4113 116.61 28.0639C115.827 29.2128 115.406 30.3741 115.225 31.8815C115.04 33.4317 115.261 35.2435 115.79 36.5086C116.008 37.0293 115.997 37.0057 116.239 37.4386C117.101 38.9802 118.455 40.1251 120.127 40.7263C121 41.04 121.865 41.18 122.939 41.1811C123.832 41.1821 124.279 41.1326 124.886 40.9655C126.089 40.6345 127.032 40.0739 127.898 39.1758L128.397 38.6585V39.7052C128.397 40.5346 128.41 40.7631 128.461 40.805C128.507 40.8426 128.965 40.8542 130.052 40.8455L131.577 40.8332L131.589 29.3125L131.601 17.7919H129.998H128.395L128.398 22.5227ZM72.8995 29.7072L72.9114 40.8332L74.5315 40.8455C75.6879 40.8542 76.1701 40.8426 76.2161 40.8049C76.2699 40.7608 76.2806 39.9595 76.2806 35.9682V31.1842H82.9247H89.5688V35.9921C89.5688 40.3334 89.576 40.8028 89.6433 40.8283C89.6843 40.8438 90.4239 40.8565 91.2868 40.8565C92.5493 40.8565 92.8661 40.8442 92.9087 40.7935C92.9477 40.7471 92.9586 37.8066 92.9498 29.668L92.9379 18.6056L91.2536 18.5934L89.5692 18.5812L89.5572 23.3133L89.5452 28.0454L82.9129 28.0571C77.6225 28.0666 76.2805 28.0571 76.2802 28.0106C76.2801 27.9786 76.2748 25.8494 76.2685 23.279L76.257 18.6056L74.5723 18.5934L72.8876 18.5812L72.8995 29.7072ZM175.754 24.9073C174.769 24.9733 173.849 25.2225 172.903 25.6793C170.194 26.9868 168.637 29.6529 168.639 32.9805C168.639 34.5678 168.905 35.8201 169.503 37.0628C170.597 39.3327 172.597 40.7565 175.221 41.1333C175.663 41.1969 177.08 41.1958 177.512 41.1316C178.223 41.026 178.978 40.7653 179.641 40.3967C180.259 40.0534 180.919 39.5099 181.316 39.0176C181.449 38.8525 181.577 38.7174 181.601 38.7174C181.625 38.7174 181.644 39.1721 181.644 39.7869V40.8565H183.222H184.801L184.789 33.0559L184.777 25.2553L183.211 25.2431L181.644 25.2308V26.2545C181.644 26.8649 181.626 27.2781 181.599 27.2781C181.575 27.2781 181.522 27.231 181.481 27.1735C181.44 27.116 181.236 26.8985 181.027 26.6902C179.955 25.6213 178.578 25.0276 176.887 24.9055C176.562 24.882 176.285 24.8653 176.272 24.8684C176.259 24.8715 176.026 24.889 175.754 24.9073ZM103.587 24.9386C101.624 25.1896 99.8736 26.1105 98.6091 27.5571C97.5954 28.7169 96.9837 30.07 96.7069 31.7655C96.6143 32.3333 96.6151 33.7852 96.7086 34.3993C97.0526 36.6595 98.3755 38.6726 100.354 39.9457C101.166 40.4687 102.347 40.915 103.369 41.085C104.403 41.2569 106.071 41.2071 107.145 40.9722C107.926 40.8014 108.797 40.4799 109.407 40.1372C110.811 39.3481 112.008 37.9639 112.417 36.6549C112.589 36.106 112.746 36.1599 110.97 36.1599H109.423L109.267 36.3963C108.855 37.0251 108.071 37.5995 107.18 37.9261C106.142 38.3065 104.501 38.3755 103.446 38.0831C102.004 37.6834 100.844 36.6643 100.262 35.2846C100.106 34.914 99.9179 34.2132 99.8642 33.8001L99.8324 33.5561L106.234 33.5443L112.635 33.5325L112.623 32.8815C112.61 32.1353 112.484 31.303 112.277 30.5849C111.481 27.8384 109.484 25.857 106.815 25.1685C106.042 24.969 105.487 24.9059 104.571 24.9135C104.108 24.9173 103.665 24.9286 103.587 24.9386ZM142.015 24.9984C140.96 25.1757 139.936 25.5595 139.089 26.0948C136.538 27.7084 135.181 30.5666 135.42 33.8232C135.662 37.1131 138.004 39.9585 141.23 40.8816C141.99 41.0988 142.33 41.1446 143.377 41.1696C144.754 41.2024 145.61 41.0977 146.7 40.7631C147.607 40.4848 148.508 40.0149 149.13 39.496C149.787 38.9483 150.42 38.2206 150.757 37.6248C150.978 37.2347 151.233 36.6104 151.274 36.3575L151.306 36.1599H149.753H148.201L148.021 36.4272C147.582 37.0809 146.737 37.6744 145.832 37.9659C144.785 38.3026 143.357 38.3644 142.348 38.1166C141.019 37.7901 139.829 36.8542 139.212 35.65C138.942 35.1232 138.713 34.3822 138.647 33.8232L138.615 33.5558H145.027C150.123 33.5558 151.44 33.5438 151.444 33.4977C151.46 33.297 151.427 32.4905 151.388 32.1375C151.134 29.8455 150.02 27.76 148.376 26.5015C147.356 25.7206 146.201 25.2347 144.813 25.0022C144.066 24.8769 142.748 24.8751 142.015 24.9984ZM162.345 25.1895C161.321 25.3075 160.348 25.6429 159.615 26.1302C159.248 26.3735 158.697 26.8995 158.476 27.2164C158.355 27.3903 158.29 27.448 158.264 27.4069C158.243 27.3744 158.226 26.8715 158.225 26.2894L158.224 25.2308L156.658 25.2431L155.091 25.2553L155.079 33.0326C155.072 37.3102 155.083 40.8128 155.103 40.8162C155.254 40.8428 158.126 40.841 158.17 40.8143C158.213 40.7882 158.226 39.7825 158.227 36.575C158.227 32.1018 158.254 31.2323 158.412 30.6802C158.774 29.4172 159.669 28.7153 161.287 28.4246C162.028 28.2917 162.882 28.2546 165.201 28.2546H167.507V26.6968V25.1391L165.092 25.1451C163.764 25.1484 162.528 25.1683 162.345 25.1895ZM187.911 25.5566V25.6971H188.335C188.642 25.6971 188.759 25.7131 188.761 25.7552C188.761 25.7872 188.767 26.2214 188.772 26.7201L188.783 27.6269L188.935 27.6414L189.087 27.6559L189.1 26.6881L189.113 25.7203L189.537 25.6971C189.951 25.6743 189.961 25.6712 189.961 25.5576V25.4413L188.936 25.4288L187.911 25.4162V25.5566ZM190.503 26.5341V27.6501H190.643H190.783L190.796 26.7085L190.809 25.7668L191.211 26.6968C191.573 27.5337 191.625 27.6283 191.733 27.6408C191.846 27.654 191.871 27.61 192.226 26.7691C192.431 26.282 192.615 25.8833 192.634 25.8832C192.653 25.8832 192.674 26.2755 192.681 26.755L192.694 27.6269L192.847 27.6414L193 27.656V26.537V25.4181H192.749H192.497L192.148 26.2396C191.956 26.6915 191.777 27.0682 191.751 27.0766C191.725 27.085 191.658 26.9821 191.601 26.8479C191.545 26.7137 191.398 26.3632 191.276 26.0691C191.154 25.775 191.033 25.5082 191.008 25.4762C190.982 25.4438 190.861 25.4181 190.732 25.4181H190.503V26.5341ZM22.4425 27.4292C22.43 27.4613 22.4254 28.3036 22.4321 29.301L22.4445 31.1145H30.0781H37.7118V29.2544V27.3944L30.0885 27.3826C24.007 27.3732 22.4606 27.3826 22.4425 27.4292ZM105.783 27.7468C106.966 27.9989 107.913 28.6721 108.559 29.7186C108.739 30.0104 109.077 30.7304 109.077 30.8224C109.077 30.8631 100.155 30.8734 100.113 30.8328C100.074 30.7936 100.327 30.1774 100.523 29.8357C101.096 28.8389 102.059 28.1001 103.167 27.8078C103.953 27.6004 104.983 27.5763 105.783 27.7468ZM144.564 27.7468C145.038 27.848 145.599 28.0735 145.997 28.3228C146.42 28.5886 147.057 29.2515 147.335 29.7159C147.555 30.0838 147.858 30.7215 147.858 30.8171C147.858 30.8617 138.939 30.8774 138.894 30.8328C138.854 30.7936 139.108 30.1774 139.304 29.8357C139.742 29.0726 140.357 28.4966 141.164 28.0934C142.055 27.6474 143.438 27.5065 144.564 27.7468ZM124.058 27.838C126.534 28.0888 128.243 29.9008 128.442 32.4871C128.717 36.0643 126.379 38.5249 122.969 38.2474C121.029 38.0897 119.486 36.9434 118.803 35.1534C118.527 34.4285 118.478 34.1139 118.478 33.0675C118.478 32.3068 118.496 32.0122 118.56 31.7345C119.07 29.518 120.691 28.057 122.884 27.8379C123.412 27.7852 123.536 27.7852 124.058 27.838ZM178.056 27.955C179.486 28.3117 180.604 29.2768 181.229 30.696C182.028 32.511 181.766 34.9132 180.604 36.4358C179.586 37.7685 178.105 38.3966 176.333 38.2474C174.338 38.0794 172.727 36.7744 172.15 34.8578C171.955 34.2129 171.913 33.8894 171.913 33.0443C171.913 32.1931 171.955 31.8771 172.156 31.2108C172.72 29.3383 174.262 28.0657 176.248 27.8347C176.762 27.775 177.542 27.8269 178.056 27.955Z" fill="black"/>
</svg>
