<svg width="250" height="51" viewBox="0 0 250 51" fill="none" xmlns="http://www.w3.org/2000/svg">
<g clip-path="url(#clip0_781_598)">
<path d="M69.2317 30.3369C69.4131 30.4813 69.6464 30.6852 69.9315 30.9315C70.2164 31.1779 70.5448 31.4243 70.9077 31.6706C71.4605 32.0274 72.0047 32.3078 72.5404 32.5116C73.076 32.7156 73.6461 32.8175 74.2336 32.8175C74.7865 32.8175 75.2444 32.758 75.6158 32.6306C75.9873 32.5116 76.2809 32.3503 76.4969 32.1464C76.713 31.9425 76.8684 31.7132 76.9549 31.4498C77.0498 31.1864 77.093 30.906 77.093 30.6087C77.093 30.2774 76.9635 29.9886 76.713 29.7252C76.4625 29.4618 76.1514 29.2325 75.7799 29.0371C75.4171 28.8332 75.0284 28.6633 74.6309 28.5188C74.2336 28.3745 73.888 28.2555 73.5942 28.1621C72.2985 27.7204 71.1755 27.2361 70.1993 26.7264C69.2317 26.2167 68.4196 25.6389 67.7804 25.0103C67.1324 24.3817 66.6486 23.6851 66.3291 22.929C66.0094 22.1729 65.8453 21.3319 65.8453 20.3973C65.8453 19.4119 66.044 18.5198 66.45 17.7129C66.8559 16.9058 67.4261 16.2176 68.1777 15.6484C68.9293 15.0793 69.8277 14.6376 70.8817 14.3232C71.9356 14.0088 73.1191 13.856 74.415 13.856C75.3912 13.856 76.3328 13.9665 77.2312 14.1788C78.1297 14.3997 79.0195 14.7394 79.892 15.2152C80.2549 15.4275 80.609 15.6484 80.9373 15.8779C81.2656 16.1073 81.5507 16.3281 81.8013 16.5405C82.0517 16.7529 82.2418 16.9568 82.3886 17.1436C82.5355 17.3305 82.6046 17.5005 82.6046 17.6364C82.6046 17.7724 82.57 17.8997 82.501 18.0186C82.4319 18.1376 82.3281 18.265 82.19 18.418L79.7192 21.009C79.5378 21.1874 79.3565 21.2809 79.1663 21.2809C79.0195 21.2809 78.8813 21.2384 78.7517 21.1534C78.6308 21.0685 78.4925 20.9665 78.3371 20.8392L78.1901 20.7117C77.9742 20.5333 77.7323 20.3464 77.4731 20.1594C77.2054 19.9726 76.9289 19.7942 76.6265 19.6413C76.3242 19.4883 76.0045 19.3609 75.6763 19.2589C75.3393 19.1571 75.0025 19.1061 74.6569 19.1061C74.3027 19.1061 73.9658 19.1316 73.6547 19.1911C73.3438 19.2504 73.0674 19.3439 72.8341 19.4713C72.6009 19.5988 72.4107 19.7687 72.2726 19.9726C72.1344 20.1764 72.0652 20.4313 72.0652 20.7287C72.0652 21.026 72.1429 21.2809 72.2898 21.5018C72.4367 21.7226 72.6699 21.918 72.9723 22.1049C73.2747 22.2919 73.6461 22.4617 74.0953 22.6316C74.5446 22.793 75.0628 22.9715 75.6503 23.1669C76.7906 23.5406 77.8446 23.923 78.8122 24.3307C79.7797 24.7384 80.609 25.2227 81.3089 25.7749C82.0086 26.3355 82.5527 26.9983 82.9502 27.7712C83.3389 28.5443 83.5376 29.4788 83.5376 30.5833C83.5376 31.7471 83.2957 32.8005 82.8119 33.752C82.3281 34.7034 81.663 35.5106 80.8164 36.1732C79.9698 36.8443 78.9763 37.354 77.836 37.7194C76.6957 38.0846 75.469 38.263 74.1558 38.263C72.9204 38.263 71.7023 38.0421 70.5015 37.6089C69.3094 37.1756 68.195 36.5894 67.1583 35.8588C66.7264 35.5531 66.3635 35.2472 66.0699 34.9498C65.7761 34.6524 65.5429 34.4146 65.3702 34.2362L65.3183 34.1852C65.3097 34.1683 65.2924 34.1513 65.2837 34.1428C65.2751 34.1343 65.2578 34.1258 65.2492 34.1173C65.2405 34.1003 65.2232 34.0833 65.2146 34.0748C65.2059 34.0663 65.1886 34.0578 65.18 34.0493C64.9295 33.786 64.8086 33.5736 64.8086 33.4122C64.8086 33.2337 64.9295 33.0299 65.18 32.809L67.9704 30.1839C68.195 30.0226 68.3764 29.9461 68.5232 29.9461C68.6183 29.9461 68.722 29.9801 68.8343 30.0396C68.9466 30.1161 69.0762 30.2094 69.2317 30.3369Z" fill="black"/>
<path d="M87.3993 15.1046C87.3993 14.8838 87.4596 14.7054 87.5807 14.5695C87.7015 14.4335 87.8744 14.374 88.1077 14.374H104.133C104.366 14.374 104.556 14.442 104.686 14.578C104.815 14.7139 104.876 14.9008 104.876 15.1301V19.055C104.876 19.2334 104.815 19.4033 104.686 19.5733C104.556 19.7346 104.366 19.8195 104.124 19.8195H94.293C93.9389 19.8195 93.6538 20.0999 93.6538 20.4483V23.1413C93.6538 23.4896 93.9389 23.7699 94.293 23.7699H101.731C101.938 23.7699 102.103 23.8209 102.241 23.9143C102.379 24.0078 102.439 24.1692 102.439 24.39V27.8222C102.439 27.9666 102.379 28.1111 102.258 28.2554C102.137 28.3913 101.964 28.4593 101.74 28.4593H94.2844C93.9303 28.4593 93.6452 28.7397 93.6452 29.0879V31.9085C93.6452 32.2567 93.9303 32.5371 94.2844 32.5371H104.504C104.988 32.5371 105.23 32.7835 105.23 33.2677V37.2605C105.23 37.3625 105.187 37.4643 105.1 37.5493C105.057 37.8467 104.832 37.9911 104.435 37.9911H88.099C87.8831 37.9911 87.7102 37.9316 87.5807 37.8212C87.451 37.7107 87.3906 37.5408 87.3906 37.303V15.1046H87.3993Z" fill="black"/>
<path d="M115.813 37.6258C115.692 37.4388 115.588 37.235 115.502 37.0396C115.407 36.8357 115.32 36.6319 115.234 36.4195L106.949 15.0876C106.949 15.0368 106.941 14.9858 106.923 14.9433C106.906 14.9008 106.897 14.8583 106.897 14.8159C106.897 14.5185 107.096 14.374 107.494 14.374H112.694C113.1 14.374 113.385 14.578 113.532 14.9773L117.869 27.7117C118.059 28.2724 118.871 28.2809 119.07 27.7202C119.294 27.0831 119.51 26.4545 119.726 25.8172C120.132 24.6109 120.53 23.4131 120.918 22.2067C121.316 21.0005 121.713 19.7941 122.11 18.5963C122.517 17.3985 122.94 16.1921 123.38 14.9858C123.527 14.5865 123.83 14.3825 124.27 14.3825H129.358C129.609 14.3825 129.782 14.425 129.885 14.5185C129.989 14.6119 130.041 14.7309 130.041 14.8753C130.041 14.9603 130.032 15.0198 130.024 15.0538V15.1046L121.687 36.4365C121.635 36.5809 121.566 36.7507 121.497 36.9291C121.419 37.1076 121.333 37.2775 121.238 37.4303C121.143 37.5833 121.031 37.7107 120.901 37.8212C120.772 37.9316 120.625 37.9826 120.46 37.9826H116.469C116.141 37.9656 115.925 37.8552 115.813 37.6258Z" fill="black"/>
<path d="M136.589 14.9946C136.597 14.9351 136.632 14.8586 136.693 14.7907C136.753 14.7142 136.822 14.6462 136.908 14.5867C136.995 14.5273 137.09 14.4763 137.185 14.4338C137.281 14.3998 137.375 14.3828 137.461 14.3828H141.6C141.781 14.3828 141.936 14.4338 142.066 14.5528C142.195 14.6632 142.291 14.7652 142.36 14.8501L142.766 15.7592L151.249 37.2693C151.335 37.4816 151.318 37.6515 151.197 37.7875C151.076 37.9234 150.878 37.9829 150.584 37.9829H145.945C145.694 37.9829 145.504 37.9404 145.375 37.847C145.237 37.7535 145.133 37.6091 145.064 37.3966C144.848 36.853 144.641 36.3178 144.433 35.7825C144.278 35.3833 144.13 34.9841 143.975 34.5762C143.88 34.3298 143.648 34.1685 143.379 34.1685H135.682C135.414 34.1685 135.181 34.3298 135.086 34.5762C134.931 34.9841 134.775 35.3833 134.62 35.7825C134.412 36.3178 134.205 36.853 133.997 37.3966C133.859 37.7875 133.582 37.9829 133.177 37.9829H128.408C128.201 37.9829 128.037 37.9319 127.898 37.8215C127.76 37.7195 127.743 37.5581 127.829 37.3458L136.589 14.9946ZM140.122 23.5238C139.932 22.9546 139.112 22.9546 138.921 23.5238C138.921 23.5323 138.921 23.5323 138.914 23.5408C138.706 24.1694 138.499 24.7981 138.291 25.4268C138.084 26.0639 137.876 26.6926 137.669 27.3128C137.565 27.6271 137.453 27.9329 137.35 28.2217C137.202 28.6295 137.513 29.0543 137.945 29.0543H141.116C141.548 29.0543 141.859 28.638 141.721 28.2302L140.122 23.5238Z" fill="black"/>
<path d="M154.048 33.3865C154.048 33.1742 154.109 33.0043 154.23 32.8768C154.351 32.7494 154.523 32.6899 154.765 32.6899H159.041C159.224 32.6899 159.395 32.7579 159.551 32.8768C159.706 33.0043 159.785 33.1742 159.785 33.3865V37.2265C159.785 37.4133 159.724 37.5832 159.595 37.7362C159.474 37.8891 159.283 37.9571 159.033 37.9571H154.757C154.282 37.9571 154.04 37.7107 154.04 37.2265V33.3865H154.048Z" fill="black"/>
<path d="M163.758 15.0535C163.758 14.8667 163.819 14.6968 163.948 14.5608C164.078 14.4249 164.259 14.3569 164.484 14.3569H169.261C169.443 14.3569 169.606 14.4164 169.762 14.5438C169.91 14.6713 169.996 14.8412 170.004 15.0535V31.7129C170.004 32.0611 170.289 32.3415 170.644 32.3415H178.894C179.084 32.3415 179.257 32.401 179.395 32.5285C179.533 32.6559 179.602 32.8342 179.602 33.0551V37.2349C179.602 37.4132 179.541 37.5831 179.412 37.7276C179.291 37.8805 179.109 37.957 178.884 37.9655H165.097C164.354 37.9655 163.75 37.3707 163.75 36.6401V15.0535H163.758Z" fill="black"/>
<path d="M181.545 26.1912C181.545 25.0697 181.693 23.9909 181.977 22.9544C182.271 21.9181 182.686 20.9496 183.222 20.049C183.756 19.14 184.405 18.3245 185.157 17.5769C185.908 16.8378 186.738 16.2007 187.653 15.6825C188.569 15.1557 189.553 14.748 190.607 14.4591C191.662 14.1702 192.759 14.0259 193.899 14.0259C195.03 14.0259 196.127 14.1702 197.182 14.4591C198.235 14.748 199.22 15.1557 200.137 15.6825C201.052 16.2092 201.889 16.8378 202.641 17.5769C203.393 18.316 204.041 19.14 204.577 20.049C205.111 20.9581 205.526 21.9266 205.82 22.9544C206.114 23.9909 206.26 25.0612 206.26 26.1912C206.26 27.3126 206.114 28.3914 205.82 29.4279C205.526 30.4644 205.111 31.4243 204.577 32.3163C204.041 33.2083 203.401 34.0239 202.641 34.763C201.889 35.502 201.052 36.1307 200.137 36.6575C199.22 37.1841 198.235 37.5919 197.182 37.8807C196.127 38.1695 195.03 38.3055 193.899 38.3055C192.759 38.3055 191.662 38.161 190.607 37.8807C189.553 37.5919 188.577 37.1841 187.653 36.6575C186.738 36.1307 185.908 35.4935 185.157 34.763C184.405 34.0239 183.766 33.2083 183.222 32.3163C182.686 31.4243 182.271 30.4559 181.977 29.4279C181.693 28.3914 181.545 27.3126 181.545 26.1912ZM187.791 26.1742C187.791 27.0492 187.939 27.8733 188.24 28.6378C188.542 29.4024 188.966 30.065 189.51 30.6342C190.054 31.2035 190.694 31.6452 191.437 31.9679C192.179 32.2908 193 32.4522 193.891 32.4522C194.78 32.4522 195.601 32.2908 196.352 31.9679C197.103 31.6452 197.743 31.2035 198.287 30.6342C198.832 30.065 199.255 29.4024 199.557 28.6378C199.86 27.8733 200.006 27.0577 200.006 26.1742C200.006 25.3076 199.86 24.4836 199.557 23.719C199.255 22.9544 198.832 22.2833 198.287 21.7141C197.743 21.145 197.095 20.6947 196.352 20.3633C195.601 20.0321 194.788 19.8706 193.891 19.8706C193 19.8706 192.179 20.0321 191.437 20.3633C190.694 20.6947 190.054 21.145 189.51 21.7141C188.966 22.2833 188.542 22.9544 188.24 23.719C187.947 24.4921 187.791 25.3076 187.791 26.1742Z" fill="black"/>
<path d="M215.029 37.6258C214.908 37.4388 214.804 37.235 214.718 37.0396C214.624 36.8357 214.537 36.6319 214.451 36.4195L206.166 15.0876C206.166 15.0368 206.158 14.9858 206.141 14.9433C206.124 14.9008 206.114 14.8583 206.114 14.8159C206.114 14.5185 206.312 14.374 206.71 14.374H211.911C212.316 14.374 212.602 14.578 212.749 14.9773L217.086 27.7117C217.275 28.2724 218.088 28.2809 218.287 27.7202C218.511 27.0831 218.727 26.4545 218.943 25.8172C219.35 24.6109 219.746 23.4131 220.136 22.2067C220.524 21.0005 220.929 19.7941 221.327 18.5963C221.734 17.3985 222.157 16.1921 222.597 14.9858C222.745 14.5865 223.046 14.3825 223.487 14.3825H228.576C228.826 14.3825 228.999 14.425 229.102 14.5185C229.206 14.6119 229.258 14.7309 229.258 14.8753C229.258 14.9603 229.249 15.0198 229.241 15.0538V15.1046L220.904 36.4365C220.852 36.5809 220.783 36.7507 220.714 36.9291C220.637 37.1076 220.55 37.2775 220.455 37.4303C220.36 37.5833 220.247 37.7107 220.118 37.8212C219.988 37.9316 219.842 37.9826 219.686 37.9826H215.695C215.358 37.9656 215.133 37.8552 215.029 37.6258Z" fill="black"/>
<path d="M232.169 15.1046C232.169 14.8838 232.23 14.7054 232.351 14.5695C232.472 14.4335 232.653 14.374 232.878 14.374H248.903C249.136 14.374 249.326 14.442 249.456 14.578C249.585 14.7139 249.646 14.9008 249.646 15.1301V19.055C249.646 19.2334 249.585 19.4033 249.456 19.5733C249.326 19.7346 249.136 19.8195 248.895 19.8195H239.064C238.709 19.8195 238.424 20.0999 238.424 20.4483V23.1413C238.424 23.4896 238.709 23.7699 239.064 23.7699H246.502C246.709 23.7699 246.873 23.8209 247.011 23.9143C247.149 24.0078 247.21 24.1692 247.21 24.39V27.8222C247.21 27.9666 247.149 28.1111 247.028 28.2554C246.907 28.3913 246.734 28.4593 246.511 28.4593H239.055C238.701 28.4593 238.415 28.7397 238.415 29.0879V31.9085C238.415 32.2567 238.701 32.5371 239.055 32.5371H249.274C249.758 32.5371 250 32.7835 250 33.2677V37.2605C250 37.3625 249.958 37.4643 249.871 37.5493C249.827 37.8467 249.603 37.9911 249.205 37.9911H232.87C232.653 37.9911 232.48 37.9316 232.351 37.8212C232.221 37.7107 232.161 37.5408 232.161 37.303V15.1046H232.169Z" fill="black"/>
<path d="M25.6747 0C11.4897 0 0 11.2988 0 25.2396C0 39.1804 11.4897 50.4791 25.6747 50.4791C39.8597 50.4791 51.3407 39.1804 51.3407 25.2396C51.3407 11.2988 39.8511 0 25.6747 0ZM30.7803 11.6981C31.1863 11.2988 31.6787 11.0949 32.2488 11.0949C32.819 11.0949 33.3028 11.2988 33.7174 11.6981C34.1149 12.1058 34.3136 12.5901 34.3136 13.1423C34.3136 13.6944 34.1149 14.1702 33.7174 14.5865C33.3114 14.9858 32.819 15.1896 32.2488 15.1896C31.6787 15.1896 31.1949 14.9858 30.7803 14.5865C30.3742 14.1872 30.1669 13.7029 30.1669 13.1423C30.1669 12.5731 30.3742 12.0973 30.7803 11.6981ZM20.8629 38.7897C20.4568 39.1889 19.9644 39.3928 19.3943 39.3928C18.8241 39.3928 18.3403 39.1889 17.9257 38.7897C17.5195 38.3903 17.3122 37.9061 17.3122 37.3455C17.3122 36.7847 17.5195 36.309 17.9257 35.9013C18.3316 35.5019 18.8241 35.298 19.3943 35.298C19.9644 35.298 20.4481 35.5019 20.8629 35.9013C21.2602 36.309 21.4589 36.7932 21.4589 37.3455C21.4676 37.9061 21.2689 38.3818 20.8629 38.7897ZM38.6416 35.8928C37.2508 37.9486 35.2379 39.1889 32.7412 39.3248C29.8818 39.4693 27.0051 39.3588 24.0419 39.3588C24.0419 36.1816 24.0419 33.0468 24.0419 29.8015C25.0872 29.8015 26.1499 29.8015 27.3593 29.8015C27.3593 31.815 27.3593 33.8368 27.3593 35.9183C29.3375 35.9183 31.2036 36.1136 33.009 35.8673C35.2898 35.5614 36.8189 33.2762 36.5942 30.9909C36.3782 28.7907 34.469 26.9726 32.1798 26.9472C27.869 26.8962 23.5581 26.9556 19.256 26.9132C15.2044 26.8707 11.9562 24.0078 11.3428 20.015C10.7727 16.328 13.2002 12.6156 16.9754 11.4517C17.5368 11.2818 18.133 11.1204 18.7118 11.1204C21.5367 11.0864 24.3616 11.1034 27.3074 11.1034C27.3074 14.374 27.3074 17.5173 27.3074 20.7201C26.1931 20.7201 25.1564 20.7201 23.9729 20.7201C23.9729 18.6642 23.9729 16.6508 23.9729 14.5525C21.9945 14.5525 20.1286 14.3657 18.323 14.6034C16.0424 14.9008 14.5219 17.1691 14.7379 19.4798C14.9366 21.7141 16.889 23.5151 19.2733 23.5406C23.4977 23.5831 27.7221 23.5066 31.9465 23.5661C35.1601 23.6086 37.6481 25.0358 39.134 27.8647C40.5594 30.5916 40.3694 33.3272 38.6416 35.8928Z" fill="black"/>
</g>
<defs>
<clipPath id="clip0_781_598">
<rect width="250" height="51" fill="white"/>
</clipPath>
</defs>
</svg>
