<svg width="264" height="78" viewBox="0 0 264 78" fill="none" xmlns="http://www.w3.org/2000/svg">
<path fill-rule="evenodd" clip-rule="evenodd" d="M89.1072 48.1791C88.8403 47.9456 88.5067 47.6788 88.907 47.0451C89.0738 46.845 89.2406 46.6115 89.4074 46.4114C89.741 45.9778 90.108 45.711 90.575 46.1112C90.8085 46.3113 93.2438 48.646 96.2128 48.646C98.9149 48.646 100.683 46.945 100.683 44.9772C100.683 42.6759 98.6814 41.3084 94.845 39.7075C91.1755 38.1066 88.9737 36.6057 88.9737 32.8035C88.9737 30.5355 90.7751 26.8667 96.0793 26.8667C99.3486 26.8667 101.784 28.5677 101.784 28.5677C101.984 28.6678 102.384 29.068 101.984 29.7017C101.851 29.9018 101.717 30.1353 101.584 30.3354C101.283 30.8024 100.95 30.9358 100.416 30.6356C100.183 30.5022 98.0809 29.1014 96.046 29.1014C92.5098 29.1014 91.4423 31.3693 91.4423 32.7702C91.4423 35.0048 93.1437 36.3055 95.9459 37.4729C100.449 39.3073 103.352 41.0083 103.352 44.8772C103.352 48.3458 100.049 50.8806 96.146 50.8806C92.2096 50.8806 89.5408 48.5793 89.1072 48.1791ZM108.168 49.9134V27.467C108.168 27.1335 108.469 26.8667 108.804 26.8667H109.642L124.747 45.6109H124.814V27.8339C124.814 27.5004 125.081 27.2002 125.45 27.2002H126.622C126.957 27.2002 127.258 27.5004 127.258 27.8339V50.2802C127.258 50.6138 126.957 50.8806 126.622 50.8806H126.019L110.646 31.7695H110.613V49.9134C110.613 50.2469 110.345 50.5471 109.977 50.5471H108.804C108.469 50.5471 108.168 50.2469 108.168 49.9134ZM132.075 38.907C132.075 32.2365 137.402 26.8667 144.101 26.8667C150.801 26.8667 156.161 32.2365 156.161 38.907C156.161 45.5776 150.801 50.8806 144.101 50.8806C137.402 50.8806 132.075 45.5776 132.075 38.907ZM134.573 38.8174C134.573 44.0839 138.9 48.3899 144.191 48.3899C149.482 48.3899 153.842 44.0839 153.842 38.8174C153.842 33.5509 149.482 29.1788 144.191 29.1788C138.9 29.1788 134.573 33.5509 134.573 38.8174ZM165.349 50.4137L159.052 28.0007C158.919 27.5338 159.185 27.2003 159.652 27.2003H161.051C161.317 27.2003 161.584 27.4337 161.651 27.6672L166.281 44.9439H166.415L171.979 27.2336C172.045 27.0335 172.245 26.8667 172.545 26.8667H173.145C173.411 26.8667 173.644 27.0335 173.711 27.2336L179.375 44.9439H179.508L184.039 27.6672C184.106 27.4337 184.372 27.2003 184.639 27.2003H186.038C186.504 27.2003 186.771 27.5338 186.638 28.0007L180.341 50.4137C180.274 50.6805 180.008 50.8806 179.741 50.8806H179.208C178.975 50.8806 178.742 50.7139 178.642 50.5138L172.878 32.47H172.711L167.048 50.5138C166.948 50.7139 166.715 50.8806 166.481 50.8806H165.948C165.682 50.8806 165.415 50.6805 165.349 50.4137ZM191.132 50.0656V27.86C191.132 27.5246 191.396 27.2227 191.759 27.2227H198.985C203.011 27.2227 205.75 29.8726 205.75 33.3946C205.75 35.9775 204.067 37.8559 202.516 38.7616C204.265 39.4995 206.476 41.1431 206.476 44.2291C206.476 47.9859 203.539 50.7029 199.282 50.7029H191.759C191.396 50.7029 191.132 50.4011 191.132 50.0656ZM193.63 37.7172H199.076C201.649 37.7172 203.086 35.8803 203.086 33.5424C203.086 31.1378 201.649 29.5347 199.076 29.5347H193.63V37.7172ZM193.45 48.3888H199.46C201.87 48.3888 203.62 46.5495 203.62 44.1417C203.62 41.7673 201.474 40.0284 198.898 40.0284H193.45V48.3888ZM209.249 50.5248C208.75 50.5248 208.483 50.0917 208.683 49.6585L218.801 27.2332C218.901 27.0333 219.067 26.8667 219.366 26.8667H219.699C219.999 26.8667 220.165 27.0333 220.265 27.2332L230.316 49.6585C230.516 50.0917 230.25 50.5248 229.75 50.5248H228.419C228.12 50.5248 227.92 50.3249 227.853 50.1583L225.391 44.6603H213.575L211.146 50.1583C211.079 50.3249 210.88 50.5248 210.58 50.5248H209.249ZM214.504 42.6985H224.495C222.863 39.0926 221.264 35.4536 219.633 31.8477H219.366L214.504 42.6985ZM234.129 50.0658V27.8602C234.129 27.5248 234.393 27.2229 234.756 27.2229H236.042C236.372 27.2229 236.669 27.5248 236.669 27.8602V48.4557H246.17C246.533 48.4557 246.796 48.7576 246.796 49.093V50.0658C246.796 50.4012 246.533 50.7031 246.17 50.7031H234.756C234.393 50.7031 234.129 50.4012 234.129 50.0658ZM250.187 50.0658V27.8602C250.187 27.5248 250.451 27.2229 250.813 27.2229H252.1C252.43 27.2229 252.727 27.5248 252.727 27.8602V48.4557H262.227C262.59 48.4557 262.854 48.7576 262.854 49.093V50.0658C262.854 50.4012 262.59 50.7031 262.227 50.7031H250.813C250.451 50.7031 250.187 50.4012 250.187 50.0658Z" fill="black"/>
<g clip-path="url(#clip0_781_610)">
<path opacity="0.2" fill-rule="evenodd" clip-rule="evenodd" d="M38.9507 77.5664C60.2236 77.5664 77.4687 60.2996 77.4687 38.9998C77.4687 17.7 60.2236 0.433105 38.9507 0.433105C17.6777 0.433105 0.432617 17.7 0.432617 38.9998C0.432617 60.2996 17.6777 77.5664 38.9507 77.5664Z" fill="url(#paint0_linear_781_610)"/>
<path opacity="0.3" fill-rule="evenodd" clip-rule="evenodd" d="M38.9502 69.8532C55.9685 69.8532 69.7646 56.0397 69.7646 38.9998C69.7646 21.96 55.9685 8.14648 38.9502 8.14648C21.9318 8.14648 8.13574 21.96 8.13574 38.9998C8.13574 56.0397 21.9318 69.8532 38.9502 69.8532Z" fill="url(#paint1_linear_781_610)"/>
<path fill-rule="evenodd" clip-rule="evenodd" d="M38.9507 62.1399C51.7144 62.1399 62.0615 51.7797 62.0615 38.9999C62.0615 26.22 51.7144 15.8599 38.9507 15.8599C26.1869 15.8599 15.8398 26.22 15.8398 38.9999C15.8398 51.7797 26.1869 62.1399 38.9507 62.1399Z" fill="url(#paint2_linear_781_610)"/>
<path fill-rule="evenodd" clip-rule="evenodd" d="M38.9512 54.4266C47.4603 54.4266 54.3584 47.5198 54.3584 38.9999C54.3584 30.48 47.4603 23.5732 38.9512 23.5732C30.442 23.5732 23.5439 30.48 23.5439 38.9999C23.5439 47.5198 30.442 54.4266 38.9512 54.4266Z" fill="white"/>
</g>
<defs>
<linearGradient id="paint0_linear_781_610" x1="0.432617" y1="0.433105" x2="0.432617" y2="77.5664" gradientUnits="userSpaceOnUse">
<stop stop-color="#878787"/>
<stop offset="1"/>
</linearGradient>
<linearGradient id="paint1_linear_781_610" x1="8.13574" y1="8.14648" x2="8.13574" y2="69.8532" gradientUnits="userSpaceOnUse">
<stop stop-color="#878787"/>
<stop offset="1"/>
</linearGradient>
<linearGradient id="paint2_linear_781_610" x1="15.8398" y1="15.8599" x2="15.8398" y2="62.1399" gradientUnits="userSpaceOnUse">
<stop offset="0.00659321" stop-color="#989898"/>
<stop offset="0.974034" stop-color="#323232"/>
</linearGradient>
<clipPath id="clip0_781_610">
<rect width="77.0361" height="77.1333" fill="white" transform="translate(0.432617 0.433105)"/>
</clipPath>
</defs>
</svg>
