<svg width="20" height="20" viewBox="0 0 20 20" fill="none" xmlns="http://www.w3.org/2000/svg">
<path d="M17.9998 11.3333H11.3332V18C11.3332 18.7333 10.7332 19.3333 9.99984 19.3333C9.2665 19.3333 8.6665 18.7333 8.6665 18V11.3333H1.99984C1.2665 11.3333 0.666504 10.7333 0.666504 9.99996C0.666504 9.26663 1.2665 8.66663 1.99984 8.66663H8.6665V1.99996C8.6665 1.26663 9.2665 0.666626 9.99984 0.666626C10.7332 0.666626 11.3332 1.26663 11.3332 1.99996V8.66663H17.9998C18.7332 8.66663 19.3332 9.26663 19.3332 9.99996C19.3332 10.7333 18.7332 11.3333 17.9998 11.3333Z" fill="#2E2B2C"/>
</svg>
