<svg width="100" height="100" viewBox="0 0 100 100" fill="none" xmlns="http://www.w3.org/2000/svg">
<path fill-rule="evenodd" clip-rule="evenodd" d="M48.1151 10.2208C44.3825 11.1257 41.749 14.452 41.7431 18.2693C41.7386 21.1621 43.2388 23.8592 45.7327 25.4416C48.167 26.9862 51.886 26.9862 54.3204 25.4416C59.252 22.3125 59.6942 15.3698 55.1876 11.8257C53.1565 10.2282 50.5368 9.63383 48.1151 10.2208ZM51.5898 13.6081C54.6608 14.5591 55.9474 18.2704 54.1606 21.0242C53.227 22.4631 51.7469 23.2655 50.0265 23.2655C48.3062 23.2655 46.8261 22.4631 45.8925 21.0242C44.5981 19.0294 44.844 16.4473 46.4792 14.8606C47.9361 13.4469 49.685 13.0185 51.5898 13.6081ZM42.8518 30.2292C40.0657 30.8337 37.4079 32.9101 36.1449 35.469C35.3542 37.0707 35.0256 38.4978 35.0218 40.3442L35.0192 41.712H32.2264C28.2282 41.712 28.2993 41.6224 28.2981 46.6558C28.2976 48.3862 28.3426 50.0394 28.3985 50.3295C28.4788 50.748 29.1713 51.5357 31.7492 54.14L34.9986 57.4228L35.048 59.8981L35.0974 62.3735L35.6079 62.8292C36.3278 63.472 37.1626 63.4625 37.821 62.8041L38.302 62.323V55.8355V49.3479L37.8451 48.891C36.9986 48.0445 35.5649 48.3221 35.1872 49.4056C35.0949 49.6708 35.0192 50.4915 35.0192 51.2293V52.5711L33.3778 50.9353L31.7363 49.2995V47.1472V44.9949H50.0265H68.3167V47.1472V49.2995L66.6753 50.9353L65.0339 52.5711V51.2293C65.0339 50.4915 64.9582 49.6708 64.8658 49.4056C64.4881 48.3221 63.0545 48.0445 62.208 48.891L61.751 49.3479V55.8355V62.323L62.232 62.8041C62.8905 63.4625 63.7253 63.472 64.4451 62.8292L64.9557 62.3735L65.0051 59.8981L65.0545 57.4228L68.3039 54.14C70.8817 51.5357 71.5743 50.748 71.6546 50.3295C71.818 49.4782 71.769 43.5632 71.5933 42.9306C71.5048 42.6122 71.2496 42.2077 71.026 42.0317C70.6508 41.7367 70.4035 41.712 67.8266 41.712H65.0339L65.0312 40.3442C65.0275 38.4978 64.6989 37.0707 63.9082 35.469C62.6286 32.8766 59.9795 30.8264 57.1294 30.2227C55.6147 29.9017 44.3373 29.907 42.8518 30.2292ZM55.9366 33.4192C59.4841 33.9323 61.9936 37.21 61.7207 40.974L61.6729 41.6339H50.0265H38.3802L38.3324 40.974C38.2512 39.8553 38.5686 38.1522 39.0498 37.124C39.9238 35.2562 41.9695 33.7214 43.9756 33.4283C45.146 33.2573 54.7663 33.2501 55.9366 33.4192ZM42.8844 48.45C42.6104 48.5294 42.2412 48.7788 42.0637 49.0042C41.7625 49.3872 41.7412 49.6192 41.7412 52.5317V55.6492L42.1982 56.1061C43.0447 56.9526 44.4783 56.675 44.856 55.5915C44.9484 55.3263 45.0241 54.3462 45.0241 53.4132V51.7169H50.0265H55.029V53.4132C55.029 54.3462 55.1046 55.3263 55.197 55.5915C55.5747 56.675 57.0084 56.9526 57.8549 56.1061L58.3118 55.6492V52.5317C58.3118 49.6278 58.2899 49.3864 57.9921 49.0076C57.8161 48.7841 57.4117 48.5288 57.0933 48.4403C56.3649 48.238 43.5868 48.2468 42.8844 48.45ZM21.7314 60.238C16.7653 61.4492 15.0405 67.7136 18.6729 71.346C21.3519 74.0252 25.5371 73.9536 28.1913 71.1832C30.5842 68.6855 30.5547 64.6795 28.1243 62.1097C26.4828 60.3741 24.0698 59.6677 21.7314 60.238ZM48.6266 60.1729C46.0812 60.6719 43.8383 63.0923 43.4693 65.7385C43.3439 66.6381 43.4575 67.9084 43.7486 68.8594C44.2081 70.3603 45.6594 71.9205 47.3341 72.7139C48.3079 73.1752 48.5058 73.2118 50.0265 73.2118C51.5473 73.2118 51.7452 73.1752 52.7189 72.7139C56.1889 71.0701 57.5904 67.2523 55.984 63.8197C54.6954 61.0659 51.6845 59.5736 48.6266 60.1729ZM75.3514 60.1739C71.9671 60.8348 69.5547 64.3861 70.1773 67.7907C71.1501 73.1097 77.5769 75.1493 81.3801 71.346C82.6994 70.0268 83.3195 68.5217 83.3223 66.6316C83.3288 62.468 79.4977 59.3641 75.3514 60.1739ZM24.824 63.7147C25.5833 64.0642 26.377 65.0755 26.5594 65.9259C26.9044 67.5348 26.1558 68.9982 24.6235 69.7098C23.7792 70.102 22.905 70.0779 21.9659 69.6369C21.0467 69.2052 20.7655 68.9178 20.3365 67.9721C19.5072 66.1437 20.518 64.0317 22.4738 63.5063C23.2908 63.2868 24.0387 63.3532 24.824 63.7147ZM51.6611 63.8089C53.5787 64.851 53.8697 67.6339 52.217 69.127C49.9688 71.1581 46.5229 69.3879 46.7763 66.332C46.9736 63.9534 49.5132 62.6416 51.6611 63.8089ZM78.0871 63.6739C79.1325 64.1036 80.0343 65.4802 80.0343 66.6461C80.0343 67.3019 79.5844 68.4635 79.1337 68.9713C78.7203 69.437 77.3704 70.0043 76.6802 70.0021C75.652 69.999 74.4819 69.3299 73.8741 68.3977C73.4788 67.7915 73.3218 66.7274 73.503 65.8826C73.6312 65.2845 73.8372 64.9407 74.4113 64.3667C75.4533 63.3246 76.6766 63.094 78.0871 63.6739ZM16.26 76.9522C13.2146 77.7967 10.9618 80.1238 10.2446 83.166C9.91879 84.5484 9.91832 88.4541 10.2441 89.0841C10.7472 90.0568 10.3673 90.0275 21.8992 89.9811L32.3874 89.9387L32.8434 89.4282C33.4861 88.7089 33.477 87.8735 32.8198 87.2163L32.3401 86.7364L22.854 86.6962L13.368 86.6559L13.3827 85.4017C13.3913 84.6668 13.5101 83.8084 13.6694 83.3285C14.0305 82.2417 15.212 80.9523 16.296 80.4625C17.1197 80.0902 17.1204 80.0902 23.3729 80.0902C30.3627 80.0902 30.0239 80.0425 31.6247 81.251C32.2813 81.7468 32.6036 81.8871 33.0793 81.8845C34.0303 81.879 34.7065 81.1724 34.7065 80.1841C34.7065 79.2194 32.9637 77.8156 30.9101 77.1262L29.7271 76.7291L23.3454 76.7431C18.7641 76.7532 16.7649 76.8122 16.26 76.9522ZM42.853 76.9763C40.074 77.7235 37.7061 80.1153 36.9781 82.9106C36.8107 83.5536 36.7388 84.5935 36.7388 86.3736V88.9176L37.1949 89.4282L37.6511 89.9387H50.0265H62.402L62.8581 89.4282L63.3143 88.9176V86.3736C63.3143 84.5935 63.2424 83.5536 63.0749 82.9106C62.3377 80.08 59.9634 77.7057 57.1328 76.9685C55.8264 76.6282 44.1236 76.6346 42.853 76.9763ZM69.114 77.1278C67.0721 77.8291 65.3465 79.2288 65.3465 80.1841C65.3465 81.1637 66.0231 81.879 66.9547 81.8845C67.4149 81.8871 67.7919 81.7157 68.6475 81.1147C69.3848 80.5971 70.0224 80.2848 70.5775 80.1696C71.1195 80.057 73.4019 80.0136 77.1698 80.0439C82.8579 80.0895 82.944 80.095 83.7571 80.4625C84.8411 80.9523 86.0226 82.2417 86.3837 83.3285C86.543 83.8084 86.6618 84.6668 86.6704 85.4017L86.6851 86.6559L77.199 86.6962L67.713 86.7364L67.2332 87.2163C66.576 87.8735 66.567 88.7089 67.2096 89.4282L67.6656 89.9387L78.1539 89.9811C89.7255 90.0277 89.3037 90.0613 89.8243 89.0544C90.2289 88.2721 90.0746 83.7365 89.5965 82.3569C88.7694 79.9701 86.8971 78.0682 84.4727 77.1526C83.5887 76.8187 83.3391 76.8061 76.9147 76.769L70.2708 76.7306L69.114 77.1278ZM57.0747 80.4997C58.9626 81.385 59.8965 82.9119 60.0036 85.288L60.0688 86.734H50.0451H40.0216V85.59C40.0216 82.9202 41.2211 81.0997 43.5077 80.2995C44.2468 80.0408 44.8595 80.0184 50.261 80.0527L56.2014 80.0902L57.0747 80.4997Z" fill="#050000"/>
</svg>
