<svg width="100" height="100" viewBox="0 0 100 100" fill="none" xmlns="http://www.w3.org/2000/svg">
<path fill-rule="evenodd" clip-rule="evenodd" d="M43.4548 15.1223C41.9505 15.5018 40.5499 16.6774 39.8675 18.1334C39.464 18.9942 39.4604 19.0324 39.3849 23.3093L39.3088 27.6181L38.4474 27.9679C37.0655 28.5292 36.2215 29.0893 34.9864 30.2649L33.8282 31.3671L31.4685 31.6984C28.7855 32.0751 26.0005 32.5561 25.2405 32.7741C24.7491 32.915 24.6842 32.8835 23.8214 32.0847C21.4522 29.8913 18.2247 29.3594 15.4092 30.6983C13.5443 31.5852 5.83422 36.1384 5.3807 36.6205C5.00757 37.0172 4.95672 37.1714 5.02675 37.6936C5.07166 38.0288 5.23364 38.423 5.38649 38.5691C5.53933 38.7154 7.8544 40.1113 10.531 41.6711C15.8539 44.7729 16.6409 45.1105 18.5448 45.1074C20.412 45.1044 21.7421 44.6358 23.324 43.4234L24.342 42.6431L26.2687 43.0323C27.3284 43.2462 29.1888 43.5633 30.4029 43.7368C33.5094 44.1807 33.3913 44.1444 33.7801 44.7775C33.9692 45.0856 35.6709 46.9132 37.5615 48.8391C42.1589 53.5219 42.2711 53.7326 42.39 57.9116L42.4663 60.5902L41.3761 60.6816C39.3474 60.8516 37.6587 62.0111 36.8271 63.8046C36.4937 64.5237 36.4243 64.8931 36.4207 65.9685C36.4167 67.1319 36.4677 67.3698 36.9174 68.2837C37.4023 69.269 38.281 70.2158 39.0423 70.5732L39.3849 70.734V77.3295V83.9249L39.8291 84.4221L40.2733 84.9193L56.0377 84.9595L71.802 84.9995L72.3015 84.5533L72.801 84.1071L72.8436 77.4186L72.8862 70.7299L73.2242 70.5711C73.9812 70.2156 74.8607 69.2669 75.3445 68.2837C75.7942 67.3698 75.8452 67.1319 75.8413 65.9685C75.8376 64.8931 75.7682 64.5237 75.4348 63.8046C74.6034 62.0115 72.9144 60.8516 70.8873 60.6817L69.7987 60.5904L69.8716 57.4551C69.9546 53.883 70.0477 53.4243 71.3313 50.2664C72.1762 48.1878 72.6504 46.4103 72.8087 44.7274L72.9092 43.6605L74.4535 43.3016C77.851 42.5121 80.2989 41.4711 81.5954 40.2644C83.7188 38.2884 83.2558 36.1763 80.3367 34.5224C79.1786 33.8664 77.0612 33.0703 75.2795 32.6215C74.5862 32.4469 73.7675 32.2382 73.4604 32.1578L72.9019 32.0118L72.8515 28.5508C72.8022 25.1695 72.7917 25.0701 72.3945 24.2229C71.1178 21.4992 68.0081 20.3684 65.1824 21.5998C65.095 21.6379 64.8794 21.377 64.7035 21.02C63.5787 18.739 60.8736 17.5114 58.5558 18.2298C58.1014 18.3706 57.6579 18.517 57.5705 18.5551C57.4831 18.5932 57.2676 18.3322 57.0916 17.9752C56.5604 16.8981 55.7403 16.0835 54.6435 15.5435C53.7465 15.1019 53.4804 15.0427 52.4044 15.0448C50.9899 15.0477 50.34 15.2412 49.2695 15.9776L48.4976 16.5084L47.973 16.1082C46.7729 15.1929 44.8439 14.772 43.4548 15.1223ZM45.7828 18.3175C46.1696 18.5148 46.493 18.8381 46.6903 19.2249C46.9722 19.7777 46.9967 20.118 46.9967 23.4855V27.1452H44.7132H42.4296V23.4855C42.4296 20.1195 42.4541 19.7776 42.7358 19.2256C43.2984 18.1227 44.6258 17.7272 45.7828 18.3175ZM53.3947 18.3175C53.7815 18.5148 54.1048 18.8381 54.3021 19.2249C54.5862 19.7817 54.6086 20.1174 54.6086 23.8062C54.6086 27.5391 54.592 27.7796 54.3422 27.6729C53.5719 27.3439 52.4277 27.1452 51.3023 27.1452H50.0415V23.4855C50.0415 20.1195 50.066 19.7776 50.3476 19.2256C50.9103 18.1227 52.2377 17.7272 53.3947 18.3175ZM61.0065 21.3622C61.3934 21.5595 61.7167 21.8829 61.914 22.2697C62.1996 22.8296 62.2205 23.1613 62.2205 27.1452C62.2205 31.1291 62.1996 31.4609 61.914 32.0208C61.5693 32.6963 60.6923 33.2347 59.9369 33.2347C59.1815 33.2347 58.3045 32.6963 57.9598 32.0208C57.6742 31.4609 57.6533 31.1291 57.6533 27.1452C57.6533 23.163 57.6744 22.8293 57.9595 22.2703C58.5222 21.1675 59.8495 20.772 61.0065 21.3622ZM68.6184 24.4069C69.0052 24.6042 69.3286 24.9276 69.5259 25.3144C69.8067 25.8652 69.8323 26.2078 69.8323 29.4288C69.8323 32.6498 69.8067 32.9924 69.5259 33.5432C69.1812 34.2186 68.3042 34.7571 67.5488 34.7571C66.7934 34.7571 65.9163 34.2186 65.5717 33.5432C65.2908 32.9924 65.2652 32.6498 65.2652 29.4288C65.2652 26.2093 65.2908 25.8649 65.5714 25.315C66.134 24.2122 67.4614 23.8167 68.6184 24.4069ZM53.1919 30.5759C54.3326 31.1444 54.83 31.9529 54.8339 33.2458C54.8374 34.4114 54.4748 35.0922 53.4802 35.7871L52.8847 36.2034L47.5168 36.2795L42.149 36.3556L41.7643 36.7173C40.989 37.4462 41.1224 38.6501 42.025 39.0695C42.2894 39.1924 42.8825 39.342 43.343 39.4019C43.8036 39.4617 44.6995 39.6735 45.334 39.8726C49.6633 41.2304 52.2931 45.8284 51.3329 50.3614C51.0287 51.7973 51.0444 52.0143 51.4918 52.546C52.1538 53.3326 53.2465 53.315 53.7746 52.509C54.4291 51.5102 54.7745 48.5679 54.4561 46.7057C54.3481 46.0752 54.2871 45.5358 54.3201 45.5069C54.3531 45.4781 56.1068 45.3749 58.2171 45.2778C62.2715 45.0911 65.9174 44.7828 68.3037 44.4248C69.0958 44.306 69.769 44.234 69.7998 44.2648C69.9861 44.4511 69.2453 47.2891 68.5858 48.9152C67.0805 52.6275 66.7891 54.1016 66.7882 58.0113L66.7876 60.6374H56.131H45.4744L45.4731 58.3158C45.4718 55.5647 45.3077 54.41 44.7034 52.9009C43.9799 51.0938 43.3135 50.2547 39.6049 46.4794C35.8729 42.6803 35.5419 42.2327 35.0507 40.3199C34.7547 39.167 34.7518 37.2057 35.0444 36.082C35.7697 33.2975 37.9949 31.0532 40.6772 30.4013C41.1988 30.2745 43.1756 30.2118 46.9288 30.2029L52.4174 30.19L53.1919 30.5759ZM20.3293 33.3988C21.9787 34.1151 22.935 35.4448 23.0603 37.1955C23.1676 38.6959 22.8135 39.6336 21.7391 40.6936C20.3281 42.0855 18.4156 42.4697 16.7524 41.6953C16.1591 41.4192 9.82085 37.7775 9.57925 37.5741C9.45853 37.4724 16.8681 33.2953 17.4587 33.1321C18.2897 32.9025 19.4307 33.0085 20.3293 33.3988ZM32.1568 35.0235C31.7738 36.5366 31.6614 38.9074 31.9114 40.1996C32.0652 40.994 32.1863 40.9821 29.185 40.4654C25.9843 39.9144 25.9008 39.8905 25.9731 39.5427C26.0066 39.3807 26.0408 38.4487 26.0492 37.4716L26.0641 35.695L27.7387 35.3741C29.1238 35.1086 31.6074 34.6825 32.132 34.6204C32.204 34.6119 32.2151 34.7933 32.1568 35.0235ZM73.9913 35.4536C76.9621 36.2052 79.7278 37.3578 79.7278 37.8445C79.7278 38.4333 76.2237 39.8325 73.0293 40.5191C68.2835 41.5393 59.8905 42.369 54.3174 42.369H52.9771L52.443 41.5697C52.1492 41.1302 51.6086 40.4525 51.2416 40.0638L50.5743 39.3571L51.9661 39.2866C53.1145 39.2285 53.5352 39.1332 54.3737 38.7407C55.4864 38.22 56.8517 36.96 57.1912 36.1403C57.339 35.7835 57.4573 35.6827 57.6371 35.76C59.1022 36.3917 60.7739 36.3937 62.1462 35.7654L63.0191 35.3657L63.6174 36.0453C63.9815 36.4591 64.6133 36.9207 65.232 37.2253C66.1427 37.6738 66.3848 37.7257 67.5609 37.7257C68.7609 37.7257 68.9631 37.6801 69.9164 37.1929C70.6675 36.8091 71.1317 36.4396 71.5756 35.8721C71.9146 35.4388 72.248 35.0791 72.3167 35.0728C72.3852 35.0666 73.1388 35.238 73.9913 35.4536ZM71.6631 63.9886C72.3386 64.3333 72.8771 65.2103 72.8771 65.9657C72.8771 66.65 72.3389 67.5938 71.7718 67.9036C71.3384 68.1404 70.69 68.1825 66.4323 68.2493L61.5861 68.3254L61.142 68.8226C60.5602 69.4742 60.5602 70.0691 61.1422 70.7207L61.5861 71.2179L65.7093 71.263L69.8323 71.3081V76.6293V81.9507H56.131H42.4296V76.6223V71.294H46.4615H50.4933L50.987 70.8529C51.3956 70.4878 51.4809 70.3015 51.4809 69.7717C51.4809 69.2419 51.3956 69.0555 50.987 68.6905L50.4933 68.2493H45.8464C41.4897 68.2493 41.1621 68.2301 40.5988 67.9428C39.9233 67.5982 39.3849 66.7211 39.3849 65.9657C39.3849 65.2336 39.9236 64.3354 40.5664 63.9961C41.1217 63.703 41.5017 63.6954 56.099 63.6889C70.8021 63.6823 71.0728 63.6875 71.6631 63.9886ZM55.5811 68.3985C55.1018 68.5921 54.6086 69.2978 54.6086 69.7898C54.6086 70.3992 55.3083 71.1305 55.9959 71.2397C56.4595 71.3134 56.6264 71.2552 57.0581 70.8695C57.4857 70.4873 57.5704 70.3062 57.5704 69.7717C57.5704 69.2419 57.4851 69.0555 57.0765 68.6905C56.5764 68.2435 56.164 68.163 55.5811 68.3985Z" fill="#FF150F"/>
</svg>
