<svg width="100" height="100" viewBox="0 0 100 100" fill="none" xmlns="http://www.w3.org/2000/svg">
<path fill-rule="evenodd" clip-rule="evenodd" d="M25.8465 13.2718C25.6569 13.4211 24.8868 14.6524 24.1353 16.0082L22.7687 18.4733L20.4498 19.7476C19.1743 20.4484 17.952 21.1958 17.7333 21.4083C17.2445 21.8835 17.201 22.6181 17.6296 23.1628C17.791 23.3682 19.0153 24.1364 20.35 24.87L22.7768 26.2039L24.1107 28.6307C24.8443 29.9654 25.6125 31.1897 25.8179 31.3511C26.2897 31.7224 27.0196 31.7276 27.4828 31.3631C27.6798 31.2083 28.4427 29.9871 29.1783 28.6492L30.5156 26.2167L32.9541 24.8765C34.2955 24.1393 35.525 23.3682 35.6865 23.1628C36.115 22.6181 36.0715 21.8835 35.5827 21.4083C35.3642 21.1958 34.136 20.4453 32.8534 19.7405L30.5217 18.459L29.2402 16.1273C28.5354 14.8447 27.7849 13.6167 27.5724 13.398C27.1074 12.9195 26.3632 12.8651 25.8465 13.2718ZM81.001 13.4872C78.7131 14.235 76.7348 16.151 75.3477 18.9624C74.8149 20.0425 74.7768 20.0826 74.2849 20.0847C72.1029 20.0938 69.0789 21.6993 67.6898 23.5863C67.0951 24.3942 67.0335 24.5497 67.1029 25.0677C67.2631 26.2618 68.677 26.7473 69.4859 25.8858C69.6984 25.6596 70.1613 25.1696 70.5147 24.797C71.1354 24.1425 72.4598 23.3785 73.3285 23.1737C73.6842 23.0899 73.7354 23.1121 73.6569 23.3166C73.6057 23.4499 73.522 24.0612 73.4709 24.6752C73.2604 27.1994 74.4498 29.4799 76.5041 30.4912C77.6736 31.067 78.7234 31.1812 79.8556 30.8558C82.1835 30.1867 83.3857 28.5613 83.3857 26.0832C83.3857 23.8645 82.4492 22.3684 80.4229 21.3502C79.6835 20.9787 79.5707 20.9382 78.5079 20.6636C78.1701 20.5763 77.8936 20.4458 77.8936 20.3737C77.8936 20.0949 78.9244 18.5028 79.569 17.7858C80.0822 17.2149 80.5674 16.8789 81.5801 16.3928C83.0326 15.6957 83.3575 15.3046 83.175 14.4736C82.9747 13.5618 82.0527 13.1435 81.001 13.4872ZM58.7233 16.5357C58.1457 16.9403 58.0297 17.5138 58.3051 18.6011C58.9614 21.1907 59.1216 22.3577 59.2028 25.141C59.2673 27.3527 59.2332 28.317 59.0443 29.6214C58.7546 31.6218 58.1066 34.1374 57.4281 35.8938C56.8701 37.339 55.2658 40.5178 54.9711 40.7623C54.823 40.8853 54.4109 40.5984 53.1483 39.4935C52.2511 38.7081 51.1781 37.7877 50.7639 37.448L50.0106 36.8302L50.3082 36.0803C51.8098 32.2949 52.0892 28.3123 51.1387 24.241C50.898 23.2107 50.7649 22.9131 50.4107 22.6151C49.7922 22.0946 49.0933 22.1227 48.5253 22.6907C48.127 23.089 48.0924 23.1955 48.1627 23.8108C48.2053 24.1847 48.3543 24.9784 48.4936 25.5746C48.837 27.0436 48.8411 30.5564 48.5011 32.0784C48.2289 33.2977 47.7018 34.969 47.5896 34.969C47.549 34.969 46.8876 34.5565 46.12 34.0522C39.0335 29.398 34.1822 28.7077 32.426 32.1038C32.3053 32.3374 32.1517 32.9962 32.0846 33.5681C31.9846 34.4212 30.2621 39.1564 22.4814 59.9689C17.2666 73.9176 13 85.4847 13 85.6735C13 86.1441 13.8767 86.9995 14.359 86.9995C14.5658 86.9995 24.1166 83.4937 35.5831 79.2088C47.0495 74.924 58.5279 70.6355 61.0906 69.679C63.6533 68.7225 66.0597 67.8961 66.4382 67.8425C69.131 67.4613 70.4006 65.2557 69.7469 62.0945C69.2896 59.8837 67.6527 56.4105 65.7412 53.5956C65.4261 53.1315 65.1318 52.6572 65.0875 52.5416C64.9973 52.3064 66.0453 51.935 68.0184 51.503C69.5787 51.1615 72.7881 51.1687 74.3526 51.5173C74.9886 51.6589 75.8166 51.8045 76.1928 51.8406C76.8043 51.8994 76.9228 51.8603 77.3129 51.4702C77.8767 50.9064 77.9033 50.2056 77.3844 49.5889C77.0867 49.235 76.7877 49.1009 75.7585 48.8596C71.9429 47.9645 68.1833 48.1756 64.5007 49.4919L63.1117 49.9883L62.8065 49.5974C61.9139 48.4542 60.2473 46.5399 58.7103 44.8922L56.9789 43.0363L57.7783 41.7126C59.7264 38.4868 61.02 34.9694 61.7999 30.7776C62.172 28.7777 62.1706 23.0517 61.7974 21.0219C61.3137 18.3905 60.8977 17.0105 60.4802 16.6514C60.0366 16.2698 59.1832 16.2137 58.7233 16.5357ZM27.6706 19.2864C28.3935 20.5841 28.3966 20.5872 29.6943 21.3101C30.4091 21.7083 31.1149 22.1056 31.2627 22.193C31.4964 22.3312 31.325 22.4671 29.9541 23.2311L28.3768 24.1101L27.5407 25.6373C27.0808 26.4772 26.6824 27.1644 26.6556 27.1644C26.6287 27.1644 26.266 26.5479 25.8497 25.7943C25.4334 25.0406 24.9572 24.297 24.7914 24.1416C24.6256 23.9864 23.9228 23.5461 23.2295 23.1633C22.536 22.7804 21.9812 22.4022 21.9965 22.3227C22.0117 22.2432 22.6723 21.8181 23.4645 21.378L24.9049 20.5779L25.7683 19.0162C26.5143 17.6662 26.653 17.4905 26.7891 17.7206C26.8757 17.867 27.2724 18.5716 27.6706 19.2864ZM78.1314 23.5632C79.977 24.1241 80.4951 24.708 80.4951 26.227C80.4951 26.7816 80.4123 27.0862 80.1818 27.3792C79.8475 27.8042 79.1123 28.1761 78.6066 28.1761C78.0189 28.1761 77.2798 27.6961 76.8685 27.0476C76.3489 26.2284 76.2247 25.3867 76.4483 24.2017C76.6538 23.1123 76.651 23.1134 78.1314 23.5632ZM38.5817 33.3589C40.6707 34.0963 42.9898 35.3936 46.1562 37.5961C46.3436 37.7265 45.4822 39.0063 44.2299 40.4578C43.0813 41.7892 42.979 42.0118 43.2034 42.6918C43.4063 43.3063 43.9019 43.6406 44.6107 43.641C45.1033 43.6413 45.2602 43.5338 46.1877 42.5608C46.7541 41.9667 47.5279 41.0262 47.9071 40.4711L48.5967 39.4618L48.9729 39.7542C49.1799 39.9151 50.2116 40.7966 51.2658 41.7132L53.1826 43.3797L52.5666 44.1174C52.2278 44.5231 51.6113 45.2223 51.1966 45.6712C50.3581 46.5789 50.1002 47.1014 50.2319 47.6257C50.3682 48.1693 51.0921 48.6993 51.6983 48.6993C52.1531 48.6993 52.3488 48.5672 53.2504 47.6514C53.8178 47.0751 54.4878 46.3463 54.7396 46.032L55.197 45.4604L55.6475 45.8875C56.1859 46.3981 59.0834 49.6257 59.9328 50.6611L60.5344 51.3945L59.4378 52.1787C58.8347 52.6099 57.8951 53.3856 57.3499 53.9023C56.4648 54.7413 56.3588 54.9004 56.3588 55.389C56.3588 56.0604 56.6701 56.5627 57.2301 56.7946C57.8718 57.0604 58.3085 56.8718 59.5604 55.7883C60.7695 54.7418 62.247 53.6688 62.3398 53.7699C62.3702 53.803 62.9016 54.603 63.5209 55.5478C65.6797 58.841 66.9416 61.768 66.9682 63.5437C66.9864 64.7558 66.7757 64.9656 65.5673 64.9393C62.8426 64.8799 57.815 62.0678 52.3119 57.525C44.5224 51.0948 37.2847 42.0765 35.4101 36.4652C34.9679 35.1414 34.8254 33.6841 35.0965 33.2563C35.401 32.7758 37.0686 32.8249 38.5817 33.3589ZM16.6546 34.7451C15.1809 35.2056 14.1098 36.1482 13.4514 37.5639C12.9123 38.7229 12.9166 40.474 13.4613 41.6457C13.95 42.6967 14.9571 43.7033 16.0068 44.1901C16.6891 44.5065 17.0403 44.5725 18.0585 44.576C19.0893 44.5795 19.4177 44.5189 20.0993 44.1994C21.2422 43.6634 22.0254 42.8993 22.5736 41.785C23.0021 40.9141 23.0442 40.7097 23.0387 39.5243C23.0334 38.3965 22.9799 38.1193 22.6415 37.4675C22.1606 36.541 21.4914 35.7638 20.7968 35.3254C19.6365 34.5929 17.9136 34.3516 16.6546 34.7451ZM75.5811 35.9025C75.4619 35.9313 74.8766 36.0327 74.2804 36.1281C70.7323 36.6963 66.6281 38.7672 63.9916 41.32C62.9701 42.3092 62.8626 42.466 62.8626 42.9659C62.8626 43.7523 63.4867 44.3634 64.2898 44.3634C64.798 44.3634 64.9974 44.2517 65.8546 43.4868C68.6692 40.9758 71.6685 39.4949 75.0753 38.9346C76.9345 38.6288 79.7469 38.7283 81.5068 39.1622C82.9312 39.5134 83.537 39.4533 83.9576 38.9187C84.2766 38.5131 84.3466 37.7266 84.104 37.2735C83.6921 36.5036 81.4444 35.985 78.1827 35.9073C76.8711 35.8761 75.7004 35.8739 75.5811 35.9025ZM19.0152 37.6606C20.0652 38.1589 20.5262 39.5847 19.9673 40.6056C19.6346 41.2138 18.7463 41.7562 18.0782 41.7596C17.344 41.763 16.5161 41.2284 16.1796 40.5334C15.8164 39.7831 15.8162 39.4053 16.1785 38.6569C16.696 37.5879 17.9406 37.1507 19.0152 37.6606ZM33.8966 40.3407C37.2757 47.0508 45.486 56.2154 53.3237 62.0259C55.5284 63.6605 57.2366 64.7518 59.2307 65.7998L60.8743 66.6635L58.393 67.5936L55.9119 68.5235L54.3648 67.6254C52.3484 66.4547 50.5347 65.1895 48.2296 63.346C46.0939 61.638 45.7445 61.5248 44.9092 62.2713C44.5079 62.6299 44.4418 62.7828 44.4558 63.318C44.4705 63.8845 44.5468 64.012 45.2485 64.6436C46.3073 65.5965 49.5011 67.9932 51.0706 69.0126C52.1249 69.6973 52.3085 69.868 52.0823 69.9535C51.9304 70.0108 48.9119 71.14 45.3745 72.4626L38.943 74.8675L38.7365 74.5381C38.2663 73.7878 36.7154 72.4479 35.7895 71.9922C33.4997 70.8649 31.1043 70.8575 28.8048 71.9705C26.0001 73.3281 24.4178 75.8846 24.4178 79.0591V80.3077L21.5634 81.3632C19.9935 81.9437 18.3034 82.5706 17.8076 82.756L16.9062 83.0933L17.1201 82.5532C17.2376 82.2562 18.4986 78.8914 19.9221 75.0759L22.5103 68.1385L22.9221 68.1718C25.5197 68.3824 25.9764 68.3804 26.8748 68.1542C31.0883 67.0941 33.6619 63.0162 32.7865 58.7873C32.3698 56.7743 30.8025 54.6319 29.0066 53.6202C28.5496 53.3628 28.1766 53.1096 28.1779 53.0576C28.1792 53.0055 28.6258 51.763 29.1702 50.2965L30.1601 47.63L30.9917 48.9234C31.9907 50.4774 34.3818 53.6686 35.3697 54.7662C36.0205 55.4894 36.1351 55.5579 36.6963 55.5579C37.2065 55.5579 37.3814 55.4786 37.7292 55.0891C38.474 54.2556 38.3643 53.9318 36.5695 51.6698C34.8889 49.5517 33.2715 47.2044 32.1685 45.2832L31.4934 44.1073L32.3867 41.7061C32.878 40.3854 33.3013 39.3049 33.3275 39.3049C33.3536 39.3049 33.6097 39.771 33.8966 40.3407ZM27.9291 56.3697C30.4401 58.0328 30.7715 61.8299 28.5956 64.0058C28.2454 64.356 27.6071 64.8043 27.1774 65.0022C26.3215 65.3963 24.7875 65.577 24.0407 65.3714L23.5915 65.2479L25.3279 60.5868C26.283 58.0231 27.1082 55.9257 27.1616 55.9257C27.215 55.9257 27.5605 56.1255 27.9291 56.3697ZM40.1351 57.8803C39.4105 58.605 39.5867 59.7205 40.4958 60.1648C40.9512 60.3872 41.1171 60.4027 41.5432 60.262C42.1978 60.046 42.484 59.6224 42.484 58.8692C42.484 58.3707 42.4055 58.1979 42.0392 57.8897C41.4368 57.3827 40.6366 57.3788 40.1351 57.8803ZM76.5228 63.4942C76.3742 63.6027 75.628 64.8199 74.8641 66.1992L73.4756 68.7067L70.9681 70.0952C69.5888 70.8591 68.3716 71.6053 68.2631 71.7539C67.9515 72.1798 68.0165 73.0537 68.3908 73.4717C68.5697 73.6716 69.7832 74.4184 71.0877 75.1316L73.4593 76.4282L74.7868 78.8231C75.5168 80.1403 76.2308 81.347 76.3733 81.5045C76.7385 81.908 77.4739 82.016 78.0011 81.7433C78.3321 81.5722 78.7585 80.9313 79.8289 78.9958L81.225 76.4714L83.7625 75.0571C86.5159 73.5222 86.8173 73.2363 86.6454 72.321C86.525 71.6791 86.1445 71.3925 83.4898 69.9451L81.2366 68.7166L79.9692 66.4041C78.4824 63.6913 78.1503 63.2967 77.3542 63.2967C77.0454 63.2967 76.6712 63.3856 76.5228 63.4942ZM78.2588 69.2956C79.0185 70.683 79.1571 70.8514 79.865 71.2467C80.2911 71.4847 81.0032 71.8826 81.4474 72.1309L82.2552 72.5826L80.7712 73.3956C79.1614 74.2776 79.0094 74.4385 77.9709 76.3583L77.3555 77.496L76.4927 75.9247L75.63 74.3532L74.0938 73.499C73.2489 73.0293 72.5884 72.595 72.626 72.5342C72.6637 72.4732 73.2626 72.1168 73.9572 71.7421C74.6517 71.3674 75.3378 70.9587 75.4819 70.8336C75.6261 70.7086 76.0429 70.051 76.4083 69.3724C77.034 68.2103 77.3003 67.7771 77.3892 67.7771C77.4103 67.7771 77.8016 68.4605 78.2588 69.2956ZM33.4552 74.2159C34.377 74.456 35.5682 75.1408 35.908 75.6258C36.1114 75.916 36.0095 75.9633 31.7485 77.5561C29.3463 78.4541 27.3554 79.1902 27.3244 79.1919C27.2935 79.1935 27.3025 78.8169 27.3444 78.3548C27.4432 77.2656 27.9653 76.2516 28.8566 75.4178C29.7021 74.6269 29.9447 74.4878 30.9501 74.2172C31.9566 73.9462 32.4192 73.9461 33.4552 74.2159ZM57.7009 75.5024C56.2272 75.9628 55.1561 76.9055 54.4977 78.3211C53.9586 79.4801 53.9629 81.2312 54.5076 82.4029C54.996 83.4534 56.0026 84.46 57.0531 84.9484C57.74 85.2678 58.0797 85.3312 59.1048 85.3312C60.1259 85.3312 60.4705 85.2673 61.1456 84.9534C62.2863 84.423 63.0707 83.6584 63.6199 82.5418C64.0477 81.672 64.0906 81.4642 64.0867 80.2811C64.082 78.8088 63.8276 78.1091 62.9055 77.0319C61.6568 75.5729 59.5016 74.9396 57.7009 75.5024ZM60.4034 78.6154C61.6413 79.4967 61.5187 81.409 60.1738 82.1998C58.4041 83.2405 56.3115 81.3007 57.2073 79.4502C57.8019 78.2221 59.3012 77.8304 60.4034 78.6154Z" fill="#050000"/>
</svg>
