<svg width="100" height="100" viewBox="0 0 100 100" fill="none" xmlns="http://www.w3.org/2000/svg">
<path fill-rule="evenodd" clip-rule="evenodd" d="M75.5125 5.2388C74.5974 5.74604 74.627 5.20434 74.6203 21.5482L74.6141 36.7844L72.7526 36.8443C70.9641 36.902 70.8741 36.9236 70.4669 37.3976C69.8918 38.0666 69.8918 39.0825 70.4669 39.7515L70.891 40.2448L76.0379 40.2965C81.4518 40.351 81.9338 40.296 82.445 39.5661C82.5862 39.3645 82.7017 38.9351 82.7017 38.6118C82.7017 37.2538 81.9756 36.8164 79.7216 36.8164H78.1305L78.1336 32.0253L78.1366 27.2343L86.0832 22.663C90.4537 20.1488 94.2153 17.9334 94.4423 17.7398C95.0696 17.2048 95.1635 16.0908 94.6322 15.4846C94.0474 14.8173 76.9444 4.99178 76.3813 4.99952C76.1346 5.00303 75.7437 5.11063 75.5125 5.2388ZM84.0329 13.2044C87.1619 15.0129 89.7051 16.5057 89.6843 16.5219C89.4955 16.6687 78.2863 23.1026 78.2193 23.1026C78.1704 23.1026 78.1305 20.1357 78.1305 16.5094C78.1305 12.8832 78.1785 9.91626 78.237 9.91626C78.2957 9.91626 80.9038 11.3959 84.0329 13.2044ZM51.0546 21.3982C50.2006 21.6895 49.712 22.6704 49.9946 23.5267C50.2759 24.3788 50.8367 24.6849 52.1168 24.6849C53.0701 24.6849 53.2495 24.6269 53.7054 24.171C54.6653 23.2111 54.2156 21.731 52.8488 21.3514C52.0446 21.1281 51.8304 21.1338 51.0546 21.3982ZM60.0763 21.3606C58.7897 21.737 58.3761 23.2427 59.3044 24.171C59.7396 24.606 59.9574 24.6849 60.7245 24.6849C61.4916 24.6849 61.7095 24.606 62.1446 24.171C63.491 22.8246 61.9996 20.798 60.0763 21.3606ZM42.7032 21.5077C41.4695 21.8054 41.033 22.2917 41.033 23.3682C41.033 24.2303 41.8132 25.0369 42.6457 25.0355C44.2219 25.0329 45.2526 24.2895 45.2526 23.1551C45.2526 22.3678 45.008 21.9362 44.377 21.6099C43.8269 21.3254 43.5329 21.3075 42.7032 21.5077ZM34.8793 25.6739C34.6376 25.8258 34.2221 26.232 33.9563 26.5766C32.4919 28.474 34.8359 30.5071 36.5944 28.8648C37.6537 27.8757 37.7995 26.7531 36.9756 25.9292C36.3609 25.3144 35.5988 25.2215 34.8793 25.6739ZM31.2404 33.5105C30.3918 33.9205 29.9948 35.9988 30.5911 36.9092C30.7469 37.1469 31.1692 37.4296 31.5297 37.5377C32.7732 37.9103 33.8244 36.9016 33.8244 35.3358C33.8244 33.7881 32.5415 32.8817 31.2404 33.5105ZM32.756 42.429C32.4441 42.7409 32.2421 43.1279 32.2421 43.4134C32.2421 44.4162 33.2593 45.7955 34.1599 46.0137C34.7963 46.1679 35.6953 45.7118 36.0297 45.065C36.413 44.3239 36.1637 43.4141 35.3372 42.5378C34.8454 42.0163 34.6295 41.9151 34.0099 41.9151C33.4264 41.9151 33.1612 42.0237 32.756 42.429ZM40.0322 47.543C39.0657 47.9322 38.7401 49.51 39.4666 50.2835C39.9406 50.7881 41.2998 51.2345 41.9713 51.1061C42.231 51.0565 42.6485 50.7721 42.8994 50.4739C43.2718 50.0313 43.3386 49.807 43.2639 49.2504C43.1435 48.3517 42.7456 47.9451 41.6754 47.6274C40.6801 47.3318 40.5704 47.3262 40.0322 47.543ZM48.7294 48.5186C48.1407 48.8381 47.8898 49.2817 47.8898 50.0027C47.8898 50.7383 48.146 51.175 48.7654 51.4954C49.5933 51.9235 50.4388 51.8347 51.0917 51.2513C52.738 49.7804 50.7156 47.4407 48.7294 48.5186ZM56.5731 48.4168C56.0235 48.6389 55.45 49.454 55.45 50.0129C55.45 50.2826 55.6525 50.7439 55.9001 51.0381C57.0062 52.3525 59.318 51.7092 59.318 50.0871C59.318 49.7379 59.2366 49.2999 59.1369 49.1139C58.7568 48.4036 57.471 48.0541 56.5731 48.4168ZM64.3481 48.8245C63.0596 50.1131 63.8773 51.7313 65.9018 51.8992C67.0413 51.9938 67.5844 51.7232 67.9299 50.8895C68.4556 49.6203 67.5617 48.5801 65.8378 48.4555C64.9014 48.3876 64.7467 48.4259 64.3481 48.8245ZM19.9204 49.7444C14.3315 50.6158 9.37821 54.2954 6.85083 59.4536C4.35581 64.546 4.38394 70.0392 6.93171 75.2325C7.63076 76.6573 9.94857 79.9022 10.6652 80.4592C11.6742 81.2434 13.1956 80.5747 13.3705 79.2702C13.4607 78.5987 13.3891 78.4598 12.0132 76.6333C9.4401 73.2171 8.59442 70.8578 8.61218 67.1449C8.62167 65.1801 8.69041 64.637 9.10253 63.2769C10.5358 58.5464 14.0657 55.017 18.792 53.5887C20.1773 53.17 20.6701 53.1104 22.7479 53.1104C24.8257 53.1104 25.3185 53.17 26.7038 53.5887C31.4301 55.017 34.96 58.5464 36.3933 63.2769C36.8054 64.637 36.8742 65.1801 36.8837 67.1449C36.8917 68.8359 36.81 69.7507 36.5695 70.6613C36.1558 72.228 35.2431 74.2253 34.4117 75.3841C33.6796 76.4042 23.355 89.6816 22.9768 90.0891C22.7622 90.3205 22.6563 90.2618 22.1151 89.6118C21.1738 88.4811 20.028 88.4178 19.1915 89.4504C18.6136 90.1638 18.7883 91.0023 19.7893 92.3202C21.6271 94.74 21.9138 94.9995 22.7479 94.9995C22.9897 94.9995 23.3596 94.9035 23.5699 94.7861C24.0027 94.5443 36.4406 78.6922 37.6462 76.8458C39.3483 74.239 40.285 71.2907 40.4492 68.024C40.8997 59.0634 34.3355 51.0782 25.4133 49.7333C23.3775 49.4265 21.942 49.4293 19.9204 49.7444ZM71.9904 52.6535C71.3413 53.3026 71.285 54.0027 71.8135 54.8577C72.6573 56.2231 74.0527 56.5689 74.9793 55.6424C75.6354 54.9862 75.6588 54.1959 75.0486 53.298C74.1818 52.0225 72.893 51.7508 71.9904 52.6535ZM20.1325 57.6645C17.6387 58.3352 14.9798 60.4171 13.8208 62.6063C13.0985 63.971 12.5505 66.0805 12.5505 67.4965C12.5505 69.846 13.5843 72.5036 15.2064 74.3235C19.1466 78.7445 26.3492 78.7445 30.2894 74.3235C31.9115 72.5036 32.9453 69.846 32.9453 67.4965C32.9453 66.0805 32.3973 63.971 31.6751 62.6063C30.4967 60.3803 27.8387 58.3201 25.2881 57.6557C24.0022 57.3209 21.3936 57.3251 20.1325 57.6645ZM75.8914 60.2942C75.306 60.8796 75.2759 60.9658 75.3721 61.7791C75.5229 63.0517 75.9029 63.6672 76.681 63.8991C77.9935 64.2901 78.9083 63.4744 78.8733 61.9439C78.8265 59.8845 77.2006 58.985 75.8914 60.2942ZM24.7071 61.155C26.3191 61.6443 27.8904 62.9509 28.6397 64.4255C30.3357 67.7634 28.9678 71.854 25.603 73.5063C24.6909 73.9541 24.4168 74.0018 22.7479 74.0018C21.0791 74.0018 20.805 73.9541 19.8928 73.5063C15.1702 71.1873 14.8236 64.653 19.2741 61.8435C19.6664 61.5959 20.3118 61.2909 20.7083 61.1657C21.6842 60.8577 23.7096 60.8522 24.7071 61.155ZM74.8647 68.3127C74.2681 68.6023 73.5592 69.8564 73.5592 70.622C73.5592 71.5583 74.3166 72.3315 75.2335 72.3315C76.5174 72.3315 77.7572 70.3879 77.2517 69.1677C76.8853 68.2831 75.7576 67.8793 74.8647 68.3127ZM68.9869 74.08C67.4174 74.551 66.7452 75.4398 67.0698 76.615C67.2614 77.3094 67.9287 77.7819 68.7174 77.7819C69.5573 77.7819 70.7669 77.0719 71.0398 76.4188C71.6015 75.0743 70.3655 73.6662 68.9869 74.08ZM42.2197 75.5103C41.3768 76.0012 41.1861 77.5646 41.8913 78.2026C43.1769 79.3662 45.2526 78.6177 45.2526 76.9907C45.2526 75.8894 44.6267 75.3187 43.4265 75.3257C42.932 75.3287 42.3889 75.4117 42.2197 75.5103ZM50.4831 75.5103C49.9715 75.8083 49.6046 76.7038 49.727 77.356C50.0389 79.0189 52.9346 79.3162 53.7632 77.7706C54.1627 77.0255 54.0545 76.3704 53.429 75.7448C53.0685 75.3844 52.8375 75.3213 51.8976 75.3257C51.2889 75.3287 50.6523 75.4117 50.4831 75.5103ZM58.9024 75.7839C57.9039 76.7825 58.5032 78.469 59.9536 78.7411C62.0771 79.1394 63.5267 77.2164 62.1446 75.8343C61.6829 75.3726 61.5154 75.3204 60.4983 75.3204C59.5093 75.3204 59.3073 75.3791 58.9024 75.7839ZM15.0988 83.6282C14.7948 83.8896 14.6062 84.2655 14.543 84.7355C14.4636 85.3285 14.5249 85.5388 14.9103 85.9969C16.0572 87.3599 18.0008 86.6132 18.0008 84.8098C18.0008 83.4791 16.1488 82.725 15.0988 83.6282Z" fill="#FF150F"/>
</svg>
