<svg width="100" height="100" viewBox="0 0 100 100" fill="none" xmlns="http://www.w3.org/2000/svg">
<path fill-rule="evenodd" clip-rule="evenodd" d="M35.5814 5.12222C33.5815 5.79495 22.6664 10.2997 21.8787 10.7773C19.4388 12.257 17.364 14.4745 16.0707 16.9851C15.0652 18.937 14.9812 19.5736 15.6588 20.1066C16.5491 20.8069 17.2218 20.4463 18.0355 18.8326C19.4019 16.1226 21.4255 13.9837 23.7635 12.7779C25.1067 12.0852 36.0849 7.64196 36.4531 7.64196C36.5575 7.64196 37.3332 7.98782 38.1771 8.41047C41.4013 10.0257 43.858 10.6318 47.1556 10.6257C50.2623 10.6199 52.6834 9.99651 55.9193 8.36917C56.7145 7.96919 57.4658 7.64179 57.5888 7.64161C58.1733 7.64091 70.2223 12.6315 71.2374 13.2948C72.6478 14.2163 73.9805 15.5216 74.8859 16.8682C75.8881 18.359 83.441 33.9479 83.3173 34.2704C83.2292 34.4996 82.4395 34.5286 77.3682 34.4885L71.5205 34.4421L68.6022 29.4499C66.9971 26.7043 65.5387 24.3515 65.3612 24.2217C64.8709 23.8632 64.1572 23.9379 63.7302 24.3923L63.3481 24.7991V36.6708V48.5425L61.1074 48.6277C59.6541 48.6831 58.6506 48.8073 58.2517 48.9815C57.5166 49.3026 56.5878 50.2433 56.3293 50.929C56.2071 51.2533 56.1428 54.3868 56.1428 60.0235V68.6233H53.5067H50.8707V60.6467C50.8707 53.0572 50.8543 52.6498 50.535 52.2551C50.2022 51.8437 50.1644 51.8397 46.1415 51.7871L42.0837 51.7339L42.0823 50.557C42.079 47.4866 41.191 45.1855 39.2884 43.3169C37.3253 41.3887 35.0076 40.5518 32.1984 40.7569L30.6607 40.8692V32.7789C30.6607 24.9229 30.6505 24.6784 30.3093 24.3371C29.8725 23.9004 29.0076 23.8814 28.5895 24.2995C28.4169 24.4721 27.0593 26.7063 25.5727 29.2641C24.0863 31.822 22.7523 34.0532 22.6082 34.2224C22.3689 34.5038 21.8545 34.53 16.569 34.53C11.9811 34.53 10.7731 34.4827 10.7033 34.3008C10.655 34.1748 11.7251 31.7863 13.0812 28.9932C14.4376 26.2001 15.5472 23.769 15.5472 23.5908C15.5472 23.0913 14.7553 22.404 14.18 22.404C13.8809 22.404 13.5283 22.565 13.3145 22.7994C13.1159 23.0168 11.8368 25.4989 10.4719 28.3152C7.92139 33.578 7.75813 34.0664 8.17691 35.1776C8.46741 35.9478 9.35822 36.7583 10.1601 36.9817C10.6675 37.1232 12.7702 37.1689 17.0542 37.1316L23.2182 37.0782L23.908 36.6177C24.4464 36.2582 24.9599 35.5355 26.249 33.3226C27.1572 31.7635 27.9283 30.488 27.9624 30.488C27.9967 30.488 28.0247 32.8011 28.0247 35.6283L28.0245 40.7687L26.1355 40.7868C24.6752 40.8008 24.0101 40.8908 23.2061 41.1831C19.4295 42.5554 17.1392 45.9936 17.1315 50.3025L17.1289 51.7523H13.1668H9.20463L8.7702 52.1868L8.33578 52.6212L8.38288 71.6498L8.4298 90.6785L8.83347 91.5571C9.36104 92.7061 10.6327 93.9841 11.7527 94.4911C12.6303 94.8885 12.7781 94.8972 19.4576 94.9478L26.2678 94.9995L26.7068 94.5603C27.2641 94.0033 27.267 93.3317 26.7145 92.7794L26.2833 92.348H19.8551C14.7878 92.348 13.3074 92.2968 12.8616 92.106C12.1776 91.8134 11.4193 91.0327 11.165 90.3595C11.0374 90.0219 10.978 84.2322 10.978 72.1266V54.3884H25.4764H39.9749V73.3682V92.348H35.222H30.469L30.0377 92.7794C29.4856 93.3314 29.4882 94.0033 30.0444 94.5595L30.4824 94.9974L38.5238 94.9468L46.5651 94.8962L47.5566 94.4094C48.7133 93.8412 49.8653 92.6639 50.403 91.5002C50.7756 90.6941 50.7839 90.4943 50.8338 80.9689L50.8847 71.2593H53.5138H56.1428V73.2527C56.1428 75.7031 56.4648 76.4877 57.8122 77.3223L58.6634 77.8495H74.0545H89.4453L90.1897 77.4232C90.5992 77.1886 91.1528 76.6814 91.4199 76.296L91.9056 75.5955L91.955 68.2602L92.0046 60.9249L91.5359 60.5563C90.9164 60.069 90.3173 60.0906 89.7889 60.6192L89.3574 61.0505V67.9024V74.7542L88.9668 75.0277C88.6209 75.27 86.9129 75.3013 74.0485 75.3013C60.4723 75.3013 59.4963 75.2811 59.1464 74.9938L58.7721 74.6862L58.8193 63.1805L58.8668 51.6749L59.3061 51.4525C59.9465 51.1287 88.1884 51.1281 88.8302 51.452C89.2637 51.671 89.2708 51.7095 89.3574 54.3652C89.4411 56.93 89.4648 57.0723 89.8602 57.392C90.4245 57.8484 91.0449 57.8134 91.5621 57.296C91.983 56.8753 91.9933 56.7989 91.9896 54.1767C91.9854 51.207 91.8132 50.5297 90.8294 49.6108C89.8068 48.6557 90.144 48.6808 77.6269 48.626L65.9842 48.5748V39.4143C65.9842 34.376 66.013 30.2866 66.0483 30.3268C66.0837 30.3672 66.8024 31.5863 67.6456 33.0362C68.489 34.486 69.4167 35.9211 69.7074 36.2253C70.5762 37.1348 71.0785 37.1905 77.8597 37.1316L84.0238 37.0782L84.73 36.6105C85.5769 36.0499 86.0184 35.198 86.0184 34.1247C86.0184 33.4515 85.4397 32.1431 82.1434 25.3643C80.0122 20.9814 78.0246 16.9605 77.7265 16.4289C76.3322 13.942 73.9878 11.6887 71.4463 10.3926C70.6168 9.96962 67.3005 8.57549 64.0764 7.29418C57.1366 4.53649 57.5797 4.59079 54.5236 6.12358C51.8648 7.45691 49.6985 8.00662 47.0805 8.01207C44.1875 8.01805 42.4691 7.56253 39.0709 5.88897C37.3355 5.03436 36.4325 4.83595 35.5814 5.12222ZM41.1093 18.442C40.872 18.6792 40.6778 19.0782 40.6778 19.3286C40.6778 19.579 40.872 19.9779 41.1093 20.2152L41.5405 20.6466H46.9728C52.2022 20.6466 52.4223 20.6331 52.8679 20.2823C53.2038 20.0182 53.331 19.7562 53.331 19.3286C53.331 18.901 53.2038 18.639 52.8679 18.3748C52.4223 18.0241 52.2022 18.0105 46.9728 18.0105H41.5405L41.1093 18.442ZM46.0243 25.7227C45.3802 26.1154 45.1006 26.495 41.3312 32.0951C38.3491 36.5255 38.0674 37.1023 38.2945 38.312C38.4257 39.0117 39.2559 40.0453 39.9923 40.4262C40.6963 40.7903 54.2784 40.8037 55.1462 40.4411C56.4219 39.9081 57.2002 38.3068 56.8379 36.9608C56.7184 36.517 55.2815 34.2256 53.1918 31.1463C50.3505 26.9595 49.6268 26.0051 49.0836 25.7279C48.2138 25.2842 46.7475 25.2816 46.0243 25.7227ZM51.1517 32.8341C52.9704 35.5083 54.3201 37.6594 54.2665 37.7987C54.1243 38.1692 41.0645 38.1651 40.9223 37.7945C40.8667 37.6497 42.1832 35.5384 44.0471 32.7833C46.5635 29.0634 47.3418 28.0324 47.6053 28.0688C47.8269 28.0995 49.041 29.7309 51.1517 32.8341ZM26.017 44.08C24.709 45.6762 23.9869 47.9803 23.9841 50.5661L23.9827 51.7523H21.8508H19.7189L19.7992 49.9458C19.8637 48.4945 19.9681 47.9457 20.3292 47.1568C21.3631 44.8984 23.6154 43.3705 25.9715 43.3287L26.6423 43.3169L26.017 44.08ZM35.5398 43.8466C38.0425 44.9536 39.4477 47.3357 39.4477 50.4712V51.7523H37.3388H35.2299L35.2245 50.8297C35.2085 48.1109 34.6184 46.0662 33.3541 44.3487L32.5547 43.2628L33.6451 43.3767C34.2447 43.4394 35.0974 43.6508 35.5398 43.8466ZM31.1289 45.7333C32.038 46.8826 32.5896 48.8033 32.5924 50.8297L32.5939 51.7523H31.6273H30.6607V48.5891C30.6607 46.8492 30.7113 45.4258 30.7732 45.4258C30.8351 45.4258 30.995 45.5641 31.1289 45.7333ZM28.0247 48.8527V51.7523H27.3217H26.6187V50.4712C26.6187 49.0145 26.9903 47.3888 27.5183 46.5341C27.7159 46.2145 27.9106 45.953 27.9512 45.953C27.9916 45.953 28.0247 47.2578 28.0247 48.8527ZM48.2307 72.0941C48.227 88.8984 48.2105 89.8356 47.904 90.5027C47.2749 91.8729 46.2983 92.348 44.1104 92.348H42.611V73.3682V54.3884H45.4228H48.2346L48.2307 72.0941ZM73.2721 57.8278C72.906 57.9538 72.4675 58.2002 72.298 58.3754C72.1284 58.5506 70.9483 60.2361 69.6756 62.1209L67.3615 65.5478L67.4309 66.5585C67.4875 67.3796 67.5957 67.6686 68.008 68.099C68.7939 68.9194 69.4237 69.0013 74.4857 68.9413C78.5738 68.893 79.1477 68.8512 79.5767 68.5698C80.3034 68.0931 80.7448 67.246 80.7455 66.3265C80.7462 65.5832 80.5628 65.2535 78.2801 61.8921C76.9236 59.8948 75.6403 58.1679 75.4284 58.0545C74.7149 57.6726 73.9559 57.5928 73.2721 57.8278ZM76.083 63.3409C77.1012 64.8335 77.9344 66.1186 77.9344 66.1967C77.9344 66.2747 76.1862 66.3387 74.0494 66.3387C70.571 66.3387 70.1756 66.3095 70.2715 66.0594C70.4799 65.5162 73.9557 60.531 74.0928 60.5788C74.1692 60.6054 75.0649 61.8484 76.083 63.3409ZM25.6478 66.8687C24.8513 67.1121 24.2879 67.808 21.3288 72.2036L18.6226 76.2231V77.2431C18.6226 78.3451 18.9128 78.9092 19.8326 79.596C20.3013 79.9461 20.5299 79.9584 26.5309 79.9584C32.5318 79.9584 32.7605 79.9461 33.2291 79.596C34.1479 78.9101 34.4391 78.3448 34.4391 77.2471V76.2313L31.9067 72.4712C28.9294 68.0504 28.3137 67.2528 27.6948 67.0133C26.9934 66.742 26.2369 66.6885 25.6478 66.8687ZM29.2517 73.2601C30.6226 75.2787 31.7858 77.0383 31.8364 77.1703C31.913 77.3698 31.0203 77.4102 26.5309 77.4102C22.1845 77.4102 21.1503 77.3659 21.2206 77.1826C21.4643 76.5475 26.5108 69.325 26.6254 69.4473C26.6991 69.5257 27.8807 71.2414 29.2517 73.2601Z" fill="#050000" stroke="#050000" stroke-width="0.2"/>
</svg>
