<svg width="100" height="100" viewBox="0 0 100 100" fill="none" xmlns="http://www.w3.org/2000/svg">
<path fill-rule="evenodd" clip-rule="evenodd" d="M16.3637 10.3955L15.9677 10.7913V33.5124V56.2335L16.384 56.6247L16.8002 57.0156H50H83.1998L83.616 56.6247L84.0323 56.2335V33.5124V10.7913L83.6363 10.3955L83.2405 9.99951H50H16.7595L16.3637 10.3955ZM81.4516 33.5479V54.5156H50H18.5484V33.5479V12.5802H50H81.4516V33.5479ZM20.0494 13.7758L19.5968 14.1652L19.5539 33.0634C19.5247 45.8895 19.5653 52.1639 19.6803 52.5908C19.7734 52.9368 19.9913 53.2956 20.1644 53.3882C20.5994 53.6211 79.4063 53.6181 79.8414 53.3852C80.0113 53.2942 80.2266 52.9368 80.3197 52.5908C80.4347 52.1639 80.4753 45.8895 80.4461 33.0634L80.4032 14.1652L79.9506 13.7758L79.4981 13.3866H50H20.5019L20.0494 13.7758ZM32.1952 16.2213C32.1415 16.361 31.4924 17.504 30.7527 18.7616C30.0129 20.019 27.7808 23.8423 25.7926 27.2576L22.1774 33.4673L22.1355 24.9189C22.1124 20.2173 22.1282 16.2798 22.1708 16.1689C22.2302 16.0135 23.4011 15.9673 27.2703 15.9673C31.7744 15.9673 32.2826 15.9934 32.1952 16.2213ZM50.1006 16.4914C49.9761 16.7798 47.8058 21.3371 45.2776 26.619C42.7494 31.9008 40.1294 37.3803 39.4555 38.7956C38.7816 40.211 38.1706 41.3889 38.0977 41.4132C38.025 41.4374 36.6127 40.0513 34.9595 38.3327L31.9537 35.2084L31.9248 28.5882C31.909 24.9471 31.9295 21.9061 31.9703 21.8305C32.0113 21.755 32.79 20.4048 33.7011 18.8302L35.3574 15.9673H42.8423H50.3269L50.1006 16.4914ZM77.8656 20.0314L77.9089 24.015L74.0753 28.5311C71.9669 31.015 70.1723 33.051 70.0869 33.0556C69.8832 33.0666 51.1387 20.5987 51.1332 20.4484C51.131 20.3847 51.596 19.35 52.1666 18.149L53.2044 15.9652L65.5134 16.0066L77.8226 16.0479L77.8656 20.0314ZM55.4453 26.4792C58.3985 28.4463 60.7585 30.1056 60.6897 30.1668C60.5129 30.3239 45.3126 33.1077 45.2071 33.0024C45.1113 32.9064 49.8463 22.9027 49.9876 22.9027C50.0361 22.9027 52.4921 24.5121 55.4453 26.4792ZM29.3548 38.7092V50.9673H25.7203H22.0858L22.1316 44.7974L22.1774 38.6276L25.7165 32.5393C27.6629 29.1908 29.2777 26.4511 29.3052 26.4511C29.3324 26.4511 29.3548 31.9673 29.3548 38.7092ZM77.9032 39.5963V50.9673H68.1318C62.7574 50.9673 58.3844 50.9081 58.414 50.8358C58.5168 50.5848 77.6621 28.2435 77.7823 28.2345C77.8489 28.2295 77.9032 33.3423 77.9032 39.5963ZM66.2405 33.6689C67.4173 34.4452 68.3634 35.1216 68.3432 35.1723C68.3231 35.2229 65.2944 38.7918 61.6129 43.1032L54.9194 50.9423L51.1024 50.9548L47.2855 50.9673L43.7234 47.305C41.7642 45.2908 40.1613 43.5573 40.1613 43.4526C40.1613 43.3479 40.9511 41.6302 41.9166 39.6353L43.6719 36.0084L44.6182 35.8392C46.0548 35.5823 53.1976 34.2542 58.7097 33.219C61.4153 32.711 63.7352 32.2868 63.865 32.2764C63.9948 32.2661 65.0637 32.8927 66.2405 33.6689ZM43.0531 50.3624L43.5818 50.9673H37.7587H31.9355L31.9376 44.9592L31.9397 38.9511L37.2319 44.3544C40.1427 47.3261 42.7623 50.0298 43.0531 50.3624ZM15.4032 59.6595C13.72 60.1135 12.3806 61.2393 11.6884 62.7818C11.3235 63.5947 11.2397 64.0093 11.246 64.9692C11.2526 65.996 11.331 66.3102 11.8365 67.3327L12.4194 68.5122V76.03V83.5479H11.6056C10.9566 83.5479 10.7116 83.6281 10.396 83.9439C10.0105 84.3292 10 84.4045 10 86.7737C10 89.1429 10.0105 89.2182 10.396 89.6035L10.7918 89.9995H16.5032C22.0369 89.9995 22.2277 89.9892 22.6395 89.6652L23.0645 89.331V86.7737V84.2164L22.6395 83.8822C22.3571 83.66 21.9785 83.5479 21.5105 83.5479H20.8065V75.9069V68.266L21.2198 67.5263L21.6334 66.7864L22.4698 67.1256C24.0368 67.7606 26.5731 68.5197 28.2481 68.8545C34.1679 70.0379 39.3321 69.6121 43.6613 67.5832L44.9856 66.9627L45.396 67.6631L45.8064 68.3634V75.9556V83.5479H45.0682C44.4674 83.5479 44.2423 83.6356 43.8585 84.0193L43.3871 84.4908V86.7737V89.0566L43.8585 89.5281L44.33 89.9995H50H55.67L56.1414 89.5281L56.6129 89.0566V86.7737V84.4908L56.1414 84.0193C55.7577 83.6356 55.5326 83.5479 54.9318 83.5479H54.1935V75.8937V68.2397L54.606 67.6318C54.8329 67.2976 55.0402 67.0023 55.0668 66.9758C55.0934 66.9492 55.7116 67.1827 56.4406 67.4948C60.6581 69.3 66.1255 70.2542 69.9142 69.8463C72.6958 69.5468 75.7708 68.616 77.6853 67.494C78.0585 67.2753 78.3982 67.0963 78.4402 67.0963C78.4823 67.0963 78.6689 67.3545 78.855 67.67C79.186 68.231 79.1936 68.4135 79.1936 75.8958V83.5479H78.4895C78.0215 83.5479 77.6429 83.66 77.3605 83.8822L76.9355 84.2164V86.7737V89.331L77.3605 89.6652C77.7723 89.9892 77.9631 89.9995 83.4968 89.9995H89.2082L89.604 89.6035C89.9895 89.2182 90 89.1429 90 86.7737C90 84.4045 89.9895 84.3292 89.604 83.9439C89.2884 83.6281 89.0434 83.5479 88.3944 83.5479H87.5806V76.03V68.5122L88.1561 67.3479C88.6603 66.3277 88.7321 66.0321 88.7363 64.9613C88.7403 63.9708 88.6577 63.5532 88.3013 62.7589C87.7856 61.6097 86.6579 60.4756 85.5256 59.9673C84.4258 59.4735 82.4752 59.4752 81.3798 59.9708C79.7595 60.704 78.7818 61.816 78.2979 63.4753C78.0805 64.2208 77.9748 64.3397 77.0495 64.8811C75.7008 65.67 74.0339 66.3448 72.3063 66.8011C71.049 67.1334 70.5282 67.1756 67.7419 67.1714C64.2074 67.1661 62.7285 66.9303 59.5392 65.864C57.6077 65.2182 55.3226 64.2164 55.3226 64.0153C55.3226 63.9424 55.1735 63.4842 54.9913 62.9973C53.9274 60.1537 50.5618 58.7877 47.7742 60.0681C46.1853 60.7977 45.4031 61.8002 44.6055 64.1289C44.5131 64.3985 42.0203 65.561 40.5645 66.0134C38.4382 66.6739 37.0526 66.8542 34.1935 66.8421C30.4305 66.8263 26.9153 66.1222 23.2365 64.6476C21.9377 64.1271 21.8818 64.0831 21.689 63.4303C21.2194 61.8395 20.2695 60.7411 18.7658 60.0498C17.8655 59.636 16.205 59.4432 15.4032 59.6595ZM17.68 62.4048C20.0497 63.481 19.7642 66.9053 17.2484 67.5827C16.3047 67.8369 15.5277 67.6273 14.7473 66.9079C13.2632 65.54 13.5676 63.3245 15.3613 62.4366C16.2037 62.0197 16.8134 62.0113 17.68 62.4048ZM50.7953 62.2543C51.8784 62.565 52.7419 63.71 52.7419 64.8353C52.7419 66.1743 51.9169 67.2377 50.6039 67.5913C48.9295 68.0421 47.2581 66.6653 47.2581 64.8353C47.2581 64.0618 47.5321 63.4781 48.1879 62.8547C48.9127 62.1658 49.7858 61.9648 50.7953 62.2543ZM85.0098 62.6481C85.9905 63.2971 86.441 64.8144 85.9971 65.9735C85.7587 66.5961 84.6423 67.5206 83.9785 67.6452C81.5453 68.1016 79.7292 65.2327 81.2168 63.2824C82.1316 62.0831 83.7474 61.8127 85.0098 62.6481ZM17.2177 70.2231L18.2258 70.1232V77.7916V85.46L18.6508 85.7942C18.9332 86.0164 19.3118 86.1285 19.7798 86.1285H20.4839V86.7737V87.4189H16.5323H12.5806V86.7737C12.5806 86.1298 12.5819 86.1285 13.2182 86.1285C14.0429 86.1285 14.5969 85.8689 14.821 85.3774C14.9439 85.1074 15 82.644 15 77.5089V70.0335L15.6048 70.1782C15.9376 70.2579 16.6634 70.2781 17.2177 70.2231ZM50.8064 70.2053L51.6129 70.046V77.6913V85.3368L52.0089 85.7326C52.3245 86.0484 52.5695 86.1285 53.2185 86.1285H54.0323V86.7737V87.4189H50H45.9677V86.7737V86.1285H46.7814C47.4305 86.1285 47.6755 86.0484 47.9911 85.7326L48.3871 85.3368V77.6913V70.046L49.1935 70.2053C49.725 70.3105 50.275 70.3105 50.8064 70.2053ZM85.2105 85.5019C85.3948 85.8716 86.039 86.1285 86.7818 86.1285C87.4181 86.1285 87.4193 86.1298 87.4193 86.7737V87.4189H83.4677H79.5161V86.7737V86.1285H80.2202C80.6882 86.1285 81.0668 86.0164 81.3492 85.7942L81.7742 85.46V77.7916V70.1232L82.7823 70.221C83.3368 70.2748 84.0443 70.2621 84.3548 70.1927L84.9193 70.0668L85 77.6542C85.0443 81.8271 85.139 85.3587 85.2105 85.5019Z" fill="#050000"/>
</svg>
