<svg width="100" height="100" viewBox="0 0 100 100" fill="none" xmlns="http://www.w3.org/2000/svg">
<path fill-rule="evenodd" clip-rule="evenodd" d="M23.7964 10.1456C20.5543 10.7964 17.8523 13.46 17.1719 16.6761C17.0454 17.2742 16.9976 27.227 17.0001 52.4727C17.0034 85.9578 17.0156 87.4675 17.2882 88.0676C17.644 88.8508 18.5286 89.6406 19.2997 89.8638C19.7163 89.9844 26.7526 90.0208 43.3484 89.9881L66.8081 89.942L67.5689 89.4716C68.1092 89.1376 68.4454 88.7763 68.729 88.2255L69.1284 87.4497L69.1734 76.464L69.2184 65.4784H74.4159C79.4978 65.4784 79.6288 65.4706 80.3019 65.1267C80.6805 64.9332 81.2054 64.5047 81.4683 64.1744L81.9464 63.5738L81.9896 55.6131L82.0328 47.6523L81.645 47.2645C81.1521 46.7716 80.5537 46.7701 80.0635 47.2604L79.6798 47.644V55.227C79.6798 62.5992 79.6713 62.8146 79.3732 62.974C79.173 63.0813 77.3458 63.1238 74.0975 63.0968L69.1284 63.0555L69.086 40.5458C69.0574 25.2929 69.0971 17.6868 69.2092 16.9523C69.5034 15.0243 70.5447 13.6415 72.3141 12.8294C73.5785 12.249 75.3312 12.2584 76.5731 12.8524C77.6081 13.3473 78.7783 14.5344 79.261 15.5794L79.6016 16.3167L79.6394 29.8381C79.6602 37.2749 79.714 43.5165 79.7589 43.7084C79.8648 44.161 80.6508 44.5688 81.1671 44.4392C82.0637 44.2141 82.0245 44.8669 82.0245 30.1545C82.0245 17.3286 82.0092 16.5745 81.7272 15.5886C80.96 12.9057 78.9286 10.9469 76.1689 10.2285C75.3441 10.0137 72.3218 9.98791 49.8295 10.0031C35.8552 10.0125 24.1403 10.0765 23.7964 10.1456ZM68.7376 12.418C68.7376 12.466 68.53 12.7649 68.2761 13.0824C67.3748 14.2096 67.0103 15.2891 66.8554 17.2909C66.7758 18.3174 66.7112 34.1703 66.7092 53.1595L66.7054 87.1888L66.358 87.432C66.0474 87.6496 63.5724 87.6754 42.9886 87.6754C20.175 87.6754 19.9639 87.6726 19.654 87.3628C19.3433 87.052 19.3414 86.8418 19.3414 52.4588C19.3414 15.2336 19.3036 17.0547 20.108 15.4914C20.8027 14.1409 22.6223 12.8096 24.1943 12.5013C24.9435 12.3545 68.7376 12.2725 68.7376 12.418ZM27.0791 20.1965C25.6136 20.9077 24.8219 22.1794 24.8159 23.831C24.8075 26.1797 26.7599 27.9717 29.11 27.7719C30.6223 27.6434 31.7617 26.8076 32.4378 25.3312C33.0964 23.8926 32.7545 22.1587 31.5806 20.985C30.8104 20.2146 30.1746 19.9467 28.9549 19.8784C28.0362 19.827 27.7353 19.8781 27.0791 20.1965ZM29.8176 22.6085C30.4796 23.2053 30.5812 23.9612 30.0957 24.6797C29.172 26.0467 27.1412 25.4192 27.1627 23.7735C27.181 22.3863 28.7886 21.6809 29.8176 22.6085ZM37.2327 23.0313C37.0216 23.2423 36.8489 23.5972 36.8489 23.8199C36.8489 24.0427 37.0216 24.3975 37.2327 24.6085C37.5886 24.9646 37.7268 24.992 39.1475 24.9873C40.7806 24.982 41.1087 24.8648 41.358 24.1965C41.5222 23.7568 41.3375 23.1581 40.9461 22.8606C40.7701 22.727 40.1553 22.6558 39.1475 22.6526C37.7268 22.6479 37.5886 22.6752 37.2327 23.0313ZM44.223 23.0093C43.7422 23.5212 43.7741 24.2586 44.2951 24.6683C44.7001 24.9868 44.8464 24.9923 53.036 24.9923C57.617 24.9923 61.479 24.9485 61.6181 24.8952C61.9998 24.7488 62.3501 23.9603 62.2359 23.505C62.0163 22.63 62.2037 22.6476 53.0202 22.6476H44.563L44.223 23.0093ZM27.5193 33.1622C25.3815 33.9915 24.3568 36.0849 24.9837 38.3426C25.2235 39.2057 26.5923 40.544 27.4801 40.7831C29.7024 41.3815 31.8552 40.3259 32.5458 38.2993C33.1942 36.3964 32.344 34.3371 30.5226 33.399C29.7759 33.0143 28.2174 32.8915 27.5193 33.1622ZM29.4345 35.5381C30.083 35.809 30.5129 36.6531 30.3591 37.3534C30.214 38.0143 29.4498 38.5919 28.7204 38.5919C28.2574 38.5919 28.0086 38.4812 27.6382 38.1109C27.0094 37.482 26.9762 36.6425 27.5534 35.9567C27.8965 35.549 28.0928 35.4474 28.7645 35.3305C28.8317 35.3188 29.1333 35.4122 29.4345 35.5381ZM37.5234 35.9356C36.8001 36.227 36.6293 37.2368 37.2106 37.7831L37.5725 38.1229H49.6136C60.8858 38.1229 61.6702 38.1054 61.8951 37.8494C62.4713 37.1932 62.3303 36.2842 61.6006 35.9517C61.1335 35.7389 38.0499 35.7235 37.5234 35.9356ZM28.1733 46.2C26.779 46.5204 25.6161 47.3989 25.105 48.518C24.7232 49.3537 24.7232 50.9639 25.105 51.8041C26.2029 54.2211 29.4526 54.9281 31.3956 53.1728C32.3746 52.2884 32.6985 51.5415 32.7029 50.1593C32.7059 49.1675 32.6426 48.8786 32.2915 48.2835C31.7877 47.4296 31.3419 47.0047 30.5181 46.5936C29.8681 46.2694 28.7142 46.0756 28.1733 46.2ZM29.8561 48.9927C31.1346 50.2714 29.8209 52.3428 28.1691 51.6526C27.0802 51.1978 26.8074 49.9416 27.6107 49.0817C28.2191 48.4305 29.2527 48.3895 29.8561 48.9927ZM37.7329 49.0664C36.5852 49.4173 36.531 50.8468 37.6505 51.2371C38.3195 51.4704 53.8009 51.4783 54.4679 51.2457C54.9154 51.0897 55.2943 50.5564 55.2943 50.0826C55.2943 49.9624 55.1245 49.6668 54.9171 49.4256L54.5399 48.987L46.3588 48.9587C41.8592 48.943 37.9775 48.9915 37.7329 49.0664ZM58.6192 49.0099C58.2426 49.0922 57.6391 49.7603 57.6391 50.0949C57.6391 50.2083 57.721 50.4807 57.8212 50.7005C58.0672 51.2407 58.878 51.4604 60.3513 51.386C61.7324 51.3162 62.2243 50.9941 62.2243 50.1593C62.2243 49.2996 61.7555 49.0156 60.2644 48.9718C59.5513 48.9508 58.8108 48.968 58.6192 49.0099ZM27.9898 59.241C27.0461 59.4155 26.4956 59.7448 25.7701 60.5691C25.0432 61.3949 24.8131 62.0516 24.8169 63.29C24.8213 64.764 25.7059 66.1326 27.0943 66.8135C27.9682 67.2421 29.6801 67.2238 30.5181 66.7771C32.3612 65.7945 33.1944 63.7663 32.5417 61.8511C31.9179 60.02 29.9325 58.8817 27.9898 59.241ZM29.8615 61.9727C31.0267 63.1379 30.0191 65.0738 28.4145 64.7529C27.7292 64.6158 27.1573 63.8791 27.1573 63.1336C27.1573 61.7788 28.9138 61.0248 29.8615 61.9727ZM37.1887 62.4011C36.6274 62.9987 36.7597 63.7802 37.4854 64.1555C37.8618 64.3501 39.6467 64.3842 49.4795 64.3842C57.1428 64.3842 61.1898 64.329 61.5021 64.22C62.3134 63.9373 62.5051 63.0076 61.8951 62.313C61.6702 62.0569 60.8847 62.0394 49.5917 62.0394H37.5287L37.1887 62.4011ZM27.0791 72.7288C23.9056 74.2292 24.0913 78.8419 27.3756 80.0962C28.2351 80.4245 29.7876 80.3559 30.5617 79.9555C31.2462 79.6016 32.0409 78.7782 32.4037 78.0468C32.8217 77.2044 32.8197 75.4764 32.3998 74.6297C31.4264 72.6666 29.0252 71.8089 27.0791 72.7288ZM29.9558 75.2401C30.5123 75.7966 30.5264 76.8455 29.985 77.4216C28.9719 78.5001 27.1573 77.8074 27.1573 76.3424C27.1573 74.8901 28.9138 74.1981 29.9558 75.2401ZM37.2327 75.5538C37.0216 75.7648 36.8489 76.1197 36.8489 76.3424C36.8489 76.5652 37.0216 76.92 37.2327 77.131L37.6163 77.5148H49.4907C56.0216 77.5148 61.479 77.471 61.6181 77.4177C61.7574 77.3643 61.9797 77.1109 62.1122 76.8545C62.3104 76.4711 62.3195 76.3071 62.1632 75.9296C62.0586 75.6773 61.8466 75.4031 61.6922 75.3204C61.5193 75.2279 56.8314 75.17 49.5137 75.17H37.6163L37.2327 75.5538Z" fill="#050000" stroke="#050000" stroke-width="0.6"/>
</svg>
