<svg width="100" height="100" viewBox="0 0 100 100" fill="none" xmlns="http://www.w3.org/2000/svg">
<path fill-rule="evenodd" clip-rule="evenodd" d="M23.7964 10.1456C20.5543 10.7964 17.8523 13.46 17.1719 16.6761C17.0454 17.2742 16.9976 27.227 17.0001 52.4727C17.0034 85.9578 17.0156 87.4675 17.2882 88.0676C17.644 88.8508 18.5286 89.6406 19.2997 89.8638C19.7163 89.9844 26.7526 90.0208 43.3484 89.9881L66.8081 89.942L67.5689 89.4716C68.1092 89.1376 68.4454 88.7763 68.729 88.2255L69.1284 87.4497L69.1734 76.464L69.2184 65.4784H74.4159C79.4978 65.4784 79.6288 65.4706 80.3019 65.1267C80.6805 64.9332 81.2054 64.5047 81.4683 64.1744L81.9464 63.5738L81.9896 55.6131L82.0328 47.6523L81.645 47.2645C81.1521 46.7716 80.5537 46.7701 80.0635 47.2604L79.6798 47.644V55.227C79.6798 62.5992 79.6713 62.8146 79.3732 62.974C79.173 63.0813 77.3458 63.1238 74.0975 63.0968L69.1284 63.0555L69.086 40.5458C69.0574 25.2929 69.0971 17.6868 69.2092 16.9523C69.5034 15.0243 70.5447 13.6415 72.3141 12.8294C73.5785 12.249 75.3312 12.2584 76.5731 12.8524C77.6081 13.3473 78.7783 14.5344 79.261 15.5794L79.6016 16.3167L79.6394 29.8381C79.6602 37.2749 79.714 43.5165 79.7589 43.7084C79.8648 44.161 80.6508 44.5688 81.1671 44.4392C82.0638 44.2141 82.0245 44.8669 82.0245 30.1545C82.0245 17.3286 82.0092 16.5745 81.7272 15.5886C80.96 12.9057 78.9287 10.9469 76.1689 10.2285C75.3441 10.0137 72.3218 9.98791 49.8295 10.0031C35.8552 10.0125 24.1403 10.0765 23.7964 10.1456ZM68.7376 12.418C68.7376 12.466 68.53 12.7649 68.2761 13.0824C67.3748 14.2096 67.0103 15.2891 66.8554 17.2909C66.7758 18.3174 66.7112 34.1703 66.7092 53.1595L66.7054 87.1888L66.358 87.432C66.0474 87.6496 63.5724 87.6754 42.9886 87.6754C20.175 87.6754 19.9639 87.6726 19.654 87.3628C19.3433 87.052 19.3414 86.8418 19.3414 52.4588C19.3414 15.2336 19.3036 17.0547 20.108 15.4914C20.8027 14.1409 22.6223 12.8096 24.1943 12.5013C24.9435 12.3545 68.7376 12.2725 68.7376 12.418Z" fill="#050000" stroke="#050000" stroke-width="0.6"/>
<path fill-rule="evenodd" clip-rule="evenodd" d="M44.1594 33.567C43.8247 33.5142 43.4354 33.5923 43.1244 33.7747C42.8834 33.9161 42.6826 34.2269 35.2285 45.9959C27.7745 57.7648 27.5793 58.0792 27.5545 58.3575C27.4409 59.6325 28.7958 60.4419 29.8318 59.718C30.0317 59.5783 30.4876 58.8824 33.6615 53.8712L37.2643 48.1829L44.2644 52.5946L51.2646 57.0064L51.6155 57.0253C52.348 57.0649 53.0297 56.5386 53.148 55.8423C53.1748 55.6839 53.0839 54.1363 52.9459 52.4032L52.695 49.252L55.6511 48.1321C57.2769 47.5162 58.7148 46.9369 58.8466 46.8449C59.4256 46.4404 59.61 45.5992 59.2612 44.9539L59.094 44.6447L52.1137 40.2017L45.1333 35.7587L45.226 35.6124C45.3488 35.4184 45.3853 34.9576 45.3035 34.6338C45.1669 34.0942 44.6915 33.6509 44.1594 33.567ZM54.624 45.3712C53.5973 45.7374 50.525 46.9341 50.3541 47.0344C50.0531 47.2111 49.7407 47.7053 49.6992 48.0701C49.6756 48.2783 49.8911 51.4493 50.0109 52.6547C50.0195 52.7413 48.8956 52.05 44.434 49.2241L38.8463 45.6851L41.1988 41.9708L43.5513 38.2565L49.139 41.7955C53.6006 44.6214 54.706 45.3419 54.624 45.3712Z" fill="#050000"/>
</svg>
