<svg width="100" height="100" viewBox="0 0 100 100" fill="none" xmlns="http://www.w3.org/2000/svg">
<path fill-rule="evenodd" clip-rule="evenodd" d="M57.1436 5.19581C55.5048 5.80928 54.0833 7.19434 53.0537 9.18108C51.9982 11.2176 51.3515 13.6402 50.485 18.805C50.2041 20.4785 49.9322 21.916 49.8807 21.9994C49.8291 22.0827 49.4485 22.1985 49.0347 22.2565C48.3264 22.3561 31.386 28.7382 30.1935 29.3548C29.295 29.8195 28.704 30.3127 28.2444 30.9816C27.861 31.54 9.71321 75.0882 9.15409 76.7923C8.85193 77.7125 9.01127 79.4926 9.48263 80.4666C10.2968 82.1484 11.2339 82.7588 15.8607 84.6216C18.1043 85.5247 18.4129 85.5638 19.0424 85.0231C19.4466 84.6759 19.442 83.6739 19.0343 83.2663C18.8605 83.0925 17.4162 82.4131 15.8245 81.7563C14.2328 81.0996 12.7424 80.391 12.5122 80.1815C11.9944 79.7103 11.6115 78.8404 11.6115 78.1353C11.6115 77.831 15.6075 67.9636 20.9197 55.1503C27.8809 38.3594 30.3532 32.574 30.725 32.2041C31.0983 31.833 33.1277 30.9814 38.8729 28.7855C48.3 25.1823 49.416 24.77 49.5043 24.8583C49.6552 25.0092 49.1889 27.8613 49.0053 27.911C48.8978 27.9401 48.49 28.0503 48.0986 28.1562C47.1178 28.4211 45.9418 29.4801 45.4462 30.5445C43.7347 34.2199 47.6012 38.0947 51.2736 36.3846C52.233 35.9379 53.2 34.9578 53.5808 34.0464C53.9333 33.2027 53.8819 31.4054 53.4799 30.5199C53.2955 30.1139 52.8382 29.4878 52.4635 29.1285L51.7821 28.4753L51.994 26.8201C52.1106 25.9097 52.2431 25.1279 52.2883 25.0827C52.4221 24.9491 53.8385 26.1069 54.3557 26.7729C55.1011 27.7325 62.9684 44.901 62.9684 45.5682C62.9684 46.1041 45.1164 89.5066 44.2764 91.0131C43.874 91.7349 42.7867 92.3761 41.9657 92.3761C41.6964 92.3761 37.6494 90.7932 32.9721 88.8585C28.2949 86.9238 24.2664 85.3409 24.0196 85.3409C23.0338 85.3409 22.4515 86.8443 23.1814 87.505C23.3537 87.661 27.3309 89.3814 32.0194 91.3282C41.3069 95.1847 41.6796 95.2971 43.4719 94.776C44.596 94.4492 45.8891 93.5244 46.4178 92.669C46.6207 92.3404 47.6501 89.9856 48.7052 87.436L50.6237 82.8005L51.3135 84.2906C55.1709 92.6231 55.4386 93.0723 57.0522 93.9205C57.8436 94.3365 58.1523 94.3947 59.5387 94.3892C60.9363 94.3838 61.2557 94.3194 62.2649 93.8401C62.8937 93.5413 64.0017 93.0186 64.7272 92.6783C68.7735 90.78 76.2299 87.2902 82.4911 84.3643C88.6606 81.4812 89.7227 80.9279 90.4245 80.232C91.8653 78.8026 92.3523 76.6236 91.6609 74.7002C91.0283 72.94 77.3352 43.9124 76.9966 43.6134C76.5393 43.2096 75.5906 43.217 75.2193 43.6273C75.0593 43.8043 74.9282 44.1958 74.9282 44.4972C74.9282 44.852 77.4762 50.4872 82.1393 60.4453C87.6512 72.2162 89.3497 76.0003 89.3476 76.5038C89.343 77.5118 88.7033 78.4735 87.7073 78.9695C87.2389 79.2029 80.9468 82.1665 73.7249 85.5557C59.2032 92.3701 59.3703 92.3075 58.0585 91.4394C57.5881 91.1281 57.2228 90.6673 56.8905 89.9664C54.4716 84.8627 52.0639 79.6438 52.0639 79.5047C52.0639 79.4108 55.0394 72.1577 58.6761 63.3864C62.3127 54.6152 65.3762 47.0232 65.4837 46.5154C65.6268 45.8399 65.627 45.3434 65.4847 44.6648C65.3778 44.155 63.6489 40.1952 61.643 35.8657C59.6369 31.5361 58.0307 27.9585 58.0738 27.9154C58.1644 27.8249 67.3267 30.691 67.8621 30.9775C68.4335 31.2834 68.7898 31.9141 70.6035 35.8307C71.5524 37.8797 72.5088 39.7005 72.7515 39.9199C73.4853 40.5835 74.3621 40.3786 74.745 39.454C74.943 38.9762 74.8931 38.7813 74.1697 37.2049C70.9847 30.264 70.4477 29.3795 68.9612 28.6262C68.5153 28.4003 65.633 27.423 62.5558 26.4544C59.4786 25.486 56.9199 24.6525 56.8698 24.6024C56.8196 24.5523 57.0136 24.1692 57.3008 23.7513C59.4624 20.6062 62.3894 15.0013 62.939 12.9544C63.3492 11.4272 63.434 9.51366 63.1385 8.45029C62.8333 7.35104 61.9082 6.18303 60.8951 5.6174C59.7913 5.00129 58.1549 4.81732 57.1436 5.19581ZM59.5199 7.86866C60.3175 8.24715 60.682 8.96105 60.682 10.1454C60.682 11.62 60.4048 12.5545 59.2454 14.989C58.0645 17.4687 57.0639 19.2611 55.5466 21.6158L54.5065 23.23L53.6272 22.8227C53.1438 22.5988 52.712 22.3791 52.6676 22.3348C52.5322 22.1995 53.6394 15.9349 54.1698 13.8347C54.9455 10.7633 56.1986 8.56268 57.5513 7.8961C58.2805 7.5366 58.805 7.52939 59.5199 7.86866ZM50.6433 31.0976C51.0995 31.4816 51.1845 31.6768 51.1845 32.3423C51.1845 33.3285 50.4704 34.1599 49.6233 34.1599C47.9071 34.1599 47.0216 32.3158 48.181 31.1564C48.869 30.4683 49.8671 30.4446 50.6433 31.0976ZM35.3553 45.6777C30.7583 46.7119 26.9936 49.6688 25.0515 53.7705C24.0501 55.8853 23.7453 57.09 23.6278 59.3986C23.4176 63.5236 24.7545 67.1884 27.5847 70.2453C31.7796 74.7764 38.7239 76.1494 44.4085 73.5719C47.2928 72.2641 49.996 69.7029 51.4228 66.9263C52.1597 65.4922 51.2462 64.1696 49.8807 64.6935C49.7283 64.7519 49.2271 65.4343 48.7672 66.2098C47.7277 67.9615 45.723 69.8992 44.0288 70.7895C38.8903 73.4898 32.4265 72.2082 28.9297 67.7955C25.888 63.9571 25.3743 58.9692 27.5668 54.562C28.4958 52.6945 30.8761 50.319 32.7273 49.412C37.6716 46.9896 43.0753 47.8458 46.8798 51.6541C49.0106 53.7872 49.9422 55.7819 50.3775 59.1431C50.5539 60.5048 50.6913 61.0115 50.9319 61.1873C51.4453 61.5629 52.2075 61.4695 52.707 60.97C53.1399 60.5371 53.1531 60.4636 53.0319 59.1672C52.6763 55.361 51.0525 51.9294 48.4349 49.4521C46.6265 47.7406 45.0732 46.8361 42.5663 46.0344C40.6886 45.4341 37.2041 45.2618 35.3553 45.6777ZM39.6063 52.4614C39.3926 52.6603 39.1238 53.1748 39.009 53.6046C38.8055 54.365 38.7807 54.3862 38.089 54.3899C37.1485 54.395 36.0723 54.9017 35.4626 55.6262C34.807 56.4052 34.6268 56.9265 34.6268 58.0426C34.6266 59.7722 35.7957 61.0744 37.8176 61.5971C38.967 61.8942 39.4005 62.2229 39.4005 62.7972C39.4005 63.8009 38.7925 63.9288 36.9067 63.3213C36.0583 63.048 35.707 62.8491 35.707 62.6415C35.707 62.0944 35.0146 61.4213 34.4516 61.4213C33.6742 61.4213 33.2808 61.7023 33.0898 62.3941C32.7656 63.5682 33.3829 64.7864 34.568 65.3107L35.3342 65.6496L35.079 66.5089C34.7903 67.481 34.937 68.1385 35.5111 68.4457C36.4385 68.9421 37.2607 68.4229 37.6528 67.0934C37.8654 66.3728 37.8992 66.3457 38.5929 66.342C41.7708 66.325 43.2138 62.3828 40.86 60.1481C40.5808 59.883 39.772 59.4688 39.0625 59.2275C37.5186 58.7023 37.2899 58.5333 37.2899 57.9174C37.2899 56.9376 37.7423 56.8403 39.6794 57.4031C40.7808 57.723 40.9834 57.8411 40.9834 58.1615C40.9834 59.1682 42.5234 59.7054 43.2699 58.9589C43.7386 58.4902 43.7483 57.1319 43.2878 56.4335C42.8949 55.8374 42.0825 55.2683 41.6224 55.2667C41.3633 55.2656 41.3197 55.1819 41.4156 54.8697C41.4824 54.652 41.5797 54.1108 41.6317 53.6669C41.7168 52.9407 41.6778 52.8214 41.2432 52.4797C40.6368 52.0025 40.1051 51.9966 39.6063 52.4614ZM72.445 55.6185C72.2885 55.7099 72.064 56.0172 71.9464 56.3012C71.6901 56.9196 71.2024 55.7653 76.4135 66.8735C78.6145 71.5651 80.5745 75.5423 80.7692 75.7115C81.5378 76.3802 82.8428 75.7783 82.8428 74.7552C82.8428 74.1117 74.4665 56.3234 73.9345 55.8371C73.4795 55.4211 72.9225 55.3393 72.445 55.6185ZM66.4218 58.9718C66.1182 59.2105 65.9584 59.5061 65.9584 59.8287C65.9584 60.503 74.3114 78.2818 74.8667 78.7894C75.7132 79.5633 76.9431 79.0506 76.922 77.9327C76.9085 77.2167 68.5732 59.3867 68.0316 58.915C67.562 58.5061 66.9881 58.5263 66.4218 58.9718Z" fill="#050000" stroke="#050000" stroke-width="0.3"/>
</svg>
