<svg width="100" height="100" viewBox="0 0 100 100" fill="none" xmlns="http://www.w3.org/2000/svg">
<path fill-rule="evenodd" clip-rule="evenodd" d="M47.1698 10.3719C46.2375 10.8163 45.8137 11.2487 45.3861 12.1919C44.8352 13.4073 45.0648 15.1896 45.8861 16.0699C46.3956 16.616 47.3173 17.0401 48.2302 17.1482L49.0348 17.2435L45.5256 20.6398L42.0164 24.0362L39.8275 22.8993C37.2898 21.5813 36.697 21.4337 35.4178 21.8012C34.5194 22.0591 34.4505 22.1244 24.6698 31.9868C19.2558 37.4462 14.6633 42.1823 14.4642 42.5118C14.2647 42.8419 14.0636 43.4857 14.0161 43.9466C13.8622 45.4374 14.8273 47.0055 16.2694 47.6082C17.0072 47.9163 18.3409 47.9043 18.9828 47.5835C19.2747 47.4376 23.4945 43.3441 28.3602 38.4871L37.2067 29.656L39.4394 30.8041C41.4887 31.8582 41.75 31.9526 42.6241 31.9549C43.2605 31.9566 43.7812 31.8558 44.195 31.6507C44.54 31.4796 46.9272 29.3074 49.5856 26.7454C53.1136 23.3455 54.368 22.2241 54.398 22.4429C54.7994 25.3682 55.8372 26.5973 57.9203 26.6141C59.4644 26.6265 60.7017 25.8454 61.3306 24.461C61.5897 23.8905 61.6164 23.3194 61.6195 18.2746L61.623 12.7168L61.1933 11.8691C60.8706 11.2329 60.572 10.9046 59.995 10.5521L59.2262 10.0826L53.5887 10.0412L47.9511 9.99976L47.1698 10.3719ZM59.0333 12.7388C59.2325 13.0026 59.27 13.8594 59.2742 18.2379L59.2792 23.4244L58.9133 23.8499C58.4112 24.4335 57.6472 24.4335 57.1452 23.8499C56.7983 23.4466 56.7792 23.3082 56.7792 21.1849C56.7792 19.2296 56.7422 18.8994 56.4869 18.5843C56.278 18.3263 56.0316 18.2232 55.6237 18.2232C55.1322 18.2232 54.9077 18.3649 54.0022 19.2466C47.7212 25.3627 43.2431 29.5546 42.8961 29.6427C42.565 29.7266 41.9606 29.4766 39.8725 28.3916C38.4372 27.6458 37.0802 27.0357 36.8569 27.0357C36.5278 27.0357 34.7177 28.7816 27.2984 36.2544C18.7553 44.8591 18.1102 45.4732 17.6117 45.4732C16.6198 45.4732 16.0356 44.503 16.5117 43.6469C16.6162 43.4588 21.0514 38.9413 26.3677 33.6079C32.658 27.2971 36.1417 23.9107 36.3431 23.9107C36.5134 23.9107 37.8267 24.5083 39.2614 25.2388C40.6961 25.9693 42.0658 26.5669 42.3052 26.5669C42.7427 26.5669 43.6409 25.7446 51.2819 18.3491C53.1809 16.511 53.2314 16.4448 53.1312 15.9273C52.945 14.9646 52.6362 14.8482 50.2705 14.8482C48.25 14.8482 48.1569 14.8338 47.7878 14.4646C47.3719 14.0488 47.2891 13.3691 47.6045 12.9618C48.0608 12.3729 48.2981 12.3502 53.6086 12.3887C58.5914 12.4248 58.8067 12.4387 59.0333 12.7388ZM67.7673 18.9793C66.343 19.4248 65.1681 20.4901 64.4827 21.9576L64.0448 22.8951L64.0014 41.2727L63.9581 59.6505L63.077 59.8274C62.5923 59.9248 62.14 60.0044 62.0717 60.0044C62.0033 60.0044 61.9272 54.2212 61.9023 47.1529L61.8573 34.3013L61.5006 33.419C60.9963 32.1716 60.0914 31.2099 58.8445 30.5962C57.8105 30.0869 57.7817 30.0826 55.5325 30.0826C53.3931 30.0826 53.212 30.1066 52.362 30.5051C51.1734 31.0619 50.0275 32.2507 49.57 33.401C49.2206 34.2796 49.2106 34.4588 49.1556 40.8093L49.0991 47.3174L48.1908 47.8015C47.6911 48.0679 47.2478 48.2857 47.2056 48.2857C47.1636 48.2857 47.0998 47.1783 47.0642 45.8248C47.0053 43.5854 46.9633 43.2865 46.5983 42.5044C46.1192 41.4782 45.2775 40.6085 44.2948 40.1243C43.6264 39.7949 43.3737 39.7701 40.6855 39.7701C37.8555 39.7701 37.7784 39.7788 37.0136 40.1858C36.0009 40.7246 35.332 41.4373 34.837 42.5044L34.4386 43.3638L34.437 49.2234L34.4355 55.083L32.4958 56.1229C30.6658 57.1041 30.2528 57.2488 25.1911 58.681C18.9573 60.4448 17.6773 60.9752 16.472 62.294C15.615 63.2318 14.8898 64.6294 14.5902 65.921C14.313 67.1158 14.4903 68.5562 15.2845 71.5598C16.0025 74.2751 16.2359 74.6919 17.038 74.6919C17.4697 74.6919 18.1855 74.0541 18.1855 73.6694C18.1855 73.5288 17.8631 72.1721 17.4692 70.6544C16.8736 68.3604 16.7667 67.7369 16.8352 66.9576C16.9812 65.2937 17.863 63.8273 19.1819 63.0543C19.7503 62.7212 30.1895 59.5893 30.2867 59.7227C30.3056 59.7488 32.0289 64.3362 34.1159 69.9169L37.9108 80.064L37.8362 81.1035C37.7023 82.9768 36.5595 84.7096 34.942 85.4927C33.8553 86.0188 27.058 87.5385 25.6855 87.5623C24.2767 87.5866 23.1397 87.1293 22.2042 86.1621C21.3564 85.2855 21.1128 84.6743 20.2172 81.1763C19.565 78.6296 19.3448 77.9863 19.0269 77.6998C18.3725 77.1101 17.3952 77.3652 17.1909 78.1793C17.0672 78.6723 18.6806 84.7899 19.2622 86.0326C19.7856 87.1513 21.0617 88.4843 22.2045 89.1063C23.0803 89.583 24.668 89.9987 25.6259 90.0021C27.24 90.0079 34.7859 88.2646 36.3016 87.5357C37.5161 86.9518 38.9581 85.4801 39.5477 84.2232C40.1184 83.0059 40.2495 82.3479 40.2402 80.7466C40.2362 80.0807 40.2725 79.5357 40.3206 79.5357C40.5933 79.5357 66.1131 73.231 66.9423 72.9587C68.2311 72.5357 69.5873 71.8518 70.7636 71.0321C71.2792 70.6727 74.6542 67.9454 78.2636 64.9713C85.238 59.2246 85.6762 58.7877 86.098 57.1616C86.3906 56.0338 86.3647 55.3118 85.9922 54.206C85.5756 52.9696 85.0975 52.2324 84.1995 51.4419C82.5342 49.9762 80.2428 49.7565 77.9786 50.8455C77.3323 51.1563 76.763 51.4107 76.7133 51.4107C76.6636 51.4107 76.623 46.9862 76.623 41.5784V31.7458L76.2112 31.4221C75.6753 31.0004 75.3328 31.0133 74.7958 31.4752L74.3573 31.8523L74.3141 42.5665L74.2709 53.2805L72.7516 54.4271C69.9133 56.569 66.8191 58.5982 66.3916 58.5982C66.3434 58.5982 66.323 50.6354 66.3462 40.9029C66.3848 24.7796 66.4116 23.1658 66.6472 22.7388C67.3344 21.493 68.2441 21.0969 70.407 21.1016C72.3056 21.1057 73.0566 21.3702 73.7505 22.2798C74.1945 22.8618 74.2023 22.9077 74.2875 25.4423C74.3698 27.8882 74.3917 28.0287 74.7345 28.3063C75.1736 28.6618 75.8089 28.6818 76.2756 28.3549C76.6106 28.1204 76.623 28.0201 76.623 25.5483C76.623 23.3641 76.5766 22.8608 76.3092 22.1463C75.7509 20.6541 74.455 19.4513 72.8953 18.978C71.9678 18.6965 68.6692 18.6974 67.7673 18.9793ZM58.1981 32.8959C58.5627 33.1532 59.0077 33.6451 59.1872 33.9888C59.5094 34.6057 59.5142 34.7798 59.557 47.3091L59.6005 60.0044H55.6898C53.5391 60.0044 51.7792 59.9457 51.7792 59.874C51.7792 59.8023 52.4166 59.2282 53.1956 58.5985C53.9747 57.9688 54.9645 57.0607 55.3952 56.5805C56.2908 55.5821 57.4169 53.3824 57.8019 51.8794C58.4578 49.3183 57.4559 47.0505 55.2247 46.0452C54.4781 45.709 52.8714 45.5988 52.0527 45.8277L51.623 45.9479V40.2355C51.623 34.8533 51.6408 34.4882 51.9319 33.9176C52.2589 33.2766 52.9208 32.7191 53.6216 32.4946C53.8544 32.4199 54.8303 32.3744 55.7902 32.3933C57.4511 32.4262 57.5677 32.4504 58.1981 32.8959ZM43.4995 42.3873C44.6247 43.153 44.6647 43.2919 44.7169 46.6169L44.7639 49.6138L40.8669 51.6841C38.7234 52.8229 36.927 53.7544 36.8745 53.7544C36.8222 53.7544 36.7792 51.4798 36.7792 48.6994C36.7792 43.7041 36.7834 43.6382 37.1339 43.1135C37.7481 42.194 38.282 42.0362 40.7795 42.036C42.8077 42.0357 43.0241 42.0637 43.4995 42.3873ZM54.2781 48.2254C55.5011 48.7148 55.907 49.8285 55.4533 51.4501C54.8306 53.6754 53.9077 54.9994 51.7766 56.7254C49.9141 58.2337 49.5931 58.6833 49.5923 59.786C49.5916 60.7099 49.9961 61.4313 50.8295 61.9929C51.3537 62.3462 51.3883 62.3482 57.0167 62.3482C62.5234 62.3482 62.7184 62.3377 64.2202 61.9605C66.5762 61.3688 68.1006 60.5008 73.5761 56.6333C76.3261 54.691 78.837 52.9673 79.1558 52.803C80.4539 52.1343 82.3173 52.581 83.1762 53.7666C84.3197 55.3451 84.1039 56.8952 82.5344 58.3785C81.9497 58.931 71.8902 67.2096 69.9042 68.7724C68.9531 69.521 67.9131 70.1008 66.7075 70.5546C65.3533 71.0643 39.552 77.3716 39.4105 77.2276C39.3489 77.1649 37.7767 73.0371 35.9166 68.0546C34.0566 63.0719 32.5097 58.9549 32.4792 58.9055C32.4486 58.8562 36.1228 56.8507 40.6442 54.4491C52.2066 48.3074 52.8584 47.9732 53.2756 47.9732C53.4803 47.9732 53.9314 48.0866 54.2781 48.2254ZM27.5834 75.6412C24.1747 76.3113 22.7917 80.7683 25.217 83.2674C26.0744 84.1508 26.9719 84.5684 28.2036 84.6568C30.6703 84.8338 32.7184 83.1751 33.118 80.6765C33.4639 78.5129 31.843 76.2104 29.6022 75.6829C28.6309 75.4541 28.5436 75.4524 27.5834 75.6412ZM29.5136 78.1294C31.1495 78.9213 31.2522 81.0768 29.7005 82.0518C29.0042 82.4893 27.7205 82.3959 27.1537 81.8665C26.5148 81.2694 26.2662 80.661 26.3517 79.9027C26.4533 79.0021 26.8241 78.4774 27.6117 78.1198C28.4408 77.7433 28.7189 77.7448 29.5136 78.1294Z" fill="#050000" stroke="#050000" stroke-width="0.5"/>
</svg>
