<svg width="100" height="100" viewBox="0 0 100 100" fill="none" xmlns="http://www.w3.org/2000/svg">
<path fill-rule="evenodd" clip-rule="evenodd" d="M70.1793 10.2415C64.6527 11.4441 60.0575 16.095 58.987 21.5695L58.779 22.6326L40.3713 22.6889C22.3126 22.7441 21.9406 22.752 20.7661 23.1009C18.4094 23.8008 16.8852 24.5653 15.2075 25.8886C13.5763 27.1753 11.8463 29.3519 11.0527 31.1156C10.7792 31.7234 10.6386 31.8286 9.75115 32.0903C7.80068 32.665 6.21416 34.6681 6.02089 36.7999C5.7888 39.3591 7.51436 41.8131 10.0075 42.4699C10.5978 42.6253 10.7592 42.769 11.0324 43.3817C11.8371 45.1874 13.5953 47.343 15.3785 48.7099C17.185 50.0944 18.7568 50.8359 21.0762 51.3968C22.316 51.6967 23.2129 51.7201 33.4929 51.7201H44.5734L44.8758 52.3904C45.3048 53.342 46.4351 54.4308 47.533 54.9501C48.8633 55.5793 50.6496 55.5793 51.9799 54.9501C53.0819 54.4289 54.2085 53.3412 54.6417 52.3803L54.9485 51.6998L65.907 51.7685C77.7791 51.8429 77.6133 51.8302 79.7966 52.831C81.9555 53.8206 83.9199 55.6028 84.8406 57.4075L85.1806 58.074L84.409 58.7925C82.0754 60.9655 82.0801 64.6228 84.4191 66.779L85.2102 67.5079L84.8005 68.2909C84.5753 68.7216 83.7709 69.7009 83.013 70.4672C81.9061 71.5863 81.347 71.9998 80.1701 72.5694C77.5909 73.8177 78.2003 73.7835 58.5574 73.7835H41.0493L40.9439 73.1422C40.1741 68.4574 36.9492 64.2985 32.5331 62.2962C28.9674 60.6794 24.3457 60.6484 20.7978 62.2175C16.546 64.0979 13.3114 68.09 12.3659 72.6244C12.1073 73.865 12.029 76.7125 12.2224 77.8418C12.9893 82.3183 15.8598 86.3065 19.7998 88.3694C22.0754 89.561 23.2889 89.8765 25.9827 89.9772C28.5716 90.0742 29.9221 89.8688 31.9064 89.0764C34.814 87.9154 37.4758 85.6733 39.0302 83.076C39.8164 81.7625 40.7274 79.3569 40.9439 78.0225L41.047 77.3871L59.2983 77.3306C77.1972 77.2752 77.5726 77.2673 78.7468 76.9186C81.1033 76.2187 82.6277 75.4542 84.3054 74.1309C85.9365 72.8442 87.6665 70.6676 88.4602 68.9039C88.7336 68.2961 88.8742 68.1909 89.7617 67.9292C91.7122 67.3545 93.2987 65.3514 93.492 63.2196C93.7241 60.6604 91.9985 58.2064 89.5053 57.5496C88.9151 57.3942 88.7536 57.2505 88.4805 56.6379C87.6758 54.8321 85.9176 52.6765 84.1344 51.3096C82.3279 49.9251 80.7561 49.1837 78.4367 48.6227C77.1969 48.3228 76.2999 48.2994 66.0199 48.2994H54.9395L54.6371 47.6291C54.2081 46.6775 53.0778 45.5887 51.9799 45.0694C50.6496 44.4402 48.8633 44.4402 47.533 45.0694C46.431 45.5906 45.3044 46.6784 44.8712 47.6392L44.5644 48.3198L33.6058 48.251C21.7338 48.1766 21.8996 48.1893 19.7163 47.1885C17.5573 46.1989 15.593 44.4168 14.6723 42.612L14.3323 41.9455L15.1038 41.227C17.4374 39.054 17.4328 35.3967 15.0938 33.2405L14.3027 32.5116L14.7123 31.7286C14.9376 31.2979 15.742 30.3186 16.4998 29.5523C17.6068 28.4333 18.1659 28.0197 19.3428 27.4502C21.9233 26.2011 21.2975 26.236 41.0937 26.236H58.7404L59.1151 27.818C60.3409 32.9934 64.4663 37.1875 69.6819 38.5609C72.9393 39.4186 77.3356 38.8645 80.2006 37.2347C83.5426 35.3336 86.052 32.2208 87.2063 28.5449C87.7439 26.8325 87.8721 23.555 87.4777 21.6056C86.3602 16.0813 82.0801 11.6502 76.5905 10.3342C74.8992 9.9287 71.8216 9.88423 70.1793 10.2415ZM76.0102 13.8519C79.748 14.7491 82.8672 17.8936 83.8836 21.7891C84.2556 23.2148 84.2628 25.6442 83.8994 27.0912C82.967 30.8017 79.9237 33.9455 76.1813 35.0636C74.75 35.4913 71.7593 35.4932 70.3661 35.0675C64.7361 33.3472 61.317 27.8136 62.4783 22.3022C62.9269 20.1726 63.9441 18.3371 65.5588 16.7429C68.4703 13.8681 72.0049 12.8905 76.0102 13.8519ZM71.1357 16.6262C65.1328 18.1953 63.1188 25.772 67.5317 30.1848C70.6837 33.3368 75.7889 33.3768 78.8918 30.2739C82.1611 27.0044 82.2008 21.9569 78.9825 18.7385C76.8943 16.6504 74.0122 15.8744 71.1357 16.6262ZM75.0695 20.2633C78.1825 21.6707 78.7601 25.6406 76.1819 27.9099C75.2708 28.712 74.4076 29.0122 73.0595 28.9961C69.1822 28.9498 67.2445 24.0963 69.9804 21.2835C71.2614 19.9664 73.4449 19.5287 75.0695 20.2633ZM12.557 35.7445C13.999 36.6893 13.1818 39.0636 11.4145 39.0636C10.86 39.0636 10.6135 38.9507 10.1449 38.482C9.05384 37.391 9.50024 35.9589 11.1027 35.4087C11.4524 35.2887 12.0837 35.4344 12.557 35.7445ZM50.6173 48.3878C51.1577 48.6673 51.6378 49.4303 51.6378 50.0098C51.6378 50.2073 51.521 50.5945 51.3784 50.8706C51.0989 51.411 50.3359 51.8911 49.7564 51.8911C48.85 51.8911 47.8751 50.9162 47.8751 50.0098C47.8751 49.4476 48.3471 48.6748 48.8607 48.396C49.466 48.0677 49.9933 48.0653 50.6173 48.3878ZM89.368 61.5375C89.7831 61.9526 89.9495 62.2731 89.9495 62.6578C89.9495 64.1073 88.5522 65.0456 87.2874 64.4454C85.5025 63.5984 86.1166 60.956 88.0984 60.956C88.6529 60.956 88.8994 61.0688 89.368 61.5375ZM28.7798 64.802C32.7642 65.6462 36.0078 68.6758 37.2058 72.6718C37.6747 74.2363 37.6352 77.1035 37.1232 78.658C36.4914 80.5758 35.7426 81.8102 34.3633 83.2067C32.1642 85.4337 29.7707 86.463 26.7523 86.4798C23.517 86.4976 21.1287 85.5264 18.8815 83.2792C16.6327 81.0304 15.6534 78.6259 15.676 75.4084C15.6961 72.5028 16.6442 70.1846 18.7012 68.0099C21.3322 65.2284 25.1128 64.025 28.7798 64.802ZM24.2723 67.7778C22.7715 68.2631 21.9319 68.7691 20.8874 69.8184C19.7262 70.9847 19.0729 72.1336 18.7207 73.6274C18.052 76.4643 18.8563 79.3126 20.8918 81.3164C24.5436 84.911 30.5022 84.3164 33.3347 80.0749C35.4959 76.8382 35.0767 72.5882 32.3246 69.8361C30.2318 67.7433 26.9632 66.9078 24.2723 67.7778ZM28.7001 71.4647C30.1063 72.1919 31.1188 73.8123 31.1373 75.3653C31.1534 76.7134 30.8532 77.5766 30.0511 78.4877C27.2264 81.6968 22.0629 79.8188 22.0543 75.5794C22.0523 74.5787 22.504 73.2932 23.1084 72.5793C24.3768 71.0817 26.9627 70.5662 28.7001 71.4647Z" fill="#050000"/>
</svg>
