<svg width="100" height="100" viewBox="0 0 100 100" fill="none" xmlns="http://www.w3.org/2000/svg">
<path fill-rule="evenodd" clip-rule="evenodd" d="M34.1989 20.665C35.6447 19.769 55.7049 10.3686 56.6404 10.1487C57.5537 9.9341 58.1215 9.94809 59.1258 10.2096C60.2409 10.5001 61.0385 10.9904 61.8411 11.8788C62.8377 12.982 63.1322 13.7976 63.1331 15.4581C63.1337 16.7044 63.0765 17.006 62.6888 17.7957C61.9436 19.313 61.1417 19.883 57.1501 21.7323C55.1947 22.6383 53.299 23.5803 52.9375 23.8258C51.5438 24.7716 50.8006 26.1112 50.6869 27.8819L50.6119 29.0512L63.634 29.0548C64.3885 29.055 65 29.6667 65 30.4212C65 31.1745 64.3906 31.7849 63.6374 31.7856C62.8158 31.7864 61.8965 31.7873 61.6326 31.7881L50.2998 31.8335L50.0262 32.7079C49.467 34.4945 48.0868 36.7279 46.8522 37.8432C46.3693 38.2794 46.0611 38.4313 45.6583 38.4313C44.8891 38.4313 44.6349 38.3001 44.3551 37.7589C43.9951 37.0631 44.1864 36.5971 45.3297 35.3853C46.4018 34.2486 47.2775 32.6517 47.6262 31.1975C47.7309 30.7603 47.8763 29.4725 47.9491 28.3358C48.0984 26.0085 48.3788 25.0781 49.3634 23.6458C50.334 22.2337 51.5011 21.4191 54.5292 20.0402C59.2148 17.9065 59.7496 17.6066 60.1504 16.889C60.9046 15.5383 60.3897 13.8255 59.0318 13.1681C58.7658 13.0394 58.5673 12.9319 58.3553 12.8724C57.5122 12.6357 56.4559 13.1586 50.0973 16.1251C47.474 17.3489 43.4319 19.2329 41.1147 20.3118C38.7975 21.3905 36.4724 22.5216 35.9477 22.8256C33.8657 24.0315 32.1909 25.5216 30.4232 27.7411C29.6261 28.7419 28.5397 29.9156 28.0092 30.3492C26.9076 31.2497 24.5798 32.4277 23.3472 32.7087L22.5115 32.8991L22.5931 55.3508L24.4214 56.2675C27.9128 58.0182 32.3091 59.6823 36.1526 60.7079L37.9756 61.1944L38.7616 60.7666C40.2892 59.9351 42.2269 60.0979 43.7405 61.1848L44.3913 61.6522L69.3343 61.5634L69.9912 61.1869C71.2163 60.4848 71.6953 58.9014 71.0767 57.5979C70.4731 56.3258 69.606 56.0805 65.7102 56.0794C62.7501 56.0784 62.7183 56.0748 62.3318 55.6881C61.8264 55.1829 61.8239 54.4843 62.3252 53.9013L62.7086 53.4552L70.9783 53.3757C79.0184 53.2985 79.2601 53.2872 79.6866 52.9684C80.4386 52.4067 80.7494 51.8511 80.8256 50.9328C80.9129 49.8819 80.5129 49.0485 79.632 48.4445L79.0561 48.0498L62.549 47.8908L62.2453 47.5154C61.9037 47.0933 61.853 46.2704 62.1453 45.8897C62.6193 45.2725 62.7147 45.2676 74.2817 45.2676C85.1786 45.2676 85.5498 45.2577 86.176 44.952C87.7543 44.1814 88.166 42.1785 87.0158 40.8685C86.8709 40.7034 86.7618 40.5654 86.6325 40.45C85.9413 39.8328 84.6728 39.8621 74.2599 39.8621C62.3776 39.8621 62.3161 39.8585 62.0403 39.1395C61.828 38.5864 61.9477 37.9337 62.3318 37.5497L62.722 37.1594L70.0028 37.1559C76.7464 37.1527 77.3313 37.1306 77.9319 36.858C79.7334 36.0397 80.0871 33.8004 78.6235 32.4781C78.2904 32.1772 77.7811 31.8886 77.4917 31.837C77.297 31.8022 72.7692 31.7809 68.3609 31.7782C67.6094 31.7778 67 31.1686 67 30.4171C67 29.6656 67.6093 29.0564 68.3608 29.0566L77.9194 29.0587L78.8056 29.4233C80.5199 30.1287 81.6089 31.3819 82.0647 33.1742C82.3614 34.3409 82.2806 35.4254 81.8191 36.4697L81.5267 37.1314L83.9361 37.1852C86.1371 37.2343 86.4212 37.2747 87.2199 37.6515C88.3269 38.1736 89.3113 39.1593 89.878 40.313C90.2562 41.0834 90.3201 41.4087 90.3201 42.5648C90.3201 44.1878 89.873 45.3172 88.8098 46.3805C87.7039 47.4863 86.6503 47.8813 84.6364 47.9445C83.6964 47.9743 82.9274 48.01 82.9275 48.024C82.9275 48.0382 83.0706 48.4261 83.2455 48.8862C83.9843 50.8302 83.5007 52.9869 81.9862 54.5013C80.5911 55.8964 79.9375 56.0784 76.3235 56.0784C74.7092 56.0784 73.3883 56.1052 73.3883 56.1377C73.3883 56.1703 73.5394 56.5384 73.724 56.9557C74.133 57.8807 74.1705 59.6386 73.8028 60.657C73.2775 62.1114 72.0133 63.3855 70.4947 63.9906C69.8743 64.2378 68.6939 64.2674 57.7068 64.3108L45.6025 64.3586L45.5379 65.3458C45.3417 68.3467 42.4819 70.2951 39.5091 69.4533C38.4671 69.1582 37.3382 68.2364 36.7584 67.2073C36.3116 66.4144 36.2657 66.2032 36.2657 64.9418C36.2657 64.1203 36.2005 63.5507 36.1067 63.5507C35.7515 63.5507 31.5162 62.2049 29.5089 61.4542C28.3284 61.0128 26.248 60.1352 24.8855 59.5042L22.4085 58.3568L22.1033 58.9266C21.9093 59.2891 21.5398 59.6268 21.0888 59.8543C20.4023 60.2006 20.2323 60.212 15.8129 60.212C12.973 60.212 11.0773 60.1481 10.7989 60.0429C10.1898 59.8128 9.48363 59.1268 9.21892 58.508C9.03847 58.0866 9 55.5209 9 43.9316C9 34.3552 9.05405 29.7241 9.16964 29.4193C9.41065 28.7829 9.93355 28.2605 10.6693 27.9209C11.2383 27.6582 11.7658 27.6271 15.6773 27.6248C18.243 27.6232 20.2969 27.691 20.6486 27.7886C21.3882 27.994 22.2891 28.8681 22.432 29.5188C22.5761 30.1748 22.9033 30.1516 24.5158 29.371C26.0236 28.6412 27.0058 27.7439 28.9688 25.3029C30.404 23.5186 32.2822 21.8529 34.1989 20.665ZM11.7027 57.5093H19.8109V30.3231H11.7027V57.5093ZM42.4999 66.1106C43.2114 65.0534 42.8748 63.7346 41.7444 63.15C41.0974 62.8154 40.4504 62.8583 39.8288 63.2772C39.1771 63.7165 38.8943 64.2354 38.8913 64.9977C38.8835 66.8995 41.4388 67.6876 42.4999 66.1106Z" fill="#050000"/>
<path fill-rule="evenodd" clip-rule="evenodd" d="M36.5388 44.1319C37.0956 42.9207 37.6485 42.3354 38.7617 41.7791C39.5462 41.3871 39.9341 41.293 40.764 41.293C41.3301 41.293 42.063 41.3737 42.3926 41.4726C43.4233 41.7814 44.4743 42.709 45.0471 43.8157C45.4925 44.6758 45.5661 44.9803 45.5646 45.9571C45.5621 47.8119 44.6295 49.3542 42.9784 50.2336C42.026 50.7409 39.7428 50.7504 38.8094 50.2509C37.1895 49.384 36.3298 48.0385 36.2199 46.1987C36.1573 45.1502 36.201 44.8669 36.5388 44.1319ZM42.8635 46.0733C42.8635 45.2299 42.5093 44.5443 41.9148 44.2369C41.6582 44.1043 41.1765 43.9986 40.8444 44.0021C39.6296 44.0149 38.8889 44.7995 38.8889 46.0733C38.8889 46.6308 38.9867 46.8336 39.5061 47.3531C40.0493 47.8962 40.2137 47.9703 40.8762 47.9703C41.5387 47.9703 41.7031 47.8962 42.2463 47.3531C42.7657 46.8336 42.8635 46.6308 42.8635 46.0733Z" fill="#050000"/>
<path fill-rule="evenodd" clip-rule="evenodd" d="M48.4004 50.8341C48.9538 50.2806 49.5809 49.8291 50.0186 49.6689C51.0229 49.3011 52.8942 49.3924 53.7892 49.8526C55.5221 50.7441 56.4221 52.1768 56.4386 54.0706C56.4469 55.0107 56.3703 55.3738 56.0065 56.1172C55.1583 57.851 53.623 58.7826 51.619 58.7796C48.499 58.775 46.3293 55.7538 47.2274 52.6644C47.4424 51.9253 47.6799 51.5546 48.4004 50.8341ZM53.7137 54.0722C53.7019 53.297 53.331 52.6581 52.7047 52.3342C50.9969 51.4511 49.0669 53.2805 49.9351 54.9594C50.4987 56.0492 51.7812 56.4077 52.8295 55.7684C53.4801 55.3718 53.7262 54.8996 53.7137 54.0722Z" fill="#050000"/>
<path fill-rule="evenodd" clip-rule="evenodd" d="M47.7985 73.1844C48.3197 72.3627 49.4934 71.5111 50.4939 71.2289C52.6259 70.6275 55.1653 71.8644 56.0774 73.9484C57.1927 76.4964 55.7458 79.5664 53.0621 80.3465C48.8451 81.5724 45.4279 76.9226 47.7985 73.1844ZM53.0642 77.278C54.197 76.1929 53.8313 74.4555 52.3524 73.8953C51.7432 73.6644 51.6275 73.6767 50.8658 74.0538C49.7624 74.5999 49.3912 75.8407 50.0219 76.8751C50.6634 77.9276 52.1771 78.128 53.0642 77.278Z" fill="#050000"/>
<path d="M9.3903 76.038C8.73943 75.3872 8.98665 74.2323 9.85167 73.8833C10.0391 73.8077 15.0573 73.7425 21.0033 73.7385C32.5566 73.7307 33.111 73.7628 34.6076 74.5263C35.5415 75.0027 36.8439 76.269 37.343 77.1861C37.5709 77.6048 37.949 78.4819 38.1833 79.1354C39.5876 83.0516 42.7803 85.9626 46.8381 87.0265C48.0659 87.3484 51.1181 87.3872 52.3171 87.0963C53.5213 86.8039 55.3211 86.0422 56.3377 85.3945C58.4305 84.061 60.3186 81.6389 61.2162 79.1354C61.836 77.4072 62.3627 76.5272 63.3186 75.6231C64.3174 74.6786 65.4425 74.1286 66.87 73.8876C67.5702 73.7693 71.4063 73.7278 78.7679 73.759L89.6323 73.8051L90.016 74.2512C90.5172 74.8341 90.5147 75.5328 90.0093 76.038L89.6191 76.4283H78.7294C71.4575 76.4283 67.5707 76.4861 67.03 76.602C66.1959 76.7808 65.1385 77.4719 64.6201 78.1772C64.4594 78.3958 64.0532 79.3009 63.7174 80.1885C62.9083 82.3274 61.8328 84.0163 60.2773 85.5902C57.3862 88.5157 53.8968 89.9812 49.7793 89.9993C45.671 90.0175 42.1889 88.6006 39.2843 85.7289C37.5687 84.0327 36.5347 82.4422 35.6822 80.1885C35.3464 79.3009 34.9402 78.3958 34.7795 78.1772C34.2611 77.4719 33.2037 76.7808 32.3696 76.602C31.8289 76.4861 27.9421 76.4283 20.6702 76.4283H9.78045L9.3903 76.038Z" fill="#050000"/>
</svg>
