<svg width="100" height="100" viewBox="0 0 100 100" fill="none" xmlns="http://www.w3.org/2000/svg">
<path fill-rule="evenodd" clip-rule="evenodd" d="M42.7856 10.3141C40.9831 10.8903 40.011 11.6893 37.1477 14.9475L36.2353 15.9858L30.5068 15.8343C27.191 15.7465 6.61527 15.7446 6.39142 15.8298C5.59868 16.1312 5.40733 17.2061 6.04055 17.801C6.42059 18.158 24.5868 18.1713 30.7147 18.3345C34.6125 18.4385 37.1071 18.443 37.2839 18.3464C37.4406 18.2608 38.5465 17.1181 39.7415 15.807C41.2933 14.1043 42.1495 13.3019 42.7372 12.9994L43.5602 12.5758L55.0657 12.5328C66.3155 12.4908 66.5834 12.4973 67.1146 12.823C68.2661 13.5291 68.6213 14.8309 67.9757 15.9795C67.3563 17.0814 67.4288 17.0676 61.821 17.1609C56.343 17.2521 56.2261 17.2709 55.3581 18.2005C55.1445 18.4292 54.467 20.018 53.8054 21.8417C53.16 23.621 52.4481 25.345 52.2236 25.6727C51.9991 26.0002 51.4977 26.4498 51.1093 26.6714C50.4646 27.0396 50.1683 27.0821 47.7 27.1593C44.6931 27.2533 44.4306 27.3487 44.4306 28.3458C44.4306 28.7266 44.5671 28.9975 44.9061 29.2892C45.3763 29.6937 45.4127 29.6975 48.0592 29.6327C50.6501 29.569 50.7728 29.55 51.8576 29.0412C53.0874 28.4643 54.2675 27.3763 54.7373 26.3864C54.9002 26.0431 55.5092 24.4507 56.0908 22.8476C56.6723 21.2446 57.2432 19.8727 57.3594 19.799C57.4756 19.7253 59.7216 19.6638 62.3505 19.6623L67.1306 19.6598L68.2497 19.0764L69.369 18.493H71.827C73.9676 18.493 74.3343 18.4534 74.6648 18.1857C75.2142 17.7408 75.1792 16.8894 74.5906 16.3832C74.1789 16.029 73.9791 15.9928 72.4376 15.9926L70.7384 15.9923L70.7365 14.7842C70.7349 13.8696 70.6428 13.3887 70.3571 12.8059C69.8254 11.7209 68.7518 10.7192 67.6985 10.3251C66.8399 10.0039 66.4064 9.9926 55.2724 10.0013C44.5821 10.0096 43.6663 10.0324 42.7856 10.3141ZM78.4475 16.3215C77.8781 16.7715 77.8179 17.6551 78.3225 18.1597C78.6197 18.4569 78.878 18.493 80.7004 18.493C83.0097 18.493 83.6201 18.6911 84.2774 19.6536C84.8689 20.5202 84.9211 21.2003 84.4664 22.117C84.1697 22.7151 83.8901 23.0023 83.3293 23.2851L82.5855 23.6602H73.37C64.3767 23.6602 64.1465 23.6682 63.8212 23.9935C63.4 24.4147 63.3933 25.1733 63.8063 25.6835L64.1249 26.0771L76.2121 26.1604C88.0362 26.2419 88.309 26.2511 88.7527 26.5824C90.2659 27.7125 90.0849 30.1033 88.4266 30.8903C87.9172 31.132 86.6001 31.1608 76.0811 31.1608H64.306L63.897 31.5701C63.435 32.0319 63.3606 32.7567 63.7243 33.2542C63.952 33.5659 64.2969 33.5807 73.1298 33.6611C82.0635 33.7423 82.3107 33.7533 82.7589 34.0881C83.6099 34.7238 83.9063 35.2807 83.9063 36.2446C83.9063 37.2086 83.6099 37.7656 82.7589 38.4012C82.3092 38.737 82.0921 38.7459 73.2745 38.7907C64.3022 38.8364 64.2482 38.8387 63.869 39.1949C63.3623 39.671 63.374 40.3964 63.897 40.9192L64.306 41.3284H71.8731H79.4399L79.991 41.7035C80.8877 42.3139 81.2202 42.8886 81.2202 43.8287C81.2202 44.7299 80.9182 45.2848 80.092 45.9019C79.6414 46.2384 79.4104 46.2474 69.1281 46.3289L58.6244 46.4122L58.3058 46.8058C57.8745 47.3386 57.9023 48.0244 58.373 48.4668L58.7589 48.8291H69.2011C79.3094 48.8291 79.6726 48.8183 80.5538 48.4884C83.0877 47.5405 84.4319 44.3797 83.3454 41.9238C83.1474 41.4763 83.0052 41.0936 83.0292 41.0731C83.0532 41.0527 83.3814 40.8806 83.7585 40.6905C84.7326 40.1993 85.8732 38.8659 86.2094 37.8248C86.6439 36.4797 86.5697 35.4969 85.9192 33.9736C85.8186 33.7383 85.9958 33.6931 87.2718 33.6284C88.8731 33.5474 89.6707 33.2444 90.7289 32.3151C92.2452 30.984 92.7123 28.3716 91.7754 26.4634C90.9795 24.8428 89.5077 23.8434 87.7032 23.6985C87.1276 23.6523 86.6566 23.5965 86.6566 23.5743C86.6566 23.5523 86.7797 23.2438 86.9303 22.8888C87.0901 22.5122 87.2098 21.7553 87.2179 21.0716C87.2348 19.6371 86.6786 18.3529 85.6303 17.4058C84.437 16.3277 83.7038 16.1017 81.1561 16.026C79.044 15.9635 78.8777 15.9815 78.4475 16.3215ZM44.4027 32.2143C41.6513 33.5501 41.1668 37.0546 43.462 39.0191C46.1201 41.2943 50.1459 39.4224 50.1459 35.9113C50.1459 34.7362 49.7756 33.8091 48.994 33.0275C48.2034 32.2369 47.5427 31.9524 46.3209 31.8767C45.424 31.8212 45.0918 31.8796 44.4027 32.2143ZM47.1658 34.815C48.1967 35.8459 47.5063 37.4948 46.0439 37.4948C45.2236 37.4948 44.4861 36.745 44.4861 35.9113C44.4861 35.4604 44.6126 35.1757 44.9733 34.815C45.334 34.4543 45.6187 34.3278 46.0695 34.3278C46.5204 34.3278 46.8051 34.4543 47.1658 34.815ZM56.5705 35.3016C53.0637 36.9724 54.2635 42.1952 58.154 42.1952C60.2433 42.1952 61.7188 40.7019 61.728 38.5782C61.7333 37.3239 61.2094 36.307 60.1887 35.5904C59.2569 34.9362 57.6129 34.805 56.5705 35.3016ZM58.9874 37.8281C59.6885 38.5292 59.1642 39.7171 58.154 39.7171C57.1819 39.7171 56.6747 38.6819 57.2467 37.8653C57.5859 37.3809 58.5203 37.3611 58.9874 37.8281ZM7.39471 42.7349C6.8705 43.2589 6.8695 43.8973 7.39188 44.4196L7.80092 44.8288H21.0836H34.3663L35.7448 46.152C37.8876 48.2094 39.4343 48.8291 42.4256 48.8291C44.0667 48.8291 44.141 48.8131 44.4739 48.3899C44.9236 47.8182 44.9099 47.4528 44.4174 46.8799C44.0317 46.4311 43.9389 46.4086 42.1227 46.3209C39.6823 46.203 39.0783 45.9194 37.0094 43.9193L35.4499 42.4119L21.6282 42.3674L7.80658 42.3229L7.39471 42.7349ZM49.9051 43.9288C49.0692 44.2347 48.0409 45.2095 47.6369 46.0789C47.2288 46.9569 47.2268 48.5254 47.6327 49.419C48.0181 50.2669 49.2652 51.377 50.1211 51.6334C52.9435 52.4789 55.7701 50.1716 55.4309 47.2986C55.1184 44.6512 52.4228 43.0073 49.9051 43.9288ZM52.3748 46.5027C52.9393 46.9468 53.1005 47.7925 52.7498 48.4706C52.2326 49.4708 51.1072 49.6419 50.3071 48.8419C48.9206 47.4555 50.8342 45.291 52.3748 46.5027ZM57.8206 51.3275C55.0167 51.8507 53.8771 55.1117 55.7383 57.286C56.508 58.1853 57.4883 58.5608 58.8159 58.4648C60.5814 58.337 61.879 57.0465 62.0975 55.2012C62.2048 54.2954 61.7815 53.0827 61.1044 52.3569C60.3407 51.5382 58.9794 51.1113 57.8206 51.3275ZM68.7383 53.3292C66.8601 53.7336 65.507 54.5053 64.1122 55.9676C62.562 57.5927 61.6621 59.8443 61.6568 62.1108C61.6546 62.9904 61.606 63.1566 61.3241 63.2461C60.7997 63.4124 59.3864 64.5354 58.8472 65.2139L58.3538 65.8347L57.4701 65.1119C56.5865 64.3894 56.5862 64.3889 56.559 63.3656C56.506 61.3607 55.1815 59.5898 53.3337 59.0525C52.2299 58.7317 50.6685 58.9007 48.5479 59.5706C46.3222 60.2738 45.7625 61.2027 46.4969 62.9756C47.4672 65.3183 48.7455 67.0119 50.0699 67.7095C50.57 67.9728 51.0283 68.0587 51.9034 68.0532C53.1735 68.045 53.9616 67.7777 54.8032 67.0696C55.2839 66.6651 55.3562 66.6494 55.6983 66.8752C56.3096 67.2789 56.988 68.0262 57.0814 68.3987C57.1296 68.5906 57.1467 69.3821 57.1197 70.1577L57.0705 71.568L55.4579 71.77C53.7821 71.98 50.8998 72.6953 50.1346 73.091C49.1385 73.606 49.2733 74.9988 50.3564 75.3824C50.514 75.438 51.235 75.3065 51.9586 75.0898C54.7665 74.2494 55.9044 74.0902 59.0707 74.0942C62.5027 74.0986 64.3685 74.4103 67.1476 75.443C70.4561 76.6726 71.3858 77.2789 78.8632 83.0822L84.4469 87.4159L71.704 87.4586C64.6954 87.4821 53.2549 87.4821 46.2804 87.4586L33.5998 87.4159L35.7509 85.7628C36.9341 84.8537 38.1085 83.9208 38.3605 83.6898C39.2286 82.8945 38.7846 81.4987 37.6636 81.4987C37.1941 81.4987 35.7039 82.571 30.6705 86.5309L29.4394 87.4993H27.9544C26.5998 87.4993 26.4333 87.5353 26.0602 87.9085C25.5352 88.4334 25.5254 89.1566 26.0367 89.6371L26.4226 89.9995H58.9444H91.4662L91.8115 89.5603C92.2422 89.0128 92.2512 88.4859 91.8384 87.9762C91.5557 87.6268 91.3547 87.576 90.0502 87.5223L88.5804 87.4619L81.6591 82.0963C77.8524 79.1452 74.1744 76.3504 73.4857 75.8857C69.9437 73.4957 65.4791 71.9517 61.0061 71.57L59.6079 71.4508L59.7061 70.0584C59.8516 67.9984 60.6809 66.4355 61.9938 65.7471C62.4054 65.5313 62.4294 65.5496 62.8884 66.4264C63.5195 67.6317 65.3498 69.3373 66.6844 69.9639C68.2254 70.6874 69.2862 70.8854 71.1412 70.7961C73.4859 70.6833 74.5148 70.1464 76.8223 67.8322C78.5933 66.056 79.7008 64.6255 81.3919 61.9298C82.2068 60.631 82.3228 60.34 82.3222 59.5963C82.3215 58.559 81.9168 57.8321 81.0282 57.271C79.8681 56.5386 78.0043 55.6631 77.6056 55.6631C77.0604 55.6631 76.489 56.3235 76.489 56.9535C76.489 57.5736 76.7723 57.8209 78.5435 58.7467C79.2451 59.1134 79.8198 59.4956 79.8208 59.5961C79.8236 59.8778 77.6451 63.0877 76.4216 64.6047C75.0105 66.3544 73.7946 67.4458 72.6881 67.9558C71.4553 68.5242 69.3602 68.4544 67.9519 67.7982C66.9243 67.3195 65.586 66.1684 65.1081 65.3524L64.8116 64.8461L65.4415 64.6791C65.7878 64.5872 67.2956 64.2097 68.7918 63.8403C70.2881 63.4709 71.5722 63.1317 71.6454 63.0864C71.9682 62.8871 72.1681 62.0525 71.9994 61.6089C71.6539 60.6999 71.2935 60.6952 67.6902 61.5529C65.883 61.983 64.3379 62.3338 64.2562 62.3327C64.0175 62.329 64.2604 60.6627 64.6514 59.6223C65.299 57.8994 67.0791 56.3351 68.9618 55.8344C69.5142 55.6876 69.9676 55.6899 70.8786 55.8439C72.5473 56.1261 72.8393 56.0931 73.288 55.5716C73.7097 55.0813 73.6859 54.494 73.2233 53.9806C72.7783 53.4864 69.9294 53.0727 68.7383 53.3292ZM59.3624 54.1959C60.0462 54.9867 59.4394 56.0549 58.358 55.9643C57.2126 55.8683 56.9534 54.4 57.9901 53.8784C58.4875 53.6282 58.9676 53.7392 59.3624 54.1959ZM52.9703 61.5718C53.6441 61.9201 54.0424 62.6207 54.0424 63.4566C54.0424 64.3305 53.6251 64.9597 52.7605 65.3894C51.9424 65.796 51.1985 65.6505 50.5326 64.9539C50.0052 64.4022 48.7225 62.2055 48.852 62.076C48.9796 61.9483 51.5562 61.3547 52.0368 61.3422C52.2933 61.3357 52.7135 61.4389 52.9703 61.5718ZM41.4438 72.5691C39.829 73.1453 38.8209 74.5158 38.6926 76.3086C38.6275 77.2178 38.6822 77.5897 38.9846 78.2926C39.9768 80.5988 42.7084 81.6104 44.8966 80.4815C45.8319 79.9991 46.2871 79.5441 46.7561 78.6225C47.3193 77.516 47.4152 76.5786 47.0821 75.4334C46.3981 73.0803 43.7627 71.7415 41.4438 72.5691ZM43.9499 75.0917C44.8874 75.7482 45.0313 77.135 44.2436 77.9226C43.1243 79.042 41.1426 78.2373 41.1583 76.6695C41.1696 75.544 41.865 74.8486 42.9904 74.8373C43.314 74.8341 43.7457 74.9485 43.9499 75.0917Z" fill="#050000" stroke="#050000" stroke-width="0.3"/>
</svg>
