<svg width="100" height="100" viewBox="0 0 100 100" fill="none" xmlns="http://www.w3.org/2000/svg">
<path fill-rule="evenodd" clip-rule="evenodd" d="M37.6501 17.444C40.5898 12.8845 45.3539 7.71561 48.7084 5.44631C49.9125 4.63155 50.393 4.80583 53.0569 7.02466C54.8081 8.48307 57.8609 11.6781 59.416 13.6797C63.7752 19.2909 66.9263 25.9254 68.3991 32.5935C69.3017 36.6796 69.4557 38.2977 69.4678 43.8298L69.4795 48.999L71.5863 49.9397C74.1538 51.0861 75.2347 51.8128 76.6549 53.347C78.5002 55.3405 79.5227 57.8214 79.6977 60.7312C79.8039 62.4956 79.6273 62.9571 78.6666 63.4275C78.0286 63.74 77.9885 63.74 77.3504 63.4275C76.5304 63.026 76.2559 62.4898 76.2525 61.2841C76.2511 60.7662 76.1254 59.8617 75.9731 59.2744C75.2742 56.5768 73.7763 54.8772 70.8777 53.4926C69.8507 53.002 68.9517 52.6691 68.8801 52.7529C68.8085 52.8368 68.6126 53.6488 68.4449 54.5571C67.702 58.5785 65.9556 63.6288 63.952 67.5502C63.3731 68.6829 62.9556 69.664 63.024 69.7307C63.0924 69.7972 66.0764 71.2723 69.6551 73.0085L76.162 76.1654L76.4017 75.7025C77.1267 74.3025 78.8729 74.2591 79.5707 75.6238C79.8325 76.1359 79.8225 79.2344 79.557 79.817C79.3245 80.3273 78.5881 80.7793 77.9895 80.7793C77.776 80.7793 73.839 78.9503 69.2405 76.715L60.8797 72.6507L60.3454 73.3297C60.0518 73.7032 59.4396 74.4043 58.9853 74.888L58.1591 75.7673L54.9096 75.822L51.66 75.8766L51.6008 77.8152L51.5415 79.7537L50.9459 80.2856C50.4433 80.7344 50.2509 80.8016 49.7149 80.7165C49.3156 80.6532 48.8997 80.4161 48.5958 80.0792C48.1335 79.5664 48.1122 79.4621 48.1122 77.7098V75.877L44.8474 75.8221L41.5825 75.7673L40.7563 74.888C40.3021 74.4043 39.6899 73.7032 39.3962 73.3297L38.862 72.6507L30.5012 76.715C25.9026 78.9503 21.9657 80.7793 21.7522 80.7793C21.128 80.7793 20.3924 80.3082 20.167 79.7642C20.0117 79.3893 19.9732 76.6923 20.0168 69.2481C20.0671 60.6461 20.0596 58.8694 20.6478 57.3187C20.8224 56.8585 21.0495 56.4182 21.3461 55.8252C22.0865 54.3452 23.7114 52.49 25.1125 51.5251C25.6272 51.1705 26.9965 50.4573 28.1554 49.9397L30.2622 48.999L30.2738 43.8298C30.286 38.2977 30.44 36.6796 31.3425 32.5935C32.4645 27.5133 34.8466 21.7924 37.6501 17.444ZM59.7391 20.3672C57.5668 16.7571 54.3532 12.8469 51.509 10.3537C50.6773 9.62458 49.9403 9.02823 49.8708 9.02823C49.8014 9.02823 49.0643 9.62458 48.2327 10.3537C45.3954 12.8411 42.0878 16.8706 39.9038 20.5005L38.8177 22.3057L44.3442 22.3521C47.3838 22.3776 52.3536 22.3776 55.3881 22.3521L60.9056 22.3057L59.7391 20.3672ZM65.8923 47.0141C66.4068 40.1928 65.5405 33.7843 63.2712 27.6255L62.6394 25.9108H49.8534H37.0675L36.8589 26.4824C35.0069 31.5602 34.2826 34.6252 33.8763 39.1004C33.4068 44.2763 33.8929 50.5378 35.1821 55.917C36.4828 61.3442 39.2814 67.3953 42.3502 71.4147L43.055 72.338H45.5837H48.1122L48.1149 68.601C48.1177 64.425 48.1741 64.1708 49.2128 63.6624C49.8508 63.3499 49.8909 63.3499 50.5289 63.6624C51.5675 64.1708 51.624 64.425 51.6268 68.601L51.6294 72.338H54.1581H56.6868L57.6358 71.063C62.4157 64.6407 65.167 56.6268 65.8923 47.0141ZM38.3203 44.1013C37.9028 38.4045 41.7806 33.266 47.48 31.9638C48.8341 31.6543 51.7123 31.7557 53.0363 32.1597C56.9904 33.3657 59.8354 36.234 61.064 40.2533C61.5068 41.7017 61.5068 44.9403 61.064 46.3887C59.8249 50.4425 56.9925 53.2775 52.9484 54.5117C51.4852 54.9584 48.2564 54.9584 46.7933 54.5117C41.9147 53.0227 38.6833 49.0525 38.3203 44.1013ZM53.8627 36.3341C53.7398 36.2112 53.1672 35.9417 52.5903 35.7355C52.4587 35.6884 52.3078 35.6437 52.1433 35.602C51.3858 35.3728 50.5823 35.2495 49.75 35.2495C45.1937 35.2495 41.5 38.9432 41.5 43.4995C41.5 48.0559 45.1937 51.7495 49.75 51.7495C54.3064 51.7495 58 48.0559 58 43.4995C58 42.2955 57.7421 41.1517 57.2785 40.1204C57.1352 39.7885 56.9918 39.5064 56.8986 39.3784C56.1742 38.1246 55.1294 37.0791 53.8761 36.3539C53.8728 36.3463 53.8684 36.3398 53.8627 36.3341ZM35.7253 67.4134C33.7223 63.466 32.2099 59.095 31.317 54.6725C31.1032 53.6131 30.8575 52.7239 30.7712 52.6967C30.6848 52.6694 29.7994 53.0387 28.8036 53.5176C25.9617 54.8838 24.4613 56.6009 23.7666 59.2812C23.5291 60.1987 23.4949 61.5138 23.534 68.2575L23.5797 76.1589L30.0865 73.007C33.6653 71.2733 36.6489 69.8 36.717 69.733C36.7851 69.666 36.3387 68.6221 35.7253 67.4134ZM48.8802 60.9472C47.7297 60.0151 47.9671 58.4848 49.3469 57.9394C50.5016 57.4831 51.8609 58.7301 51.5515 59.9623C51.2705 61.0822 49.7425 61.6455 48.8802 60.9472ZM76.8255 70.7072C75.9759 69.8578 76.2722 68.405 77.393 67.9253C77.5864 67.8423 77.9821 67.814 78.2723 67.8623C80.2906 68.1979 80.0536 71.187 78.0085 71.187C77.4771 71.187 77.1878 71.0697 76.8255 70.7072ZM35.1591 83.84C36.5624 82.2653 38.7143 81.0612 40.7261 80.7248C43.5225 80.2573 46.6556 81.294 48.7838 83.391L49.9322 84.5227L50.4524 83.8743C51.0971 83.0706 52.8348 81.8378 54.0036 81.3547C57.6375 79.8527 61.6559 80.732 64.3867 83.6268L65.5298 84.8385L66.1856 84.6565C67.1391 84.3916 68.7426 84.4316 69.9815 84.7509C73.7367 85.7192 76.523 89.0808 76.6553 92.8027C76.6947 93.9071 76.2911 94.6292 75.4842 94.8982C74.2984 95.2934 73.3487 94.5068 73.1706 92.9812C72.7454 89.3395 69.391 87.1249 66.1522 88.3476C64.2096 89.081 63.0433 90.5693 62.6919 92.7635C62.4797 94.0888 62.2191 94.5411 61.4947 94.8411C60.8296 95.1165 60.172 94.9654 59.616 94.4093C59.2495 94.0429 59.192 93.8214 59.1951 92.7897C59.1976 91.9893 59.3367 91.2041 59.6163 90.4119C60.0354 89.2246 61.4746 86.9919 61.9349 86.8153C62.3453 86.6579 62.2147 86.2969 61.5297 85.6955C59.2642 83.7065 55.8689 83.7077 53.6909 85.6983C52.5562 86.7353 52.02 87.7722 51.7174 89.5155C51.4251 91.1985 50.9434 91.7743 49.852 91.7456C48.7587 91.7169 48.3498 91.2017 48.0479 89.4719C47.761 87.8293 47.3481 86.9328 46.4565 86.0168C45.0591 84.5812 43.08 83.9277 41.1884 84.2775C40.019 84.4936 38.6805 85.1691 37.9865 85.8935L37.5077 86.3935L38.1636 87.1196C39.6514 88.7663 40.507 90.7456 40.5937 92.7413C40.6445 93.9122 40.2627 94.6216 39.4328 94.8982C38.2482 95.293 37.2989 94.5075 37.1162 92.9812C36.8719 90.9407 35.8273 89.4132 34.0434 88.488C33.4052 88.157 32.9798 88.078 31.8451 88.0805C30.2395 88.084 29.3432 88.4428 28.1811 89.547C27.2858 90.3978 26.8861 91.2162 26.6541 92.674C26.4293 94.0873 26.1782 94.5367 25.4433 94.8411C24.7782 95.1165 24.1207 94.9654 23.5646 94.4093C23.2049 94.0497 23.1404 93.8156 23.1427 92.8776C23.1492 90.1066 25.046 86.9879 27.5561 85.6218C29.4021 84.6171 31.9521 84.211 33.579 84.6628L34.2576 84.8512L35.1591 83.84Z" fill="#FF150F"/>
</svg>
