<svg width="100" height="100" viewBox="0 0 100 100" fill="none" xmlns="http://www.w3.org/2000/svg">
<path fill-rule="evenodd" clip-rule="evenodd" d="M48.2974 5.11703C46.3353 5.61006 44.3422 7.27212 43.4514 9.15851C43.0453 10.0187 42.9957 10.3337 43.0087 11.9759C43.0166 12.9927 43.0562 13.9594 43.0967 14.1241C43.1543 14.3588 40.9441 15.711 32.8692 20.3809L22.5683 26.3383L21.6858 25.6238C19.7408 24.0492 17.2994 23.5594 14.9678 24.276C10.098 25.7727 8.36942 31.9387 11.7751 35.665C12.7416 36.7225 13.693 37.3552 14.972 37.791L15.7891 38.0694V50.01V61.9506L14.972 62.229C12.9774 62.9087 11.1766 64.5639 10.4969 66.3423C8.61224 71.2736 12.3329 76.3818 17.5489 76.0243C19.1264 75.9162 20.1822 75.5051 21.5664 74.46C22.3577 73.8626 22.581 73.7713 22.8951 73.9173C23.1027 74.0138 27.7496 76.6808 33.2214 79.8439C41.0304 84.358 43.1543 85.6595 43.0967 85.8951C43.0562 86.0602 43.0166 87.0273 43.0087 88.0442C42.9957 89.6863 43.0453 90.0014 43.4514 90.8615C44.1612 92.3648 45.3605 93.5672 46.9167 94.3364C48.1864 94.9639 48.349 94.9995 49.9494 94.9995C51.5498 94.9995 51.7123 94.9639 52.9821 94.3364C54.5309 93.5709 55.6498 92.4486 56.4126 90.8953C56.8517 90.0008 56.9047 89.7036 56.9047 88.1322C56.9047 87.1638 56.8441 86.2066 56.7702 86.005C56.6489 85.6741 57.0759 85.385 61.1723 83.0249C63.6674 81.5875 68.2202 78.9584 71.2897 77.1826C74.3592 75.4068 76.9887 73.9087 77.1331 73.8532C77.2843 73.7951 77.7952 74.0543 78.3394 74.4653C79.7125 75.5021 80.7756 75.9164 82.3362 76.0233C85.4001 76.2333 87.9277 74.7201 89.2799 71.8661C89.7812 70.8082 89.8317 70.5446 89.8256 69.0271C89.8168 66.9144 89.3887 65.7393 88.1237 64.3551C87.1572 63.2975 86.2058 62.6648 84.9267 62.229L84.1097 61.9506V50.01V38.0694L84.9267 37.791C86.9214 37.1113 88.7222 35.4561 89.4019 33.6777C91.2834 28.7544 87.6004 23.6819 82.3642 23.985C80.8108 24.0749 79.2364 24.7201 78.0503 25.753L77.3615 26.3529L71.5352 22.9804C68.3308 21.1257 63.6674 18.432 61.1723 16.9948C57.0759 14.6349 56.6489 14.3459 56.7702 14.0151C56.8441 13.8135 56.9044 12.8563 56.904 11.8878C56.9033 10.3599 56.8429 9.99878 56.4467 9.15851C55.3101 6.74792 52.9471 5.13551 50.3694 5.0119C49.6057 4.97528 48.6733 5.02264 48.2974 5.11703ZM52.1249 8.16575C53.7033 9.09072 54.4411 10.5096 54.3214 12.3898C54.2254 13.8969 53.5486 15.0211 52.2781 15.7828C50.681 16.7407 49.2178 16.7407 47.6207 15.7828C46.2937 14.9871 45.6572 13.8865 45.5813 12.2571C45.5304 11.1652 45.5857 10.8862 46.0194 10.0477C46.5651 8.99264 47.4263 8.21188 48.475 7.8215C49.4925 7.44274 51.1594 7.59999 52.1249 8.16575ZM44.9292 17.0804C45.411 17.6127 46.8095 18.4624 47.7077 18.7685L48.5103 19.0419L48.5694 21.8299C48.6376 25.0323 48.7651 25.3582 49.9494 25.3582C51.0726 25.3582 51.166 25.1066 51.2214 21.9329L51.27 19.1412L52.476 18.653C53.1393 18.3843 54.0685 17.8387 54.5408 17.4404L55.3997 16.7162L65.7135 22.6659L76.0273 28.6158L75.8897 29.4962C75.7137 30.6233 75.7126 31.5763 75.8864 32.5999L76.0248 33.4143L73.9484 34.6081C71.3813 36.0841 71.0795 36.3448 71.0795 37.0858C71.0795 37.7204 71.7357 38.3885 72.3591 38.3885C72.5526 38.3885 73.7489 37.7864 75.0176 37.0504C76.4509 36.2189 77.3988 35.769 77.5215 35.8618C77.6302 35.9441 78.107 36.3045 78.5812 36.6628C79.3091 37.2128 80.1378 37.6151 81.2496 37.9579C81.425 38.012 81.4616 40.511 81.4257 50.0171L81.3804 62.008L80.4963 62.3074C79.5771 62.6185 78.7249 63.1389 77.911 63.886L77.4351 64.3228L75.0683 62.9772C73.7667 62.2371 72.5311 61.6316 72.3228 61.6316C71.7759 61.6316 71.0795 62.3989 71.0795 63.0015C71.0795 63.6643 71.4373 63.964 73.9489 65.4061L76.0259 66.5989L75.8869 67.4168C75.7124 68.445 75.7135 69.3972 75.8905 70.5238L76.0289 71.4042L65.7198 77.3502L55.4108 83.2963L54.4496 82.5134C53.9208 82.0827 53.0159 81.5581 52.4383 81.3475L51.3884 80.9647L51.3292 78.1835C51.2612 74.9884 51.1332 74.6618 49.9494 74.6618C48.7656 74.6618 48.6376 74.9884 48.5696 78.1835L48.5104 80.9647L47.4604 81.3475C46.8829 81.5581 45.9785 82.0822 45.4504 82.5123L44.4904 83.2943L34.1807 77.3492L23.8708 71.4042L24.0087 70.5238C24.1853 69.3965 24.1862 68.4443 24.0119 67.4168L23.8729 66.5989L25.9498 65.4061C28.4615 63.964 28.8193 63.6643 28.8193 63.0015C28.8193 62.3861 28.1181 61.6305 27.5506 61.6342C27.3284 61.6358 26.1164 62.2359 24.8574 62.9679C23.475 63.7715 22.4914 64.2413 22.3741 64.1536C22.2672 64.074 21.7918 63.7131 21.3176 63.3519C20.5897 62.7972 19.6656 62.3489 18.6504 62.0579C18.328 61.9654 18.328 38.0567 18.6504 37.9574C19.7587 37.6162 20.59 37.2126 21.3176 36.6628C21.7918 36.3045 22.2686 35.9441 22.3773 35.8618C22.5 35.769 23.4479 36.2189 24.8812 37.0504C26.1499 37.7864 27.3462 38.3885 27.5397 38.3885C28.163 38.3885 28.8193 37.7204 28.8193 37.0858C28.8193 36.3448 28.5175 36.0841 25.9504 34.6081L23.874 33.4143L24.0124 32.5999C24.1865 31.5744 24.1851 30.621 24.008 29.4962L23.8692 28.6158L28.2372 26.1078C30.6395 24.7286 35.2596 22.0579 38.5039 20.1731C41.7483 18.2885 44.4499 16.7426 44.5075 16.7382C44.5651 16.7338 44.7549 16.8877 44.9292 17.0804ZM18.498 26.8072C19.6416 27.1487 20.9744 28.5598 21.335 29.8109C21.97 32.014 20.8737 34.2316 18.701 35.1395C17.866 35.4884 16.2046 35.4998 15.3966 35.1623C12.7058 34.038 11.7893 30.6337 13.5542 28.3196C14.6759 26.8491 16.6329 26.2503 18.498 26.8072ZM84.8348 27.0826C87.6282 28.5418 88.1146 32.2674 85.7792 34.3178C84.8672 35.1186 84.0949 35.4126 82.8887 35.4185C81.158 35.4267 79.756 34.6226 78.9702 33.1711C78.117 31.5953 78.1972 29.9091 79.1945 28.4536C80.401 26.693 82.9178 26.0812 84.8348 27.0826ZM38.9174 28.7778C34.7826 29.7808 32.0158 33.7925 32.6467 37.8695C32.8654 39.2814 33.6308 41.0338 34.4234 41.9364L34.9729 42.5624L33.9969 43.2347C32.4852 44.2758 31.1778 45.8386 30.3174 47.6329C29.4453 49.452 29.1503 50.5735 29.1111 52.2204C29.0866 53.2493 29.1319 53.4241 29.4992 53.7224C30.3718 54.4311 31.6331 53.8453 31.6396 52.7281C31.6456 51.729 32.1682 49.7343 32.7169 48.6172C33.3968 47.2328 35.0479 45.5375 36.4075 44.8277L37.3925 44.3135L38.4441 44.6086C39.0269 44.772 40.122 44.9036 40.9013 44.9036H42.307L42.5167 45.4759C42.632 45.7905 43.0388 46.4588 43.4207 46.9606L44.115 47.8731L42.9564 48.7214C40.1945 50.7438 38.3382 54.2816 38.3305 57.5376C38.3275 58.8067 38.6869 59.3425 39.5409 59.3425C40.4821 59.3425 40.8138 58.8711 40.9714 57.3098C41.1212 55.8259 41.5329 54.5431 42.2542 53.3125C42.8631 52.2738 44.5889 50.673 45.7146 50.1025C46.6498 49.6286 46.6608 49.6274 47.6536 49.906C48.9307 50.2643 50.968 50.2643 52.2452 49.906C53.2365 49.6279 53.2503 49.6292 54.1731 50.0968C55.9672 51.006 57.8503 53.192 58.4847 55.1022C58.6388 55.5662 58.8349 56.5693 58.9203 57.3311C59.0436 58.4298 59.1556 58.7809 59.4623 59.0294C59.9857 59.4531 60.7838 59.4252 61.2418 58.9672C61.5836 58.6255 61.609 58.4562 61.5248 57.0743C61.319 53.6946 59.4372 50.4386 56.5145 48.4048L55.7721 47.8884L56.4723 46.9682C56.8573 46.4621 57.2667 45.7905 57.3821 45.4759L57.5918 44.9036H58.9975C59.7768 44.9036 60.8719 44.772 61.4547 44.6086L62.5063 44.3135L63.4913 44.8277C64.8509 45.5375 66.502 47.2328 67.1819 48.6172C67.736 49.7455 68.2533 51.7316 68.2591 52.7527C68.2653 53.8513 69.5335 54.4257 70.3996 53.7224C70.7669 53.4241 70.8122 53.2493 70.7877 52.2204C70.7484 50.5735 70.4535 49.452 69.5814 47.6329C68.721 45.8386 67.4136 44.2758 65.9019 43.2347L64.9259 42.5624L65.4754 41.9364C66.268 41.0338 67.0334 39.2814 67.2521 37.8695C68.0663 32.6083 63.201 27.797 57.9468 28.6677C55.4076 29.0884 52.918 30.8843 51.8603 33.0579L51.4461 33.9087L49.9311 33.9098L48.4161 33.9108L48.0299 33.0693C47.4152 31.7293 45.8841 30.2104 44.4283 29.4964C42.4945 28.5482 40.7837 28.3251 38.9174 28.7778ZM42.9763 31.6712C44.0037 32.1257 45.0509 33.1005 45.5653 34.0811C45.9833 34.8784 45.984 34.8883 45.6353 35.0844C45.4416 35.1934 44.8264 35.7171 44.2684 36.2483C43.1094 37.351 42.1077 39.1606 41.9365 40.4604C41.8763 40.9188 41.7838 41.5217 41.7314 41.8001L41.6358 42.3062L40.378 42.2241C37.6402 42.0452 35.5431 40.0463 35.2296 37.3166C35.021 35.5002 35.9764 33.329 37.4252 32.3275C39.1373 31.1442 41.2264 30.8971 42.9763 31.6712ZM61.4438 31.7448C64.9745 33.3613 65.8012 38.1955 62.9823 40.7422C61.8993 41.7205 60.9397 42.1313 59.5208 42.2241L58.263 42.3062L58.1674 41.8001C58.1149 41.5217 58.0225 40.9188 57.9623 40.4604C57.7911 39.1606 56.7894 37.351 55.6304 36.2483C55.0724 35.7171 54.4591 35.1957 54.2679 35.0895C53.9349 34.9046 53.9324 34.8703 54.2112 34.2859C55.4779 31.6295 58.711 30.4936 61.4438 31.7448ZM51.9726 36.9215C53.2055 37.3295 54.7148 38.8576 55.1354 40.1236C56.0298 42.8166 54.9782 45.5977 52.5588 46.9381C51.7064 47.4101 51.472 47.4568 49.9494 47.4568C48.4268 47.4568 48.1924 47.4101 47.34 46.9381C44.2619 45.2329 43.4723 41.0755 45.738 38.5017C47.3819 36.6341 49.4895 36.1001 51.9726 36.9215ZM56.6566 63.7516C55.7431 64.1358 55.4825 65.1409 56.1192 65.8243C56.4566 66.1865 56.6318 66.2098 59.0246 66.2098C61.3362 66.2098 61.6033 66.1774 61.9231 65.8576C62.3681 65.4126 62.3751 64.6113 61.9388 64.0723C61.6204 63.6789 61.4803 63.6543 59.3415 63.6148C58.0982 63.5919 56.8899 63.6535 56.6566 63.7516ZM37.8977 64.136C37.2458 65.0664 37.8158 66.2098 38.9313 66.2098C39.5772 66.2098 40.2648 65.5741 40.2648 64.9772C40.2648 64.8095 40.1005 64.4637 39.8997 64.2086C39.4131 63.5896 38.3083 63.5497 37.8977 64.136ZM42.4759 64.136C41.824 65.0664 42.394 66.2098 43.5095 66.2098C44.1553 66.2098 44.843 65.5741 44.843 64.9772C44.843 64.8095 44.6787 64.4637 44.4779 64.2086C43.9912 63.5896 42.8865 63.5497 42.4759 64.136ZM47.054 64.136C46.9033 64.3512 46.7799 64.7298 46.7799 64.9772C46.7799 65.7482 47.2403 66.2098 48.0097 66.2098C48.5363 66.2098 48.7742 66.1043 49.0561 65.7458C49.2569 65.4906 49.4211 65.1448 49.4211 64.9772C49.4211 64.8095 49.2569 64.4637 49.0561 64.2086C48.5694 63.5896 47.4647 63.5497 47.054 64.136ZM19.1998 65.127C21.0466 66.112 21.9179 68.1863 21.335 70.2092C21.104 71.0107 20.8473 71.4167 20.132 72.1123C18.6587 73.5449 16.8046 73.8467 15.064 72.9374C12.9599 71.8383 12.0457 69.3434 12.986 67.2663C14.1113 64.7803 16.809 63.8515 19.1998 65.127ZM84.5628 64.8904C85.431 65.2416 86.4224 66.2261 86.8652 67.177C87.8638 69.3213 86.9852 71.814 84.8348 72.9374C83.0942 73.8467 81.2401 73.5449 79.7668 72.1123C78.1744 70.564 77.9219 68.613 79.0667 66.704C80.1983 64.8169 82.5021 64.0568 84.5628 64.8904ZM38.0063 69.2585C37.4647 69.8352 37.5006 70.6657 38.0875 71.1273C38.546 71.4881 38.6849 71.4923 49.9494 71.4923C61.2138 71.4923 61.3528 71.4881 61.8113 71.1273C62.4177 70.6502 62.4438 69.7751 61.8678 69.2338L61.4602 68.851H49.9247H38.3893L38.0063 69.2585ZM52.0797 84.1087C53.5794 84.9249 54.3527 86.2487 54.3497 87.9945C54.3418 92.6789 47.9359 94.1346 45.9641 89.9003C44.8016 87.4039 46.125 84.4665 48.7811 83.6475C49.6816 83.3699 51.0818 83.5657 52.0797 84.1087Z" fill="#FF150F"/>
</svg>
