<svg width="100" height="100" viewBox="0 0 100 100" fill="none" xmlns="http://www.w3.org/2000/svg">
<path fill-rule="evenodd" clip-rule="evenodd" d="M22.0735 15.1105C19.0063 15.598 16.2538 17.0259 14.1026 19.2461C9.89316 23.5901 8.82767 29.7412 11.3495 35.1398C12.697 38.0248 14.7287 40.1611 17.5475 41.6577C19.0573 42.4594 19.7103 42.6522 23.2124 43.3302C24.8214 43.6418 26.2446 43.9675 26.375 44.0542C27.8716 45.048 29.5708 45.2791 30.8754 44.6658C31.2614 44.4843 31.6607 44.2352 31.7629 44.1124C32.0358 43.7834 32.2081 43.819 34.2009 44.6165L36.0196 45.3442L35.7005 45.7923C35.5249 46.0389 35.1516 46.7255 34.8709 47.318C34.3832 48.3479 34.3608 48.4793 34.3643 50.2931C34.3687 52.6655 34.4856 52.9804 36.7778 56.7976C40.3007 62.6641 43.7038 66.8244 46.9716 69.2598L47.5646 69.7016V76.2351C47.5646 80.4667 47.6239 82.9253 47.7328 83.2136C47.9616 83.8194 48.644 84.5218 49.2594 84.7851C49.6759 84.9633 51.8148 85.0022 61.0402 84.9994C71.6391 84.9961 72.3499 84.9785 72.9446 84.7054C73.2925 84.5457 73.7084 84.2674 73.8689 84.0868C74.5406 83.3314 74.5908 82.8279 74.598 76.7554L74.605 70.9591L75.6447 70.4725C78.2056 69.274 79.9815 66.378 79.9815 63.3999V62.7285L80.9698 63.1491C81.8166 63.5095 82.1845 63.5702 83.5394 63.5728C84.9523 63.5755 85.2048 63.531 85.9114 63.1544C87.3102 62.4089 87.9397 61.589 89.1545 58.9305C89.7614 57.6024 90.374 56.1167 90.5157 55.629C91.0234 53.8823 90.4508 51.7975 89.1036 50.488C88.6219 50.02 87.4951 49.3414 85.5347 48.339L82.6697 46.874V42.4637C82.6697 39.8006 82.5993 37.7215 82.4919 37.2155C81.9583 34.7002 80.0765 32.9167 77.4974 32.4815C76.1808 32.2593 75.0068 32.467 73.7038 33.1525C73.2177 33.4081 72.8055 33.5979 72.7879 33.5742C72.7704 33.5506 72.5537 33.1537 72.3066 32.6924C71.1071 30.4538 68.2685 29.2365 65.7511 29.8814C65.1892 30.0253 64.4318 30.3176 64.0678 30.531L63.406 30.9187L62.9314 30.0779C62.3101 28.977 61.0554 27.8649 59.9307 27.4186C58.6894 26.926 56.7142 26.9276 55.446 27.4223C54.9539 27.6142 54.4648 27.8755 54.3593 28.0026C54.0552 28.3688 53.9208 28.2845 53.5071 27.4681C53.2938 27.047 52.7231 26.3405 52.2389 25.898C49.8526 23.7171 46.2077 23.8371 43.9339 26.1716L43.2003 26.9248L41.8549 26.2488L40.5096 25.5728L40.3249 24.5798C40.0709 23.2139 39.449 22.2643 38.3942 21.6318C37.9228 21.3492 37.3918 21.1169 37.2139 21.1157C37.0362 21.1144 35.6228 20.1612 34.0731 18.9973C30.9784 16.673 30.0035 16.1238 27.8773 15.5072C26.2804 15.0442 23.6303 14.863 22.0735 15.1105ZM26.7308 17.9603C27.1438 18.0652 27.4819 18.2211 27.4819 18.3068C27.4819 18.3925 25.406 23.0774 22.8689 28.7175L18.2558 38.9723L17.7924 38.7029C16.9229 38.197 15.3215 36.6018 14.6173 35.5399C13.2305 33.4486 12.6933 31.6181 12.705 29.0244C12.7114 27.5946 12.7906 26.9537 13.0755 26.0255C14.4051 21.6947 17.6761 18.7118 22.0264 17.8626C23.2726 17.6192 25.5752 17.6671 26.7308 17.9603ZM32.2654 21.0301C32.9393 21.5344 33.4909 21.9753 33.4909 22.0099C33.4909 22.0445 33.3149 22.3518 33.0997 22.6927C32.3114 23.9415 25.4133 39.5213 25.3078 40.2913C25.2515 40.701 25.1474 40.8832 24.9705 40.8806C24.6685 40.8762 20.8132 40.1233 20.7623 40.0588C20.7346 40.0239 24.7929 30.9334 29.4556 20.5866L30.0157 19.3437L30.5278 19.7285C30.8095 19.9403 31.5914 20.526 32.2654 21.0301ZM37.2364 24.1499C37.4836 24.3822 37.6023 24.6731 37.6023 25.0467C37.6023 25.4263 36.4821 28.1032 34.0237 33.5976C30.498 41.4776 29.9727 42.4656 29.3082 42.4656C28.8498 42.4656 28.2811 42.1512 28.0208 41.7538C27.7885 41.3995 27.7789 41.2562 27.9486 40.6896C28.2824 39.5754 35.0955 24.5389 35.4373 24.1619C35.8665 23.6886 36.7391 23.6828 37.2364 24.1499ZM49.5412 27.2638C50.3826 27.647 51.3104 28.6988 51.4693 29.4498C51.5395 29.7813 51.5969 33.8949 51.5969 38.5914C51.5969 45.357 51.5526 47.2558 51.3834 47.7344C51.2413 48.1363 51.0966 48.3099 50.9506 48.254C50.83 48.2076 50.1227 47.9801 49.3788 47.7481C48.635 47.5161 48.0475 47.2824 48.0734 47.2285C48.0994 47.1746 48.4903 46.3833 48.9419 45.4701C49.9848 43.3619 50.4174 41.7219 50.423 39.8564C50.4309 37.2202 49.5467 35.3622 47.8797 34.5106C47.1356 34.1306 46.858 34.074 45.9434 34.1153L44.8756 34.1637L44.876 31.8812C44.8763 29.8821 44.9178 29.5131 45.2103 28.9088C45.991 27.2962 47.9656 26.5462 49.5412 27.2638ZM42.187 32.8944L42.1857 36.5357L39.9687 39.6983C38.7494 41.4377 37.6777 42.8862 37.5873 42.9172C37.3928 42.9838 33.4909 41.5005 33.4909 41.3599C33.4909 41.2654 39.2831 28.2985 39.4355 28.0519C39.4782 27.9828 40.115 28.2249 40.8506 28.5897L42.1881 29.2531L42.187 32.8944ZM58.6338 29.8127C59.4073 30.0279 60.3601 30.8599 60.7064 31.6224C60.9796 32.2241 60.9988 32.8449 60.9988 41.1215C60.9988 49.4077 60.9799 50.0174 60.7059 50.6093C60.5449 50.9572 60.2049 51.4371 59.9504 51.6759L59.4877 52.11L57.4399 51.1101C56.3137 50.5602 55.1609 50.0181 54.8781 49.9057L54.3642 49.7012V41.1602C54.3642 34.8603 54.4153 32.4483 54.5587 31.9682C54.6685 31.601 55.0309 31.0392 55.3905 30.679C56.3013 29.7669 57.4071 29.4715 58.6338 29.8127ZM68.5355 32.725C69.3939 33.1248 70.0181 33.8183 70.3136 34.7012C70.5556 35.4238 70.5651 52.085 70.3241 52.953C70.2317 53.2852 69.9074 53.8325 69.6033 54.1692C68.0729 55.8632 65.3866 55.5683 64.2166 53.5778L63.773 52.8232L63.727 44.2281C63.6875 36.8317 63.7151 35.5197 63.9259 34.8193C64.2667 33.6871 64.9481 32.9551 66.0159 32.5743C66.9026 32.2581 67.6256 32.3014 68.5355 32.725ZM78.0391 35.4057C78.6101 35.7009 79.3053 36.3959 79.6404 37.0067C79.8757 37.4357 79.9024 38.4037 79.9024 46.4979V55.5114L79.5071 56.216C78.3731 58.2369 75.6128 58.5629 74.0721 56.8574C73.768 56.5208 73.4437 55.9735 73.3513 55.6412C73.2425 55.2494 73.1832 52.0042 73.1828 46.4103L73.1818 37.7838L73.5907 36.9631C74.4165 35.306 76.4618 34.59 78.0391 35.4057ZM46.9918 37.1623C47.485 37.6946 47.7227 38.5786 47.7227 39.8811C47.7227 41.4165 47.3853 42.5693 46.2951 44.7585C45.2902 46.7764 45.1621 47.4113 45.5685 48.361C45.9792 49.3209 46.5835 49.6958 49.1551 50.5861C53.5653 52.113 58.6017 54.4845 59.8213 55.6088C61.3479 57.016 62.1126 58.8393 62.1126 61.0722C62.1126 62.3449 62.1365 62.4383 62.5749 62.8767C63.1425 63.4442 63.6761 63.4665 64.292 62.9483C64.6649 62.6346 64.7762 62.3871 64.8581 61.6908C64.971 60.7299 64.7645 58.953 64.4256 57.9691C64.1777 57.2494 64.1804 57.2463 64.7711 57.5518C65.0072 57.6738 65.644 57.8609 66.1866 57.9676C67.3964 58.2056 68.7364 57.9869 69.9349 57.3557C70.3726 57.1251 70.7803 56.9135 70.8408 56.8856C70.9014 56.8577 71.1037 57.134 71.2901 57.4996C71.7775 58.4549 73.0472 59.6578 74.0553 60.1193C74.6271 60.3811 75.3362 60.5484 76.1286 60.6083L77.3328 60.6994L77.261 62.7702C77.2044 64.3954 77.1201 64.9959 76.8686 65.5608C76.2548 66.9395 75.0104 68.0042 73.5696 68.3836C73.2176 68.4764 72.7194 68.7713 72.4626 69.0394L71.9958 69.5264L71.9168 75.8811L71.8377 82.2356L61.0453 82.2762L50.2528 82.3168V76.709V71.1014L50.9249 71.3429C51.2944 71.4757 52.1063 71.6245 52.7288 71.6738C53.7942 71.7579 53.8849 71.7391 54.2706 71.3535C54.7847 70.8394 54.806 70.1431 54.3247 69.5867C54.0402 69.2576 53.747 69.1444 52.862 69.021C48.7423 68.4475 43.8762 63.5638 38.7127 54.8205C37.1422 52.1611 36.9198 51.5406 37.0058 50.0559C37.047 49.3446 37.189 48.6483 37.3604 48.3164C37.7693 47.5244 44.8544 37.381 45.2302 37.0496C45.6974 36.6375 46.5565 36.6925 46.9918 37.1623ZM84.9564 51.104C87.4049 52.3486 87.3852 52.3342 87.7515 53.1394C88.188 54.0991 88.1127 54.6812 87.3146 56.517C85.8321 59.9266 85.7056 60.1445 84.9542 60.5849C83.9784 61.1567 83.2086 61.1184 81.4386 60.41C80.6372 60.0893 79.9815 59.8129 79.9815 59.796C79.9815 59.7789 80.3569 59.3772 80.8156 58.9033C82.3455 57.3226 82.6604 56.2543 82.6659 52.6255C82.6679 51.2123 82.7203 50.0559 82.7821 50.0559C82.8441 50.0559 83.8225 50.5276 84.9564 51.104Z" fill="#050000"/>
</svg>
