<?xml version="1.0" standalone="no"?>
<!DOCTYPE svg PUBLIC "-//W3C//DTD SVG 20010904//EN"
 "http://www.w3.org/TR/2001/REC-SVG-20010904/DTD/svg10.dtd">
<svg version="1.0" xmlns="http://www.w3.org/2000/svg"
 width="2000.000000pt" height="2000.000000pt" viewBox="0 0 2000.000000 2000.000000"
 preserveAspectRatio="xMidYMid meet">
<metadata>
Created by potrace 1.14, written by Peter Selinger 2001-2017
</metadata>
<g transform="translate(0.000000,2000.000000) scale(0.100000,-0.100000)"
fill="#000000" stroke="none">
<path d="M8907 19513 c-109 -41 -192 -152 -203 -274 -8 -79 -3 -91 141 -409
59 -129 108 -239 109 -245 2 -5 15 -36 29 -69 15 -32 27 -60 27 -62 0 -2 13
-32 28 -66 16 -35 39 -90 51 -123 13 -33 29 -73 36 -90 7 -16 25 -61 40 -100
15 -38 33 -83 40 -100 61 -139 326 -898 340 -970 2 -11 16 -58 30 -105 15 -47
42 -141 61 -210 18 -69 38 -138 43 -155 6 -16 17 -61 26 -100 8 -38 26 -119
40 -180 14 -60 28 -123 31 -140 3 -16 11 -61 19 -100 12 -60 22 -114 40 -224
9 -53 21 -141 30 -226 4 -27 8 -63 10 -80 19 -135 27 -594 13 -746 -32 -343
-115 -623 -250 -849 -28 -46 -55 -89 -59 -95 -5 -5 -25 -30 -45 -55 -100 -126
-225 -233 -363 -314 -91 -54 -263 -128 -326 -141 -45 -9 -54 -12 -57 -14 -2
-1 -16 -4 -33 -6 -16 -2 -41 -6 -55 -9 -36 -9 -112 -19 -133 -18 -9 0 -15 -2
-13 -6 2 -4 -87 -8 -199 -8 -111 -1 -208 -5 -214 -8 -7 -4 -10 -2 -9 5 2 7
-11 13 -35 14 -20 1 -40 5 -44 8 -3 4 -13 1 -21 -6 -11 -8 -14 -8 -9 0 5 8
-11 15 -50 23 -58 11 -66 14 -133 42 -19 8 -43 14 -53 12 -9 -1 -15 1 -12 5 6
11 -44 33 -57 25 -7 -4 -8 -2 -4 4 4 7 -3 14 -19 18 -14 3 -25 11 -25 16 0 6
-7 7 -16 4 -8 -3 -13 -2 -10 3 7 11 -23 25 -44 22 -8 -2 -12 0 -8 4 8 9 -16
35 -31 35 -6 0 -11 5 -11 12 0 6 -3 8 -7 5 -3 -4 -13 2 -20 13 -8 11 -19 18
-24 15 -5 -4 -9 -1 -9 6 0 15 -56 69 -72 69 -6 0 -9 3 -5 6 9 9 -45 64 -56 57
-6 -3 -7 -2 -4 3 3 6 2 16 -3 24 -8 13 -13 13 -32 1 -23 -14 -23 -14 -4 7 15
18 16 23 5 35 -8 8 -27 37 -44 65 -16 29 -37 52 -45 52 -12 0 -12 2 -2 9 11 6
10 10 0 19 -8 6 -20 27 -27 46 -8 19 -24 39 -35 45 -12 7 -14 10 -4 7 15 -4
16 -2 6 19 -6 13 -15 22 -19 19 -5 -3 -6 3 -2 12 3 10 2 15 -3 12 -5 -4 -10 6
-11 20 0 15 -6 28 -12 30 -5 2 -7 10 -4 18 3 8 0 14 -7 14 -6 0 -9 4 -6 8 3 5
-1 20 -9 35 -8 15 -12 27 -10 27 2 0 -3 19 -11 43 -9 23 -17 51 -20 62 -2 11
-12 56 -23 100 -11 44 -22 98 -25 120 -3 22 -8 51 -10 65 -7 43 -24 170 -31
240 -25 242 -25 906 -1 1110 3 19 7 71 11 115 7 84 12 143 20 210 2 22 7 67
11 100 3 33 10 83 14 110 25 156 -40 294 -170 358 -34 17 -63 22 -121 22 -66
0 -83 -4 -138 -33 -84 -44 -296 -186 -467 -314 -197 -147 -362 -287 -534 -453
-87 -84 -229 -232 -310 -325 -41 -46 -79 -90 -85 -96 -28 -31 -92 -110 -104
-128 -8 -12 -18 -23 -21 -26 -8 -6 -183 -242 -190 -255 -8 -16 -44 -69 -50
-75 -3 -3 -33 -48 -65 -100 -32 -52 -64 -102 -71 -110 -6 -8 -23 -35 -37 -60
-13 -25 -53 -94 -88 -155 -98 -172 -259 -511 -344 -722 -119 -299 -244 -688
-305 -948 -12 -49 -23 -97 -26 -105 -11 -41 -93 -453 -98 -496 -4 -27 -11 -74
-16 -104 -12 -71 -17 -103 -25 -170 -4 -30 -9 -62 -10 -70 -2 -8 -6 -49 -10
-90 -4 -41 -9 -77 -10 -80 -2 -3 -6 -46 -10 -95 -3 -50 -8 -110 -10 -135 -18
-200 -27 -431 -27 -700 -1 -205 9 -570 17 -608 2 -10 6 -64 9 -118 4 -55 8
-112 10 -129 2 -16 7 -57 10 -90 4 -33 8 -76 11 -95 2 -19 7 -57 10 -85 7 -61
9 -75 41 -253 22 -128 61 -295 80 -347 13 -35 -173 150 -263 262 -10 12 -27
32 -38 45 -41 48 -195 268 -195 278 0 5 -4 10 -8 10 -5 0 -16 15 -25 33 -9 17
-28 50 -41 72 -22 35 -175 339 -212 420 -24 55 -92 239 -109 300 -59 203 -208
319 -399 311 -108 -5 -194 -58 -246 -151 -115 -207 -330 -667 -435 -930 -37
-93 -71 -179 -76 -190 -60 -134 -241 -716 -299 -960 -11 -49 -26 -108 -31
-129 -6 -22 -13 -49 -15 -60 -3 -19 -23 -115 -29 -141 -11 -52 -22 -114 -39
-215 -14 -82 -20 -116 -31 -197 -3 -21 -8 -49 -11 -63 -2 -14 -6 -50 -9 -80
-3 -30 -7 -66 -10 -80 -2 -14 -7 -61 -11 -105 -4 -44 -8 -93 -10 -110 -26
-257 -25 -870 1 -1155 7 -76 16 -159 20 -195 2 -16 7 -52 10 -80 56 -477 206
-1068 393 -1555 114 -297 302 -696 433 -918 27 -45 49 -85 49 -88 0 -10 226
-367 296 -468 38 -54 76 -108 84 -120 26 -38 223 -301 230 -306 3 -3 21 -25
40 -50 19 -25 37 -47 40 -50 3 -3 24 -27 45 -55 22 -27 42 -52 45 -55 3 -3 34
-39 70 -80 244 -282 593 -631 859 -860 35 -30 69 -60 75 -65 11 -11 246 -205
276 -229 8 -6 33 -25 55 -41 22 -16 42 -33 45 -36 9 -10 264 -199 266 -196 1
1 5 45 8 97 8 137 28 295 60 480 3 19 8 46 10 60 2 14 7 36 10 50 3 14 8 36
10 50 4 21 28 135 41 190 2 8 8 37 14 63 20 86 101 380 132 477 54 171 61 193
139 410 159 441 324 821 571 1315 94 187 182 363 197 390 16 28 49 88 74 135
54 102 184 333 210 375 10 17 21 37 25 45 4 8 38 67 75 130 85 143 71 121 170
280 103 167 97 158 133 216 16 27 32 51 36 54 3 3 12 16 19 29 7 13 69 110
138 215 70 105 131 198 137 207 86 135 128 162 212 140 71 -19 115 -89 107
-172 -29 -351 -35 -1212 -9 -1464 2 -22 7 -78 10 -125 3 -47 8 -105 11 -130 3
-25 7 -63 9 -85 18 -166 25 -223 35 -280 5 -27 12 -72 16 -100 3 -27 8 -59 10
-70 2 -11 7 -33 10 -50 27 -154 68 -330 106 -465 16 -58 31 -112 33 -120 6
-31 89 -269 127 -365 40 -102 177 -387 222 -461 112 -189 187 -296 301 -434
69 -84 266 -286 335 -345 20 -17 45 -38 57 -48 21 -18 21 -17 76 87 304 575
918 1109 1657 1443 19 9 43 20 52 24 37 19 247 102 328 130 189 67 207 72 272
73 63 1 67 0 101 -35 53 -55 56 -87 21 -264 -1 -5 -6 -35 -12 -65 -6 -30 -14
-77 -17 -105 -3 -27 -8 -66 -10 -85 -18 -137 -24 -426 -12 -550 21 -210 55
-390 105 -551 149 -477 461 -847 844 -1000 70 -28 174 -58 223 -65 22 -3 58
-10 80 -15 40 -9 332 -6 372 4 62 15 178 50 192 57 9 5 50 25 91 44 41 20 95
48 120 62 41 23 208 140 220 153 3 4 30 26 60 51 197 160 436 415 638 682 36
49 70 88 75 88 40 0 393 -344 512 -499 10 -14 22 -28 25 -31 33 -27 255 -345
310 -445 93 -165 145 -269 196 -392 9 -22 11 -21 97 32 49 30 91 55 93 55 3 0
17 9 32 19 15 10 95 64 177 118 254 168 578 410 775 581 301 260 619 579 830
832 25 30 59 70 76 90 145 166 465 621 597 850 208 359 380 712 514 1055 53
137 186 525 217 635 32 115 93 345 100 380 3 14 15 66 26 115 31 137 57 273
90 465 27 165 34 208 46 305 2 22 7 51 9 65 2 14 6 50 9 80 3 30 8 82 11 115
3 33 8 76 10 95 3 19 7 71 10 115 4 44 8 103 10 130 25 311 25 1026 0 1350 -2
28 -7 91 -10 140 -3 50 -8 108 -10 130 -6 55 -14 132 -30 297 -7 71 -11 103
-30 238 -23 170 -31 225 -41 285 -3 17 -7 46 -10 65 -2 19 -13 82 -24 140 -11
58 -22 119 -25 135 -25 143 -86 431 -130 615 -7 32 -26 106 -30 122 -3 10 -7
27 -9 38 -10 44 -80 299 -99 360 -39 128 -73 173 -157 213 -65 31 -134 38
-210 21 -71 -15 -86 -21 -140 -57 -53 -35 -73 -58 -174 -193 -187 -248 -472
-485 -777 -643 -203 -105 -451 -196 -619 -227 -14 -2 -45 -9 -70 -14 -89 -21
-259 -36 -355 -33 -54 2 -100 5 -101 6 -2 2 3 30 11 62 7 33 25 119 40 190 15
72 29 139 31 150 5 23 7 36 34 190 30 167 71 460 86 605 2 19 5 58 8 85 3 28
8 86 11 130 4 44 8 91 10 105 7 47 18 385 18 560 0 155 -9 432 -18 545 -1 22
-6 76 -9 120 -3 44 -8 89 -10 100 -2 11 -7 52 -11 90 -7 75 -11 105 -25 200
-5 33 -12 78 -15 100 -4 22 -8 47 -10 55 -2 8 -7 31 -10 50 -60 374 -200 871
-355 1260 -56 138 -77 188 -138 325 -51 115 -210 421 -282 545 -40 69 -78 134
-84 145 -12 20 -54 86 -135 210 -25 39 -49 71 -53 73 -5 2 -8 8 -8 12 0 8 -77
122 -107 160 -7 8 -40 53 -74 100 -34 47 -74 99 -88 116 -14 18 -37 47 -51 65
-32 41 -126 156 -193 234 -29 32 -51 65 -51 72 1 7 -2 11 -6 8 -4 -2 -45 37
-91 87 -46 51 -104 113 -129 139 -25 26 -68 71 -96 100 -57 59 -256 252 -323
312 -24 21 -39 42 -35 49 5 7 3 8 -6 3 -8 -5 -17 -2 -24 6 -6 8 -60 57 -121
109 -60 52 -117 102 -126 112 -9 10 -21 18 -28 18 -6 0 -11 4 -11 8 0 4 -30
31 -67 59 -38 29 -77 60 -88 70 -11 10 -47 39 -80 65 -33 26 -70 57 -82 68
-12 11 -26 20 -30 20 -5 0 -19 10 -33 23 -14 12 -41 34 -60 47 -36 25 -64 47
-84 66 -6 5 -19 13 -28 17 -10 3 -18 11 -18 17 0 5 -6 10 -13 10 -7 0 -24 10
-37 23 -38 33 -88 67 -100 67 -5 0 -10 3 -10 8 0 4 -18 18 -39 32 -22 13 -37
28 -34 34 3 5 1 6 -5 2 -6 -3 -16 0 -24 7 -7 7 -30 23 -50 36 -21 12 -38 27
-38 32 0 5 -4 8 -9 6 -10 -3 -241 149 -235 155 2 3 -2 5 -8 5 -15 0 -181 103
-186 115 -2 5 -8 8 -13 8 -12 0 -113 62 -117 72 -2 4 -10 8 -18 8 -8 0 -22 8
-32 18 -10 9 -24 18 -31 20 -6 1 -29 13 -49 26 -20 12 -50 31 -67 42 -16 10
-32 19 -35 19 -3 0 -36 19 -75 41 -38 23 -85 49 -102 58 -18 9 -33 21 -33 26
0 6 -3 9 -7 8 -14 -4 -53 13 -53 23 0 5 -9 9 -19 9 -11 0 -23 5 -26 10 -4 6
-24 18 -46 27 -21 8 -39 18 -39 22 0 4 -16 13 -35 20 -19 7 -35 17 -35 22 0 6
-4 8 -9 5 -5 -3 -19 2 -32 12 -13 9 -132 71 -264 137 -132 66 -242 123 -245
126 -3 3 -21 11 -40 19 -46 18 -194 91 -200 99 -3 3 -12 7 -20 9 -8 2 -44 17
-80 34 -36 17 -92 43 -125 58 -33 15 -85 39 -115 53 -30 14 -145 64 -255 111
-110 48 -209 91 -220 96 -11 5 -81 35 -155 65 -158 67 -240 78 -323 48z
m-1662 -5721 c-3 -3 -11 0 -18 7 -9 10 -8 11 6 5 10 -3 15 -9 12 -12z m49 -70
c3 -5 -1 -9 -9 -9 -8 0 -12 4 -9 9 3 4 7 8 9 8 2 0 6 -4 9 -8z m94 -133 c-3
-8 -7 -3 -11 10 -4 17 -3 21 5 13 5 -5 8 -16 6 -23z m11 -33 c9 -11 9 -16 -1
-22 -7 -4 -10 -4 -6 1 4 4 3 14 -3 22 -6 7 -9 13 -6 13 2 0 10 -6 16 -14z m56
-56 c3 -6 -1 -7 -9 -4 -18 7 -21 14 -7 14 6 0 13 -4 16 -10z m40 -40 c3 -6 -1
-7 -9 -4 -18 7 -21 14 -7 14 6 0 13 -4 16 -10z m39 -38 c3 -5 -1 -9 -9 -9 -8
0 -12 4 -9 9 3 4 7 8 9 8 2 0 6 -4 9 -8z m106 -58 c0 -8 -19 -13 -24 -6 -3 5
1 9 9 9 8 0 15 -2 15 -3z m101 -57 c-10 -9 -11 -8 -5 6 3 10 9 15 12 12 3 -3
0 -11 -7 -18z m463 -113 c3 -8 2 -12 -4 -9 -6 3 -10 10 -10 16 0 14 7 11 14
-7z"/>
</g>
</svg>
