<svg width="32" height="32" viewBox="0 0 32 32" fill="none" xmlns="http://www.w3.org/2000/svg">
<path d="M23.9913 8.4921C22.4861 7.80147 20.8721 7.29265 19.1845 7.00122C19.1538 6.9956 19.1231 7.00965 19.1072 7.03777C18.8996 7.40697 18.6697 7.88862 18.5087 8.26719C16.6936 7.99545 14.8878 7.99545 13.1099 8.26719C12.9488 7.8802 12.7106 7.40697 12.502 7.03777C12.4862 7.01059 12.4555 6.99654 12.4248 7.00122C10.7381 7.29172 9.12407 7.80054 7.61799 8.4921C7.60495 8.49772 7.59377 8.5071 7.58635 8.51928C4.52484 13.0931 3.68616 17.5545 4.09759 21.9606C4.09945 21.9822 4.11155 22.0028 4.12831 22.0159C6.14821 23.4993 8.10483 24.3998 10.0251 24.9967C10.0558 25.0061 10.0884 24.9949 10.108 24.9695C10.5622 24.3492 10.9671 23.6952 11.3143 23.0073C11.3348 22.967 11.3152 22.9192 11.2734 22.9033C10.6311 22.6597 10.0195 22.3626 9.43124 22.0253C9.3847 21.9981 9.38098 21.9316 9.42379 21.8997C9.54758 21.8069 9.67141 21.7104 9.78962 21.613C9.81101 21.5952 9.84081 21.5914 9.86596 21.6026C13.7307 23.3672 17.9148 23.3672 21.734 21.6026C21.7592 21.5905 21.789 21.5942 21.8113 21.612C21.9295 21.7095 22.0533 21.8069 22.178 21.8997C22.2208 21.9316 22.2181 21.9981 22.1715 22.0253C21.5832 22.3692 20.9717 22.6597 20.3285 22.9024C20.2866 22.9183 20.268 22.967 20.2885 23.0073C20.6431 23.6942 21.048 24.3483 21.4939 24.9686C21.5125 24.9949 21.546 25.0061 21.5767 24.9967C23.5063 24.3998 25.4629 23.4993 27.4828 22.0159C27.5005 22.0028 27.5117 21.9831 27.5135 21.9616C28.0059 16.8676 26.6888 12.4428 24.022 8.52021C24.0155 8.5071 24.0043 8.49772 23.9913 8.4921ZM11.8914 19.2778C10.7279 19.2778 9.76913 18.2095 9.76913 16.8976C9.76913 15.5857 10.7093 14.5175 11.8914 14.5175C13.0829 14.5175 14.0323 15.5951 14.0137 16.8976C14.0137 18.2095 13.0736 19.2778 11.8914 19.2778ZM19.7383 19.2778C18.5748 19.2778 17.616 18.2095 17.616 16.8976C17.616 15.5857 18.5562 14.5175 19.7383 14.5175C20.9298 14.5175 21.8792 15.5951 21.8606 16.8976C21.8606 18.2095 20.9298 19.2778 19.7383 19.2778Z" fill="white"/>
</svg>
