<svg width="28" height="28" viewBox="0 0 28 28" fill="none" xmlns="http://www.w3.org/2000/svg">
<path fill-rule="evenodd" clip-rule="evenodd" d="M27.4958 14.0824C27.4958 6.67438 21.4894 0.667969 14.0814 0.667969C6.6734 0.667969 0.666992 6.67438 0.666992 14.0824C0.666992 20.7773 5.57176 26.3272 11.9856 27.3346V17.9609H8.57868V14.0824H11.9856V11.1263C11.9856 7.76467 13.989 5.90653 17.0525 5.90653C18.5201 5.90653 20.0557 6.16874 20.0557 6.16874V9.47004H18.3636C16.6979 9.47004 16.1772 10.5038 16.1772 11.5658V14.0823H19.8972L19.3029 17.9608H16.1771V27.3345C22.5909 26.3289 27.4957 20.7791 27.4957 14.0823L27.4958 14.0824Z" fill="#2E2B2C"/>
</svg>
