<svg width="32" height="32" viewBox="0 0 32 32" fill="none" xmlns="http://www.w3.org/2000/svg">
<path d="M16.0006 4.36377C12.8404 4.36377 12.4438 4.37759 11.2026 4.43407C9.96377 4.4908 9.11819 4.68692 8.37831 4.97468C7.61298 5.27189 6.96377 5.66947 6.31698 6.3165C5.66971 6.96328 5.27213 7.6125 4.97395 8.37759C4.68546 9.11771 4.4891 9.96353 4.43334 11.2018C4.37783 12.443 4.36328 12.8399 4.36328 16.0001C4.36328 19.1604 4.37734 19.5558 4.43358 20.797C4.49055 22.0358 4.68668 22.8813 4.97419 23.6212C5.27165 24.3866 5.66922 25.0358 6.31625 25.6826C6.9628 26.3298 7.61201 26.7284 8.37686 27.0256C9.11722 27.3133 9.96304 27.5095 11.2016 27.5662C12.4428 27.6227 12.8392 27.6365 15.9992 27.6365C19.1596 27.6365 19.555 27.6227 20.7963 27.5662C22.035 27.5095 22.8816 27.3133 23.6219 27.0256C24.387 26.7284 25.0353 26.3298 25.6818 25.6826C26.3291 25.0358 26.7267 24.3866 27.0249 23.6215C27.3109 22.8813 27.5073 22.0355 27.5655 20.7972C27.6212 19.556 27.6358 19.1604 27.6358 16.0001C27.6358 12.8399 27.6212 12.4433 27.5655 11.2021C27.5073 9.96328 27.3109 9.11771 27.0249 8.37783C26.7267 7.6125 26.3291 6.96328 25.6818 6.3165C25.0346 5.66922 24.3873 5.27165 23.6212 4.97468C22.8794 4.68692 22.0333 4.4908 20.7946 4.43407C19.5533 4.37759 19.1582 4.36377 15.997 4.36377H16.0006ZM14.9567 6.46074C15.2666 6.46025 15.6123 6.46074 16.0006 6.46074C19.1075 6.46074 19.4758 6.47189 20.7027 6.52765C21.8372 6.57953 22.453 6.7691 22.8632 6.92838C23.4062 7.13928 23.7933 7.39141 24.2004 7.79868C24.6076 8.20595 24.8598 8.59383 25.0712 9.13686C25.2304 9.54656 25.4203 10.1623 25.4719 11.2969C25.5276 12.5235 25.5398 12.892 25.5398 15.9975C25.5398 19.1029 25.5276 19.4714 25.4719 20.6981C25.42 21.8326 25.2304 22.4484 25.0712 22.8581C24.8603 23.4011 24.6076 23.7878 24.2004 24.1948C23.7931 24.6021 23.4064 24.8542 22.8632 25.0651C22.4535 25.2251 21.8372 25.4142 20.7027 25.4661C19.476 25.5218 19.1075 25.534 16.0006 25.534C12.8935 25.534 12.5252 25.5218 11.2986 25.4661C10.164 25.4137 9.54825 25.2241 9.13783 25.0649C8.5948 24.854 8.20692 24.6018 7.79964 24.1946C7.39237 23.7873 7.14025 23.4004 6.92886 22.8571C6.76958 22.4474 6.57977 21.8316 6.52813 20.6971C6.47237 19.4704 6.46122 19.102 6.46122 15.9946C6.46122 12.8872 6.47237 12.5206 6.52813 11.294C6.58001 10.1594 6.76958 9.54365 6.92886 9.13347C7.13977 8.59044 7.39237 8.20256 7.79964 7.79528C8.20692 7.38801 8.5948 7.13589 9.13783 6.9245C9.54801 6.7645 10.164 6.57541 11.2986 6.52328C12.372 6.4748 12.788 6.46025 14.9567 6.45783V6.46074ZM22.212 8.39286C21.4411 8.39286 20.8156 9.01759 20.8156 9.78874C20.8156 10.5596 21.4411 11.1851 22.212 11.1851C22.9829 11.1851 23.6084 10.5596 23.6084 9.78874C23.6084 9.01783 22.9829 8.39238 22.212 8.39238V8.39286ZM16.0006 10.0244C12.7005 10.0244 10.0249 12.7 10.0249 16.0001C10.0249 19.3003 12.7005 21.9747 16.0006 21.9747C19.3007 21.9747 21.9754 19.3003 21.9754 16.0001C21.9754 12.7 19.3005 10.0244 16.0004 10.0244H16.0006ZM16.0006 12.1213C18.1427 12.1213 19.8794 13.8578 19.8794 16.0001C19.8794 18.1422 18.1427 19.8789 16.0006 19.8789C13.8583 19.8789 12.1218 18.1422 12.1218 16.0001C12.1218 13.8578 13.8583 12.1213 16.0006 12.1213Z" fill="white"/>
</svg>
