<svg width="22" height="22" viewBox="0 0 22 22" fill="none" xmlns="http://www.w3.org/2000/svg">
<path fill-rule="evenodd" clip-rule="evenodd" d="M2.95827 0H19.0417C20.6755 0 22 1.32446 22 2.95827V19.0417C22 20.6755 20.6755 22 19.0417 22H2.95827C1.32446 22 0 20.6755 0 19.0417V2.95827C0 1.32446 1.32446 0 2.95827 0ZM7.44912 6.01445C7.44912 6.79436 6.81688 7.42661 6.03696 7.42661C5.25705 7.42661 4.62481 6.79436 4.62481 6.01445C4.62481 5.23454 5.25705 4.60229 6.03696 4.60229C6.81688 4.60229 7.44912 5.23454 7.44912 6.01445ZM4.73219 8.86584H7.34196V17.3025H4.73219V8.86584ZM15.3541 8.92914C15.3541 8.92914 14.6283 8.69378 13.498 8.85389C13.0879 8.90632 12.698 9.06225 12.3649 9.307C12.0675 9.52516 11.8402 9.82549 11.7111 10.1711V8.86617H9.10137V17.3028H11.7111V12.7088C11.7111 12.0123 12.0847 11.343 12.7161 11.0543C12.887 10.9755 13.0699 10.9257 13.2573 10.907C13.2573 10.907 13.8518 10.788 14.3727 11.3745C14.655 11.6948 14.7852 12.1185 14.7852 12.5439V17.306H17.395V11.4759C17.5103 9.34649 15.3541 8.92914 15.3541 8.92914Z" fill="#050000"/>
</svg>
