<svg width="32" height="32" viewBox="0 0 32 32" fill="none" xmlns="http://www.w3.org/2000/svg">
<path fill-rule="evenodd" clip-rule="evenodd" d="M6.846 9.887C6.876 9.592 6.763 9.301 6.543 9.103L4.303 6.403V6H11.261L16.639 17.795L21.367 6H28V6.403L26.084 8.24C25.919 8.366 25.837 8.573 25.871 8.778V22.276C25.837 22.48 25.919 22.687 26.084 22.813L27.955 24.65V25.053H18.543V24.65L20.482 22.768C20.672 22.578 20.672 22.522 20.672 22.231V11.321L15.283 25.009H14.555L8.28 11.321V20.495C8.228 20.88 8.356 21.269 8.627 21.547L11.148 24.605V25.009H4V24.605L6.521 21.547C6.791 21.268 6.911 20.877 6.846 20.495V9.887Z" fill="white"/>
</svg>
