<svg width="32" height="32" viewBox="0 0 32 32" fill="none" xmlns="http://www.w3.org/2000/svg">
<path fill-rule="evenodd" clip-rule="evenodd" d="M2.98289 15.2287L15.8708 9.67739C22.0081 7.12469 23.2833 6.68129 24.1145 6.66666C24.2973 6.66343 24.7061 6.70874 24.9708 6.92359C25.1945 7.10498 25.2559 7.35011 25.2854 7.52204C25.3149 7.69397 25.3515 8.08588 25.3223 8.39205C24.9897 11.8864 23.5507 20.3665 22.8186 24.2803C22.5087 25.9365 21.8992 26.4917 21.3083 26.5461C20.0249 26.6642 19.0504 25.6979 17.8074 24.8831L12.8755 21.5703C10.6936 20.1325 12.1081 19.3422 13.3516 18.0508C13.6769 17.7126 19.3314 12.5695 19.4408 12.1029C19.4541 12.0446 19.4672 11.8271 19.338 11.7122C19.2088 11.5973 19.018 11.6371 18.8804 11.6679C18.6854 11.7122 15.5782 13.7659 9.55882 17.8292C8.67683 18.4348 7.87794 18.73 7.16223 18.7145C6.37315 18.6974 4.85532 18.2683 3.72697 17.9015C2.34298 17.4517 1.243 17.2138 1.33883 16.4498C1.38868 16.0519 1.9367 15.6449 2.98284 15.2288L2.98289 15.2287Z" fill="white"/>
</svg>
