<svg width="32" height="32" viewBox="0 0 32 32" fill="none" xmlns="http://www.w3.org/2000/svg">
<path fill-rule="evenodd" clip-rule="evenodd" d="M27.9993 8.97651C27.1147 9.36688 26.1656 9.6319 25.17 9.75009C26.1871 9.14125 26.9679 8.17427 27.3332 7.02464C26.3805 7.59051 25.3276 7.99879 24.2066 8.22083C23.3077 7.2646 22.0291 6.6665 20.6109 6.6665C17.8926 6.6665 15.6864 8.87265 15.6864 11.5909C15.6864 11.9777 15.7294 12.3538 15.8154 12.7119C11.7218 12.5078 8.09387 10.5452 5.66568 7.56544C5.24307 8.29246 4.99954 9.13767 4.99954 10.0402C4.99954 11.7485 5.86982 13.2563 7.19136 14.1373C6.38554 14.1122 5.62628 13.8902 4.96014 13.5213C4.96014 13.5428 4.96014 13.5607 4.96014 13.5822C4.96014 15.9674 6.65773 17.9587 8.91043 18.4099C8.49857 18.5209 8.06164 18.5818 7.61396 18.5818C7.29522 18.5818 6.98722 18.5496 6.68638 18.4923C7.31312 20.4477 9.13247 21.8731 11.2849 21.9125C9.59806 23.2341 7.47787 24.022 5.16786 24.022C4.77033 24.022 4.37996 23.9969 3.99316 23.9539C6.17066 25.3507 8.76001 26.1672 11.5428 26.1672C20.6001 26.1672 25.5532 18.6642 25.5532 12.1568C25.5532 11.9419 25.5496 11.7306 25.5389 11.5193C26.5023 10.8245 27.3367 9.95781 27.9957 8.96934L27.9993 8.97651Z" fill="white"/>
</svg>
