<svg width="32" height="32" viewBox="0 0 32 32" fill="none" xmlns="http://www.w3.org/2000/svg">
<path d="M16 4C9.38331 4 4 9.38331 4 16C4 22.6167 9.38331 28 16 28C22.6167 28 28 22.6167 28 16C28 9.38331 22.6167 4 16 4ZM25.4833 19.9596C24.3037 22.7748 21.9055 24.9576 18.9513 25.8447C19.0043 25.7463 19.0556 25.6469 19.1052 25.5464C19.359 25.0328 19.6257 24.6707 20.0732 24.3095C20.4158 24.0329 21.0883 23.6045 20.9783 23.0643C20.899 22.6738 20.4533 22.5137 20.1164 22.4182C19.582 22.2668 19.0103 22.2276 18.4588 22.1894C17.9812 22.156 17.4853 22.173 17.019 22.0541C16.3212 21.8765 16.1639 21.2725 16.1198 20.6357C16.0804 20.0697 16.0889 19.4878 15.8105 18.9756C15.4521 18.3164 14.6271 18.1289 13.9431 18.066C13.3656 18.0132 12.7889 18.041 12.2146 17.9448C11.662 17.8522 11.1387 17.6582 10.5713 17.6802C9.83596 17.7085 9.50571 18.2069 9.19204 18.7833C9.03721 19.068 8.05924 21.2571 7.48463 21.7479C6.49382 20.2852 5.87055 18.5545 5.74642 16.6894C5.82763 16.6675 5.90811 16.6372 5.98982 16.5965C6.30953 16.4377 6.53351 16.1512 6.8814 16.0377C7.2131 15.9297 7.64164 16.0255 7.98054 16.0587C8.31777 16.0917 8.66024 16.1266 8.99775 16.0807C9.67148 15.9887 10.0285 15.5233 10.1361 14.8736C10.2 14.4855 10.1501 14.0953 10.1617 13.7045C10.1799 13.0957 10.5795 12.8772 11.1301 12.8254C12.1702 12.7277 14.5962 13.0033 14.6453 11.4027C14.6663 10.718 13.8514 10.3647 13.3207 10.182C12.2872 9.82642 11.158 9.95055 10.101 9.70357C9.53881 9.57219 9.06461 9.22151 8.667 8.80703C10.5336 6.90495 13.1311 5.72264 16 5.72264C16.6136 5.72264 17.2142 5.77678 17.7983 5.88048C17.4997 5.93596 17.2049 6.01477 16.9181 6.13059C15.4052 6.74058 15.3596 8.45702 16.0209 9.74649C16.4311 10.5462 17.0952 11.2162 17.789 11.7733C18.4606 12.3124 19.1945 12.631 19.9391 13.04C20.9271 13.5832 20.8078 15.0019 21.0577 15.9577C21.2686 16.7639 21.7748 17.4439 22.5727 17.723C23.0551 17.8915 23.6217 17.76 24.0441 18.0961C24.4069 18.3839 24.4921 18.9732 24.6995 19.3692C24.906 19.7643 25.1809 19.9306 25.4833 19.9596Z" fill="white"/>
</svg>
