<svg width="24" height="17" viewBox="0 0 24 17" fill="none" xmlns="http://www.w3.org/2000/svg">
<path fill-rule="evenodd" clip-rule="evenodd" d="M22.6915 1.28682C23.0641 1.6595 23.3327 2.1233 23.4704 2.63205C24.2631 5.82283 24.0799 10.8622 23.4857 14.1761C23.3481 14.6849 23.0795 15.1487 22.7069 15.5213C22.3342 15.894 21.8704 16.1626 21.3616 16.3002C19.4992 16.8082 12.0033 16.8082 12.0033 16.8082C12.0033 16.8082 4.5073 16.8082 2.64486 16.3002C2.13612 16.1626 1.67231 15.894 1.29964 15.5213C0.926961 15.1487 0.658419 14.6849 0.520754 14.1761C-0.276556 10.9992 -0.0579885 5.95674 0.505362 2.64744C0.643027 2.13869 0.911568 1.67489 1.28424 1.30221C1.65692 0.929537 2.12072 0.660996 2.62947 0.523331C4.49191 0.0153921 11.9879 0 11.9879 0C11.9879 0 19.4838 0 21.3462 0.507939C21.855 0.645604 22.3188 0.914145 22.6915 1.28682ZM15.82 8.40448L9.60156 12.0062V4.80273L15.82 8.40448Z" fill="white"/>
</svg>
