<svg width="100" height="100" viewBox="0 0 100 100" fill="none" xmlns="http://www.w3.org/2000/svg">
<path fill-rule="evenodd" clip-rule="evenodd" d="M14.2861 16.9645C13.2853 17.3553 12.3199 18.3318 11.9457 19.3321C11.6488 20.1254 11.6455 20.4448 11.6843 44.6393L11.7236 69.1429L12.0543 69.761C12.5873 70.7573 13.1077 71.2773 14.0205 71.7256L14.877 72.1462L29.8667 72.1885C41.5686 72.2217 44.8415 72.2711 44.7889 72.4138C44.752 72.5144 44.5275 73.2135 44.2901 73.9675L43.8584 75.3383L42.3282 75.4065C40.9906 75.4661 40.6761 75.5347 39.8292 75.9517C38.2426 76.7327 37.1293 78.2868 36.926 80.0043C36.7994 81.0723 36.9704 81.7579 37.5191 82.3828C38.2961 83.2677 38.6068 83.3333 42.0233 83.3333C44.89 83.3333 45.0984 83.3144 45.4067 83.0271C45.839 82.6245 45.8515 81.7781 45.4306 81.4172C45.1707 81.1944 44.6909 81.145 42.1646 81.0809L39.2034 81.0058L39.2119 80.3062C39.2241 79.3118 39.8166 78.4631 40.8272 77.9926L41.606 77.6301L50.0982 77.6286L58.5904 77.6271L59.3543 78.0078C60.3434 78.5006 60.9565 79.3827 60.9684 80.33L60.9769 81.0058L55.2379 81.0809C50.0682 81.1484 49.4686 81.1819 49.1938 81.4172C48.7728 81.7781 48.7851 82.6242 49.2175 83.0271C49.5365 83.3243 49.7165 83.3333 55.379 83.3333C61.8283 83.3333 61.8264 83.3336 62.6611 82.3828C64.1899 80.6416 62.8359 77.0757 60.1851 75.8621C59.5032 75.5499 59.0352 75.4592 57.828 75.4055L56.3219 75.3383L55.8902 73.9675C55.6528 73.2135 55.4283 72.5144 55.3913 72.4138C55.3388 72.2711 58.6117 72.2217 70.3136 72.1885L85.3033 72.1462L86.1598 71.7256C87.0726 71.2773 87.5929 70.7573 88.126 69.761L88.4567 69.1429L88.4989 52.1746C88.522 42.842 88.5028 35.0499 88.4561 34.8589C88.2717 34.1052 86.8041 33.9806 86.4263 34.6865C86.3334 34.8602 86.2793 40.2643 86.2793 49.3866V63.8122H58.2324C26.9483 63.8122 29.5179 63.7194 29.5179 64.8486C29.5179 65.2362 29.6186 65.5085 29.834 65.7035C30.1421 65.9823 30.8563 65.9904 58.2147 66.0283L86.2793 66.067V67.2069C86.2793 68.5561 85.9994 69.2659 85.3205 69.6376C84.8834 69.8769 82.5725 69.8937 50.0901 69.8937C17.6077 69.8937 15.2969 69.8769 14.8598 69.6376C14.1807 69.2658 13.901 68.5561 13.901 67.2057V66.0646H19.6738H25.4467L25.8556 65.7129C26.3858 65.2569 26.4173 64.4898 25.9224 64.0891C25.6031 63.8306 25.1921 63.8122 19.7406 63.8122H13.901V42.1062C13.901 18.133 13.831 19.8272 14.8468 19.2079C15.3198 18.9193 15.8765 18.9146 50.0901 18.9146C84.3038 18.9146 84.8604 18.9193 85.3334 19.2079C86.2625 19.7743 86.2793 19.8827 86.2793 25.3348C86.2793 30.0932 86.2903 30.281 86.5855 30.5979C86.9971 31.0396 87.814 31.0396 88.2256 30.5979C88.5212 30.2806 88.5317 30.0941 88.5317 25.1937C88.5317 20.5033 88.5092 20.0589 88.2352 19.3376C87.8433 18.3063 86.8798 17.3394 85.8656 16.9599C85.0762 16.6647 84.6518 16.6613 50.0469 16.6682C15.8351 16.6749 15.0101 16.6818 14.2861 16.9645ZM53.4853 73.8355L53.9648 75.3747H50.0906H46.2162L46.6402 74.0111C46.8734 73.2611 47.1015 72.5501 47.1471 72.4312C47.2162 72.2512 47.7153 72.2216 50.1181 72.2555L53.0058 72.2963L53.4853 73.8355Z" fill="white" fill-opacity="0.6"/>
<path fill-rule="evenodd" clip-rule="evenodd" d="M28.124 31.9959C28.5709 31.2696 29.6722 30.4224 30.4741 30.1879C30.7505 30.1073 38.9426 30.0608 50.3158 30.0756L69.6868 30.1007L70.4556 30.5063C71.334 30.9697 71.924 31.6064 72.3759 32.5784C72.6784 33.229 72.6918 33.5184 72.7378 40.3888L72.7855 47.5233L76.1164 48.7778C79.8667 50.19 80.2732 50.4483 80.2732 51.4185C80.2732 52.2234 79.9998 52.5836 78.8263 53.3248L77.8545 53.9385L78.9791 55.094C80.1253 56.2719 80.3851 56.7619 80.1915 57.3819C80.0255 57.914 77.4454 60.4769 76.8922 60.6595C76.2086 60.8852 75.8532 60.6969 74.6462 59.4704C74.0703 58.8852 73.5525 58.4063 73.4958 58.4063C73.4392 58.4063 73.1187 58.84 72.784 59.3701C72.0553 60.5241 71.6857 60.8089 70.9182 60.8089C69.9557 60.8089 69.6806 60.3753 68.2757 56.6419L67.0182 53.3008H62.8623C58.8875 53.3008 58.6922 53.2874 58.3779 52.9946C57.9456 52.5919 57.9331 51.7456 58.3541 51.3847C58.6205 51.1565 59.1308 51.114 62.3937 51.0484L66.1284 50.9733L65.5495 49.4717C65.2311 48.6458 64.9678 47.7335 64.9641 47.4445C64.9514 46.3903 65.871 45.4924 66.9636 45.4924C67.2496 45.4924 68.1034 45.7289 68.8609 46.0179C69.6183 46.307 70.2661 46.5435 70.3003 46.5435C70.3346 46.5435 70.3625 43.6345 70.3625 40.079V39.9237C70.3625 34.2427 70.3625 33.2071 69.8521 32.7763C69.7383 32.6802 69.5991 32.6142 69.429 32.5336L69.4079 32.5236C68.9376 32.3004 67.1798 32.2781 50.0905 32.2781C49.0018 32.2781 47.9735 32.2779 47.0021 32.2778C31.8753 32.2756 30.5762 32.2754 30.1984 32.8653C30.1629 32.9207 30.1356 32.9813 30.1056 33.0477C30.0852 33.093 30.0635 33.141 30.0372 33.1918C29.7112 33.8222 29.7112 49.5042 30.0372 50.1346C30.0514 50.1619 30.0647 50.1884 30.0777 50.2141C30.1283 50.3143 30.1729 50.4026 30.2315 50.4802C30.661 51.0491 31.8443 51.0491 41.699 51.0484C42.0435 51.0484 42.3985 51.0484 42.7646 51.0484C54.1039 51.0484 54.2424 51.052 54.567 51.3546C55.0106 51.7678 55.0088 52.5832 54.5634 52.9981C54.2328 53.3062 54.1706 53.3076 42.3627 53.2667L30.4943 53.2257L29.8763 52.8951C28.8799 52.362 28.3599 51.8417 27.9117 50.9288L27.4911 50.0723L27.4438 42.466C27.3915 34.0826 27.4567 33.0805 28.124 31.9959ZM72.379 49.772C74.9862 50.763 77.1194 51.6218 77.1197 51.6802C77.1198 51.7386 76.8287 51.9573 76.4726 52.1658C75.6832 52.6285 75.205 53.1255 75.164 53.526C75.0833 54.315 75.2168 54.5602 76.3969 55.7893L77.6259 57.0694L77.0769 57.6185L76.5279 58.1675L75.2758 56.9455C74.5872 56.2734 73.847 55.679 73.6308 55.6248C73.0293 55.4738 72.4556 55.8402 71.7997 56.7946C71.4733 57.2694 71.1566 57.6068 71.0959 57.5442C71.0045 57.4496 69.6483 53.9451 67.7497 48.8968C67.5375 48.3328 67.4258 47.8936 67.5013 47.9207C67.5768 47.9478 69.7718 48.7809 72.379 49.772Z" fill="white" fill-opacity="0.6"/>
<path fill-rule="evenodd" clip-rule="evenodd" d="M58.4239 39.4073C56.7688 36.8581 56.6101 36.4193 57.1475 35.8819C57.5618 35.4676 58.3586 35.4862 58.7585 35.9195C58.93 36.1054 59.5417 36.9846 60.1179 37.8732L61.1656 39.4893L62.3858 37.6262C63.057 36.6016 63.7127 35.7224 63.8428 35.6724C64.6632 35.3577 65.408 35.8023 65.403 36.6037C65.4002 37.0521 65.0985 37.617 63.8263 39.5559L62.2531 41.9534V44.5488C62.2531 46.9439 62.2299 47.1672 61.9527 47.4444C61.5056 47.8916 60.7019 47.8449 60.3119 47.3491C60.0247 46.984 60.0006 46.7559 60.0006 44.3946V41.8357L58.4239 39.4073ZM45.6458 35.8978C45.379 36.1929 45.3598 36.494 45.3598 40.3652C45.3598 44.4107 45.3686 44.5343 45.7103 45.2279C46.0954 46.0101 47.0844 46.9618 47.9538 47.3869C48.3097 47.5611 48.9605 47.6814 49.7432 47.7177C50.8259 47.768 51.0778 47.7272 51.8455 47.3766C52.8499 46.918 53.7276 46.1298 54.1946 45.2671C54.5018 44.6995 54.5223 44.4394 54.5658 40.5305C54.6105 36.5028 54.6033 36.3839 54.2921 35.9881C53.9288 35.5262 53.1986 35.437 52.7089 35.7945C52.4359 35.9938 52.4126 36.2698 52.3423 40.1374L52.2673 44.2674L51.8919 44.669C51.3283 45.2716 50.7928 45.4923 49.8944 45.4923C48.921 45.4923 48.1956 45.0752 47.8002 44.288C47.5711 43.8321 47.5376 43.2855 47.5374 40.0073C47.5371 35.7169 47.5055 35.5816 46.5007 35.5816C46.113 35.5816 45.8409 35.6822 45.6458 35.8978ZM34.9933 35.8878C34.7115 36.1992 34.6982 36.4572 34.6982 41.6632C34.6982 46.8112 34.714 47.13 34.9843 47.4287C35.2516 47.724 35.4225 47.7447 37.5947 47.7447C38.9807 47.7447 40.1687 47.671 40.5372 47.5622C41.362 47.3184 42.6059 46.0745 42.8497 45.2496C43.2799 43.7935 42.9492 42.2638 42.0148 41.3863L41.5599 40.9594L41.8617 40.277C42.5235 38.7809 41.9867 36.988 40.6025 36.071C39.9969 35.6697 39.9033 35.6552 37.6327 35.6092C35.3867 35.5639 35.2759 35.5756 34.9933 35.8878ZM39.5525 39.739C39.968 39.2966 39.9804 38.5362 39.5786 38.1344C39.3283 37.8841 39.0781 37.8341 38.077 37.8341H36.8757V38.9603V40.0865H38.0508C39.085 40.0865 39.265 40.0448 39.5525 39.739ZM40.341 45.0534C40.9503 44.4441 40.9533 43.589 40.3486 42.9123C39.931 42.4448 39.8731 42.4277 38.5091 42.3693C37.7346 42.3361 37.0501 42.3607 36.9883 42.4241C36.9264 42.4873 36.8757 43.2036 36.8757 44.0158V45.4923H38.3888C39.861 45.4923 39.9139 45.4805 40.341 45.0534Z" fill="#FF150F"/>
<path d="M69.6114 25.7879C69.6114 25.0152 70.2285 22.9193 70.5655 22.548C71.0017 22.067 71.7976 22.1424 72.2152 22.704L72.5214 23.1159L72.1694 24.506C71.7673 26.0945 71.5274 26.6462 71.1813 26.779C70.3999 27.0788 69.6114 26.5811 69.6114 25.7879Z" fill="#FF150F"/>
<path d="M73.9328 28.8577C73.3117 28.2367 73.4919 27.7295 74.801 26.4127C75.8243 25.3832 76.057 25.2204 76.5035 25.2204C77.1976 25.2204 77.57 25.5837 77.57 26.2608C77.57 26.7401 77.4293 26.9441 76.3777 27.9894C75.0609 29.2985 74.5537 29.4787 73.9328 28.8577Z" fill="#FF150F"/>
<path d="M77.1491 30.9256C77.5045 30.8338 78.0993 30.6683 78.471 30.558C79.4353 30.2714 79.7301 30.2853 80.1776 30.6372C80.6907 31.0409 80.718 31.7941 80.2354 32.2317C79.8696 32.5632 77.7682 33.179 77.0025 33.179C76.0763 33.179 75.568 32.0276 76.2106 31.3851C76.3714 31.2242 76.7938 31.0175 77.1491 30.9256Z" fill="#FF150F"/>
<path d="M19.9136 51.1158C20.0902 50.9548 20.7522 50.6763 21.385 50.4967C22.9155 50.0624 23.5658 50.0572 23.9561 50.4761C24.2636 50.8062 24.3425 51.2654 24.169 51.7174C24.0363 52.0635 23.4846 52.3033 21.896 52.7054L20.506 53.0574L20.0941 52.7512C19.546 52.3437 19.4565 51.5327 19.9136 51.1158Z" fill="#FF150F"/>
<path d="M23.7743 55.3792C24.4144 54.7506 25.0394 54.2007 25.1633 54.1574C25.7834 53.9399 26.5647 54.5512 26.5647 55.2537C26.5647 55.6372 26.3511 55.9365 25.3795 56.9137C24.3561 57.9432 24.1235 58.106 23.677 58.106C22.9829 58.106 22.6105 57.7428 22.6105 57.0657C22.6105 56.5864 22.7478 56.3876 23.7743 55.3792Z" fill="#FF150F"/>
<path d="M28.0111 58.8205C28.3951 57.3042 28.6569 56.6733 28.9517 56.5547C29.7348 56.2397 30.5691 56.7472 30.5691 57.5386C30.5691 58.3113 29.952 60.4071 29.615 60.7785C29.1788 61.2594 28.3829 61.1841 27.9653 60.6224L27.6591 60.2106L28.0111 58.8205Z" fill="#FF150F"/>
</svg>
