<svg width="100" height="100" viewBox="0 0 100 100" fill="none" xmlns="http://www.w3.org/2000/svg">
<path fill-rule="evenodd" clip-rule="evenodd" d="M33.1024 12.5945C27.423 13.3031 22.6101 17.2356 20.7915 22.6535C19.259 27.2185 20.1343 32.6002 23.0269 36.3973C24.1662 37.8929 47.8569 61.7811 48.5852 62.1686C49.3904 62.5971 50.5909 62.6123 51.4326 62.2048C51.8557 62.0001 55.7292 58.1735 64.2351 49.5575C70.9428 42.7629 76.7315 36.8079 77.0988 36.324C77.9544 35.1968 79.1228 32.8178 79.5017 31.4312C80.4886 27.8192 80.1359 24.1284 78.4836 20.7741C74.4253 12.5364 64.0944 9.97172 56.6375 15.3508C56.1132 15.729 54.412 17.3351 52.8568 18.9198L50.0292 21.8012L47.2113 18.9205C45.6615 17.3361 43.9644 15.73 43.4402 15.3514C40.4855 13.2177 36.5401 12.1654 33.1024 12.5945ZM37.7214 15.3659C38.9027 15.6691 40.5135 16.3969 41.6354 17.1342C42.1039 17.442 43.9058 19.1265 45.6398 20.8776C50.2123 25.4951 49.8773 25.4864 54.218 21.1008C57.5912 17.6927 58.0691 17.2805 59.5702 16.4841C62.1322 15.1251 64.6117 14.7236 67.4201 15.2134C72.2909 16.0627 76.2574 19.9359 77.3258 24.8864C77.6253 26.2743 77.5536 29.0636 77.1824 30.4585C76.8211 31.8168 75.9637 33.6602 75.2072 34.7059C74.9174 35.1063 69.2191 40.9625 62.5443 47.7198C52.8603 57.5233 50.3336 60.0057 50.0397 60.0057C49.7456 60.0057 47.2333 57.5365 37.6007 47.7808C30.9621 41.0571 25.2616 35.2009 24.9331 34.7669C24.1373 33.7156 23.2786 31.8995 22.8959 30.4585C22.4567 28.8049 22.4567 25.9507 22.8958 24.3078C24.1234 19.7139 27.7034 16.2689 32.2959 15.2621C33.787 14.9351 36.2247 14.9818 37.7214 15.3659ZM27.5133 52.7644C26.676 53.0613 25.7868 53.8646 25.381 54.6906C25.0727 55.3179 25.0339 55.6281 24.9871 57.8285L24.935 60.2703L24.474 60.138C24.2203 60.0653 23.315 60.0057 22.4622 60.0057C20.3832 60.0057 19.5686 60.255 18.6517 61.1718C17.75 62.0736 17.4856 62.9123 17.4856 64.8714V66.3111H15.969C14.0935 66.3111 13.3725 66.6136 12.8377 67.6249C12.5386 68.1905 12.5 68.4678 12.5 70.0503C12.5 71.6328 12.5386 71.9101 12.8377 72.4757C13.3725 73.487 14.0935 73.7895 15.969 73.7895H17.4856V75.2292C17.4856 77.1882 17.75 78.027 18.6517 78.9288C19.5686 79.8456 20.3832 80.0949 22.4622 80.0949C23.315 80.0949 24.2203 80.0353 24.474 79.9626L24.935 79.8303L24.9934 82.2721C25.0575 84.956 25.1563 85.3543 25.9949 86.3096C26.9252 87.3691 27.3683 87.5 30.023 87.5C32.3144 87.5 32.3852 87.4906 33.0503 87.0997C33.4248 86.8794 33.9133 86.4835 34.1356 86.2199C35.0044 85.1895 35.0042 85.1908 35.0547 79.2517L35.1012 73.7895H50.0388H64.9765L65.023 79.2517C65.0734 85.1908 65.0733 85.1895 65.9421 86.2199C66.1644 86.4835 66.6529 86.8794 67.0274 87.0997C67.6925 87.4906 67.7633 87.5 70.0547 87.5C72.7094 87.5 73.1525 87.3691 74.0828 86.3096C74.9214 85.3543 75.0202 84.956 75.0843 82.2721L75.1427 79.8303L75.6037 79.9626C75.8574 80.0353 76.7627 80.0949 77.6155 80.0949C79.6945 80.0949 80.5091 79.8456 81.426 78.9288C82.3277 78.027 82.5921 77.1882 82.5921 75.2292V73.7895H84.1087C85.9842 73.7895 86.7052 73.487 87.24 72.4757C87.5391 71.9101 87.5777 71.6328 87.5777 70.0503C87.5777 68.4678 87.5391 68.1905 87.24 67.6249C86.7052 66.6136 85.9842 66.3111 84.1087 66.3111H82.5921V64.8714C82.5921 62.9123 82.3277 62.0736 81.426 61.1718C80.5091 60.255 79.6945 60.0057 77.6155 60.0057C76.7627 60.0057 75.8574 60.0653 75.6037 60.138L75.1427 60.2703L75.0906 57.8285C75.0438 55.6281 75.005 55.3179 74.6967 54.6906C74.2775 53.8375 73.3956 53.0588 72.5042 52.7552C71.5832 52.4414 68.5261 52.4414 67.6051 52.7552C66.7146 53.0585 65.8436 53.8272 65.417 54.6862C65.0724 55.3798 65.0686 55.4401 65.0227 60.8489L64.9765 66.3111H50.0388H35.1012L35.055 60.8489C35.0091 55.4401 35.0053 55.3798 34.6607 54.6862C34.2341 53.8272 33.3631 53.0585 32.4726 52.7552C31.584 52.4524 28.3764 52.4584 27.5133 52.7644ZM31.7802 55.1659C32.3317 55.3754 32.5891 56.121 32.5891 57.5082C32.5891 58.1561 32.5542 58.686 32.5116 58.686C32.4691 58.686 32.0566 58.4963 31.5951 58.2644C30.5927 57.7607 29.5157 57.5129 28.3295 57.5129H27.4569V56.9217C27.4569 56.1363 27.8043 55.3406 28.2203 55.1738C28.6766 54.9906 31.304 54.9848 31.7802 55.1659ZM71.8118 55.1659C72.3633 55.3754 72.6208 56.121 72.6208 57.5082C72.6208 58.1561 72.5859 58.686 72.5432 58.686C72.5007 58.686 72.0882 58.4963 71.6268 58.2644C70.6244 57.7607 69.5473 57.5129 68.3612 57.5129H67.4885V56.9217C67.4885 56.1363 67.8359 55.3406 68.2519 55.1738C68.7083 54.9906 71.3357 54.9848 71.8118 55.1659ZM30.5493 60.5402C31.3608 60.9819 31.8395 61.5133 32.2547 62.4331C32.4956 62.9669 32.5192 63.8008 32.5601 73.203C32.5843 78.8081 32.5635 83.6161 32.5136 83.8872C32.4638 84.1583 32.2655 84.5377 32.0728 84.7303C31.7444 85.0588 31.6184 85.0805 30.0378 85.0805C28.4684 85.0805 28.325 85.0563 27.9417 84.7267L27.5302 84.3728L27.4902 72.3771C27.4682 65.7795 27.4862 60.2874 27.5302 60.1726C27.6711 59.8057 29.6403 60.0455 30.5493 60.5402ZM70.5809 60.5402C71.3442 60.9556 71.7737 61.4153 72.2736 62.3519C72.5322 62.8365 72.55 63.4357 72.5916 73.1297C72.616 78.7751 72.5951 83.6161 72.5453 83.8872C72.4954 84.1583 72.2972 84.5377 72.1045 84.7303C71.7774 85.0575 71.6471 85.0805 70.1251 85.0805C69.229 85.0805 68.3625 85.0092 68.1997 84.9221C67.4865 84.5404 67.4885 84.5777 67.4885 71.9858C67.4885 65.5043 67.538 60.1499 67.5985 60.0871C67.6591 60.0243 68.1848 60.0082 68.7671 60.051C69.545 60.1084 70.0256 60.238 70.5809 60.5402ZM24.586 62.9273C24.9453 63.2652 24.9641 63.3587 24.9641 64.8069V66.331L24.5211 66.0156C23.8128 65.5113 22.5839 65.1484 21.2326 65.0444L19.9784 64.9481L19.9806 64.2731C19.9853 62.787 20.4644 62.4735 22.6431 62.5307C24.0678 62.5682 24.2419 62.6037 24.586 62.9273ZM79.6923 62.9055C79.9887 63.202 80.0315 63.4097 80.0758 64.7685L80.1255 66.2976L79.1227 65.7866C78.1219 65.2767 76.9164 64.9938 75.7368 64.9922L75.1136 64.9914V64.1371C75.1136 63.4379 75.1735 63.2283 75.4436 62.9827C75.9374 62.5333 76.0801 62.5065 77.7861 62.5405C79.2039 62.5688 79.3914 62.6047 79.6923 62.9055ZM22.8729 67.9453C23.6521 68.3172 24.5655 69.3406 24.7916 70.0953C24.9001 70.4574 24.9641 71.8157 24.9641 73.7568V76.8428L24.4986 77.2344C24.0451 77.616 23.991 77.6248 22.3761 77.5774C19.883 77.5043 20.0616 77.8975 20.0089 72.3679C19.9853 69.8965 20.0029 67.7783 20.0481 67.6607C20.1635 67.36 22.0432 67.5494 22.8729 67.9453ZM78.0463 68.0379C78.9408 68.4882 79.685 69.4231 79.9591 70.4409C80.0541 70.7936 80.0984 72.1783 80.0711 73.9428C80.0144 77.6125 80.0795 77.504 77.8883 77.5793C76.1886 77.638 75.8197 77.5714 75.411 77.1327C75.1251 76.8259 75.1136 76.6322 75.1136 72.1278V67.4421L76.1767 67.537C76.9007 67.6015 77.4972 67.7613 78.0463 68.0379ZM17.4856 70.0503V71.2967H16.2392H14.9928V70.0503V68.8039H16.2392H17.4856V70.0503ZM64.9957 70.0503V71.2967H50.0388H35.082V70.0503V68.8039H50.0388H64.9957V70.0503ZM85.0849 70.0503V71.2967H83.8385H82.5921V70.0503V68.8039H83.8385H85.0849V70.0503Z" fill="white" fill-opacity="0.6"/>
<path d="M43.7851 34.1611C44.713 31.8457 44.8203 31.6621 45.4337 31.3423C46.4596 30.8074 47.5196 31.2687 48.0444 32.4786C48.2271 32.8999 48.6993 34.1174 49.0937 35.1842C49.4882 36.2509 49.8518 37.0758 49.902 37.0171C49.9521 36.9585 50.2133 36.1262 50.4824 35.1673C50.7817 34.1008 51.1072 33.2629 51.3211 33.0088C51.9916 32.212 53.196 32.183 53.9908 32.9444C54.2006 33.1455 54.6979 33.9716 55.0958 34.7803L55.8192 36.2506H59.3923H62.9654L63.394 36.6793C63.8524 37.1376 63.92 37.4894 63.6598 38.0606C63.3551 38.7294 63.1268 38.7596 58.7393 38.7135C53.9704 38.6634 54.3113 38.7696 53.4529 37.0665C53.0894 36.3451 52.907 36.1108 52.8256 36.26C52.7626 36.3759 52.4979 37.2294 52.2375 38.1569C51.9772 39.0844 51.6717 40.0236 51.5588 40.244C51.1587 41.0254 49.9049 41.3313 49.0065 40.8666C48.4758 40.5922 48.2585 40.161 47.1791 37.2404C46.7097 35.9703 46.2867 34.9309 46.239 34.9309C46.1914 34.9309 45.8941 35.5936 45.5786 36.4033C45.1621 37.4721 44.8693 37.9947 44.5106 38.3096L44.0165 38.7435L40.539 38.7388C36.8936 38.7339 36.776 38.7144 36.4255 38.0566C36.1506 37.5402 36.2261 37.1368 36.6836 36.6793L37.1122 36.2506H40.03H42.9476L43.7851 34.1611Z" fill="#FF150F"/>
</svg>
