<svg width="100" height="100" viewBox="0 0 100 100" fill="none" xmlns="http://www.w3.org/2000/svg">
<path fill-rule="evenodd" clip-rule="evenodd" d="M33.1015 12.7164C32.3385 13.1394 32.3641 12.6549 32.3585 26.7319L32.3534 39.8534L31.5116 40.0408C28.2753 40.7614 25.4896 43.1631 24.2825 46.273C22.9091 49.8114 23.5475 53.5035 26.0832 56.686C27.4381 58.3865 27.9654 59.7769 27.9591 61.6325C27.9497 64.3709 26.2701 67.5722 24.2897 68.6262C23.6832 68.9492 23.4422 68.9754 20.4222 69.0483C18.6509 69.0911 17.0839 69.1819 16.94 69.25C16.2906 69.5574 16.25 69.915 16.25 75.329C16.25 78.9917 16.2999 80.5652 16.4249 80.8395C16.717 81.4809 17.2363 81.641 19.0242 81.641H20.6418V83.9774C20.6418 85.477 20.7045 86.4514 20.8168 86.6979C21.2059 87.5524 19.1337 87.4994 52.1167 87.4994C85.0997 87.4994 83.0275 87.5524 83.4166 86.6979C83.5507 86.4035 83.5915 77.8437 83.5915 50.0056C83.5915 22.1676 83.5507 13.6078 83.4166 13.3134C83.0468 12.5011 83.1774 12.512 73.7099 12.512C64.2424 12.512 64.373 12.5011 64.0032 13.3134C63.782 13.799 63.782 14.1541 64.0032 14.6397C64.3702 15.4458 64.3193 15.4412 72.8242 15.4412H80.6637V50.0056V84.5702H63.8283H46.9929V83.1056V81.641H48.6105C50.3985 81.641 50.9177 81.4809 51.2098 80.8395C51.3348 80.5652 51.3847 78.9917 51.3847 75.329C51.3847 69.915 51.3443 69.5585 50.6948 69.2493C50.5508 69.1809 48.8521 69.0905 46.9197 69.0485C43.4127 68.9723 43.4049 68.9715 42.7217 68.5696C40.5335 67.2828 39.1994 63.3828 39.8226 60.0954C40.0387 58.9557 40.6866 57.6766 41.5584 56.6696C41.9767 56.1863 42.6111 55.1976 42.9683 54.4727C44.4291 51.507 44.4201 48.508 42.9414 45.4654C42.3768 44.3037 42.0572 43.8658 41.0058 42.812C39.9416 41.7456 39.5307 41.4465 38.3556 40.883C37.5907 40.5162 36.586 40.1344 36.1231 40.0347L35.2813 39.8534V27.6473V15.4412H43.8385C50.1612 15.4412 52.496 15.3955 52.7796 15.2661C53.1991 15.0749 53.5806 14.4607 53.5806 13.9766C53.5806 13.4924 53.1991 12.8783 52.7796 12.687C52.1931 12.4197 33.5865 12.4474 33.1015 12.7164ZM57.9886 12.7164C56.7195 13.4202 57.2505 15.4412 58.7045 15.4412C59.4462 15.4412 60.1684 14.7257 60.1684 13.9908C60.1684 12.8911 58.9538 12.1811 57.9886 12.7164ZM35.3107 42.8445C38.0542 43.4169 40.4032 45.767 40.9753 48.5116C41.4353 50.7188 40.8005 53.0838 39.282 54.8207C38.9233 55.2307 38.4013 55.9462 38.1217 56.4108C36.202 59.6001 36.3342 64.6761 38.4286 68.2033L38.9287 69.0454H33.5918H28.2548L28.7498 68.3497C30.0692 66.4951 30.8895 63.8859 30.8895 61.5429C30.8895 59.2108 29.9872 56.7454 28.4896 54.9853C27.1511 53.4122 26.489 51.7273 26.5061 49.9383C26.5496 45.372 30.8434 41.9124 35.3107 42.8445ZM48.4568 75.3432V78.7118H33.8174H19.1779V75.3432V71.9746H33.8174H48.4568V75.3432ZM44.065 83.1056V84.5702H33.8174H23.5697V83.1056V81.641H33.8174H44.065V83.1056Z" fill="white" fill-opacity="0.6"/>
<path fill-rule="evenodd" clip-rule="evenodd" d="M62.4372 58.4363C61.8533 58.551 60.8139 58.9325 60.0217 59.3228C58.8689 59.8908 58.4154 60.2237 57.3715 61.2679C56.3262 62.3137 55.996 62.7645 55.4285 63.9193C53.9457 66.9374 53.9457 69.9817 55.4285 72.9998C55.996 74.1546 56.3262 74.6054 57.3715 75.6512C58.4244 76.7044 58.859 77.022 60.0217 77.5877C64.2321 79.6358 68.7802 78.815 71.9978 75.4261C73.7298 73.6019 74.8075 70.9297 74.8075 68.4596C74.8075 65.9894 73.7298 63.3172 71.9978 61.493C69.4509 58.8108 66.0559 57.7252 62.4372 58.4363ZM66.0535 61.2982C68.797 61.8706 71.146 64.2207 71.7181 66.9653C72.2225 69.3851 71.4849 71.8032 69.6947 73.5985C66.7897 76.5116 62.3418 76.5109 59.4233 73.5966C56.5096 70.6872 56.5096 66.2307 59.4233 63.3226C61.2294 61.5201 63.6193 60.7905 66.0535 61.2982Z" fill="#FF150F"/>
<path d="M41.9385 24.9326C40.9365 24.4759 40.9043 22.9268 41.8855 22.3829C42.3681 22.1151 55.8572 22.0879 56.4397 22.3534C56.8593 22.5447 57.2408 23.1588 57.2408 23.643C57.2408 24.1272 56.8593 24.7413 56.4397 24.9326C55.8927 25.182 42.4855 25.182 41.9385 24.9326Z" fill="white" fill-opacity="0.6"/>
<path d="M41.9385 33.7202C40.9365 33.2635 40.9043 31.7144 41.8855 31.1704C42.426 30.8706 73.4752 30.8747 74.055 31.1747C75.0292 31.6788 75.0292 33.1824 74.055 33.6865C73.7131 33.8633 71.2582 33.8952 57.987 33.8952C46.1539 33.8952 42.2285 33.8524 41.9385 33.7202Z" fill="white" fill-opacity="0.6"/>
<path d="M50.7221 42.5077C49.7202 42.0511 49.688 40.502 50.6691 39.958C51.155 39.6885 73.4189 39.6604 74.0071 39.9286C74.4267 40.1199 74.8082 40.734 74.8082 41.2182C74.8082 41.7024 74.4267 42.3165 74.0071 42.5077C73.455 42.7595 51.2742 42.7595 50.7221 42.5077Z" fill="white" fill-opacity="0.6"/>
<path d="M50.7221 51.2953C49.7202 50.8387 49.688 49.2896 50.6691 48.7456C51.155 48.4761 73.4189 48.448 74.0071 48.7162C74.4267 48.9074 74.8082 49.5216 74.8082 50.0057C74.8082 50.4899 74.4267 51.104 74.0071 51.2953C73.455 51.5471 51.2742 51.5471 50.7221 51.2953Z" fill="white" fill-opacity="0.6"/>
</svg>
