<svg width="100" height="100" viewBox="0 0 100 100" fill="none" xmlns="http://www.w3.org/2000/svg">
<path fill-rule="evenodd" clip-rule="evenodd" d="M18.7338 8.59426C17.8104 8.92138 16.6729 9.95857 16.2129 10.8927L15.833 11.664V34.3672V57.0704L16.2889 57.9987C16.7968 59.0329 17.4268 59.6402 18.5183 60.1476C19.2266 60.4768 19.5257 60.4897 27.6092 60.5382L35.9677 60.5885L36.7375 61.1179C37.1608 61.4092 37.7308 61.7401 38.004 61.8532C38.3832 62.0102 38.6649 62.3743 39.1932 63.3892C40.116 65.1628 41.4315 67.1244 42.6762 68.5831L43.695 69.7772L43.0822 70.6768C42.6041 71.3789 42.1897 71.7392 41.1945 72.318C34.9174 75.9692 31.7095 81.1257 31.4238 88.0237C31.3185 90.5694 31.4382 91.1567 32.1264 91.4702C32.7009 91.7321 67.4816 91.7321 68.056 91.4702C68.7274 91.1644 68.8634 90.5596 68.7393 88.4348C68.5988 86.0307 68.2492 83.784 67.8142 82.4882C66.6677 79.0725 63.9615 75.5988 60.5884 73.2124C59.8723 72.7058 58.628 71.6768 57.8233 70.9258L56.3601 69.5604L57.0524 68.8095C57.9444 67.8416 59.45 65.5458 60.3606 63.7643C60.9772 62.5582 61.1619 62.3294 61.6909 62.1173C62.0287 61.9818 62.6182 61.5822 63.001 61.2295L63.6969 60.588L72.3143 60.538C80.0791 60.493 80.9936 60.4601 81.5564 60.2055C82.6211 59.7241 83.4138 58.9757 83.8933 57.9993L84.3494 57.0704V34.3672V11.664L83.9696 10.8927C83.7608 10.4686 83.2623 9.83326 82.8621 9.48091C81.4423 8.23134 84.1761 8.32622 50.0216 8.34054C23.4388 8.35177 19.3241 8.38497 18.7338 8.59426ZM81.1261 11.4871L81.5828 11.88L81.6256 30.2858L81.6682 48.6917L72.8537 48.6497L64.039 48.6075L63.7337 47.3056C63.3395 45.6246 62.0578 43.025 60.9844 41.7287C59.4147 39.8335 57.0107 38.3234 54.4478 37.6226C52.2012 37.0084 47.7692 36.9163 45.5343 37.4376C43.2635 37.9671 41.161 39.0203 39.436 40.4922C37.8274 41.8648 37.4915 42.5081 37.4691 44.2586C37.4528 45.5329 37.4246 45.6343 36.948 46.1302C36.6345 46.4562 36.3318 47.0393 36.1474 47.6716L35.8509 48.6884L27.1825 48.6888L18.5143 48.6889L18.5569 30.2844L18.5997 11.88L19.0564 11.4871L19.513 11.0944H50.0912H80.6694L81.1261 11.4871ZM53.7228 40.2124C55.5551 40.6896 56.8207 41.4234 58.2374 42.83C59.6025 44.1854 60.3954 45.5329 61.0146 47.5497C61.4279 48.895 61.5192 51.0611 61.2658 53.5012C61.1323 54.7861 61.139 54.8258 61.5756 55.3446C62.7277 56.7138 61.7459 59.7557 60.1519 59.7557C59.4764 59.7557 59.1107 60.1849 58.182 62.068C57.0187 64.4265 55.8102 66.2504 54.5733 67.5137C53.3265 68.7872 52.4032 69.1106 50.0099 69.1124C47.5771 69.1143 46.5707 68.7221 45.0905 67.1954C43.7786 65.8423 42.4353 63.8522 41.2393 61.4898L40.4024 59.8371L39.4806 59.51C38.393 59.1239 37.8011 58.6152 37.5483 57.8496C37.2907 57.0689 37.4686 56.375 38.144 55.5254C38.6368 54.9055 38.7112 54.7073 38.6321 54.2234C38.5808 53.9095 38.4919 52.802 38.4346 51.7622C38.2896 49.129 38.4729 48.4425 39.611 47.3563C40.5881 46.4238 40.7002 45.9787 40.2371 44.8702C39.8901 44.0401 40.1311 43.3878 41.0767 42.5973C42.6543 41.2786 44.4571 40.4071 46.5108 39.9701C48.0505 39.6425 52.0507 39.7769 53.7228 40.2124ZM35.7215 52.6355C35.866 53.8407 35.8514 54.0229 35.5784 54.415C35.1101 55.088 34.793 56.1349 34.793 57.0095V57.8027H27.209H19.625L19.0717 57.2494L18.5183 56.6961V53.9945V51.2929H27.0394H35.5605L35.7215 52.6355ZM81.6641 53.9756V56.6583L81.1894 57.1898L80.7145 57.7214L72.7673 57.7664L64.8198 57.8115L64.7982 56.7646C64.7826 56.0145 64.6551 55.4528 64.3485 54.7831C63.9755 53.9683 63.933 53.7108 64.0173 52.7742C64.0705 52.1833 64.1425 51.6083 64.177 51.4963C64.2264 51.3368 66.1244 51.2929 72.9521 51.2929H81.6641V53.9756ZM46.8252 71.3882C48.5507 71.997 51.5374 71.9928 53.3849 71.3793L54.1903 71.1117L54.822 71.7285C55.2521 72.1486 55.4043 72.4046 55.2991 72.5313C55.0186 72.8695 52.308 74.0677 51.2176 74.3355C50.2312 74.578 50.0644 74.5779 49.1019 74.3354C48.5271 74.1905 47.3751 73.7448 46.542 73.3449L45.027 72.6176L45.5327 71.8828C45.8107 71.4787 46.0621 71.148 46.0912 71.148C46.1205 71.148 46.4507 71.2561 46.8252 71.3882ZM47.5687 76.7037C49.1595 77.2386 51.1981 77.2365 52.7766 76.6983C53.8577 76.3297 56.2042 75.2089 57.0941 74.6361C57.4965 74.3771 57.5359 74.392 58.8843 75.3176C60.5373 76.4522 62.4593 78.3303 63.4246 79.7542C65.0101 82.093 65.7332 84.261 65.9688 87.382L66.0824 88.8874H50.0888H34.0953L34.1926 87.2192C34.3678 84.2224 35.3272 81.6714 37.2235 79.1602C38.4028 77.5985 39.4652 76.6384 41.431 75.3579L42.84 74.4402L44.6348 75.3804C45.6219 75.8974 46.9421 76.4929 47.5687 76.7037Z" fill="white" fill-opacity="0.6"/>
<path d="M46.2338 32.342C46.2338 31.6298 51.6313 16.7528 52.0647 16.2703C52.9093 15.3297 54.796 16.0202 54.796 17.2699C54.796 18.1223 49.3586 33.1752 48.9381 33.4867C48.0116 34.173 46.2338 33.4206 46.2338 32.342Z" fill="#FF150F"/>
<path d="M32.627 22.6061C32.9261 22.3106 34.8504 21.3722 36.9031 20.5209C38.9559 19.6695 40.9116 18.9655 41.249 18.9562C41.9999 18.9359 42.9406 19.8164 42.9406 20.5397C42.9406 21.5119 42.3294 21.9911 39.863 22.9533C38.537 23.4708 37.452 23.9602 37.452 24.0409C37.452 24.1219 38.54 24.61 39.8698 25.1257C42.3388 26.0833 42.9406 26.5519 42.9406 27.517C42.9406 28.2042 42.0009 29.117 41.2938 29.117C40.4488 29.117 33.2576 26.0755 32.627 25.4516C32.2279 25.0565 32.083 24.6779 32.083 24.0283C32.083 23.3785 32.2277 23.0006 32.627 22.6061Z" fill="#FF150F"/>
<path d="M60.7804 22.7075C58.3044 21.7479 57.6624 20.6771 58.8477 19.4828C59.1441 19.1841 59.6243 18.9396 59.9149 18.9396C60.7354 18.9396 68.012 22.0039 68.6223 22.6064C69.0217 23.0006 69.1663 23.3785 69.1663 24.0283C69.1663 24.6757 69.0203 25.0598 68.6223 25.4591C68.0118 26.0722 60.7731 29.117 59.9268 29.117C59.2335 29.117 58.3087 28.1885 58.3087 27.4922C58.3087 26.5594 59.0027 26.0419 61.6019 25.0361L64.1267 24.0591L63.3583 23.7339C62.9357 23.5551 61.7756 23.0933 60.7804 22.7075Z" fill="#FF150F"/>
</svg>
