<svg width="100" height="100" viewBox="0 0 100 100" fill="none" xmlns="http://www.w3.org/2000/svg">
<path fill-rule="evenodd" clip-rule="evenodd" d="M63.559 14.3987C52.0204 15.4319 42.3797 16.2818 42.1355 16.2873C41.8861 16.2931 41.5199 16.4688 41.3011 16.6877C40.9141 17.0745 40.9109 17.1023 40.9109 20.1119C40.9109 23.1215 40.9141 23.1493 41.3011 23.5362C41.6607 23.896 41.8093 23.9263 43.2083 23.9263H44.7253V34.0981V44.2699H45.9968H47.2682V34.0981V23.9263H63.7974H80.3265V54.4417V84.9571H76.1943C73.9215 84.9571 72.062 84.9178 72.062 84.8696C72.062 84.8216 72.1836 84.5535 72.3323 84.2736C72.5199 83.9208 72.6046 83.3755 72.6087 82.4936C72.616 80.9869 72.3593 80.3961 71.098 79.0161C70.315 78.1591 70.2722 78.066 70.1459 76.939C69.8865 74.626 69.3288 73.3382 68.0808 72.171C66.3688 70.5695 63.7502 70.587 62.0137 72.2115C60.795 73.3514 60.247 74.6052 60.0041 76.8096C59.863 78.0892 59.8414 78.1389 59.0397 79.0159C57.3199 80.8977 57.0371 82.426 57.9918 84.6789C58.1031 84.9413 57.7301 84.9571 51.4175 84.9571H44.7253V76.4469V67.9366L44.3351 67.5466L43.9451 67.1564H39.6394H35.3337L34.9437 67.5466L34.5535 67.9366V76.4469V84.9571H32.6452H30.737L30.7777 73.7202L30.8186 62.4834L38.4161 59.1555L46.0136 55.8276L53.5943 59.1495L61.175 62.4715L61.2177 66.0854L61.2605 69.6994H62.5289H63.7974V66.6796C63.7974 65.0188 63.8265 63.6599 63.8621 63.6599C63.8977 63.6599 64.4048 63.8744 64.9894 64.1367C66.2792 64.7154 66.7129 64.7322 67.2216 64.2233L67.6118 63.8333V60.1881C67.6118 56.9481 67.581 56.5064 67.3337 56.2135C66.9252 55.7295 46.3437 46.7709 45.8378 46.8567C45.0985 46.9823 24.9402 55.895 24.6599 56.2203C24.4124 56.5074 24.3817 56.9455 24.3817 60.1881V63.8333L24.7719 64.2233C25.2807 64.7322 25.7144 64.7154 27.0041 64.1367C27.5887 63.8744 28.0959 63.6599 28.1315 63.6599C28.1671 63.6599 28.1961 68.4517 28.1961 74.3085V84.9571H23.746H19.2958V74.1495V63.342H20.5673H21.8388V62.0705V60.7991H18.0244H14.2099V46.8129V32.8267H28.1961H42.1824V31.5552V30.2837H38.0164H33.8504L31.2906 27.7408L28.7306 25.1978H23.1319H17.5331L17.1431 25.588C16.7672 25.9637 16.7529 26.057 16.7529 28.1309V30.2837H14.6001C12.5262 30.2837 12.4329 30.298 12.0572 30.6739L11.667 31.0639V46.8129V62.5618L12.0572 62.9518C12.4329 63.3277 12.5262 63.342 14.6001 63.342H16.7529V74.1495V84.9571H14.2099H11.667V86.2285V87.5H49.8112H87.9554V86.2285V84.9571H85.4124H82.8695V54.4417V23.9263H84.3865C85.7855 23.9263 85.9341 23.896 86.2937 23.5362L86.6839 23.1461V18.2047V13.2633L86.2937 12.8733C85.9919 12.5713 85.7492 12.4872 85.2209 12.5015C84.8455 12.5117 75.0976 13.3655 63.559 14.3987ZM84.141 18.2842V21.3834H63.7974H43.4538V20.0325C43.4538 18.7373 43.4686 18.6815 43.8114 18.6818C44.1581 18.6821 65.1409 16.8361 77.0684 15.756C80.3027 15.4631 83.2172 15.2148 83.545 15.2042L84.141 15.185V18.2842ZM28.9113 29.0122L30.1754 30.2837H24.7357H19.2958V29.0122V27.7408H23.4715H27.6473L28.9113 29.0122ZM51.4728 28.1309L51.0827 28.521V32.8267V37.1323L51.4728 37.5224L51.8629 37.9125H56.1686H60.4742L60.8643 37.5224L61.2544 37.1323V32.8267V28.521L60.8643 28.1309L60.4742 27.7408H56.1686H51.8629L51.4728 28.1309ZM66.7305 28.1309L66.3403 28.521V32.8267V37.1323L66.7305 37.5224L67.1205 37.9125H71.4262H75.7319L76.1219 37.5224L76.5121 37.1323V32.8267V28.521L76.1219 28.1309L75.7319 27.7408H71.4262H67.1205L66.7305 28.1309ZM58.7115 32.8267V35.3696H56.1686H53.6256V32.8267V30.2837H56.1686H58.7115V32.8267ZM73.9692 32.8267V35.3696H71.4262H68.8833V32.8267V30.2837H71.4262H73.9692V32.8267ZM17.1431 35.7598L16.7529 36.1498V46.8129V57.4759L17.1431 57.8659C17.5188 58.2418 17.6121 58.2561 19.686 58.2561H21.8388V56.9846V55.7132H20.5673H19.2958V46.8129V37.9125H23.746H28.1961V44.2699V50.6273H29.4676H30.7391V44.2699V37.9125H36.4607H42.1824V36.6411V35.3696H29.8578H17.5331L17.1431 35.7598ZM51.4728 42.1171C51.097 42.4929 51.0827 42.5862 51.0827 44.6601V46.8129H52.3541H53.6256V45.5414V44.2699H56.1686H58.7115V47.4486V50.6273H59.983H61.2544V46.5673V42.5072L60.8643 42.1171L60.4742 41.727H56.1686H51.8629L51.4728 42.1171ZM66.7305 42.1171L66.3403 42.5072V46.8129V51.1185L66.7305 51.5086L67.1205 51.8987H71.4262H75.7319L76.1219 51.5086L76.5121 51.1185V46.8129V42.5072L76.1219 42.1171L75.7319 41.727H71.4262H67.1205L66.7305 42.1171ZM73.9692 46.8129V49.3558H71.4262H68.8833V46.8129V44.2699H71.4262H73.9692V46.8129ZM55.3918 53.5823C60.4957 55.8197 64.761 57.6868 64.8702 57.7316C65.0126 57.7901 65.0689 58.3205 65.0689 59.6017V61.3901L55.6805 57.2801C50.5167 55.0197 46.1683 53.1702 46.0171 53.1702C45.7957 53.1702 27.5866 61.0445 27.0707 61.3633C26.9852 61.4162 26.9247 60.7013 26.9247 59.6387V57.8238L36.3415 53.6866C41.5209 51.411 45.838 49.5414 45.9353 49.5321C46.0325 49.5225 50.288 51.3452 55.3918 53.5823ZM70.1548 56.9846V58.2561H72.062H73.9692V60.7991V63.342H72.062H70.1548V64.6135V65.885H72.9433C75.6922 65.885 75.7375 65.8794 76.1219 65.4948L76.5121 65.1047V60.7991V56.4934L76.1219 56.1033C75.7375 55.7187 75.6922 55.7132 72.9433 55.7132H70.1548V56.9846ZM38.3679 63.342V64.6135H39.6394H40.9109V63.342V62.0705H39.6394H38.3679V63.342ZM21.8388 68.4279V69.6994H23.1103H24.3817V68.4279V67.1564H23.1103H21.8388V68.4279ZM42.1824 77.3282V84.9571H39.6394H37.0965V77.3282V69.6994H39.6394H42.1824V77.3282ZM47.6584 70.0896L47.2682 70.4796V74.1495V77.8195L47.6584 78.2095L48.0484 78.5997H52.3541H56.6598L57.0498 78.2095L57.44 77.8195V74.1495V70.4796L57.0498 70.0896L56.6598 69.6994H52.3541H48.0484L47.6584 70.0896ZM54.8971 74.1495V76.0567H52.3541H49.8112V74.1495V72.2423H52.3541H54.8971V74.1495ZM66.0179 73.7498C66.9271 74.2199 67.3965 75.2581 67.6104 77.2724C67.7723 78.7979 68.1155 79.5465 69.2029 80.7474C69.635 81.2245 70.0344 81.7973 70.0904 82.0203C70.3404 83.0166 69.7482 84.105 68.673 84.6255C68.0557 84.9243 67.703 84.9571 65.0964 84.9571C62.4825 84.9571 62.1357 84.9248 61.4887 84.6206C60.6974 84.2487 60.1902 83.6487 60.0424 82.9101C59.8916 82.1557 60.086 81.6846 60.9348 80.7474C62.0509 79.5148 62.373 78.7942 62.5266 77.1871C62.5984 76.4342 62.7368 75.6124 62.8339 75.3605C63.4221 73.8366 64.819 73.1298 66.0179 73.7498Z" fill="white" fill-opacity="0.6"/>
<path fill-rule="evenodd" clip-rule="evenodd" d="M51.4728 28.1309L51.0827 28.521V32.8267V37.1323L51.4728 37.5224L51.8629 37.9125H56.1686H60.4742L60.8643 37.5224L61.2544 37.1323V32.8267V28.521L60.8643 28.1309L60.4742 27.7408H56.1686H51.8629L51.4728 28.1309ZM66.7305 28.1309L66.3403 28.521V32.8267V37.1323L66.7305 37.5224L67.1205 37.9125H71.4262H75.7319L76.1219 37.5224L76.5121 37.1323V32.8267V28.521L76.1219 28.1309L75.7319 27.7408H71.4262H67.1205L66.7305 28.1309ZM58.7115 32.8267V35.3696H56.1686H53.6256V32.8267V30.2837H56.1686H58.7115V32.8267ZM73.9692 32.8267V35.3696H71.4262H68.8833V32.8267V30.2837H71.4262H73.9692V32.8267ZM17.1431 35.7598L16.7529 36.1498V46.8129V57.4759L17.1431 57.8659C17.5188 58.2418 17.6121 58.2561 19.686 58.2561H21.8388V56.9846V55.7132H20.5673H19.2958V46.8129V37.9125H23.746H28.1961V44.2699V50.6273H29.4676H30.7391V44.2699V37.9125H36.4607H42.1824V36.6411V35.3696H29.8578H17.5331L17.1431 35.7598ZM51.4728 42.1171C51.097 42.4929 51.0827 42.5862 51.0827 44.6601V46.8129H52.3541H53.6256V45.5414V44.2699H56.1686H58.7115V47.4486V50.6273H59.983H61.2544V46.5673V42.5072L60.8643 42.1171L60.4742 41.727H56.1686H51.8629L51.4728 42.1171ZM66.7305 42.1171L66.3403 42.5072V46.8129V51.1185L66.7305 51.5086L67.1205 51.8987H71.4262H75.7319L76.1219 51.5086L76.5121 51.1185V46.8129V42.5072L76.1219 42.1171L75.7319 41.727H71.4262H67.1205L66.7305 42.1171ZM73.9692 46.8129V49.3558H71.4262H68.8833V46.8129V44.2699H71.4262H73.9692V46.8129ZM70.1548 56.9846V58.2561H72.062H73.9692V60.7991V63.342H72.062H70.1548V64.6135V65.885H72.9433C75.6922 65.885 75.7375 65.8794 76.1219 65.4948L76.5121 65.1047V60.7991V56.4934L76.1219 56.1033C75.7375 55.7187 75.6922 55.7132 72.9433 55.7132H70.1548V56.9846ZM38.3679 63.342V64.6135H39.6394H40.9109V63.342V62.0705H39.6394H38.3679V63.342ZM21.8388 68.4279V69.6994H23.1103H24.3817V68.4279V67.1564H23.1103H21.8388V68.4279ZM47.6584 70.0896L47.2682 70.4796V74.1495V77.8195L47.6584 78.2095L48.0484 78.5997H52.3541H56.6598L57.0498 78.2095L57.44 77.8195V74.1495V70.4796L57.0498 70.0896L56.6598 69.6994H52.3541H48.0484L47.6584 70.0896ZM54.8971 74.1495V76.0567H52.3541H49.8112V74.1495V72.2423H52.3541H54.8971V74.1495Z" fill="#FF150F"/>
</svg>
