<svg width="100" height="100" viewBox="0 0 100 100" fill="none" xmlns="http://www.w3.org/2000/svg">
<path fill-rule="evenodd" clip-rule="evenodd" d="M52.9587 12.6875C52.5356 12.8024 51.9164 13.0357 51.5826 13.2059C50.8062 13.602 49.6655 14.7416 49.2706 15.5157C48.8813 16.2789 48.5252 17.6357 48.5252 18.3559V18.9113L35.8846 18.9146C23.4847 18.9178 23.2315 18.9235 22.5846 19.2163C21.6989 19.6171 21.1519 20.1557 20.7355 21.0364L20.3892 21.7692V34.0067V46.2442L20.7355 46.977C21.4105 48.4048 22.5698 49.0936 24.3066 49.0988L25.3692 49.1021L25.3695 51.4103C25.3696 53.3143 25.4145 53.8085 25.6259 54.2316C25.9079 54.7961 26.5896 55.1147 27.2551 54.9931C27.5098 54.9466 28.6384 53.9348 30.5768 52.015L33.5128 49.1075L48.53 49.0681L62.8666 49.0306C63.3135 49.0294 63.7534 48.9185 64.1474 48.7077C65.7141 47.8694 66.112 46.8168 66.112 43.5119V41.1993L74.5024 41.1571L82.8928 41.1147L83.7358 40.7743C85.3646 40.1167 86.5979 38.8267 87.1727 37.1795C87.4158 36.4831 87.4361 35.6857 87.4361 26.8254C87.4361 17.9652 87.4158 17.1677 87.1727 16.4713C86.5979 14.8241 85.3646 13.5342 83.7358 12.8766L82.8928 12.5361L68.3104 12.5074C56.0787 12.4832 53.604 12.5124 52.9587 12.6875ZM81.3076 15.465C82.1638 15.4664 82.9683 15.743 83.5748 16.3473C84.198 16.9683 84.5049 17.8192 84.5049 18.6989V26.8254V35.6037C84.5049 36.0591 84.3651 36.5036 84.1042 36.877C83.884 37.1926 83.4601 37.6157 83.1623 37.8172C82.8097 38.056 82.3936 38.1836 81.9678 38.1836H68.0155H54.1095C53.654 38.1836 53.2095 38.0437 52.8362 37.7829C52.5206 37.5626 52.0975 37.1388 51.896 36.8411C51.6571 36.4884 51.5286 36.0726 51.5267 35.6466L51.4887 27.1609C51.4619 21.1736 51.5003 17.8268 51.5999 17.4565C51.7831 16.7764 52.7702 15.7412 53.4158 15.5519C53.6828 15.4737 59.882 15.428 68.2479 15.4423L81.3076 15.465ZM48.5555 29.207C48.5982 36.5243 48.6007 36.5769 48.9389 37.4144C49.5783 38.9981 50.7153 40.1222 52.3535 40.7907C53.1029 41.0964 53.3887 41.1146 58.1613 41.1588L63.1809 41.2056V43.4047C63.1809 44.6404 63.1143 45.7282 63.0292 45.8875C62.8807 46.1649 62.5552 46.1709 47.6732 46.1709C33.8302 46.1709 32.4367 46.1925 32.1068 46.4111C31.9075 46.5433 30.9696 47.4161 30.0224 48.3507L28.3003 50.0501L28.2971 48.5868C28.2921 46.3861 28.0349 46.1709 25.4082 46.1709C24.2509 46.1709 23.6102 46.112 23.4932 45.9951C23.2385 45.7403 23.2385 22.2731 23.4932 22.0183C23.6272 21.8844 26.6249 21.8425 36.0908 21.8425H48.5124L48.5555 29.207ZM41.7836 55.2579L29.1064 60.3764L24.6364 60.3842C19.6858 60.3928 18.764 60.5021 17.2353 61.2616C12.9927 63.3691 11.2752 68.5108 13.4318 72.6482C14.1341 73.9957 14.9677 74.9261 16.2267 75.7683C17.5493 76.6529 18.8582 77.0845 20.5637 77.1984L21.8402 77.2837L21.8827 81.949L21.9251 86.6143L22.3315 87.0206L22.7377 87.4267H26.3218H29.9058L30.3121 87.0206L30.7185 86.6143L30.7614 82.2808C30.7943 78.9691 30.8462 77.964 30.9813 78.0179C31.0786 78.0569 36.4166 80.2062 42.8436 82.7943C49.2706 85.3824 54.6684 87.5 54.8387 87.5C55.2829 87.5 55.9481 87.07 56.1337 86.6629C56.2391 86.4314 56.2927 84.4387 56.2927 80.7515C56.2927 76.1481 56.3271 75.1892 56.4929 75.1892C56.603 75.1892 57.1528 74.9591 57.7149 74.678C61.7707 72.6489 62.6577 67.4472 59.4982 64.2206C58.7289 63.4349 57.7789 62.8377 56.8618 62.5629L56.2927 62.3923V56.8533C56.2927 52.8709 56.2435 51.2062 56.1176 50.9299C55.9204 50.4973 55.3036 50.1252 54.7978 50.1337C54.6124 50.1368 48.756 52.4427 41.7836 55.2579ZM53.3616 68.814C53.3616 77.0761 53.3427 83.8361 53.3195 83.8361C53.2965 83.8361 48.2347 81.807 42.0712 79.327L30.8651 74.8178V68.8204V62.823L38.7791 59.6287C43.1319 57.8717 46.7074 56.4333 46.7247 56.4321C46.7422 56.4309 46.7751 59.8211 46.798 63.9659L46.8398 71.5018L47.193 71.8778C47.8668 72.5949 49.0875 72.4742 49.5212 71.6477C49.6553 71.3922 49.7097 69.2658 49.7359 63.2539L49.7709 55.2022L51.4563 54.5099C52.3833 54.129 53.1911 53.8117 53.2516 53.8046C53.3122 53.7976 53.3616 60.5518 53.3616 68.814ZM65.2053 58.002C64.0886 59.1049 63.4228 59.8793 63.3469 60.1637C63.1019 61.0822 63.8037 61.9991 64.7518 61.9991C65.1991 61.9991 65.4566 61.804 66.9906 60.3024C67.9438 59.3691 68.8032 58.4142 68.9001 58.1801C69.2819 57.2583 68.5937 56.2834 67.5612 56.2834C66.9716 56.2834 66.8709 56.3568 65.2053 58.002ZM27.8606 68.814V74.3099H24.2039C19.3839 74.3099 18.6454 74.1444 17.1272 72.7244C14.8275 70.5731 14.8641 66.985 17.2081 64.8243C18.6551 63.4906 19.3477 63.3398 24.0868 63.3278L27.8606 63.3181V68.814ZM57.232 66.1061C58.8995 67.6431 58.8777 70.0402 57.1823 71.5719C56.8537 71.8687 56.5193 72.1115 56.4388 72.1115C56.346 72.1115 56.2927 70.9083 56.2927 68.814C56.2927 66.6653 56.3449 65.5164 56.4425 65.5164C56.525 65.5164 56.8802 65.7817 57.232 66.1061ZM66.1233 67.8726C65.5196 68.4763 65.5116 69.1423 66.0999 69.8009L66.5272 70.2796L70.8263 70.3241C73.1907 70.3487 75.3467 70.3279 75.6176 70.2779C76.7864 70.0621 77.2194 68.6872 76.3823 67.8501L75.9539 67.4217H71.2641H66.5743L66.1233 67.8726ZM47.3813 75.8471C46.5525 76.5446 46.735 77.7919 47.7264 78.2061C49.2185 78.8295 50.4202 77.0077 49.2424 75.9075C48.6588 75.3623 47.9835 75.3405 47.3813 75.8471ZM63.7558 75.9107C63.4174 76.2493 63.3274 76.4692 63.3274 76.9592C63.3274 77.552 63.3994 77.6522 64.9762 79.2546C65.8831 80.176 66.803 81.0232 67.0207 81.1372C67.8383 81.5656 68.6151 81.2637 68.9873 80.3728C69.3031 79.6171 69.0188 79.1564 67.0318 77.2044C65.4254 75.6264 65.233 75.4823 64.7314 75.4823C64.322 75.4823 64.0763 75.5902 63.7558 75.9107ZM27.8606 80.9049V84.5689H26.3218H24.7829V80.9049V77.241H26.3218H27.8606V80.9049Z" fill="white" fill-opacity="0.6"/>
<path fill-rule="evenodd" clip-rule="evenodd" d="M61.715 21.1067V26.8254V32.5441C61.715 32.932 61.8691 33.304 62.1434 33.5783C62.9574 34.3923 63.091 34.341 68.936 30.9657C74.2902 27.8737 74.612 27.639 74.612 26.8254C74.612 26.0119 74.2902 25.7771 68.936 22.6852C63.091 19.3098 62.9574 19.2585 62.1434 20.0725C61.8691 20.3468 61.715 20.7188 61.715 21.1067ZM28.5602 28.0798C28.0695 28.3461 27.8604 28.7159 27.8604 29.3169C27.8604 29.9301 28.0739 30.2941 28.5902 30.5612C29.232 30.893 43.929 30.893 44.5708 30.5612C45.0871 30.2941 45.3006 29.9301 45.3006 29.3169C45.3006 28.7037 45.0871 28.3397 44.5708 28.0726C43.9372 27.7451 29.165 27.7515 28.5602 28.0798ZM27.8604 37.5241C27.8604 36.9231 28.0695 36.5533 28.5602 36.287C28.8895 36.1082 29.8264 36.0692 33.9035 36.0644L38.8474 36.0585L39.3227 36.4832C39.7161 36.8347 39.7982 37.0141 39.7982 37.5241C39.7982 38.0341 39.7161 38.2135 39.3227 38.5649L38.8474 38.9897H33.9329C29.8359 38.9897 28.9471 38.9529 28.5902 38.7684C28.0739 38.5013 27.8604 38.1373 27.8604 37.5241ZM43.2159 36.287C42.7105 36.5612 42.5161 36.9245 42.5161 37.5944C42.5161 38.5482 43.5342 39.2105 44.4299 38.8394C45.0049 38.6014 45.3006 38.1651 45.3006 37.5552C45.3006 36.9113 45.0941 36.5505 44.5708 36.2798C44.0419 36.0063 43.73 36.008 43.2159 36.287ZM68.1389 24.8985C69.85 25.9075 71.2498 26.7969 71.2498 26.875C71.2498 26.9531 69.85 27.8425 68.1389 28.8515C66.428 29.8605 64.8343 30.8131 64.5972 30.9682L64.1665 31.25V26.875V22.5L64.5972 22.7818C64.8343 22.9369 66.428 23.8895 68.1389 24.8985Z" fill="#FF150F"/>
</svg>
