<svg width="100" height="100" viewBox="0 0 100 100" fill="none" xmlns="http://www.w3.org/2000/svg">
<path fill-rule="evenodd" clip-rule="evenodd" d="M21.8829 8.56871C15.8496 9.66344 10.8974 14.0111 9.07916 19.8095C7.24153 25.6705 8.89258 32.1296 13.3031 36.3322C14.7587 37.7193 15.824 38.4633 17.6393 39.3614C18.581 39.8272 18.8788 40.0502 18.8044 40.2347C18.7495 40.3708 18.5322 41.1541 18.3215 41.9751C17.6322 44.6611 17.3857 46.7768 17.3857 50.0066C17.3857 53.3475 17.6256 55.3015 18.3952 58.2285C18.6541 59.2135 18.8548 60.0275 18.8413 60.0376C18.8277 60.0475 18.1938 60.3665 17.4327 60.7461C10.2107 64.3499 6.68391 72.5648 9.07916 80.2038C11.8567 89.0615 21.5073 93.8486 30.2132 90.687C32.734 89.7715 33.4788 89.1092 33.0773 88.1402C32.9622 87.8623 32.668 87.5591 32.4095 87.452C32.0002 87.2823 31.7921 87.3307 30.5917 87.8735C26.9355 89.5268 23.1805 89.6572 19.5492 88.2569C16.9619 87.2591 14.1679 84.8765 12.7127 82.4271C8.54303 75.4085 11.3956 66.2004 18.799 62.7796C20.742 61.8821 22.4428 61.5107 24.5963 61.5138C28.4576 61.5196 31.7776 62.8802 34.4493 65.5518C37.156 68.2586 38.4985 71.5718 38.4744 75.4862C38.4559 78.5061 37.6977 80.8814 35.9265 83.4681C35.0856 84.6963 35.0361 84.948 35.5164 85.5584C35.9434 86.1013 36.8105 86.1466 37.3055 85.6516C37.8208 85.1364 38.887 83.4238 39.4537 82.2011C39.8411 81.3654 40.0281 81.1217 40.2324 81.1866C45.4734 82.85 52.6103 83.0469 57.8593 81.6729C58.6824 81.4574 59.51 81.2353 59.6982 81.1795C59.9938 81.0915 60.0928 81.207 60.4251 82.0266C61.3386 84.28 63.912 87.3315 66.1939 88.8671C73.803 93.9878 83.9832 91.8892 89.0288 84.16C90.0202 82.6415 90.7414 80.9528 91.2171 79.0366C91.7324 76.9606 91.7264 73.616 91.2035 71.6008C89.9077 66.6064 86.9192 62.9122 82.3442 60.6493C81.2668 60.1164 81.0887 59.9713 81.1714 59.6946C82.1493 56.4215 82.5704 53.5391 82.5748 50.088C82.5792 46.6026 82.1977 43.7432 81.3454 40.8732C81.206 40.4038 81.1101 40.0059 81.1321 39.989C81.1543 39.9721 81.8581 39.6066 82.6962 39.1769C87.04 36.9502 89.9406 33.28 91.2035 28.4125C91.7264 26.3972 91.7324 23.0527 91.2171 20.9767C89.6083 14.4959 84.5111 9.70381 78.0169 8.5666C73.9583 7.85577 69.7038 8.78395 66.1939 11.1461C63.9136 12.6806 61.3386 15.7331 60.4268 17.9828C60.1317 18.7106 59.9833 18.9045 59.7812 18.8262C59.0885 18.5577 55.6047 17.785 54.2275 17.5943C52.0595 17.294 47.4011 17.3368 45.2139 17.677C43.6648 17.918 40.9527 18.5399 40.2186 18.8226C40.0302 18.895 39.8337 18.6319 39.4383 17.7783C38.7973 16.3949 37.3841 14.2476 36.9681 14.0251C36.4011 13.7216 35.7127 13.8354 35.3536 14.2921C34.8742 14.9013 34.9218 15.1333 35.7679 16.3142C37.5875 18.8538 38.4632 21.5086 38.4774 24.5271C38.4959 28.4467 37.1536 31.7571 34.4493 34.4615C29.2072 39.7034 20.7906 39.8988 15.3195 34.9053C11.2452 31.1868 9.75953 25.4676 11.5055 20.2229C12.1999 18.1367 13.1075 16.723 14.9092 14.9213C16.7087 13.1218 18.1251 12.2117 20.2005 11.5212C23.2958 10.4916 26.7672 10.5499 29.5437 11.678C30.8361 12.2033 31.4777 12.1938 31.9108 11.6432C32.6828 10.6619 32.05 9.92312 29.8062 9.18559C27.2232 8.33687 24.3807 8.11545 21.8829 8.56871ZM78.8665 11.2404C81.9458 12.0544 84.9515 14.1858 86.7726 16.8469C87.5533 17.9875 88.4945 20.1096 88.8431 21.5151C89.2742 23.2534 89.2384 26.3399 88.7666 28.1089C86.9786 34.8128 80.6113 39.2098 73.7924 38.4495C72.853 38.3446 71.6687 38.0755 70.8374 37.7779C68.8928 37.0817 68.8485 37.0762 68.3476 37.4704C68.0182 37.7292 67.9034 37.9638 67.9034 38.3777C67.9034 39.0965 68.2748 39.4587 69.4705 39.9061C71.9269 40.8252 74.8029 41.1554 77.6112 40.8408L78.7717 40.7107L79.1247 42.0192C80.5126 47.1625 80.5071 52.775 79.1092 58.0328L78.7717 59.3025L77.6112 59.1724C72.4705 58.5966 67.698 60.1263 64.1223 63.4963C61.3723 66.0881 59.7309 69.2978 59.1562 73.2069C58.9346 74.7133 58.9222 75.2938 59.0784 76.8618C59.1805 77.887 59.2405 78.7494 59.2117 78.7782C59.0629 78.927 55.8202 79.6539 54.2949 79.8804C52.0151 80.2189 47.9738 80.2189 45.694 79.8804C44.0987 79.6435 40.9237 78.9247 40.7632 78.764C40.7266 78.7274 40.7792 77.9313 40.8801 76.9946C41.3991 72.1735 39.6651 67.33 36.1681 63.833C32.5417 60.2066 27.7118 58.5753 22.3717 59.1731L21.2053 59.3037L20.9455 58.4098C19.9953 55.1413 19.5746 50.9841 19.8636 47.7167C20.1303 44.7 20.9798 40.7265 21.358 40.7265C21.4448 40.7265 22.2251 40.8057 23.0923 40.9024C25.8346 41.2081 28.8747 40.679 31.535 39.433C33.3728 38.5722 34.7263 37.6221 36.1681 36.1803C39.7877 32.5607 41.4247 27.7137 40.828 22.3838L40.6974 21.2175L41.5912 20.9576C43.2656 20.471 45.5545 20.0658 47.7046 19.8758C50.9697 19.587 55.1293 20.0075 58.3925 20.9562L59.2811 21.2146L59.1557 22.301C58.955 24.0409 59.0359 26.5329 59.3418 28.0275C59.8918 30.7138 61.4365 33.7357 63.1913 35.5574C64.0411 36.4396 64.6272 36.5591 65.2474 35.9768C65.8613 35.3998 65.7337 34.8825 64.6489 33.5515C63.4697 32.1047 62.3225 29.8732 61.851 28.1089C61.3162 26.1074 61.3557 22.9157 61.9394 20.9783C63.482 15.8581 67.3852 12.1845 72.4621 11.0742C74.2534 10.6825 77.028 10.7544 78.8665 11.2404ZM48.1883 33.9547C47.1349 34.3596 46.5358 34.7267 45.7766 35.433C45.0303 36.127 45.026 36.1285 43.5635 36.2008C41.7451 36.2905 40.8044 36.7257 39.6141 38.028C37.5849 40.2484 37.7231 43.6398 39.9267 45.7012C41.1427 46.8385 41.9714 47.1559 43.7263 47.1559C45.373 47.1559 46.2238 46.8665 47.2642 45.9532L47.855 45.4345L48.9295 45.6215C49.7542 45.7651 50.2484 45.7625 51.056 45.6101L52.108 45.4117L52.7117 45.9418C53.7654 46.8669 54.6107 47.1558 56.2626 47.1557C57.5592 47.1557 57.8365 47.1008 58.6705 46.6791C62.2172 44.8868 62.8614 40.2222 59.9269 37.5837C58.8335 36.6006 57.6618 36.1679 56.0933 36.1679C54.8825 36.1679 54.8756 36.1654 54.291 35.5183C53.9681 35.1609 53.2267 34.6336 52.6432 34.3464C51.7401 33.9018 51.3736 33.8171 50.1779 33.7769C49.2672 33.7463 48.5676 33.8088 48.1883 33.9547ZM51.9819 36.7436C52.8001 37.3108 53.5767 38.6909 53.5753 39.5753C53.5727 41.2586 52.4048 42.7857 50.8316 43.1631C47.5362 43.9537 45.071 40.0533 47.2197 37.4485C47.9885 36.5165 48.8883 36.1399 50.191 36.2047C51.0845 36.2493 51.4099 36.3471 51.9819 36.7436ZM44.0138 39.9532C44.1135 41.4527 44.3896 42.233 45.2243 43.3735L45.7911 44.1481L45.0843 44.4689C43.3094 45.2743 41.2228 44.358 40.7215 42.5531C40.5115 41.7968 40.5118 41.609 40.7241 40.8442C41.0564 39.6474 42.2863 38.6307 43.4184 38.6164L43.9246 38.61L44.0138 39.9532ZM57.3736 38.7619C58.7404 39.2816 59.6378 40.9979 59.2684 42.3859C58.8828 43.8349 57.6769 44.7857 56.2154 44.7932C55.5414 44.7966 54.2275 44.2776 54.2275 44.0078C54.2275 43.9357 54.4033 43.7115 54.6181 43.5097C54.833 43.3079 55.2122 42.6907 55.4609 42.1381C55.824 41.3319 55.9155 40.8848 55.9251 39.8729L55.937 38.6123L56.4555 38.6112C56.7408 38.6105 57.1538 38.6784 57.3736 38.7619ZM48.0873 48.2892C47.7099 48.407 47.0872 48.6867 46.7034 48.9108C46.054 49.2898 45.9334 49.3069 44.9609 49.1586C44.3863 49.0708 43.5357 49.0466 43.0704 49.1047C39.5146 49.549 36.624 53.4868 36.3643 58.2402L36.2747 59.8798L36.7255 60.2346C37.3008 60.687 37.6575 60.6822 38.2011 60.2147C38.5884 59.8815 38.6514 59.6767 38.7732 58.3571C39.118 54.6198 40.9576 51.9182 43.4308 51.5168C43.7558 51.4641 43.9834 51.4874 43.9448 51.5691C43.9067 51.65 43.6049 52.2656 43.2744 52.9372C42.5295 54.45 42.0395 56.328 41.9079 58.172C41.8109 59.5342 41.8215 59.5946 42.2304 60.0036C42.754 60.5272 43.3771 60.5462 43.8698 60.0536C44.1744 59.7488 44.2615 59.4368 44.3455 58.3475C44.6929 53.8404 47.0997 50.4951 49.9945 50.4951C52.8726 50.4951 55.2571 53.8263 55.6366 58.3774C55.7243 59.4294 55.817 59.7512 56.1187 60.0529C56.9099 60.8443 58.138 60.2076 58.1316 59.0091C58.1217 57.0921 57.5266 54.5915 56.6696 52.8647C56.3165 52.1533 56.0583 51.5406 56.0956 51.5032C56.133 51.4659 56.5368 51.5247 56.9928 51.6341C58.0623 51.8907 59.3516 53.0443 60.0653 54.3834C60.6778 55.5325 61.2283 57.554 61.2283 58.6539C61.2283 59.6171 61.4683 60.1722 61.9865 60.4085C62.5444 60.6626 62.752 60.6367 63.2414 60.2517C63.6259 59.9494 63.6704 59.805 63.6704 58.861C63.6704 55.6654 62.0343 51.9615 59.9455 50.4281C58.3218 49.2362 56.8096 48.8582 54.9145 49.1704C53.954 49.3287 53.8564 49.3147 53.3032 48.9394C52.0654 48.0993 49.6558 47.7989 48.0873 48.2892ZM78.3748 61.8143C83.235 62.8089 87.4151 66.8666 88.7693 71.9044C89.3066 73.9027 89.268 77.0934 88.683 79.0349C87.975 81.3852 86.9639 83.176 85.4132 84.8272C80.1717 90.4076 71.5528 90.7127 65.9217 85.5172C64.0042 83.7481 62.7401 81.6907 61.9388 79.0349C61.5627 77.7885 61.5068 77.3176 61.5081 75.4048C61.5099 72.8227 61.8289 71.3639 62.8433 69.2988C65.7145 63.4551 71.8782 60.4848 78.3748 61.8143Z" fill="white" fill-opacity="0.6"/>
<path fill-rule="evenodd" clip-rule="evenodd" d="M25.7682 17.5474C24.7223 17.9299 23.5369 19.1977 23.1867 20.309C22.9043 21.2049 22.8899 21.2194 22.3689 21.1349C21.408 20.979 20.1372 20.204 18.9384 19.0427C17.9007 18.0373 17.703 17.9113 17.3103 18.0043C16.3427 18.2334 15.819 19.5541 15.6871 22.0966C15.5562 24.62 16.1096 26.2074 17.7022 27.877L18.5817 28.7992L18.0613 28.9032C17.7753 28.9605 17.0371 29.0541 16.4212 29.1114C15.1663 29.228 14.8281 29.5013 14.8281 30.3994C14.8281 31.0248 15.1306 31.3102 16.3803 31.8635C17.9715 32.5682 19.5976 32.9122 21.3258 32.9094C24.4495 32.9047 26.6832 32.005 28.7559 29.9172C30.7394 27.919 31.5963 26.0592 31.9364 23.0141C32.0632 21.8782 32.2026 21.3578 32.4955 20.9261C33.0699 20.0796 33.5702 18.6358 33.4521 18.1653C33.3312 17.6835 32.8048 17.2822 32.2939 17.2822C32.0901 17.2822 31.5711 17.4789 31.1407 17.719L30.3583 18.156L29.5532 17.7633C28.5407 17.2694 26.8006 17.1702 25.7682 17.5474ZM28.7813 20.1966C29.5516 20.7547 29.6942 21.3558 29.4734 23.1143C29.2102 25.2108 28.5985 26.5781 27.2928 27.9885C25.8762 29.5186 23.7323 30.4769 21.7583 30.4625L20.7703 30.4554L21.3758 30.1356C22.0669 29.7706 22.317 29.3932 22.317 28.7148C22.317 28.1749 22.0432 27.8887 21.0479 27.3882C19.2487 26.4835 18.231 24.9407 18.1154 22.9429L18.0418 21.6717L18.8746 22.2321C19.9672 22.9675 21.2877 23.4497 22.8183 23.6729C24.7771 23.9583 25.4104 23.5249 25.4104 21.899C25.4104 20.0045 27.2404 19.0804 28.7813 20.1966Z" fill="#FF150F"/>
<path fill-rule="evenodd" clip-rule="evenodd" d="M17.1955 67.1465C16.8409 67.3473 16.3281 67.8285 16.0559 68.2158L15.5606 68.9202L15.5124 75.0499C15.458 81.9574 15.4756 82.0862 16.6169 83.1172C16.9635 83.4303 17.527 83.7642 17.8691 83.8593C18.7075 84.0921 29.5086 84.0921 30.3471 83.8593C31.0975 83.6509 32.1184 82.7644 32.476 82.011C32.8597 81.2024 32.8675 69.6831 32.4849 68.7676C32.1642 68 31.6756 67.4775 30.9118 67.086C30.3489 66.7971 29.8844 66.7763 24.0739 66.7787C17.9182 66.7815 17.8318 66.7861 17.1955 67.1465ZM30.0993 69.4136C30.2439 69.5582 30.2947 71.1011 30.2947 75.3468V81.0849L29.9328 81.3382C29.6226 81.5556 28.7855 81.5917 24.0717 81.5917C18.7895 81.5917 18.5596 81.5788 18.2468 81.2661C17.9338 80.953 17.9212 80.7234 17.9212 75.3351C17.9212 70.4566 17.9544 69.6967 18.177 69.474C18.4 69.2511 19.1714 69.2182 24.1684 69.2182C28.4123 69.2182 29.9547 69.269 30.0993 69.4136Z" fill="#FF150F"/>
<path fill-rule="evenodd" clip-rule="evenodd" d="M22.5081 72.0841C21.1558 72.7581 20.5041 73.8218 20.5039 75.3551C20.5036 77.4426 22.0582 78.9917 24.1443 78.9831C26.9075 78.9716 28.6364 76.0957 27.3673 73.6217C26.9795 72.8654 26.4723 72.4068 25.5741 71.9996C24.5564 71.5382 23.5478 71.566 22.5081 72.0841ZM24.9044 74.3874C25.7808 75.1151 25.2999 76.5446 24.1785 76.5446C23.0232 76.5446 22.5038 75.1434 23.3983 74.4399C23.9225 74.0276 24.4489 74.0092 24.9044 74.3874Z" fill="#FF150F"/>
<path fill-rule="evenodd" clip-rule="evenodd" d="M70.9589 69.2046L70.4272 69.6796L70.3798 74.9347C70.3301 80.4591 70.3741 80.8764 71.0556 81.3539C71.8407 81.9037 72.4606 81.6932 75.9281 79.6993C81.044 76.7574 81.7362 76.3694 81.9238 75.8117C81.9574 75.7119 81.9747 75.6065 81.9985 75.4801C82.1666 74.584 81.7427 74.0544 80.0746 73.0759C74.4857 69.7978 72.5044 68.7297 72.0126 68.7297C71.666 68.7297 71.3119 68.8893 70.9589 69.2046ZM75.4196 73.2117C76.7522 73.9753 78.0655 74.7357 78.3381 74.9016L78.8338 75.203L76.4215 76.5867C75.0946 77.3479 73.7343 78.1331 73.3985 78.3319L72.7879 78.6933V75.2582C72.7879 73.3688 72.835 71.8231 72.8923 71.8231C72.9498 71.8231 74.087 72.448 75.4196 73.2117Z" fill="#FF150F"/>
<path d="M73.4252 18.0062C74.0079 16.6886 75.0785 15.7331 76.359 15.3878C77.3069 15.1322 79.164 15.1108 79.6878 15.3495C80.5139 15.7258 80.5873 17.017 79.8065 17.4349C79.6288 17.53 78.9843 17.6078 78.3741 17.608C77.1157 17.6082 76.3378 17.9185 75.818 18.6273C75.5392 19.0075 75.4777 19.3924 75.4204 21.1102L75.3528 23.1432H76.5031C77.4733 23.1432 77.7223 23.2026 78.0949 23.523C78.4197 23.8024 78.5325 24.0459 78.5211 24.4432C78.4975 25.2771 78.1593 25.4927 76.73 25.5853L75.4735 25.6667L75.4297 29.5647C75.3922 32.9045 75.3479 33.5046 75.1195 33.757C74.7412 34.1751 73.7392 34.1481 73.3415 33.709C73.058 33.3961 73.0269 33.0319 72.9801 29.4759L72.9286 25.5853H71.899C70.7442 25.5853 70.2677 25.3181 70.0912 24.5718C70.007 24.2162 70.0839 24.0305 70.4787 23.6357C70.9161 23.1982 71.0791 23.1432 71.9374 23.1432H72.9037L72.9864 20.9775C73.0532 19.227 73.1373 18.6571 73.4252 18.0062Z" fill="#FF150F"/>
</svg>
