<svg width="100" height="100" viewBox="0 0 100 100" fill="none" xmlns="http://www.w3.org/2000/svg">
<path fill-rule="evenodd" clip-rule="evenodd" d="M50.9445 4.35952C50.4075 4.63645 30.7308 26.6204 30.5302 27.1676C30.4025 27.5162 30.4274 27.7657 30.6251 28.1182C31.1102 28.9823 31.4602 29.0434 35.9428 29.0463L40.1074 29.049V32.6073C40.1074 35.936 40.1314 36.196 40.4788 36.6376C41.0031 37.3043 42.0778 37.3043 42.6021 36.6376C42.9555 36.1885 42.9734 35.9472 42.9734 31.6463C42.9734 27.3453 42.9555 27.104 42.6021 26.655L42.231 26.183H38.7361C36.3779 26.183 35.2616 26.1219 35.3039 25.9951C35.3941 25.7242 51.4272 7.91228 51.5807 7.91228C51.6513 7.91228 55.1913 12.0029 59.4475 17.0028L67.1859 26.0934L64.0209 26.183C61.1637 26.2638 60.8318 26.306 60.6047 26.6172C60.1885 27.187 60.1472 27.8517 60.2043 33.0503L60.2589 38.0367L60.7807 38.4852C61.1859 38.8335 61.4263 38.9101 61.8555 38.8272C63.0012 38.6063 63.0354 38.4518 63.0354 33.5072V29.049L66.7522 29.0463C70.7687 29.0434 71.1861 28.963 71.5934 28.1138C71.7788 27.7269 71.7788 27.5352 71.5934 27.0985C71.3219 26.4595 52.5811 4.412 52.1779 4.25724C51.7896 4.10821 51.3638 4.14349 50.9445 4.35952ZM29.7462 30.0789C28.7855 30.8929 15.5434 45.8505 15.4452 46.2326C15.3057 46.7748 15.6988 47.5083 16.2892 47.8071C16.5848 47.9566 17.6386 48.0317 19.4633 48.0335L22.195 48.0362V61.4786V74.9212L22.6347 75.3607C23.1683 75.8945 23.9597 75.9348 24.5485 75.4582L24.9714 75.1157L25.0192 60.6145C25.0658 46.5296 25.0572 46.1009 24.7222 45.6864C24.4022 45.2904 24.2225 45.2533 22.217 45.1702L20.0564 45.0806L25.2904 39.23C28.169 36.0124 30.5807 33.3927 30.6498 33.4085C30.7188 33.4244 31.8364 34.6869 33.1332 36.214C34.4301 37.741 35.5826 39.0497 35.6945 39.122C36.0981 39.383 37.0618 39.2596 37.4206 38.9008C38.0676 38.2538 37.8978 37.451 36.8449 36.1785C34.7357 33.6292 31.7934 30.1988 31.5365 29.9894C31.1399 29.6661 30.1766 29.7142 29.7462 30.0789ZM71.0216 36.4379C69.9971 37.3501 66.2482 41.7091 66.141 42.1127C65.894 43.0427 67.03 44.0913 67.9187 43.7533C68.1598 43.6618 69.1738 42.6972 70.1721 41.6097L71.9871 39.6329L75.7634 44.0584L79.5397 48.484L78.3675 48.5735C77.4631 48.6427 77.1024 48.7563 76.7878 49.071L76.3802 49.479L76.3359 60.5349C76.2879 72.4888 76.2705 72.2574 77.2496 72.7267C77.8363 73.0081 78.6925 72.7505 78.9843 72.2053C79.0889 72.0098 79.1566 67.8628 79.1566 61.6615V51.4395H81.2246C83.1815 51.4395 83.3164 51.4159 83.7323 50.9998C84.6389 50.0934 84.5771 49.9927 79.3217 43.8054C72.7 36.0092 72.724 36.0348 72.0385 36.0348C71.7068 36.0348 71.2876 36.2009 71.0216 36.4379ZM46.6715 38.5479C43.8359 38.9956 40.657 40.2776 38.2415 41.9474C36.6731 43.0316 34.2339 45.5025 33.1357 47.1196C30.8186 50.5317 29.5386 55.1444 29.7743 59.2315C30.1983 66.5799 34.1961 72.6328 40.7225 75.8078C43.394 77.1076 45.3839 77.598 48.481 77.7198C51.3301 77.8319 52.9718 77.6392 55.2352 76.9268L56.6598 76.4783L56.9682 76.8593C57.1379 77.0689 60.6256 81.0474 64.7188 85.7005C69.6642 91.3225 72.4498 94.3499 73.0223 94.7243C74.7619 95.8624 76.6599 96.1266 78.6452 95.5072C82.4964 94.3051 84.3571 90.0027 82.6058 86.3489C82.1698 85.4392 80.4929 83.4305 74.4272 76.5532C70.2306 71.7951 66.797 67.8364 66.797 67.7565C66.797 67.6766 67.0759 67.0074 67.4169 66.2694C68.8797 63.1036 69.5141 59.313 69.1392 55.9811C68.1806 47.4614 62.4659 40.9273 54.1847 38.882C52.5127 38.4691 48.3447 38.2837 46.6715 38.5479ZM52.3932 41.2391C52.9931 41.3324 54.0007 41.5778 54.6323 41.7842C60.1411 43.584 64.348 48.0618 65.8464 53.7201C66.4753 56.0952 66.5124 59.5286 65.9343 61.8778C64.3263 68.4146 59.3443 73.246 52.7689 74.6451C51.2004 74.9788 47.65 74.9794 46.0658 74.646C40.5912 73.4944 36.4142 70.2155 34.007 65.1795C32.9896 63.0511 32.5643 61.245 32.4592 58.6045C32.3877 56.8131 32.4404 56.0248 32.7227 54.662C33.7064 49.9118 36.5042 45.9445 40.6538 43.416C44.1377 41.293 48.0656 40.5647 52.3932 41.2391ZM72.9066 79.1143C76.6856 83.4491 79.92 87.2748 80.0939 87.6157C80.5025 88.4164 80.4947 89.8383 80.0764 90.759C79.1978 92.693 76.7513 93.5279 74.8476 92.5434C74.4164 92.3204 59.4529 75.4702 59.4529 75.2076C59.4529 75.1685 60.0372 74.7492 60.7515 74.2758C61.4659 73.8022 62.7353 72.7106 63.5728 71.8497L65.0953 70.2845L65.5653 70.7587C65.824 71.0195 69.1274 74.7795 72.9066 79.1143Z" fill="white" fill-opacity="0.6"/>
<path fill-rule="evenodd" clip-rule="evenodd" d="M54.1663 46.875C54.1663 46.0695 54.8193 45.4166 55.6247 45.4166C56.4301 45.4166 57.083 46.0695 57.083 46.875V65.2083C57.083 66.0137 56.4301 66.6666 55.6247 66.6666C54.8193 66.6666 54.1663 66.0137 54.1663 65.2083V46.875ZM49.583 52.9166C48.8927 52.9166 48.333 53.4763 48.333 54.1666V65.4166C48.333 66.107 48.8927 66.6666 49.583 66.6666C50.2734 66.6666 50.833 66.107 50.833 65.4166V54.1666C50.833 53.4763 50.2734 52.9166 49.583 52.9166ZM35.833 58.5416C35.833 57.7362 36.4859 57.0833 37.2913 57.0833C38.0968 57.0833 38.7497 57.7362 38.7497 58.5416V65.2083C38.7497 66.0137 38.0968 66.6666 37.2913 66.6666C36.4859 66.6666 35.833 66.0137 35.833 65.2083V58.5416ZM42.083 61.0416C42.083 60.2362 42.7359 59.5833 43.5413 59.5833C44.3468 59.5833 44.9997 60.2362 44.9997 61.0416V65.2083C44.9997 66.0137 44.3468 66.6666 43.5413 66.6666C42.7359 66.6666 42.083 66.0137 42.083 65.2083V61.0416ZM61.8747 55.4166C61.0693 55.4166 60.4163 56.0695 60.4163 56.875V65.2083C60.4163 66.0137 61.0693 66.6666 61.8747 66.6666C62.6801 66.6666 63.333 66.0137 63.333 65.2083V56.875C63.333 56.0695 62.6801 55.4166 61.8747 55.4166Z" fill="#FF150F"/>
</svg>
