<svg width="100" height="100" viewBox="0 0 100 100" fill="none" xmlns="http://www.w3.org/2000/svg">
<path fill-rule="evenodd" clip-rule="evenodd" d="M41.8828 16.8761C31.4922 17.4804 22.6241 19.2222 17.9946 21.5681C16.7829 22.1823 15.1869 23.649 14.843 24.4649C14.6311 24.9672 14.583 28.02 14.583 40.9509V56.8205L15.1485 57.7123C16.7084 60.1719 21.6971 62.1657 29.6726 63.5169C33.0145 64.083 33.1758 64.0861 33.7046 63.5933C34.1214 63.205 34.1239 63.1611 34.1239 56.0576V48.9125L36.4708 48.687C37.7616 48.5631 38.9126 48.4627 39.0289 48.464C39.1645 48.4654 39.2793 49.2725 39.3494 50.7172C39.4787 53.3797 39.9216 54.9802 40.9838 56.6235C41.7363 57.7879 43.1942 59.2106 44.1339 59.6976C44.6262 59.9528 44.6607 60.0518 44.6607 61.211V62.4513L43.3676 62.4536C40.9232 62.4578 38.9101 63.2709 37.0614 65.0003C35.6939 66.2796 34.6372 68.1655 34.3153 69.901C34.2099 70.4687 34.1239 73.5356 34.1239 76.7166V82.5001L34.5672 82.9168C35.1288 83.444 35.8748 83.4498 36.3453 82.9304C36.6844 82.5563 36.7169 82.0771 36.806 76.1773L36.9018 69.8271L37.4382 68.7345C38.1141 67.3584 39.5517 66.0468 40.9634 65.5187C41.9968 65.1319 42.3173 65.119 49.5272 65.1731C56.9435 65.2286 57.0257 65.2336 57.8506 65.6739C59.1196 66.3509 60.3042 67.5473 60.8931 68.7462L61.4238 69.8271L61.5195 76.2143L61.6153 82.6015L62.0676 82.9674C62.6514 83.4398 63.3355 83.4331 63.8185 82.9501C64.1852 82.5835 64.2016 82.3116 64.2016 76.6375C64.2016 70.2116 64.1089 69.3562 63.2125 67.5097C61.7818 64.5631 58.9352 62.7306 55.3891 62.4735L53.7606 62.3555L53.707 61.2061L53.6532 60.0566L54.4934 59.5298C55.7214 58.7596 57.1811 57.1299 57.8763 55.7524C58.6668 54.1869 59.0216 52.4559 59.0258 50.1472L59.029 48.2842L59.5559 48.3663C59.8455 48.4115 61.3113 48.5508 62.8127 48.6757L65.5427 48.9029V56.0603C65.5427 62.9623 65.5563 63.2312 65.9258 63.6008C66.4096 64.0845 66.5814 64.0809 69.9562 63.5173C77.6904 62.2258 82.8575 60.1834 84.461 57.7839L85.0836 56.8523V40.9668C85.0836 28.0225 85.0355 24.9672 84.8236 24.4649C84.2456 23.0938 82.299 21.7052 79.2997 20.5244C72.0136 17.6555 55.7494 16.0698 41.8828 16.8761ZM62.4774 19.8065C70.7779 20.6627 76.8157 22.0083 80.2942 23.7773C82.1944 24.7438 82.8404 25.5498 82.3343 26.3223C81.6034 27.4376 78.6878 28.7555 74.6964 29.7743C72.2385 30.4017 67.8325 31.1886 67.083 31.25C66.7679 31.2758 66.3251 31.4029 66.0475 31.6213C65.7287 31.8719 65.5427 32.255 65.5427 32.6604V39.2093V46.4004L65.1116 46.2946C64.8744 46.2366 63.4091 46.082 61.8548 45.9513L59.029 45.7136V45.013C59.029 44.0011 58.5664 42.6146 57.966 41.8274C57.4656 41.1713 55.8253 40.2341 55.1703 40.2302C54.9929 40.2291 54.8019 40.013 54.7318 39.7338C54.5201 38.8903 53.6551 37.7675 52.7608 37.1749C51.5395 36.3661 50.2232 36.1531 46.9761 36.2385C44.4655 36.3044 44.0739 36.3619 43.1193 36.8048C41.6169 37.5018 40.7389 38.3472 40.0372 39.7725C39.4774 40.9094 39.4214 41.1985 39.3373 43.3836L39.2458 45.759L38.5528 45.8611C38.1716 45.9172 37.17 46.0161 36.3271 46.0804C35.4841 46.1448 34.6437 46.2396 34.4592 46.2912C34.1442 46.3789 34.1239 45.9505 34.1239 39.2015V32.6604C34.1239 32.255 33.9379 31.8719 33.6191 31.6213C33.3415 31.4029 32.708 31.25 32.708 31.25C31.6663 31.0416 27.4346 30.4034 25.0062 29.7837C21.0158 28.7651 17.8373 27.3125 17.267 26.2468C16.4639 24.7461 20.5658 22.7124 27.3022 21.2711C30.7746 20.5282 35.6012 19.9226 41.6912 19.4657C44.3511 19.2661 59.6743 19.5174 62.4774 19.8065ZM48.2436 21.7294C48.0116 21.9863 46.5349 24.4475 44.9622 27.1987C42.4118 31.6604 42.1223 32.2562 42.2834 32.7142C42.6238 33.6821 42.9185 33.7216 49.4193 33.6681L55.4233 33.6189L55.7893 33.1666C55.9906 32.9179 56.1554 32.5522 56.1554 32.3539C56.1554 31.8993 50.5054 22.0503 49.9846 21.5974C49.4438 21.1269 48.7394 21.1803 48.2436 21.7294ZM54.5327 22.4053C53.6794 23.3482 54.3335 24.4442 55.8395 24.5948C58.4014 24.8508 63.8464 25.1282 64.2622 25.0237C64.8518 24.8758 65.2762 23.9455 64.9944 23.4189C64.6053 22.6919 64.2309 22.5928 60.8239 22.3139C56.0149 21.9202 54.9578 21.9355 54.5327 22.4053ZM35.1776 22.6208C30.8298 23.1421 25.6815 24.0756 23.3986 24.7567C22.2718 25.0929 21.8179 25.8027 22.2461 26.5594C22.7768 27.4976 22.964 27.5133 25.8221 26.8623C27.2798 26.5303 28.9465 26.1703 29.5261 26.0623C31.1344 25.7629 36.3832 25.0937 37.1244 25.0937C37.8825 25.0937 38.7218 24.389 38.7218 23.7526C38.7218 23.5323 38.5101 23.1405 38.2515 22.8819C37.7398 22.37 37.4649 22.3466 35.1776 22.6208ZM50.9722 28.2547L52.5217 30.9368L50.7847 30.992C49.8293 31.0224 48.3227 31.0224 47.4367 30.992L45.8257 30.9368L47.4721 28.0986C48.3777 26.5374 49.1871 25.3305 49.2708 25.4165C49.3544 25.5023 50.1201 26.7796 50.9722 28.2547ZM38.1471 26.2621C34.8632 26.5468 29.8257 27.2434 29.1977 27.4995C28.4429 27.8072 28.1867 28.5706 28.5954 29.2952C28.8414 29.7314 28.9918 29.7866 29.9178 29.7799C30.4926 29.7758 32.4285 29.586 34.2197 29.358C36.011 29.13 38.2768 28.8848 39.2548 28.8133C40.5834 28.7162 41.1527 28.5892 41.5058 28.3114C42.152 27.8032 42.1376 26.9707 41.4738 26.4487C40.9338 26.0238 40.9106 26.0224 38.1471 26.2621ZM56.299 26.3769C56.1147 26.5834 55.9638 27.0123 55.9638 27.3301C55.9638 28.3497 56.3893 28.5277 59.3348 28.7398C61.6609 28.9072 64.5675 29.2036 67.9692 29.6199C69.334 29.7869 69.8532 29.6187 70.1446 28.9155C70.3597 28.3961 70.3434 28.265 70.0062 27.8114C69.6974 27.3959 69.3694 27.2533 68.3018 27.0708C66.3414 26.7357 61.5515 26.2479 58.9332 26.1167C56.8107 26.0106 56.6086 26.0305 56.299 26.3769ZM18.4839 30.2682L19.7556 30.8448V38.3962V45.9479L20.2604 46.3448C20.8876 46.8383 21.3083 46.8464 21.8896 46.3758L22.3419 46.0097L22.3965 38.8865C22.4452 32.5591 22.4842 31.7757 22.7469 31.8765C23.6253 32.2137 27.9622 33.1581 30.7234 33.6135L31.4418 33.7321V47.4211C31.4418 60.3313 31.4227 61.1103 31.1066 61.1086C30.4801 61.1055 25.2234 59.9807 23.5124 59.4838C20.428 58.5878 17.755 57.2362 17.268 56.3262C17.0883 55.9906 16.9647 29.6915 17.1429 29.6915C17.181 29.6915 17.7845 29.9509 18.4839 30.2682ZM82.5931 42.8272C82.5931 51.3473 82.5247 56.0906 82.3986 56.3262C81.9116 57.2362 79.2386 58.5878 76.1542 59.4838C74.4432 59.9807 69.1865 61.1055 68.56 61.1086C68.2573 61.1101 68.2248 60.8608 68.2248 58.5412V55.9724L69.6137 55.7459C73.1885 55.1629 77.7898 54.0004 79.4826 53.2525C80.398 52.8481 80.7162 52.2751 80.4499 51.5109C80.1436 50.6325 79.5432 50.5258 77.9565 51.0676C75.663 51.8509 69.5938 53.2556 68.5024 53.2556C68.2636 53.2556 68.2248 51.8923 68.2248 43.5024V33.7493L69.6137 33.5254C73.7627 32.8564 78.5063 31.5544 80.7731 30.4624C81.616 30.0563 82.3703 29.7168 82.4494 29.7078C82.5285 29.6988 82.5931 35.6027 82.5931 42.8272ZM74.3945 36.5571C73.0429 37.0385 72.1259 37.8137 71.4113 39.0783C70.6384 40.4463 70.5794 42.3115 71.2645 43.7225C72.0931 45.4291 74.1449 46.7419 75.9837 46.7419C78.1385 46.7419 80.3735 45.0681 80.9733 43.0052C81.7124 40.4626 80.5141 37.8315 78.1387 36.7811C76.8186 36.1973 75.6078 36.1249 74.3945 36.5571ZM50.9753 39.1708C51.7726 39.5831 52.2868 40.33 52.4299 41.2839C52.5903 42.3531 52.9369 42.6403 54.2396 42.783C55.091 42.8763 55.3944 43.0104 55.8201 43.4821C56.3025 44.0166 56.3469 44.1955 56.3469 45.6015C56.3469 48.1976 55.2571 50.585 53.5269 51.7799C51.973 52.8527 51.0075 53.1579 49.1628 53.1588C47.675 53.1596 47.2809 53.0862 46.2891 52.6238C44.7701 51.9151 43.2955 50.443 42.6242 48.9652C42.1495 47.9198 42.0848 47.5263 42.0137 45.2597C41.907 41.8481 42.0288 41.1525 42.9026 40.1844C43.29 39.7551 43.8657 39.2911 44.1818 39.1532C45.037 38.7798 50.2456 38.7934 50.9753 39.1708ZM77.217 39.2373C78.4705 39.9095 78.937 41.6354 78.1945 42.8531C77.0996 44.649 74.2932 44.3815 73.6083 42.4161C72.8031 40.1065 75.0869 38.0949 77.217 39.2373ZM26.0077 51.5454C24.9713 52.3605 25.6319 54.0219 26.9925 54.0219C28.2866 54.0219 28.8835 52.341 27.8718 51.5454C27.5942 51.327 27.1748 51.1482 26.9398 51.1482C26.7047 51.1482 26.2853 51.327 26.0077 51.5454ZM44.9379 54.8875C48.1493 56.4586 52.0541 56.084 54.9894 53.923L56.132 53.082L55.8642 53.8414C55.2823 55.4903 53.9997 56.9084 52.3204 57.7594C51.8217 58.0121 51.3598 58.3592 51.2941 58.5307C51.2282 58.7023 51.1743 59.6547 51.1743 60.647V62.4513H49.1628H47.1512V60.5721C47.1512 59.351 47.0673 58.5916 46.9117 58.4035C46.7801 58.2441 46.1667 57.8182 45.5487 57.4567C44.0739 56.5944 43.0377 55.3208 42.3595 53.537C42.1811 53.0677 42.207 53.0746 43.0595 53.7255C43.5467 54.0974 44.3917 54.6202 44.9379 54.8875ZM26.3459 55.2534C25.7131 55.5289 25.5029 55.8727 25.5029 56.6325C25.5029 57.2504 26.3112 58.045 26.9398 58.045C27.5683 58.045 28.3766 57.2504 28.3766 56.6325C28.3766 55.9013 28.1852 55.5645 27.5965 55.2601C26.9599 54.9308 27.0852 54.9315 26.3459 55.2534ZM76.0095 67.4463C75.3085 67.9977 75.343 68.7674 76.1078 69.6384L76.7107 70.3252L76.1078 70.9474C74.5547 72.5496 76.3264 74.3213 77.9286 72.7682L78.5508 72.1653L79.2497 72.7789C80.1154 73.5391 80.9273 73.5326 81.5009 72.7609C81.8333 72.3135 81.8526 72.1718 81.648 71.6781C81.5187 71.3658 81.2061 70.916 80.9536 70.6786L80.4942 70.2472L81.1768 69.4918C81.7266 68.8832 81.8348 68.6377 81.7344 68.2282C81.666 67.9484 81.508 67.6176 81.3831 67.4929C81.2584 67.368 80.9275 67.2099 80.6478 67.1415C80.238 67.0411 79.9926 67.1496 79.3821 67.7011L78.6247 68.3852L78.2627 67.985C77.8933 67.577 77.0061 67.0492 76.6896 67.0492C76.5931 67.0492 76.2871 67.2279 76.0095 67.4463ZM23.4004 71.2296C23.0816 71.5484 22.8208 71.9411 22.8208 72.1022C22.8208 72.6461 23.2433 73.3276 23.713 73.5418C24.3887 73.8494 24.6521 73.8088 25.2368 73.3057C26.1957 72.481 25.792 71.0924 24.5019 70.7775C24.0812 70.6748 23.8676 70.7623 23.4004 71.2296ZM38.4641 71.9974C37.961 72.5532 38.0655 73.413 38.7113 74.0316L39.2755 74.5723L39.3339 78.587C39.3914 82.5421 39.399 82.607 39.8446 82.9674C40.4284 83.4398 41.1127 83.4329 41.5955 82.9501C41.9564 82.5892 41.9786 82.3116 41.9786 78.1492V73.7314L40.9929 72.6892C40.1991 71.8499 39.8879 71.647 39.3942 71.647C39.0436 71.647 38.6454 71.7971 38.4641 71.9974ZM57.3715 72.6716L56.3469 73.6962V78.0099C56.3469 82.084 56.369 82.3518 56.7441 82.8285C57.0073 83.1632 57.3253 83.3333 57.688 83.3333C58.0506 83.3333 58.3687 83.1632 58.6319 82.8285C59.0035 82.356 59.029 82.0783 59.029 78.4933V74.6629L59.6996 73.9207C60.4781 73.0588 60.5124 72.8375 59.9729 72.1519C59.3133 71.3131 58.5844 71.4587 57.3715 72.6716Z" fill="white" fill-opacity="0.6"/>
<path fill-rule="evenodd" clip-rule="evenodd" d="M48.2444 21.7295C48.0124 21.9864 46.5357 24.4476 44.963 27.1988C42.4126 31.6605 42.1231 32.2563 42.2842 32.7143C42.6246 33.6822 42.9193 33.7216 49.4201 33.6682L55.4241 33.619L55.7901 33.1666C55.9914 32.918 56.1562 32.5523 56.1562 32.354C56.1562 31.8994 50.5062 22.0503 49.9854 21.5975C49.4446 21.1269 48.7402 21.1804 48.2444 21.7295ZM54.5335 22.4053C53.6802 23.3483 54.3343 24.4443 55.8403 24.5949C58.4022 24.8508 63.8472 25.1282 64.263 25.0238C64.8526 24.8759 65.277 23.9456 64.9952 23.419C64.6061 22.6919 64.2317 22.5929 60.8247 22.314C56.0157 21.9203 54.9586 21.9356 54.5335 22.4053ZM35.1784 22.6209C30.8305 23.1421 25.6823 24.0757 23.3994 24.7568C22.2726 25.093 21.8187 25.8028 22.2469 26.5595C22.7776 27.4977 22.9648 27.5134 25.8229 26.8624C27.2806 26.5304 28.9473 26.1704 29.5269 26.0624C31.1352 25.7629 36.384 25.0937 37.1252 25.0937C37.8833 25.0937 38.7226 24.3891 38.7226 23.7527C38.7226 23.5324 38.5109 23.1406 38.2523 22.882C37.7406 22.3701 37.4656 22.3467 35.1784 22.6209ZM50.973 28.2548L52.5225 30.9369L50.7855 30.992C49.8301 31.0225 48.3235 31.0225 47.4375 30.992L45.8265 30.9369L47.4729 28.0986C48.3785 26.5375 49.1879 25.3305 49.2716 25.4166C49.3552 25.5024 50.1209 26.7796 50.973 28.2548ZM38.1479 26.2622C34.864 26.5469 29.8265 27.2434 29.1985 27.4996C28.4437 27.8073 28.1875 28.5707 28.5962 29.2952C28.8422 29.7315 28.9925 29.7866 29.9186 29.7799C30.4934 29.7759 32.4293 29.5861 34.2205 29.3581C36.0118 29.1301 38.2776 28.8849 39.2556 28.8134C40.5841 28.7163 41.1535 28.5893 41.5066 28.3115C42.1528 27.8032 42.1384 26.9708 41.4746 26.4488C40.9345 26.0239 40.9114 26.0225 38.1479 26.2622ZM56.2998 26.3769C56.1155 26.5835 55.9646 27.0124 55.9646 27.3302C55.9646 28.3498 56.3901 28.5278 59.3356 28.7399C61.6617 28.9073 64.5683 29.2037 67.97 29.62C69.3348 29.787 69.854 29.6188 70.1454 28.9155C70.3605 28.3962 70.3442 28.2651 70.007 27.8115C69.6982 27.3959 69.3702 27.2534 68.3026 27.0708C66.3422 26.7358 61.5523 26.248 58.934 26.1168C56.8115 26.0106 56.6094 26.0306 56.2998 26.3769Z" fill="#FF150F"/>
</svg>
