<?xml version="1.0" standalone="no"?>
<!DOCTYPE svg PUBLIC "-//W3C//DTD SVG 1.1//EN" "http://www.w3.org/Graphics/SVG/1.1/DTD/svg11.dtd" >
<svg xmlns="http://www.w3.org/2000/svg" xmlns:xlink="http://www.w3.org/1999/xlink" version="1.1">
<metadata></metadata>
<defs>
<font id="eurostiledcdbolregular" horiz-adv-x="1024" >
<font-face units-per-em="2048" ascent="1536" descent="-512" />
<missing-glyph horiz-adv-x="588" />
<glyph horiz-adv-x="0" />
<glyph horiz-adv-x="682" />
<glyph unicode=" "  horiz-adv-x="588" />
<glyph unicode="&#x09;" horiz-adv-x="588" />
<glyph unicode="&#xa0;" horiz-adv-x="588" />
<glyph unicode="!" horiz-adv-x="592" d="M157 1365h278l-27 -894h-228zM166 0v286h261v-286h-261z" />
<glyph unicode="&#x22;" horiz-adv-x="758" d="M91 1365h216l-31 -546h-154zM452 1365h216l-31 -546h-155z" />
<glyph unicode="#" horiz-adv-x="1119" d="M55 327l26 162h179l34 212h-180l26 162h180l51 325h178l-52 -325h210l52 325h179l-51 -325h178l-25 -162h-179l-34 -212h180l-25 -162h-180l-52 -327h-179l52 327h-210l-52 -327h-178l52 327h-180zM438 489h210l34 212h-210z" />
<glyph unicode="$" horiz-adv-x="1196" d="M79 343v37l1 26h233q1 -26 1 -35q0 -84 16 -115q26 -47 122 -48q25 -1 62 -2v304q-194 7 -275 41q-94 40 -125 131q-22 61 -22 168q0 155 52 228q72 101 267 116q42 4 103 4v119h166v-119q177 -6 248 -33q155 -58 155 -279q0 -1 -1 -56h-226q-1 27 -1 36q-2 59 -13 80 q-16 33 -79 39q-30 2 -83 3v-279q204 -11 279 -41q97 -39 133 -135q26 -67 26 -166q0 -127 -37 -210q-60 -132 -274 -150q-47 -4 -127 -6v-137h-166v137q-117 1 -175 9.5t-108 33.5q-152 74 -152 299zM327 858q0 -93 40 -118q27 -17 72 -20l58 -2l17 -1v272q-94 -2 -121 -10 q-39 -11 -54 -42q-12 -28 -12 -79zM680 205h18q105 0 145 32q39 32 39 123q0 92 -37 115t-165 26v-296z" />
<glyph unicode="%" horiz-adv-x="1925" d="M54 836q0 128 5 170q13 119 137 164q67 24 240 24q157 0 224 -24q123 -45 137 -164q5 -39 5 -173q0 -135 -5 -174q-14 -120 -137 -164q-67 -24 -232 -24t-232 24q-124 45 -137 164q-5 41 -5 177zM257 833q2 -101 3.5 -120.5t9.5 -35.5q12 -25 59 -31q29 -3 107 -3 q84 0 115 9q41 13 45 81q1 15 3 100q-2 133 -12 154q-12 25 -57 31q-30 4 -109 4q-85 0 -113 -7q-43 -11 -48 -70q-2 -17 -3 -112zM542 0l655 1188h185l-657 -1188h-183zM1123 359q0 128 5 170q13 119 137 164q67 24 239 24q157 0 224 -24q124 -45 137 -164q5 -40 5 -174 t-5 -174q-13 -119 -137 -164q-67 -24 -232 -24q-164 0 -231 24q-124 45 -137 164q-5 42 -5 178zM1326 355q2 -101 3.5 -120.5t9.5 -35.5q12 -25 59 -31q30 -3 107 -3q83 0 114 10q41 12 45 80q1 15 3 100q-2 134 -12 155q-12 25 -57 31q-29 4 -108 4q-85 0 -113 -7 q-43 -11 -48 -70q-2 -18 -3 -113z" />
<glyph unicode="&#x26;" horiz-adv-x="1280" d="M89 376q0 184 84 251q43 34 134 52q-35 40 -49 79q-15 40 -15 104q0 184 96 250q60 41 149 50q64 7 134 7q174 0 253 -39q113 -55 128 -207q3 -38 3 -153h-237q-1 46 -1 59q0 91 -18 110q-22 24 -115 24q-100 0 -125 -23q-19 -17 -19 -79q0 -49 17 -73q14 -20 60 -58 l306 -262v30q0 41 -2 94h231q1 -50 1 -72q0 -152 -20 -229l169 -144l-132 -160l-133 113q-49 -49 -81.5 -69.5t-79.5 -30.5q-60 -13 -204 -13q-243 0 -328 25q-135 39 -179 163q-27 79 -27 201zM339 380q0 -123 35 -153q29 -24 94 -27q47 -2 106 -2q134 0 177 11q28 7 59 43 l-344 287q-63 -1 -91 -21q-24 -17 -31 -52q-5 -27 -5 -86z" />
<glyph unicode="'" horiz-adv-x="398" d="M91 1365h216l-31 -546h-154z" />
<glyph unicode="(" horiz-adv-x="714" d="M137 573q0 498 14 597q14 100 43 161.5t82 104.5q81 66 239 76q34 2 103 3v-231q-131 1 -169 -60q-30 -43 -33 -153q-4 -214 -4 -498q0 -281 4 -497q2 -92 25.5 -139t75.5 -62q39 -12 101 -12v-231q-118 1 -186 12q-138 22 -212 127q-66 95 -78 300q-5 84 -5 502z" />
<glyph unicode=")" horiz-adv-x="714" d="M96 -137q131 -1 169 60q30 43 33 153q4 217 4 497q0 279 -4 498q-2 92 -25.5 139t-75.5 62q-39 11 -101 12v231q118 -1 186 -12q138 -22 212 -127q67 -95 78 -301q5 -84 5 -502q0 -497 -14 -596q-14 -100 -43 -161.5t-82 -104.5q-81 -66 -239 -76q-34 -2 -103 -3v231z " />
<glyph unicode="*" horiz-adv-x="984" d="M68 1012l53 149l293 -105v309h155v-309l295 105l51 -157l-292 -102l175 -249l-123 -92l-178 259l-193 -259l-125 92l182 250z" />
<glyph unicode="+" horiz-adv-x="1120" d="M52 467v213h391v401h233v-401h392v-213h-392v-401h-233v401h-391z" />
<glyph unicode="," horiz-adv-x="503" d="M109 -140q60 1 88 17q38 22 38 86v37h-104v282h262v-273q0 -136 -29 -187q-50 -87 -202 -87q-18 0 -53 2v123z" />
<glyph unicode="-" horiz-adv-x="525" d="M1 482v253h524v-253h-524z" />
<glyph unicode="." horiz-adv-x="480" d="M109 0v286h262v-286h-262z" />
<glyph unicode="/" horiz-adv-x="1130" d="M0 -204l933 1569h197l-932 -1569h-198z" />
<glyph unicode="0" horiz-adv-x="1153" d="M94 603q0 220 6 286q11 104 51 166.5t122 100.5q60 29 154 36q67 5 161 5q206 0 293 -40q115 -54 153 -167q23 -67 25 -199q1 -116 1 -197q0 -231 -6 -296q-10 -103 -51 -166.5t-122 -101.5q-47 -22 -115 -31t-189 -9t-189 9t-115 31q-115 54 -153 166q-23 68 -25 200 q-1 124 -1 207zM337 594q3 -200 5 -239t12 -72q19 -56 89 -70q36 -7 141 -7q123 0 165 22q48 24 60 105q9 62 9 282q0 236 -17 288q-17 54 -84 69q-39 9 -155 9q-112 0 -151 -16q-49 -20 -63 -85q-9 -42 -11 -286z" />
<glyph unicode="1" horiz-adv-x="867" d="M19 825l389 363h296v-1188h-247v949l-288 -286z" />
<glyph unicode="2" horiz-adv-x="1085" d="M87 0v256q0 96 18 154t59 97q53 49 154 74q33 8 158 30q145 25 185 38q66 20 78 66q9 36 9 110q0 99 -28 128q-33 34 -180 34q-146 0 -179 -32q-31 -30 -31 -136v-68h-240q0 26 1 62q0 146 25 208q40 98 145 139q93 37 287 37q180 0 268 -34q122 -48 157 -174 q18 -67 18 -180q0 -133 -31 -202q-41 -95 -159 -137q-60 -22 -209 -49q-138 -24 -166 -31q-67 -18 -83 -59q-12 -31 -12 -106v-17h660v-208h-904z" />
<glyph unicode="3" horiz-adv-x="1126" d="M84 343q0 22 1 77h242v-65q0 -103 35 -129t204 -26q145 0 178 32q29 28 29 140q0 58 -13 85q-22 45 -108 50q-24 1 -147 1q-40 -1 -52 -1v199h14l33 -1q121 1 145 2q88 5 103 54q8 26 8 72q0 77 -14 110q-15 32 -78 40q-36 4 -121 4q-137 0 -168 -25q-32 -26 -32 -122 v-24v-30h-240q1 36 1 57q0 117 20.5 179t72.5 102q68 53 176 65q79 8 168 8q190 0 274 -27q129 -42 167 -147q20 -57 20 -144q0 -162 -70 -228q-28 -26 -76 -43q54 -13 87 -41q76 -61 76 -228q0 -188 -90 -266q-63 -55 -152 -69q-92 -14 -214 -14q-186 0 -269 22 q-144 38 -188 169q-22 65 -22 162z" />
<glyph unicode="4" horiz-adv-x="1112" d="M48 249v265l514 674h360v-742h133v-197h-133v-249h-247v249h-627zM270 446h405v530z" />
<glyph unicode="5" horiz-adv-x="1126" d="M108 362h242q1 -15 2 -35q4 -76 34 -99q37 -28 162 -28q155 0 198 34q24 19 29 83q2 24 2 115q0 121 -35 156q-34 33 -165 33q-126 0 -166 -12q-39 -13 -49 -45q-2 -7 -6 -25h-224v649h841v-198h-609l-3 -235q33 33 68 45q69 24 195 24q121 0 194 -21.5t120 -70.5 q60 -63 75 -163q10 -71 10 -160q0 -120 -18 -192.5t-61 -121.5q-56 -64 -149 -84q-103 -21 -243 -21q-177 0 -257 28q-170 59 -185 263q-1 22 -2 81z" />
<glyph unicode="6" horiz-adv-x="1126" d="M103 552q0 253 9 342q10 103 47.5 164t113.5 97q89 42 291 42q189 0 268 -24q187 -54 187 -290q0 -20 -1 -48h-245v34q0 71 -26 94q-29 25 -146 25q-129 0 -171 -11q-62 -15 -73 -90q-4 -33 -4 -78v-155q29 41 64 56q60 26 193 26q179 0 254 -29q104 -39 140 -141 q24 -69 24 -184q0 -202 -74 -290q-62 -73 -164 -89q-87 -13 -202 -13q-137 0 -208 10.5t-122 38.5q-95 53 -127 152q-28 88 -28 361zM349 398q0 -98 11 -132q16 -49 89 -61q40 -7 115 -7q156 0 190 28q31 27 31 136q0 118 -30 143q-31 26 -188 26q-143 0 -185 -29 q-33 -22 -33 -104z" />
<glyph unicode="7" horiz-adv-x="1058" d="M76 970v218h890v-234l-473 -954h-277l494 970h-634z" />
<glyph unicode="8" horiz-adv-x="1126" d="M96 325q0 130 31 187q29 52 73 77q20 11 61 24q-60 21 -81 41q-68 66 -68 216q0 178 83 251q67 59 176 69q85 7 201 7q192 0 262 -22q118 -37 158 -145q23 -66 23 -162q0 -137 -59 -204q-23 -26 -91 -52q66 -18 99 -52q45 -46 56 -105q10 -53 10 -118 q0 -105 -20.5 -166.5t-67.5 -101.5q-65 -54 -165 -67q-92 -12 -211 -12q-186 0 -271 23q-141 39 -181 162q-18 57 -18 150zM339 364q0 -109 29 -136q30 -27 204 -27q149 0 183 29q32 26 32 131q0 87 -27 116q-19 20 -71 27q-35 5 -136 5q-109 0 -147 -11q-45 -13 -59 -51 q-8 -24 -8 -83zM355 862q0 -98 28 -126q18 -19 63 -24q31 -4 147 -4q85 0 114 8q47 14 59 64q6 27 6 78q0 86 -28 109q-30 24 -180 24q-106 0 -141 -7q-52 -11 -62 -56q-6 -23 -6 -66z" />
<glyph unicode="9" horiz-adv-x="1126" d="M92 309v45h242v-14v-22q0 -73 32 -96q27 -20 85 -21q57 -1 111 -1q110 0 154 18q41 16 51 74q5 32 5 120v123q-24 -33 -43 -45q-43 -25 -94 -30q-57 -7 -129 -7q-157 0 -234 26q-99 34 -140 119q-31 65 -31 206q0 123 23 198t73 117q67 57 173 69q84 9 186 9 q201 0 289 -37q144 -60 168 -268q8 -72 8 -282q0 -241 -7 -311q-11 -105 -47.5 -168t-106.5 -98q-89 -43 -319 -43q-168 0 -241 18q-143 36 -185 148q-23 60 -23 153zM344 824q0 -113 31 -140t184 -27t190 34q25 24 25 106q0 124 -31 157q-21 23 -78 30q-32 4 -118 4 q-139 0 -171 -28q-32 -27 -32 -136z" />
<glyph unicode=":" horiz-adv-x="480" d="M109 0v286h262v-286h-262zM109 813v286h262v-286h-262z" />
<glyph unicode=";" horiz-adv-x="503" d="M109 -140q60 1 88 17q38 22 38 86v37h-104v282h262v-273q0 -136 -29 -187q-50 -87 -202 -87q-18 0 -53 2v123zM126 813v286h262v-286h-262z" />
<glyph unicode="&#x3c;" d="M68 455v238l887 458v-282l-588 -296l588 -296v-281z" />
<glyph unicode="=" horiz-adv-x="1120" d="M52 274v213h1016v-213h-1016zM52 660v213h1016v-213h-1016z" />
<glyph unicode="&#x3e;" d="M69 -4v281l588 296l-588 296v282l887 -458v-238z" />
<glyph unicode="?" horiz-adv-x="952" d="M109 1027v42q0 172 67 235q80 75 318 75q109 0 171 -16t105 -55q49 -45 62 -116q10 -58 10 -133q0 -90 -11.5 -142.5t-39.5 -95.5q-27 -40 -69 -64q-13 -7 -56 -29q-46 -25 -65 -38q-38 -27 -42 -86q0 -44 -1 -144h-249q0 135 3 187q6 103 55 151q26 25 93 60 q100 52 117 73q29 35 29 126q0 69 -27 94q-20 17 -100 17q-92 0 -114 -25q-18 -21 -18 -91v-25h-238zM298 0v286h260v-286h-260z" />
<glyph unicode="@" horiz-adv-x="1574" d="M89 692q0 300 44 423q69 193 296 238q127 26 412 26q303 0 413 -35q117 -37 167 -128q65 -119 65 -384q0 -318 -67 -426q-56 -89 -213 -89q-135 0 -189 43q-37 31 -43 87h-6q-43 -135 -245 -135q-114 0 -173 30q-83 43 -109 147q-18 71 -18 196q0 156 12 218q9 46 41 87 t74 61q66 31 171 31q98 0 156 -30q41 -20 66 -77l6 -1v104h198v-480q3 -68 7 -84q11 -45 64 -45q50 0 69 35q31 60 31 301q0 195 -23 277q-30 106 -164 122q-95 11 -273 11q-293 0 -391 -20q-119 -23 -159 -105q-49 -99 -49 -373q0 -272 31 -385t137 -147q102 -33 363 -33 q249 0 341 29q44 14 64 57l131 -88q-35 -74 -103 -109q-70 -35 -206 -47q-91 -8 -247 -8q-287 0 -413 44q-184 64 -231 238q-37 134 -37 424zM627 718q0 -133 18 -188q16 -49 65 -60q24 -5 66 -5q81 0 114 23q43 30 46 114q3 58 3 142q0 117 -43 155q-37 32 -120 32 q-104 0 -131 -61q-18 -40 -18 -152z" />
<glyph unicode="A" horiz-adv-x="1513" d="M7 -204l522 1569h446l531 -1569h-309l-101 301h-677l-97 -301h-315zM490 321h538l-271 814z" />
<glyph unicode="B" horiz-adv-x="1506" d="M143 -204v1569h775q227 0 317 -51q92 -52 128 -167q23 -76 23 -198q0 -121 -27 -188q-46 -118 -205 -153v-6q107 -18 159 -54q110 -76 110 -318q0 -154 -38 -242q-45 -104 -140 -147q-99 -45 -286 -45h-816zM444 47h327q103 0 170 4q129 9 162 79q20 41 20 129 q0 96 -19 141q-31 70 -131 80q-38 4 -149 4h-380v-437zM444 707h364q163 0 209 27t61 85q9 37 9 101q0 85 -19 124q-28 57 -106 67q-28 3 -93 3h-425v-407z" />
<glyph unicode="C" horiz-adv-x="1483" d="M88 708q0 230 32 355q38 150 180 234q105 63 282 76q79 6 267 6q218 0 309 -30q202 -65 233 -312q6 -51 10 -193h-299q0 30 -1 40q-1 85 -15.5 130.5t-46.5 68.5q-55 38 -239 38q-157 0 -238 -16q-134 -25 -153 -173q-9 -74 -9 -267q0 -50 2 -274q3 -243 87 -304 q64 -46 271 -46q244 0 305 53q53 46 53 185q0 26 -2 76h299q-1 -40 -1 -52v-23q0 -112 -9 -176q-10 -71 -35 -119q-79 -153 -282 -188q-88 -15 -359 -15q-148 0 -223.5 9t-140.5 33q-216 83 -254 341q-23 156 -23 543z" />
<glyph unicode="D" horiz-adv-x="1599" d="M143 -204v1569h774q141 0 256 -28q163 -40 254 -193q69 -117 80 -318q3 -44 3 -119q0 -292 -9 -405q-9 -118 -32.5 -192t-71.5 -139q-67 -89 -182.5 -132t-287.5 -43h-784zM444 55h424q104 0 174 23q122 40 146 199q16 100 16 307q0 199 -13 297q-20 158 -138 200 q-62 23 -167 23h-442v-1049z" />
<glyph unicode="E" horiz-adv-x="1319" d="M143 -204v1569h1073v-251h-772v-404h732v-221h-732v-442h779v-251h-1080z" />
<glyph unicode="F" horiz-adv-x="1230" d="M143 -204v1569h1039v-251h-738v-423h700v-249h-700v-646h-301z" />
<glyph unicode="G" horiz-adv-x="1549" d="M89 413q0 296 6 428q13 307 173 432q108 84 269 97q108 8 281 8q172 0 255.5 -7t142.5 -26q149 -49 203 -181q34 -83 37 -271h-302q-6 118 -38 165t-129 59q-65 8 -210 8q-162 0 -242 -25q-95 -30 -124 -151q-13 -56 -16 -349q3 -254 5 -298q6 -107 34.5 -161.5 t88.5 -75.5q83 -29 278 -29q242 0 300 56q60 59 60 245q0 22 -2 71h-394v223h691q5 -100 5 -308q0 -219 -42 -315q-74 -167 -277 -205q-104 -20 -384 -20q-233 0 -339 29q-244 67 -307 327q-23 95 -23 274z" />
<glyph unicode="H" horiz-adv-x="1618" d="M143 -204v1569h301v-641h729v641h301v-1569h-301v671h-729v-671h-301z" />
<glyph unicode="I" horiz-adv-x="588" d="M143 -204v1569h301v-1569h-301z" />
<glyph unicode="J" horiz-adv-x="1221" d="M47 297q0 58 3 114h285q-1 -71 -1 -130q0 -153 31 -193q28 -35 87 -42q45 -5 108 -5q113 0 154 30q54 38 60 144q3 50 3 104v1046h301v-1083q0 -106 -6 -171q-18 -196 -175 -279q-96 -50 -330 -50q-247 0 -355 55q-109 55 -143 172q-22 78 -22 288z" />
<glyph unicode="K" horiz-adv-x="1522" d="M143 -204v1569h301v-639h141l521 639h371l-634 -766l699 -803h-381l-575 671h-142v-671h-301z" />
<glyph unicode="L" horiz-adv-x="1204" d="M143 -204v1569h301v-1304h733v-265h-1034z" />
<glyph unicode="M" horiz-adv-x="2121" d="M143 -204v1569h485l431 -1134l424 1134h494v-1569h-297v1266l-482 -1266h-272l-486 1258v-1258h-297z" />
<glyph unicode="N" horiz-adv-x="1743" d="M143 -204v1569h503l654 -1286v1286h299v-1569h-506l-654 1284v-1284h-296z" />
<glyph unicode="O" horiz-adv-x="1578" d="M89 530q0 318 16 423q22 143 79.5 228.5t165.5 136.5q94 43 240 54q95 6 227 6q155 0 246.5 -12t157.5 -41q208 -90 252 -358q16 -94 16 -372q0 -289 -14 -385q-22 -144 -77 -229.5t-158 -134.5q-100 -47 -256 -58q-95 -6 -218 -6q-175 0 -274.5 16t-172.5 55 q-137 74 -188 224q-34 101 -39 239q-3 89 -3 214zM395 519q0 -161 5 -218q9 -103 35.5 -156.5t79.5 -75.5q48 -20 131 -25q63 -3 153 -3q195 0 258 28q76 34 104 140q20 72 21 189q1 33 1 200q0 211 -5 264q-8 100 -34.5 152t-79.5 76q-47 21 -128 26q-59 3 -154 3 q-196 0 -261 -27q-80 -34 -108 -141q-16 -64 -17 -180q-1 -80 -1 -252z" />
<glyph unicode="P" horiz-adv-x="1452" d="M143 -204v1569h635q134 0 179 -1q136 -4 219 -39.5t137 -113.5q83 -118 83 -373q0 -242 -59 -353q-73 -138 -246 -169q-43 -8 -297 -13h-350v-507h-301zM444 562h340q163 0 216 23q61 26 80 106q10 42 10 131q0 135 -19 194q-29 85 -150 96q-28 2 -108 2h-369v-552z" />
<glyph unicode="Q" horiz-adv-x="1578" d="M89 523q0 325 16 430q22 142 80 229t165 136q93 43 237 53q95 7 215 7q165 0 259.5 -12t160.5 -41q207 -91 251 -358q16 -93 16 -392q0 -278 -13 -370q-6 -39 -18 -86l164 -113l-123 -179l-150 103q-79 -79 -191 -113q-110 -34 -376 -34q-190 0 -289 15t-174 56 q-142 76 -193 242q-28 92 -34 220q-3 76 -3 207zM395 498q0 -136 5 -197q9 -103 35.5 -156t79.5 -75q49 -21 131 -25q60 -4 153 -4h59q107 0 160 22q33 13 77 44l-366 247l124 180l324 -220q6 89 6 115v157q-1 234 -4 276q-10 99 -36.5 152t-78.5 77q-46 20 -125 25 q-58 3 -141 3q-125 0 -182 -5.5t-95 -21.5q-93 -40 -114 -172q-11 -74 -12 -264v-158z" />
<glyph unicode="R" horiz-adv-x="1533" d="M143 -204v1569h770q225 0 332 -59q115 -62 155 -193q23 -78 23 -213q0 -171 -26 -254q-38 -122 -156 -166q-34 -13 -101 -26v-11q266 -15 266 -293v-12v-342h-304v283q1 134 -57 190q-58 50 -167 50h-12h-422v-523h-301zM444 575h422q136 0 191 47q43 37 55 104 q5 31 5 115q0 122 -15 166q-27 78 -127 94q-36 5 -90 5h-441v-531z" />
<glyph unicode="S" horiz-adv-x="1431" d="M82 293h290q1 -93 7.5 -132t28.5 -71q35 -53 131 -61q40 -4 211 -4q124 0 178.5 12.5t85.5 47.5q38 43 38 180q0 78 -21 119q-23 45 -81 61q-37 9 -284 24q-196 12 -258 22q-184 30 -258 140q-62 93 -62 292q0 271 124 361q96 71 249 84q116 10 259 10q234 0 334 -25 q171 -43 227 -190q30 -78 30 -194q0 -25 -1 -62h-290q-1 123 -28 165q-30 45 -107 59q-50 9 -150 9q-127 0 -185 -8t-95 -30q-66 -40 -66 -171q0 -93 27 -139q32 -54 151 -66q38 -3 225 -14q204 -11 281 -27q172 -37 234 -157q42 -81 42 -258q0 -148 -22.5 -233t-73.5 -135 q-94 -91 -264 -108q-113 -11 -268 -11q-164 0 -252 7.5t-150 26.5q-154 47 -205 190q-29 80 -32 286z" />
<glyph unicode="T" horiz-adv-x="1287" d="M33 1100v265h1220v-265h-466v-1304h-301v1304h-453z" />
<glyph unicode="U" horiz-adv-x="1592" d="M143 304v1061h301v-1061q0 -131 27 -178q32 -57 138 -75q55 -10 183 -10q188 0 258 25q80 30 93 160q4 35 4 90v1049h301v-1044q0 -219 -43 -314q-32 -69 -97 -121.5t-149 -76.5q-97 -27 -339 -27q-191 0 -287.5 11t-165.5 41q-145 61 -192 196q-32 90 -32 274z" />
<glyph unicode="V" horiz-adv-x="1490" d="M13 1365h310l421 -1311l418 1311h315l-506 -1569h-457z" />
<glyph unicode="W" horiz-adv-x="2370" d="M13 1365h304l330 -1283l363 1283h349l353 -1283l340 1283h305l-420 -1569h-440l-315 1193l-327 -1193h-435z" />
<glyph unicode="X" horiz-adv-x="1495" d="M-1 -204l515 810l-478 759h355l362 -609l361 609h351l-471 -759l502 -810h-349l-391 664l-399 -664h-358z" />
<glyph unicode="Y" horiz-adv-x="1448" d="M-1 1365h345l375 -654l379 654h350l-582 -970v-599h-301v599z" />
<glyph unicode="Z" horiz-adv-x="1389" d="M68 53l860 1049v9h-822v254h1206v-253l-867 -1053v-9h877v-254h-1254v257z" />
<glyph unicode="[" horiz-adv-x="714" d="M150 -354v1855h468v-209h-199v-1436h199v-210h-468z" />
<glyph unicode="\" horiz-adv-x="1130" d="M0 1365h197l933 -1569h-197z" />
<glyph unicode="]" horiz-adv-x="714" d="M96 -145h200v1436h-200v210h469v-1855h-469v209z" />
<glyph unicode="^" d="M36 726l318 646h315l318 -646h-252l-224 455l-223 -455h-252z" />
<glyph unicode="_" d="M0 -121h1024v-170h-1024v170z" />
<glyph unicode="`" d="M198 1474l95 177l373 -244l-57 -110z" />
<glyph unicode="a" horiz-adv-x="1173" d="M6 0l402 1161h350l408 -1161h-268l-76 214h-469l-74 -214h-273zM421 420h334l-168 535z" />
<glyph unicode="b" horiz-adv-x="1192" d="M129 0v1161h607q169 0 238 -40q118 -68 118 -277q0 -127 -40 -180q-35 -47 -119 -62q82 -6 123 -47q63 -63 63 -224q0 -212 -116 -284q-76 -47 -238 -47h-636zM392 206h240q156 3 185 17q31 14 39 51q4 21 4 64q0 79 -11 106q-17 40 -76 46q-23 2 -103 2h-278v-286z M392 690h266q109 0 137 16q25 15 32 48q6 24 6 76q0 63 -11 87q-15 31 -57 36q-19 2 -63 2h-310v-265z" />
<glyph unicode="c" horiz-adv-x="1161" d="M80 674q0 160 24 256q29 116 138 182q81 49 211 58q56 4 216 4q175 0 242 -22q155 -53 179 -243q5 -41 8 -165h-259q-1 41 -1 53q-1 102 -35 127q-31 24 -172 24q-131 0 -185 -11q-42 -9 -63 -33.5t-27 -72.5q-5 -44 -8 -267q2 -160 6 -197q8 -83 35 -113q28 -33 103 -38 q48 -3 102 -3q182 0 218 33q30 27 30 117q0 26 -2 81h259v-60v-9q0 -164 -34 -231q-62 -119 -217 -146q-65 -11 -259 -11q-133 0 -191 6.5t-108 25.5q-140 56 -183 213q-27 97 -27 442z" />
<glyph unicode="d" horiz-adv-x="1260" d="M129 0v1161h607q119 0 199.5 -25t132.5 -78q92 -96 108 -272q4 -44 4 -113q0 -212 -6 -293q-10 -129 -53.5 -209t-125.5 -123q-94 -48 -252 -48h-614zM392 230h309q132 0 173 57q30 43 37 135q5 63 5 162q0 136 -9 207q-12 98 -83 123q-40 15 -110 15h-322v-699z" />
<glyph unicode="e" horiz-adv-x="1060" d="M129 0v1161h840v-225h-577v-241h548v-203h-548v-267h582v-225h-845z" />
<glyph unicode="f" horiz-adv-x="987" d="M129 0v1161h815v-225h-552v-254h526v-223h-526v-459h-263z" />
<glyph unicode="g" horiz-adv-x="1212" d="M80 461q0 213 4 308q10 230 132 325q83 65 204 74q81 6 194 6q156 0 219.5 -5t109.5 -20q153 -52 178 -226q7 -44 8 -143h-260q-5 102 -23 131q-17 28 -78 36q-46 5 -166 5q-119 0 -171 -16q-59 -18 -76 -94q-9 -40 -11 -248q2 -183 4 -214q5 -86 28 -119q27 -39 102 -46 q65 -6 142 -6q182 0 216 34q36 37 36 167v25h-281v205h537q4 -89 4 -243q0 -145 -25.5 -219.5t-91.5 -122.5q-66 -50 -163 -59q-102 -9 -242 -9q-204 0 -280 22q-185 51 -233 251q-17 70 -17 201z" />
<glyph unicode="h" horiz-adv-x="1284" d="M129 0v1161h263v-455h500v455h263v-1161h-263v477h-500v-477h-263z" />
<glyph unicode="i" horiz-adv-x="521" d="M129 0v1161h263v-1161h-263z" />
<glyph unicode="j" horiz-adv-x="984" d="M43 379q0 44 3 104h248v-115q0 -106 17 -128q14 -20 47 -23q34 -4 98 -4q78 0 101 17q29 22 33 89q2 30 2 76v766h263v-793q0 -114 -10.5 -167.5t-40.5 -95.5q-53 -75 -142 -100q-65 -18 -195 -18q-216 0 -296 43q-85 45 -111 137q-17 58 -17 212z" />
<glyph unicode="k" horiz-adv-x="1210" d="M129 0v1161h263v-454h78l386 454h324l-485 -567l533 -594h-333l-423 477h-80v-477h-263z" />
<glyph unicode="l" horiz-adv-x="965" d="M129 0v1161h263v-926h549v-235h-812z" />
<glyph unicode="m" horiz-adv-x="1675" d="M129 0v1161h379l329 -837l324 837h385v-1161h-260v839l-334 -839h-225l-337 839v-839h-261z" />
<glyph unicode="n" horiz-adv-x="1376" d="M129 0v1161h381l475 -880v880h262v-1161h-384l-475 877v-877h-259z" />
<glyph unicode="o" horiz-adv-x="1232" d="M80 542q0 232 12 309q16 108 60 173t126 105q72 33 183 40q72 5 177 5q124 0 192 -8.5t119 -31.5q158 -70 191 -273q12 -70 12 -270q0 -207 -11 -279q-16 -108 -58 -173t-120 -103q-75 -37 -195 -44q-73 -5 -172 -5q-138 0 -212 12t-130 42q-104 58 -143 173 q-25 76 -29 177q-2 63 -2 151zM344 533q0 -190 22 -249q20 -52 89 -64q38 -7 178 -7q138 0 178 18q60 26 73 151q4 40 4 198q0 165 -3 203q-6 67 -21.5 100t-48.5 47q-40 18 -203 18q-149 0 -191 -17q-63 -26 -73 -149q-4 -44 -4 -249z" />
<glyph unicode="p" horiz-adv-x="1149" d="M129 0v1161h508q141 0 185.5 -4t89.5 -21q122 -44 164 -173q24 -72 24 -201q0 -178 -45 -261q-58 -107 -191 -131q-31 -6 -215 -10h-257v-360h-263zM392 591h249q109 0 143 14q34 13 45 60q7 28 7 86q0 92 -12 129q-15 49 -88 54q-19 2 -74 2h-270v-345z" />
<glyph unicode="q" horiz-adv-x="1216" d="M80 539q0 234 12 312q31 205 186 278q70 33 181 40q72 5 167 5q132 0 202.5 -8.5t120.5 -31.5q157 -70 191 -273q12 -70 12 -307q0 -131 -3 -174q-4 -39 -16 -118l122 -83l-113 -166l-110 75q-52 -50 -130 -75q-82 -26 -308 -26q-136 0 -210 12t-130 42q-136 76 -164 272 q-10 67 -10 226zM344 540q0 -141 8 -199q12 -89 66 -110q25 -10 85.5 -14t184.5 -4q41 0 59 4q21 6 60 27l-251 170l115 166l216 -147q1 35 1 40v111q0 169 -3 199q-6 67 -22 100t-48 47q-40 18 -189 18q-164 0 -205 -17q-63 -26 -73 -149q-4 -43 -4 -242z" />
<glyph unicode="r" horiz-adv-x="1217" d="M129 0v1161h604q167 0 248 -45q91 -49 121 -150q17 -57 17 -162q0 -100 -12.5 -157t-43.5 -95q-40 -51 -130 -62q91 0 141 -77q33 -51 33 -146v-267h-263v224q1 85 -33 119q-34 29 -102 29h-9h-308v-372h-263zM392 600h308q89 0 120 28q25 21 31 60q4 21 4 79 q0 81 -9 108q-14 44 -73 53q-21 3 -59 3h-322v-331z" />
<glyph unicode="s" horiz-adv-x="1125" d="M74 399h253q0 -70 2 -89q7 -88 66 -101q31 -7 209 -7q82 0 116.5 7.5t52.5 28.5q21 26 21 119q0 86 -47 102q-25 9 -221 20q-161 8 -201 15q-141 23 -198 109q-49 73 -49 221q0 207 98 279q74 54 189 64q87 7 191 7q197 0 270 -19q199 -51 199 -301q0 -24 -1 -65h-252v45 q0 79 -29 103q-32 26 -159 26q-121 0 -157 -6q-62 -11 -79 -54q-10 -28 -10 -72q0 -59 15 -86q17 -30 91 -38q38 -3 174 -9q159 -8 219 -21q133 -28 182 -123q33 -63 33 -196q0 -110 -17.5 -174.5t-58.5 -104.5q-72 -72 -201 -84q-85 -8 -210 -8q-227 0 -307 26 q-158 50 -178 239q-4 39 -6 147z" />
<glyph unicode="t" horiz-adv-x="993" d="M25 926v235h944v-235h-345v-926h-263v926h-336z" />
<glyph unicode="u" horiz-adv-x="1265" d="M129 384v777h263v-777q0 -88 16 -118q18 -35 89 -46q40 -7 138 -7q129 0 177 16q50 17 59 99q2 24 2 64v769h263v-764q0 -164 -34 -236q-54 -115 -196 -153q-75 -21 -260 -21q-140 0 -212.5 8.5t-126.5 30.5q-115 49 -153 153q-25 69 -25 205z" />
<glyph unicode="v" horiz-adv-x="1134" d="M0 1161h269l297 -915l297 915h271l-389 -1161h-358z" />
<glyph unicode="w" horiz-adv-x="1757" d="M0 1161h264l226 -902l246 902h283l240 -901l217 901h281l-319 -1161h-348l-215 814l-221 -814h-345z" />
<glyph unicode="x" horiz-adv-x="1153" d="M-13 0l396 598l-370 563h307l261 -413l258 413h305l-365 -563l387 -598h-303l-281 460l-285 -460h-310z" />
<glyph unicode="y" horiz-adv-x="1118" d="M-12 1161h298l269 -457l272 457h303l-446 -719v-442h-263v442z" />
<glyph unicode="z" horiz-adv-x="1066" d="M49 0v214l626 720h-599v227h934v-212l-631 -722h638v-227h-968z" />
<glyph unicode="{" horiz-adv-x="728" d="M38 471v205q60 12 95 56q37 49 36 146v292q0 158 56 250q39 58 131 83q45 12 100 12h163v-190h-18q-116 0 -155 -37q-36 -33 -41 -86q-5 -52 -5 -79v-267q0 -131 -43 -199q-32 -50 -99 -84q73 -36 106 -96q36 -68 36 -186v-267q0 -100 22 -136q23 -37 55 -48 q50 -18 126 -18h16v-190h-163q-78 0 -139 25t-92 70q-56 90 -56 250v292q1 97 -36 146q-34 42 -95 56z" />
<glyph unicode="|" d="M370 -341v1706h284v-1706h-284z" />
<glyph unicode="}" horiz-adv-x="714" d="M96 -178h18q115 0 155 37q35 34 40 86q5 53 5 79v267q0 131 43 199q32 50 99 83q-73 37 -107 96q-35 69 -35 187v267q0 100 -22 136q-23 37 -55 48q-50 18 -125 18h-16v190h163q77 0 138 -25t92 -70q56 -90 56 -250v-292q-1 -97 37 -146q33 -42 95 -56v-205 q-60 -13 -95 -56q-38 -49 -37 -146v-292q1 -159 -56 -250q-39 -58 -131 -83q-45 -12 -99 -12h-163v190z" />
<glyph unicode="~" horiz-adv-x="1365" d="M190 1255q39 94 87 156q87 115 212 115q72 0 226 -68q127 -57 173 -57q79 0 152 130l139 -115q-48 -109 -92 -164q-88 -109 -208 -109q-50 0 -134 34q-42 18 -148 63q-72 31 -118 31q-55 0 -97 -51q-24 -29 -53 -80z" />
<glyph unicode="&#xa1;" horiz-adv-x="592" d="M157 -205l27 895h228l23 -895h-278zM165 875v286h261v-286h-261z" />
<glyph unicode="&#xa2;" horiz-adv-x="993" d="M102 572q0 193 42 271q72 132 270 139v122h154v-120q102 -2 169 -35t97 -96q29 -65 28 -193h-216q-1 61 -6 82q-14 46 -72 55v-484q57 11 72 38q12 23 14 97l1 24h215v-14v-33q-1 -127 -32 -183q-67 -117 -270 -121v-139h-154v140q-108 3 -183 46q-81 47 -109 158 q-20 79 -20 246zM332 567q0 -193 34 -233q8 -9 48 -19v479q-33 -11 -52 -33q-30 -32 -30 -194z" />
<glyph unicode="&#xa3;" horiz-adv-x="1092" d="M35 443v191h143v156q0 94 4 135q19 164 132 226q90 49 299 49q135 0 215.5 -20t126.5 -64q73 -72 73 -245q0 -16 -2 -77h-247v21v17q0 89 -22 115q-29 34 -138 34q-93 0 -127 -13q-47 -17 -56 -77q-7 -46 -7 -81v-176h311v-191h-311v-25v-30q1 -23 1 -32q0 -66 -22 -103 q-10 -18 -40 -43h669v-210h-969v204q47 5 74 29q31 31 34 89q1 18 2 61v60h-143z" />
<glyph unicode="&#xa4;" horiz-adv-x="1276" d="M87 976l114 114l185 -184q134 81 253 81q98 0 186 -44q24 -12 63 -36l184 182l113 -113l-180 -180q84 -128 84 -257q0 -93 -43 -181q-12 -24 -37 -67l181 -180l-112 -114l-181 180q-122 -84 -250 -84q-126 0 -265 83l-180 -179l-113 113l179 181q-80 118 -80 251 q0 119 83 252zM379 542q0 -108 76 -185q76 -76 184 -76t184 76t76 184q0 111 -76 185q-78 77 -187 77q-104 0 -181 -77q-76 -76 -76 -184z" />
<glyph unicode="&#xa5;" horiz-adv-x="1092" d="M11 1188h282l250 -482l252 482h286l-191 -330h141v-188h-247l-68 -116h315v-188h-365v-366h-252v366h-353v188h305l-66 116h-239v188h136z" />
<glyph unicode="&#xa6;" d="M370 314h284v-655h-284v655zM370 651v714h284v-714h-284z" />
<glyph unicode="&#xa7;" horiz-adv-x="1269" d="M82 514q0 153 56 210q33 33 100 51q-58 41 -79 96q-20 54 -20 159q0 184 66 252q97 100 435 100q184 0 282 -21q72 -16 122.5 -60.5t67.5 -108.5q16 -60 17 -160v-50h-254q-2 95 -12 119q-21 48 -121 58q-51 5 -117 5q-123 0 -163 -15q-34 -13 -47 -41q-11 -24 -11 -71 q0 -72 27 -95q22 -20 125 -45l339 -81q104 -25 150 -43q94 -36 124 -130q19 -57 19 -140q0 -136 -44 -210q-24 -39 -92 -67q66 -29 87 -64q38 -61 38 -190q0 -227 -97 -305q-67 -53 -209 -70q-97 -11 -245 -11q-191 0 -293 24q-132 31 -179 139q-36 80 -36 219v39h249 q2 -72 7 -100q14 -71 102 -87q54 -10 156 -10q183 0 224 23q54 30 54 128q0 77 -39 105q-25 18 -118 39l-440 98q-89 19 -129 42q-68 37 -89 127q-13 53 -13 142zM325 540q0 -68 26 -101q18 -25 49 -34q18 -6 57 -15l318 -74q52 -12 81 -12q108 0 108 168q0 70 -31 98 q-29 26 -130 51l-279 69q-64 16 -88 16q-111 0 -111 -166z" />
<glyph unicode="&#xa8;" d="M193 1362v189h208v-189h-208zM622 1362v189h208v-189h-208z" />
<glyph unicode="&#xa9;" horiz-adv-x="1526" d="M68 681q0 197 102 366q101 165 279 256q148 76 324 76q186 0 353 -103q168 -103 256 -277q76 -150 76 -317q0 -138 -53 -266t-150 -226q-98 -98 -226 -151t-265 -53q-138 0 -266 53t-225 150q-98 98 -151.5 226.5t-53.5 265.5zM202 683q0 -237 166 -404 q164 -166 396 -166q231 0 396 167q164 166 164 401q0 115 -43.5 221.5t-121.5 183.5q-168 166 -402 166q-106 0 -208.5 -43.5t-181.5 -122.5q-78 -79 -121.5 -184.5t-43.5 -218.5zM421 753q0 111 16 173q15 53 58 92t105 53t211 14q113 0 159 -15q106 -33 122 -157 q3 -25 5 -102h-178v23q-1 65 -26 82q-23 16 -107 16q-124 0 -151 -26q-25 -24 -28 -96q-1 -22 -1 -82q0 -165 9 -208q12 -56 67 -67q28 -6 84 -6q112 0 138 22q23 18 23 75q0 14 -1 43h178v-33q0 -114 -24 -158q-42 -78 -146 -95q-40 -7 -164 -7q-150 0 -205 21 q-113 43 -132 171q-12 77 -12 267z" />
<glyph unicode="&#xaa;" horiz-adv-x="779" d="M68 702q0 125 59 173q63 51 204 51q144 0 190 -46v65q0 59 -15 85q-19 32 -105 32q-100 0 -111 -40q-3 -12 -4 -55h-191q0 71 9 106q21 84 125 110q54 13 167 13q146 0 210 -32q87 -42 99 -146q6 -52 6 -76v-450h-191l4 56q-18 -21 -34 -31q-53 -33 -164 -33 q-144 0 -204 54q-54 50 -54 164zM261 712q0 -55 23 -70q26 -16 107 -16q86 0 114 23q18 16 18 59q0 46 -16 61q-27 23 -120 23q-83 0 -108 -20q-18 -13 -18 -60z" />
<glyph unicode="&#xab;" horiz-adv-x="1060" d="M96 583l233 469l177 -101l-181 -368l192 -358l-168 -107zM531 590l232 468l178 -100l-181 -368l191 -358l-168 -107z" />
<glyph unicode="&#xac;" d="M68 343v248h887v-591h-276v343h-611z" />
<glyph unicode="&#xad;" horiz-adv-x="525" d="M1 482v253h524v-253h-524z" />
<glyph unicode="&#xae;" horiz-adv-x="1526" d="M68 681q0 197 102 366q101 165 279 256q148 76 324 76q186 0 353 -103q168 -103 256 -277q76 -150 76 -317q0 -138 -53 -266t-150 -226q-98 -98 -226 -151t-265 -53q-138 0 -266 53t-225 150q-98 98 -151.5 226.5t-53.5 265.5zM202 683q0 -237 166 -404 q164 -166 396 -166q231 0 396 167q164 166 164 401q0 115 -43.5 221.5t-121.5 183.5q-168 166 -402 166q-106 0 -208.5 -43.5t-181.5 -122.5q-78 -79 -121.5 -184.5t-43.5 -218.5zM433 300v779h395q116 0 172 -29q60 -32 81 -98q12 -39 12 -107q0 -107 -25 -154 q-24 -44 -97 -65q114 -23 113 -152v-174h-181v145q1 62 -27 87q-28 24 -85 23h-179v-255h-179zM612 707h179q66 0 92 21q28 23 28 89q0 79 -35 97q-22 12 -75 12h-189v-219z" />
<glyph unicode="&#xaf;" d="M0 1486v170h1024v-170h-1024z" />
<glyph unicode="&#xb0;" horiz-adv-x="766" d="M89 1086q0 126 97 214q84 75 202 75q127 0 215 -97q75 -83 75 -194q0 -130 -96 -216q-85 -76 -199 -76q-124 0 -211 89q-83 85 -83 205zM224 1084q0 -65 44 -110q47 -49 116 -49q71 0 119 53q40 45 40 107q0 68 -52 116q-46 41 -110 41q-68 0 -116 -53q-41 -44 -41 -105z " />
<glyph unicode="&#xb1;" horiz-adv-x="1120" d="M49 -34v220h1022v-220h-1022zM49 631v219h392v331h238v-331h392v-219h-392v-328h-238v328h-392z" />
<glyph unicode="&#xb2;" horiz-adv-x="884" d="M85 341v189q0 129 62 183q42 36 120 53q27 7 120 21q148 24 173 41q23 14 23 97q0 63 -18 80q-21 21 -125 21q-111 0 -132 -19q-20 -18 -20 -86q0 -24 1 -58h-202v14q1 103 8 145q13 83 79 122q82 50 268 50q110 0 175 -16t105 -52q64 -60 64 -209q0 -98 -24 -149 q-34 -69 -126 -100q-47 -15 -159 -34q-134 -22 -161 -34q-27 -17 -27 -91v-1h497v-167h-701z" />
<glyph unicode="&#xb3;" horiz-adv-x="884" d="M71 589q0 24 2 66h202v-14l-1 -45q0 -61 22 -77t164 -16q90 0 112 19q18 17 18 89q0 37 -9 53q-13 27 -73 29q-23 1 -117 1q-21 0 -42 -1v161q27 -1 44 -1q138 0 160 11q24 12 24 66q0 53 -10 72q-8 15 -39 20q-25 4 -101 4q-71 0 -98 -6q-36 -8 -41 -60q-1 -13 -1 -59 v-14h-201v14q0 88 6 125q11 78 69 116t137 46q58 6 129 6q141 0 207 -20q102 -30 132 -107q16 -42 16 -106q0 -140 -86 -185q99 -38 99 -186q0 -138 -72 -195q-50 -40 -119 -50q-71 -10 -162 -10q-121 0 -184.5 11.5t-105.5 40.5q-81 57 -81 202z" />
<glyph unicode="&#xb4;" d="M358 1407l374 244l94 -177l-411 -177z" />
<glyph unicode="&#xb5;" horiz-adv-x="1280" d="M123 -273l14 657v709h263v-709q0 -88 16 -118q18 -35 88 -46q41 -7 139 -7q129 0 177 16q50 17 59 99q2 24 2 65v700h263v-696q0 -163 -34 -236q-54 -114 -196 -153q-75 -21 -248 -21q-204 0 -275 15q-30 7 -69 21l17 -296h-216z" />
<glyph unicode="&#xb6;" horiz-adv-x="1332" d="M89 839q0 134 19.5 222t62.5 150q84 118 247 145q56 9 286 9h485v-1570h-204v1348h-174v-1348h-204v511l-48 1q-142 4 -215.5 25.5t-132.5 75.5q-89 81 -109 225q-13 93 -13 206z" />
<glyph unicode="&#xb7;" horiz-adv-x="480" d="M109 430v286h262v-286h-262z" />
<glyph unicode="&#xb8;" d="M372 -318l209 202l101 -121l-237 -162z" />
<glyph unicode="&#xb9;" horiz-adv-x="884" d="M88 925l305 263h237v-847h-207v646l-207 -189z" />
<glyph unicode="&#xba;" horiz-adv-x="797" d="M68 847q0 153 24 214q40 102 158 125q48 10 159 10q100 0 155 -13.5t91 -46.5q51 -48 64 -132q9 -64 9 -150q0 -125 -15 -193.5t-51 -107.5q-47 -51 -136 -63q-56 -7 -128 -7q-189 0 -256 62q-57 53 -67 154q-7 64 -7 148zM261 849q0 -159 29 -189q23 -24 108 -24 q87 0 111 28q27 32 27 192q0 138 -31 166q-23 21 -108 21q-80 0 -102 -18q-34 -29 -34 -176z" />
<glyph unicode="&#xbb;" horiz-adv-x="1060" d="M109 216l192 359l-181 367l177 101l233 -468l-253 -466zM544 210l191 358l-181 368l178 100l232 -468l-252 -465z" />
<glyph unicode="&#xbc;" horiz-adv-x="2062" d="M74 925l305 263h237v-847h-207v646l-207 -189zM611 0l654 1188h185l-657 -1188h-182zM1235 173v200l393 474h286v-515h100v-159h-100v-173h-207v173h-472zM1435 332h272v329z" />
<glyph unicode="&#xbd;" horiz-adv-x="2062" d="M74 925l305 263h237v-847h-207v646l-207 -189zM611 0l654 1188h185l-657 -1188h-182zM1276 0v189q1 129 62 183q42 35 120 53q27 6 120 21q148 24 173 40q23 15 23 98q0 63 -18 80q-21 21 -125 21q-110 0 -132 -19q-20 -18 -20 -86q0 -25 1 -59h-202v14q1 103 8 145 q13 83 79 123q82 50 268 50q110 0 175 -16t104 -52q65 -61 65 -210q0 -122 -44 -180q-44 -59 -165 -84q-41 -8 -194 -34q-64 -11 -77 -26q-17 -19 -17 -83v-1h497v-167h-701z" />
<glyph unicode="&#xbe;" horiz-adv-x="2062" d="M57 589q0 24 2 66h202v-14l-1 -45q0 -61 22 -77t164 -16q90 0 112 19q18 17 18 89q0 37 -9 53q-13 27 -73 29q-23 1 -117 1q-21 0 -42 -1v161q27 -1 44 -1q138 0 160 11q24 12 24 66q0 53 -10 72q-8 15 -39 20q-25 4 -101 4q-71 0 -98 -6q-36 -8 -41 -60q-1 -13 -1 -59 v-14h-201v14q0 88 6 125q11 78 69 116t137 46q58 6 129 6q141 0 207 -20q102 -30 132 -107q16 -42 16 -106q0 -140 -86 -185q99 -38 99 -186q0 -138 -72 -195q-50 -40 -119 -50q-71 -10 -162 -10q-121 0 -184.5 11.5t-105.5 40.5q-81 57 -81 202zM611 0l654 1188h185 l-657 -1188h-182zM1235 173v200l393 474h286v-515h100v-159h-100v-173h-207v173h-472zM1435 332h272v329z" />
<glyph unicode="&#xbf;" horiz-adv-x="952" d="M109 102q0 90 11.5 142.5t39.5 94.5q27 40 69 64q11 6 56 30q46 24 65 38q39 26 42 85q0 57 1 144h249q0 -135 -3 -187q-6 -103 -55 -151q-26 -24 -93 -59q-99 -52 -117 -73q-29 -34 -29 -126q0 -69 27 -94q20 -17 100 -17q92 0 114 25q18 20 18 90v25h238v-41 q0 -172 -67 -235q-80 -75 -318 -75q-109 0 -171 16t-105 55q-49 45 -62 116q-10 57 -10 133zM393 875v286h260v-286h-260z" />
<glyph unicode="&#xc0;" horiz-adv-x="1513" d="M7 -204l522 1569h446l531 -1569h-309l-101 301h-677l-97 -301h-315zM441 1593l54 191l417 -146l-30 -119zM490 321h538l-271 814z" />
<glyph unicode="&#xc1;" horiz-adv-x="1513" d="M7 -204l522 1569h446l531 -1569h-309l-101 301h-677l-97 -301h-315zM490 321h538l-271 814zM596 1638l418 146l53 -191l-441 -74z" />
<glyph unicode="&#xc2;" horiz-adv-x="1513" d="M7 -204l522 1569h446l531 -1569h-309l-101 301h-677l-97 -301h-315zM385 1592l372 219l372 -219l-51 -104l-321 130l-322 -130zM490 321h538l-271 814z" />
<glyph unicode="&#xc3;" horiz-adv-x="1513" d="M7 -204l522 1569h446l531 -1569h-309l-101 301h-677l-97 -301h-315zM351 1603q43 71 73 105q69 74 165 74q64 0 171 -58q113 -61 156 -61q61 0 116 94l131 -72q-104 -182 -239 -182q-75 0 -181 59q-104 58 -147 58q-45 0 -76 -36q-15 -17 -35 -54zM490 321h538l-271 814z " />
<glyph unicode="&#xc4;" horiz-adv-x="1513" d="M7 -204l522 1569h446l531 -1569h-309l-101 301h-677l-97 -301h-315zM439 1551v187h207v-187h-207zM490 321h538l-271 814zM867 1551v187h207v-187h-207z" />
<glyph unicode="&#xc5;" horiz-adv-x="1513" d="M7 -204l522 1569h446l531 -1569h-309l-101 301h-677l-97 -301h-315zM490 321h538l-271 814zM564 1661q0 83 64 142q54 49 132 49q82 0 140 -64q49 -54 49 -128q0 -86 -64 -144q-54 -49 -128 -49q-86 0 -144 64q-49 55 -49 130zM658 1660q0 -44 32 -74q29 -25 67 -25 q44 0 73 33q25 28 25 66q0 43 -33 73q-27 25 -67 25q-42 0 -72 -33q-25 -28 -25 -65z" />
<glyph unicode="&#xc6;" horiz-adv-x="2248" d="M-14 -204l740 1569h1426v-251h-766v-406h720v-221h-720v-440h766v-251h-1059v302h-633l-141 -302h-333zM558 323h535v791h-160z" />
<glyph unicode="&#xc7;" horiz-adv-x="1483" d="M88 708q0 230 32 355q38 150 180 234q105 63 282 76q79 6 267 6q218 0 309 -30q202 -65 233 -312q6 -51 10 -193h-299q0 30 -1 40q-1 85 -15.5 130.5t-46.5 68.5q-55 38 -239 38q-157 0 -238 -16q-134 -25 -153 -173q-9 -74 -9 -267q0 -50 2 -274q3 -243 87 -304 q64 -46 271 -46q244 0 305 53q53 46 53 185q0 26 -2 76h299q-1 -40 -1 -52q1 -128 -9 -199t-35 -119q-79 -153 -282 -188q-88 -15 -359 -15q-148 0 -223.5 9t-140.5 33q-216 83 -254 341q-23 156 -23 543zM560 -561l256 257l128 -148l-291 -207z" />
<glyph unicode="&#xc8;" horiz-adv-x="1319" d="M143 -204v1569h1073v-251h-772v-404h732v-221h-732v-442h779v-251h-1080zM356 1593l54 191l417 -146l-30 -119z" />
<glyph unicode="&#xc9;" horiz-adv-x="1319" d="M143 -204v1569h1073v-251h-772v-404h732v-221h-732v-442h779v-251h-1080zM511 1638l418 146l53 -191l-441 -74z" />
<glyph unicode="&#xca;" horiz-adv-x="1319" d="M143 -204v1569h1073v-251h-772v-404h732v-221h-732v-442h779v-251h-1080zM299 1592l372 219l372 -219l-51 -104l-321 130l-322 -130z" />
<glyph unicode="&#xcb;" horiz-adv-x="1319" d="M143 -204v1569h1073v-251h-772v-404h732v-221h-732v-442h779v-251h-1080zM354 1551v187h207v-187h-207zM782 1551v187h207v-187h-207z" />
<glyph unicode="&#xcc;" horiz-adv-x="588" d="M-20 1593l54 191l417 -146l-30 -119zM144 -204v1569h301v-1569h-301z" />
<glyph unicode="&#xcd;" horiz-adv-x="588" d="M134 1638l418 146l53 -191l-441 -74zM143 -204v1569h301v-1569h-301z" />
<glyph unicode="&#xce;" horiz-adv-x="588" d="M-36 1592l331 219l331 -219l-78 -104l-253 130l-254 -130zM143 -204v1569h301v-1569h-301z" />
<glyph unicode="&#xcf;" horiz-adv-x="588" d="M52 1551v187h203v-187h-203zM143 -204v1569h301v-1569h-301zM335 1551v187h203v-187h-203z" />
<glyph unicode="&#xd0;" horiz-adv-x="1626" d="M23 508v181h147v676h774q142 0 257 -28q163 -40 254 -193q69 -117 80 -318q3 -43 3 -118q0 -294 -9 -406q-9 -118 -32.5 -192t-71.5 -139q-67 -89 -182.5 -132t-287.5 -43h-785v712h-147zM471 55h425q104 0 173 23q123 41 147 199q16 101 16 307q0 198 -13 297 q-19 158 -138 200q-62 23 -167 23h-443v-416h426v-180h-426v-453z" />
<glyph unicode="&#xd1;" horiz-adv-x="1743" d="M143 -204v1569h503l654 -1286v1286h299v-1569h-506l-654 1284v-1284h-296zM465 1603q43 71 73 105q69 74 165 74q64 0 171 -58q113 -61 156 -61q61 0 116 94l131 -72q-104 -182 -239 -182q-75 0 -181 59q-104 58 -147 58q-45 0 -76 -36q-15 -17 -35 -54z" />
<glyph unicode="&#xd2;" horiz-adv-x="1578" d="M89 530q0 318 16 423q22 143 79.5 228.5t165.5 136.5q94 43 240 54q95 6 227 6q155 0 246.5 -12t157.5 -41q208 -90 252 -358q16 -94 16 -372q0 -289 -14 -385q-22 -144 -77 -229.5t-158 -134.5q-100 -47 -256 -58q-95 -6 -218 -6q-175 0 -274.5 16t-172.5 55 q-137 74 -188 224q-34 101 -39 239q-3 89 -3 214zM395 519q0 -161 5 -218q9 -103 35.5 -156.5t79.5 -75.5q48 -20 131 -25q63 -3 153 -3q195 0 258 28q76 34 104 140q20 72 21 189q1 33 1 200q0 211 -5 264q-8 100 -34.5 152t-79.5 76q-47 21 -128 26q-59 3 -154 3 q-196 0 -261 -27q-80 -34 -108 -141q-16 -64 -17 -180q-1 -80 -1 -252zM474 1593l54 191l417 -146l-30 -119z" />
<glyph unicode="&#xd3;" horiz-adv-x="1578" d="M89 530q0 318 16 423q22 143 79.5 228.5t165.5 136.5q94 43 240 54q95 6 227 6q155 0 246.5 -12t157.5 -41q208 -90 252 -358q16 -94 16 -372q0 -289 -14 -385q-22 -144 -77 -229.5t-158 -134.5q-100 -47 -256 -58q-95 -6 -218 -6q-175 0 -274.5 16t-172.5 55 q-137 74 -188 224q-34 101 -39 239q-3 89 -3 214zM395 519q0 -161 5 -218q9 -103 35.5 -156.5t79.5 -75.5q48 -20 131 -25q63 -3 153 -3q195 0 258 28q76 34 104 140q20 72 21 189q1 33 1 200q0 211 -5 264q-8 100 -34.5 152t-79.5 76q-47 21 -128 26q-59 3 -154 3 q-196 0 -261 -27q-80 -34 -108 -141q-16 -64 -17 -180q-1 -80 -1 -252zM629 1638l418 146l53 -191l-441 -74z" />
<glyph unicode="&#xd4;" horiz-adv-x="1578" d="M89 530q0 318 16 423q22 143 79.5 228.5t165.5 136.5q94 43 240 54q95 6 227 6q155 0 246.5 -12t157.5 -41q208 -90 252 -358q16 -94 16 -372q0 -289 -14 -385q-22 -144 -77 -229.5t-158 -134.5q-100 -47 -256 -58q-95 -6 -218 -6q-175 0 -274.5 16t-172.5 55 q-137 74 -188 224q-34 101 -39 239q-3 89 -3 214zM395 519q0 -161 5 -218q9 -103 35.5 -156.5t79.5 -75.5q48 -20 131 -25q63 -3 153 -3q195 0 258 28q76 34 104 140q20 72 21 189q1 33 1 200q0 211 -5 264q-8 100 -34.5 152t-79.5 76q-47 21 -128 26q-59 3 -154 3 q-196 0 -261 -27q-80 -34 -108 -141q-16 -64 -17 -180q-1 -80 -1 -252zM417 1592l372 219l372 -219l-51 -104l-321 130l-322 -130z" />
<glyph unicode="&#xd5;" horiz-adv-x="1578" d="M89 530q0 318 16 423q22 143 79.5 228.5t165.5 136.5q94 43 240 54q95 6 227 6q155 0 246.5 -12t157.5 -41q208 -90 252 -358q16 -94 16 -372q0 -289 -14 -385q-22 -144 -77 -229.5t-158 -134.5q-100 -47 -256 -58q-95 -6 -218 -6q-175 0 -274.5 16t-172.5 55 q-137 74 -188 224q-34 101 -39 239q-3 89 -3 214zM383 1603q43 71 73 105q69 74 165 74q64 0 171 -58q113 -61 156 -61q61 0 116 94l131 -72q-104 -182 -239 -182q-75 0 -181 59q-104 58 -147 58q-45 0 -76 -36q-15 -17 -35 -54zM395 519q0 -161 5 -218q9 -103 35.5 -156.5 t79.5 -75.5q48 -20 131 -25q63 -3 153 -3q195 0 258 28q76 34 104 140q20 72 21 189q1 33 1 200q0 211 -5 264q-8 100 -34.5 152t-79.5 76q-47 21 -128 26q-59 3 -154 3q-196 0 -261 -27q-80 -34 -108 -141q-16 -64 -17 -180q-1 -80 -1 -252z" />
<glyph unicode="&#xd6;" horiz-adv-x="1578" d="M89 530q0 318 16 423q22 143 79.5 228.5t165.5 136.5q94 43 240 54q95 6 227 6q155 0 246.5 -12t157.5 -41q208 -90 252 -358q16 -94 16 -372q0 -289 -14 -385q-22 -144 -77 -229.5t-158 -134.5q-100 -47 -256 -58q-95 -6 -218 -6q-175 0 -274.5 16t-172.5 55 q-137 74 -188 224q-34 101 -39 239q-3 89 -3 214zM395 519q0 -161 5 -218q9 -103 35.5 -156.5t79.5 -75.5q48 -20 131 -25q63 -3 153 -3q195 0 258 28q76 34 104 140q20 72 21 189q1 33 1 200q0 211 -5 264q-8 100 -34.5 152t-79.5 76q-47 21 -128 26q-59 3 -154 3 q-196 0 -261 -27q-80 -34 -108 -141q-16 -64 -17 -180q-1 -80 -1 -252zM472 1551v187h207v-187h-207zM900 1551v187h207v-187h-207z" />
<glyph unicode="&#xd7;" horiz-adv-x="1120" d="M69 240l333 333l-333 333l158 159l333 -333l333 333l158 -159l-333 -333l333 -333l-158 -158l-333 333l-333 -333z" />
<glyph unicode="&#xd8;" horiz-adv-x="1586" d="M26 14l100 89q-18 66 -24 121q-10 84 -10 288q0 322 15 428q21 149 79.5 239t166.5 140q93 43 242 53q99 7 229 7q254 0 351 -30q117 -36 196 -127l188 167v-236l-103 -91q18 -64 25 -115q12 -93 12 -329q0 -265 -11 -363q-16 -152 -65.5 -246t-141.5 -147 q-92 -54 -241 -69q-103 -11 -231 -11q-187 0 -289 13t-171 46q-72 34 -131 102l-186 -165v236zM399 584q0 -151 5 -239l737 677q-31 50 -91 69q-89 28 -216 28q-138 0 -209 -11q-90 -13 -139 -55.5t-69 -125.5q-14 -57 -17 -159q-1 -71 -1 -184zM442 143q23 -38 50 -52 q93 -50 252 -50q140 0 225 12q122 18 170 98q45 75 45 238l1 245q0 98 -5 187z" />
<glyph unicode="&#xd9;" horiz-adv-x="1592" d="M143 304v1061h301v-1061q0 -131 27 -178q32 -57 138 -75q55 -10 183 -10q188 0 258 25q80 30 93 160q4 35 4 90v1049h301v-1044q0 -219 -43 -314q-32 -69 -97 -121.5t-149 -76.5q-97 -27 -339 -27q-191 0 -287.5 11t-165.5 41q-145 61 -192 196q-32 90 -32 274zM480 1593 l54 191l417 -146l-30 -119z" />
<glyph unicode="&#xda;" horiz-adv-x="1592" d="M143 304v1061h301v-1061q0 -131 27 -178q32 -57 138 -75q55 -10 183 -10q188 0 258 25q80 30 93 160q4 35 4 90v1049h301v-1044q0 -219 -43 -314q-32 -69 -97 -121.5t-149 -76.5q-97 -27 -339 -27q-191 0 -287.5 11t-165.5 41q-145 61 -192 196q-32 90 -32 274zM635 1638 l418 146l53 -191l-441 -74z" />
<glyph unicode="&#xdb;" horiz-adv-x="1592" d="M143 304v1061h301v-1061q0 -131 27 -178q32 -57 138 -75q55 -10 183 -10q188 0 258 25q80 30 93 160q4 35 4 90v1049h301v-1044q0 -219 -43 -314q-32 -69 -97 -121.5t-149 -76.5q-97 -27 -339 -27q-191 0 -287.5 11t-165.5 41q-145 61 -192 196q-32 90 -32 274zM423 1592 l372 219l372 -219l-51 -104l-321 130l-322 -130z" />
<glyph unicode="&#xdc;" horiz-adv-x="1592" d="M143 304v1061h301v-1061q0 -131 27 -178q32 -57 138 -75q55 -10 183 -10q188 0 258 25q80 30 93 160q4 35 4 90v1049h301v-1044q0 -219 -43 -314q-32 -69 -97 -121.5t-149 -76.5q-97 -27 -339 -27q-191 0 -287.5 11t-165.5 41q-145 61 -192 196q-32 90 -32 274zM478 1551 v187h207v-187h-207zM906 1551v187h207v-187h-207z" />
<glyph unicode="&#xdd;" horiz-adv-x="1448" d="M-1 1365h345l375 -654l379 654h350l-582 -970v-599h-301v599zM563 1638l418 146l53 -191l-441 -74z" />
<glyph unicode="&#xde;" horiz-adv-x="1465" d="M143 -204v1569h301v-187h334q133 0 179 -1q136 -5 219 -40.5t137 -112.5q83 -118 83 -373q0 -242 -59 -353q-74 -138 -246 -169q-39 -7 -297 -13h-350v-320h-301zM444 375h340q162 0 216 23q61 25 80 106q10 42 10 131q0 135 -19 194q-29 86 -150 96q-28 2 -108 2h-369 v-552z" />
<glyph unicode="&#xdf;" horiz-adv-x="2250" d="M74 399h253q0 -70 2 -89q7 -88 66 -101q31 -7 209 -7q82 0 116.5 7.5t52.5 28.5q21 26 21 119q0 86 -47 102q-25 9 -221 20q-161 8 -201 15q-141 23 -198 109q-49 73 -49 221q0 207 98 279q74 54 189 64q87 7 191 7q197 0 270 -19q199 -51 199 -301q0 -24 -1 -65h-252v45 q0 79 -29 103q-32 26 -159 26q-121 0 -157 -6q-62 -11 -79 -54q-10 -28 -10 -72q0 -59 15 -86q17 -30 91 -38q38 -3 174 -9q159 -8 219 -21q133 -28 182 -123q33 -63 33 -196q0 -110 -17.5 -174.5t-58.5 -104.5q-72 -72 -201 -84q-85 -8 -210 -8q-227 0 -307 26 q-158 50 -178 239q-4 39 -6 147zM1199 399h253q0 -70 2 -89q7 -88 66 -101q31 -7 209 -7q82 0 116.5 7.5t52.5 28.5q21 26 21 119q0 86 -47 102q-25 9 -220 20q-161 8 -201 15q-141 23 -198 109q-49 73 -49 221q0 207 98 279q74 54 188 64q88 7 192 7q196 0 269 -19 q199 -51 199 -302q0 -24 -1 -64h-252v39q0 85 -29 109q-32 26 -159 26q-120 0 -156 -6q-62 -11 -79 -54q-10 -28 -10 -72q0 -59 15 -86q17 -30 91 -38q37 -3 174 -9q158 -8 218 -21q133 -28 182 -123q33 -63 33 -196q0 -110 -17.5 -174.5t-58.5 -104.5q-72 -72 -200 -84 q-86 -8 -211 -8q-227 0 -307 26q-158 50 -178 239q-4 39 -6 147z" />
<glyph unicode="&#xe0;" horiz-adv-x="1173" d="M6 0l402 1161h350l408 -1161h-268l-76 214h-469l-74 -214h-273zM272 1474l95 177l373 -244l-57 -110zM421 420h334l-168 535z" />
<glyph unicode="&#xe1;" horiz-adv-x="1173" d="M6 0l402 1161h350l408 -1161h-268l-76 214h-469l-74 -214h-273zM421 420h334l-168 535zM432 1407l374 244l94 -177l-411 -177z" />
<glyph unicode="&#xe2;" horiz-adv-x="1173" d="M6 0l402 1161h350l408 -1161h-268l-76 214h-469l-74 -214h-273zM243 1398l341 234l346 -234l-58 -101l-288 144l-281 -144zM421 420h334l-168 535z" />
<glyph unicode="&#xe3;" horiz-adv-x="1173" d="M6 0l402 1161h350l408 -1161h-268l-76 214h-469l-74 -214h-273zM194 1417q43 68 73 101q68 72 162 72q64 0 165 -57q55 -30 89 -47q31 -15 61 -15q53 0 99 91l135 -73q-96 -177 -224 -177q-77 0 -177 58q-61 35 -93 49q-21 9 -47 9q-61 0 -108 -88zM421 420h334l-168 535 z" />
<glyph unicode="&#xe4;" horiz-adv-x="1173" d="M6 0l402 1161h350l408 -1161h-268l-76 214h-469l-74 -214h-273zM268 1362v189h208v-189h-208zM421 420h334l-168 535zM697 1362v189h208v-189h-208z" />
<glyph unicode="&#xe5;" horiz-adv-x="1173" d="M6 0l402 1161h350l408 -1161h-268l-76 214h-469l-74 -214h-273zM393 1477q0 84 64 142q54 50 132 50q83 0 140 -64q50 -55 50 -129q0 -86 -64 -144q-55 -50 -129 -50q-86 0 -143 64q-50 55 -50 131zM421 420h334l-168 535zM488 1476q0 -45 32 -74q28 -25 66 -25 q44 0 73 32q25 28 25 67q0 44 -32 73q-28 25 -67 25q-43 0 -72 -32q-25 -28 -25 -66z" />
<glyph unicode="&#xe6;" horiz-adv-x="1722" d="M6 0l548 1161h1082v-225h-552v-242h519v-203h-519v-266h552v-225h-815v214h-427l-100 -214h-288zM485 420h336v538h-81z" />
<glyph unicode="&#xe7;" horiz-adv-x="1161" d="M80 674q0 160 24 256q29 116 138 182q81 49 211 58q56 4 216 4q175 0 242 -22q155 -53 179 -243q5 -41 8 -165h-259q-1 41 -1 53q-1 102 -35 127q-31 24 -172 24q-131 0 -185 -11q-42 -9 -63 -33.5t-27 -72.5q-5 -44 -8 -267q2 -160 6 -197q8 -83 35 -113q28 -33 103 -38 q48 -3 102 -3q182 0 218 33q30 27 30 117q0 26 -2 81h259v-60q1 -172 -34 -240q-62 -119 -217 -146q-65 -11 -259 -11q-133 0 -191 6.5t-108 25.5q-140 56 -183 213q-27 97 -27 442zM436 -324l229 222l111 -133l-260 -178z" />
<glyph unicode="&#xe8;" horiz-adv-x="1060" d="M129 0v1161h840v-225h-577v-241h548v-203h-548v-267h582v-225h-845zM226 1474l95 177l373 -244l-57 -110z" />
<glyph unicode="&#xe9;" horiz-adv-x="1060" d="M129 0v1161h840v-225h-577v-241h548v-203h-548v-267h582v-225h-845zM385 1407l374 244l94 -177l-411 -177z" />
<glyph unicode="&#xea;" horiz-adv-x="1060" d="M129 0v1161h840v-225h-577v-241h548v-203h-548v-267h582v-225h-845zM196 1398l341 234l346 -234l-58 -101l-288 144l-281 -144z" />
<glyph unicode="&#xeb;" horiz-adv-x="1060" d="M129 0v1161h840v-225h-577v-241h548v-203h-548v-267h582v-225h-845zM221 1362v189h208v-189h-208zM650 1362v189h208v-189h-208z" />
<glyph unicode="&#xec;" horiz-adv-x="521" d="M-52 1474l95 177l373 -244l-57 -110zM129 0v1161h263v-1161h-263z" />
<glyph unicode="&#xed;" horiz-adv-x="521" d="M107 1407l374 244l94 -177l-411 -177zM129 0v1161h263v-1161h-263z" />
<glyph unicode="&#xee;" horiz-adv-x="521" d="M-41 1398l300 234l305 -234l-65 -101l-240 144l-233 -144zM129 0v1161h263v-1161h-263z" />
<glyph unicode="&#xef;" horiz-adv-x="521" d="M-10 1362v189h208v-189h-208zM129 0v1161h263v-1161h-263zM325 1362v189h208v-189h-208z" />
<glyph unicode="&#xf0;" horiz-adv-x="1312" d="M41 518v141h128v502h607q120 0 200.5 -25t131.5 -78q93 -96 109 -271q4 -44 4 -116q0 -212 -6 -291q-11 -129 -54 -209.5t-125 -122.5q-95 -48 -253 -48h-614v518h-128zM432 230h309q133 0 174 58q30 43 37 134q5 61 5 158q0 141 -9 211q-12 98 -83 123q-41 15 -111 15 h-322v-270h230v-141h-230v-288z" />
<glyph unicode="&#xf1;" horiz-adv-x="1376" d="M129 0v1161h381l475 -880v880h262v-1161h-384l-475 877v-877h-259zM296 1417q43 68 73 101q68 72 162 72q64 0 165 -57q55 -30 89 -47q31 -15 61 -15q53 0 99 91l135 -73q-96 -177 -224 -177q-77 0 -177 58q-61 35 -93 49q-21 9 -47 9q-61 0 -108 -88z" />
<glyph unicode="&#xf2;" horiz-adv-x="1232" d="M80 542q0 232 12 309q16 108 60 173t126 105q72 33 183 40q72 5 177 5q124 0 192 -8.5t119 -31.5q158 -70 191 -273q12 -70 12 -270q0 -207 -11 -279q-16 -108 -58 -173t-120 -103q-75 -37 -195 -44q-73 -5 -172 -5q-138 0 -212 12t-130 42q-104 58 -143 173 q-25 76 -29 177q-2 63 -2 151zM302 1474l95 177l373 -244l-57 -110zM344 533q0 -190 22 -249q20 -52 89 -64q38 -7 178 -7q138 0 178 18q60 26 73 151q4 40 4 198q0 165 -3 203q-6 67 -21.5 100t-48.5 47q-40 18 -203 18q-149 0 -191 -17q-63 -26 -73 -149q-4 -44 -4 -249z " />
<glyph unicode="&#xf3;" horiz-adv-x="1232" d="M80 542q0 232 12 309q16 108 60 173t126 105q72 33 183 40q72 5 177 5q124 0 192 -8.5t119 -31.5q158 -70 191 -273q12 -70 12 -270q0 -207 -11 -279q-16 -108 -58 -173t-120 -103q-75 -37 -195 -44q-73 -5 -172 -5q-138 0 -212 12t-130 42q-104 58 -143 173 q-25 76 -29 177q-2 63 -2 151zM344 533q0 -190 22 -249q20 -52 89 -64q38 -7 178 -7q138 0 178 18q60 26 73 151q4 40 4 198q0 165 -3 203q-6 67 -21.5 100t-48.5 47q-40 18 -203 18q-149 0 -191 -17q-63 -26 -73 -149q-4 -44 -4 -249zM462 1407l374 244l94 -177l-411 -177z " />
<glyph unicode="&#xf4;" horiz-adv-x="1232" d="M80 542q0 232 12 309q16 108 60 173t126 105q72 33 183 40q72 5 177 5q124 0 192 -8.5t119 -31.5q158 -70 191 -273q12 -70 12 -270q0 -207 -11 -279q-16 -108 -58 -173t-120 -103q-75 -37 -195 -44q-73 -5 -172 -5q-138 0 -212 12t-130 42q-104 58 -143 173 q-25 76 -29 177q-2 63 -2 151zM273 1398l341 234l346 -234l-58 -101l-288 144l-281 -144zM344 533q0 -190 22 -249q20 -52 89 -64q38 -7 178 -7q138 0 178 18q60 26 73 151q4 40 4 198q0 165 -3 203q-6 67 -21.5 100t-48.5 47q-40 18 -203 18q-149 0 -191 -17 q-63 -26 -73 -149q-4 -44 -4 -249z" />
<glyph unicode="&#xf5;" horiz-adv-x="1232" d="M80 542q0 232 12 309q16 108 60 173t126 105q72 33 183 40q72 5 177 5q124 0 192 -8.5t119 -31.5q158 -70 191 -273q12 -70 12 -270q0 -207 -11 -279q-16 -108 -58 -173t-120 -103q-75 -37 -195 -44q-73 -5 -172 -5q-138 0 -212 12t-130 42q-104 58 -143 173 q-25 76 -29 177q-2 63 -2 151zM224 1417q43 68 73 101q68 72 162 72q64 0 165 -57q55 -30 89 -47q31 -15 61 -15q53 0 99 91l135 -73q-96 -177 -224 -177q-77 0 -177 58q-61 35 -93 49q-21 9 -47 9q-61 0 -108 -88zM344 533q0 -190 22 -249q20 -52 89 -64q38 -7 178 -7 q138 0 178 18q60 26 73 151q4 40 4 198q0 165 -3 203q-6 67 -21.5 100t-48.5 47q-40 18 -203 18q-149 0 -191 -17q-63 -26 -73 -149q-4 -44 -4 -249z" />
<glyph unicode="&#xf6;" horiz-adv-x="1232" d="M80 542q0 232 12 309q16 108 60 173t126 105q72 33 183 40q72 5 177 5q124 0 192 -8.5t119 -31.5q158 -70 191 -273q12 -70 12 -270q0 -207 -11 -279q-16 -108 -58 -173t-120 -103q-75 -37 -195 -44q-73 -5 -172 -5q-138 0 -212 12t-130 42q-104 58 -143 173 q-25 76 -29 177q-2 63 -2 151zM297 1362v189h208v-189h-208zM344 533q0 -190 22 -249q20 -52 89 -64q38 -7 178 -7q138 0 178 18q60 26 73 151q4 40 4 198q0 165 -3 203q-6 67 -21.5 100t-48.5 47q-40 18 -203 18q-149 0 -191 -17q-63 -26 -73 -149q-4 -44 -4 -249z M726 1362v189h208v-189h-208z" />
<glyph unicode="&#xf7;" horiz-adv-x="1120" d="M52 467v213h1016v-213h-1016zM417 193q0 61 46 104q41 38 99 38q62 0 105 -48q36 -40 36 -95q0 -63 -47 -106q-42 -37 -96 -37q-63 0 -106 48q-37 41 -37 96zM417 956q0 61 46 104q40 38 100 38q61 0 104 -48q36 -40 36 -95q0 -64 -47 -106q-42 -37 -96 -37 q-63 0 -106 48q-37 41 -37 96z" />
<glyph unicode="&#xf8;" horiz-adv-x="1235" d="M24 -29v180l85 74q-28 101 -28 307q0 241 12 319q31 204 186 278q70 33 181 40q73 5 169 5q205 0 282 -25q89 -29 147 -93l153 134v-180l-86 -75q15 -52 21 -101q8 -64 8 -236q0 -215 -11 -286q-16 -108 -58 -173t-120 -103q-75 -37 -194 -44q-71 -5 -167 -5 q-136 0 -209.5 10.5t-126.5 36.5q-51 26 -93 70zM345 510l1 -77l518 453q-24 38 -65 51q-36 11 -186 11t-191 -17q-63 -26 -73 -149q-4 -45 -4 -149v-53v-70zM371 275q24 -39 66 -51q38 -11 207 -11q128 0 169 18q60 26 73 151q4 42 4 118v84l-1 70v75z" />
<glyph unicode="&#xf9;" horiz-adv-x="1265" d="M129 384v777h263v-777q0 -88 16 -118q18 -35 89 -46q40 -7 138 -7q129 0 177 16q50 17 59 99q2 24 2 64v769h263v-764q0 -164 -34 -236q-54 -115 -196 -153q-75 -21 -260 -21q-140 0 -212.5 8.5t-126.5 30.5q-115 49 -153 153q-25 69 -25 205zM318 1474l95 177l373 -244 l-57 -110z" />
<glyph unicode="&#xfa;" horiz-adv-x="1265" d="M129 384v777h263v-777q0 -88 16 -118q18 -35 89 -46q40 -7 138 -7q129 0 177 16q50 17 59 99q2 24 2 64v769h263v-764q0 -164 -34 -236q-54 -115 -196 -153q-75 -21 -260 -21q-140 0 -212.5 8.5t-126.5 30.5q-115 49 -153 153q-25 69 -25 205zM478 1407l374 244l94 -177 l-411 -177z" />
<glyph unicode="&#xfb;" horiz-adv-x="1265" d="M129 384v777h263v-777q0 -88 16 -118q18 -35 89 -46q40 -7 138 -7q129 0 177 16q50 17 59 99q2 24 2 64v769h263v-764q0 -164 -34 -236q-54 -115 -196 -153q-75 -21 -260 -21q-140 0 -212.5 8.5t-126.5 30.5q-115 49 -153 153q-25 69 -25 205zM289 1398l341 234l346 -234 l-58 -101l-288 144l-281 -144z" />
<glyph unicode="&#xfc;" horiz-adv-x="1265" d="M129 384v777h263v-777q0 -88 16 -118q18 -35 89 -46q40 -7 138 -7q129 0 177 16q50 17 59 99q2 24 2 64v769h263v-764q0 -164 -34 -236q-54 -115 -196 -153q-75 -21 -260 -21q-140 0 -212.5 8.5t-126.5 30.5q-115 49 -153 153q-25 69 -25 205zM314 1362v189h208v-189 h-208zM743 1362v189h208v-189h-208z" />
<glyph unicode="&#xfd;" horiz-adv-x="1118" d="M-12 1161h298l269 -457l272 457h303l-446 -719v-442h-263v442zM405 1407l374 244l94 -177l-411 -177z" />
<glyph unicode="&#xfe;" horiz-adv-x="1163" d="M129 0v1161h263v-172h245q96 0 128 -1q192 -6 272 -118q63 -89 63 -280q0 -178 -45 -261q-58 -107 -191 -131q-30 -6 -215 -10h-257v-188h-263zM392 419h249q109 0 143 14q34 13 45 60q7 29 7 86q0 92 -12 129q-15 49 -88 55q-19 1 -74 1h-270v-345z" />
<glyph unicode="&#xff;" horiz-adv-x="1118" d="M-12 1161h298l269 -457l272 457h303l-446 -719v-442h-263v442zM241 1362v189h208v-189h-208zM670 1362v189h208v-189h-208z" />
<glyph unicode="&#x152;" horiz-adv-x="2341" d="M89 349v171q0 353 12 440q18 140 75 224.5t166 134.5q126 59 367 59q196 0 286 -28q106 -33 160 -104q15 -20 34 -58h9l-9 170h1049v-251h-764v-397h724v-221h-724v-440h772v-250h-1057l9 164h-9q-43 -72 -109 -113q-69 -44 -135 -55q-75 -13 -196 -13q-296 0 -422 62 q-145 71 -199 219q-37 103 -39 286zM396 458q0 -121 3 -164q7 -107 39.5 -163.5t97.5 -74.5q70 -20 266 -20q185 0 252 28q76 33 102 125q22 80 22 343q0 333 -15 424q-19 117 -142 149q-70 18 -299 18q-108 0 -161 -12t-89 -44q-61 -54 -71 -194q-5 -65 -5 -415z" />
<glyph unicode="&#x153;" horiz-adv-x="1775" d="M80 524q0 267 9 332q13 105 56.5 170t127.5 104q93 44 275 44q173 0 245 -30q39 -16 86 -59l-4 71h809v-224h-552v-237h524v-203h-524v-266h558v-224h-815l5 74q-58 -50 -105 -68q-58 -21 -184 -21q-235 0 -329 46q-152 76 -175 277q-7 57 -7 214zM344 467 q0 -126 15 -171q16 -48 51 -66q40 -20 211 -20q128 0 173 18q45 19 61 76q14 54 14 243q0 239 -10 302q-12 72 -86 90q-48 12 -218 12q-93 0 -133 -15q-66 -24 -75 -144q-2 -30 -3 -212v-113z" />
<glyph unicode="&#x178;" horiz-adv-x="1448" d="M-1 1365h345l375 -654l379 654h350l-582 -970v-599h-301v599zM406 1551v187h207v-187h-207zM834 1551v187h207v-187h-207z" />
<glyph unicode="&#x2c6;" d="M168 1398l341 234l346 -234l-58 -101l-288 144l-281 -144z" />
<glyph unicode="&#x2dc;" d="M120 1417q43 68 73 101q68 72 162 72q64 0 165 -57q55 -30 89 -47q31 -15 61 -15q53 0 99 91l135 -73q-96 -177 -224 -177q-77 0 -177 58q-61 35 -93 49q-21 9 -47 9q-61 0 -108 -88z" />
<glyph unicode="&#x2000;" horiz-adv-x="926" />
<glyph unicode="&#x2001;" horiz-adv-x="1852" />
<glyph unicode="&#x2002;" horiz-adv-x="926" />
<glyph unicode="&#x2003;" horiz-adv-x="1852" />
<glyph unicode="&#x2004;" horiz-adv-x="617" />
<glyph unicode="&#x2005;" horiz-adv-x="463" />
<glyph unicode="&#x2006;" horiz-adv-x="308" />
<glyph unicode="&#x2007;" horiz-adv-x="308" />
<glyph unicode="&#x2008;" horiz-adv-x="231" />
<glyph unicode="&#x2009;" horiz-adv-x="370" />
<glyph unicode="&#x200a;" horiz-adv-x="102" />
<glyph unicode="&#x2010;" horiz-adv-x="525" d="M1 482v253h524v-253h-524z" />
<glyph unicode="&#x2011;" horiz-adv-x="525" d="M1 482v253h524v-253h-524z" />
<glyph unicode="&#x2012;" horiz-adv-x="525" d="M1 482v253h524v-253h-524z" />
<glyph unicode="&#x2013;" horiz-adv-x="1149" d="M82 447v253h986v-253h-986z" />
<glyph unicode="&#x2014;" horiz-adv-x="1658" d="M0 447v253h1658v-253h-1658z" />
<glyph unicode="&#x2018;" horiz-adv-x="503" d="M109 850v274q0 136 29 186q50 87 200 87q19 0 55 -2v-123q-60 -1 -89 -17q-37 -22 -37 -86v-37h104v-282h-262z" />
<glyph unicode="&#x2019;" horiz-adv-x="503" d="M109 820v123q60 1 88 17q38 22 38 86v37h-104v282h262v-274q0 -135 -29 -187q-50 -86 -203 -86q-18 0 -52 2z" />
<glyph unicode="&#x201a;" horiz-adv-x="503" d="M109 -140q60 1 88 17q38 22 38 86v37h-104v282h262v-273q0 -136 -29 -187q-50 -87 -202 -87q-18 0 -53 2v123z" />
<glyph unicode="&#x201c;" horiz-adv-x="902" d="M109 850v274q0 136 29 186q50 87 200 87q19 0 55 -2v-123q-60 -1 -89 -17q-37 -22 -37 -86v-37h104v-282h-262zM509 850v274q0 136 29 186q50 87 200 87q19 0 55 -2v-123q-60 -1 -88 -17q-38 -22 -38 -86v-37h104v-282h-262z" />
<glyph unicode="&#x201d;" horiz-adv-x="902" d="M109 820v123q60 1 88 17q38 22 38 86v37h-104v282h262v-274q0 -135 -29 -187q-50 -86 -203 -86q-18 0 -52 2zM508 820v123q61 1 90 17q37 22 37 85v38h-104v282h262v-274q0 -136 -29 -187q-50 -86 -203 -86q-18 0 -53 2z" />
<glyph unicode="&#x201e;" horiz-adv-x="902" d="M109 -140q60 1 88 17q38 22 38 86v37h-104v282h262v-273q0 -136 -29 -187q-50 -87 -202 -87q-18 0 -53 2v123zM508 -140q61 1 90 17q37 22 37 85v38h-104v282h262v-273q0 -136 -29 -187q-50 -87 -203 -87q-18 0 -53 2v123z" />
<glyph unicode="&#x2022;" horiz-adv-x="1365" d="M401 570q0 121 84 202q85 83 204 83q113 0 196 -83q84 -83 84 -201t-84 -201q-82 -83 -200 -83t-200 83q-84 83 -84 200z" />
<glyph unicode="&#x2026;" horiz-adv-x="1441" d="M109 0v286h262v-286h-262zM589 0v286h262v-286h-262zM1069 0v286h262v-286h-262z" />
<glyph unicode="&#x202f;" horiz-adv-x="370" />
<glyph unicode="&#x2039;" horiz-adv-x="626" d="M96 590l233 468l177 -100l-181 -368l192 -358l-168 -107z" />
<glyph unicode="&#x203a;" horiz-adv-x="626" d="M109 232l192 358l-181 368l177 100l233 -468l-253 -465z" />
<glyph unicode="&#x205f;" horiz-adv-x="463" />
<glyph unicode="&#x2122;" horiz-adv-x="1861" d="M27 1204v161h651v-162h-229v-643h-199v644h-223zM743 560v805h265l220 -550l216 550h270v-805h-196v491l-199 -491h-178l-201 491v-491h-197z" />
<glyph unicode="&#x25fc;" horiz-adv-x="1160" d="M0 0v1160h1160v-1160h-1160z" />
</font>
</defs>
</svg>
