<svg width="38" height="38" viewBox="0 0 38 38" fill="none" xmlns="http://www.w3.org/2000/svg">
<circle cx="16" cy="22" r="16" fill="white"/>
<mask id="mask0" mask-type="alpha" maskUnits="userSpaceOnUse" x="0" y="6" width="32" height="32">
<circle cx="16" cy="22" r="16" fill="#18191B"/>
</mask>
<g mask="url(#mask0)">
<g filter="url(#filter0_f)">
<circle cx="10" cy="30" r="10" fill="url(#paint0_linear)"/>
</g>
<g filter="url(#filter1_f)">
<circle cx="27" cy="26" r="15" fill="url(#paint1_linear)"/>
</g>
<g filter="url(#filter2_f)">
<circle cx="2" cy="14" r="9" fill="url(#paint2_linear)"/>
</g>
</g>
<path d="M28 1C23.0317 1 19 5.03172 19 10C19 14.9683 23.0317 19 28 19C32.9683 19 37 14.9683 37 10C37 5.03172 32.9683 1 28 1Z" fill="#FE4646" stroke="#3A262B" stroke-width="2"/>
<defs>
<filter id="filter0_f" x="-20" y="0" width="60" height="60" filterUnits="userSpaceOnUse" color-interpolation-filters="sRGB">
<feFlood flood-opacity="0" result="BackgroundImageFix"/>
<feBlend mode="normal" in="SourceGraphic" in2="BackgroundImageFix" result="shape"/>
<feGaussianBlur stdDeviation="10" result="effect1_foregroundBlur"/>
</filter>
<filter id="filter1_f" x="-8" y="-9" width="70" height="70" filterUnits="userSpaceOnUse" color-interpolation-filters="sRGB">
<feFlood flood-opacity="0" result="BackgroundImageFix"/>
<feBlend mode="normal" in="SourceGraphic" in2="BackgroundImageFix" result="shape"/>
<feGaussianBlur stdDeviation="10" result="effect1_foregroundBlur"/>
</filter>
<filter id="filter2_f" x="-27" y="-15" width="58" height="58" filterUnits="userSpaceOnUse" color-interpolation-filters="sRGB">
<feFlood flood-opacity="0" result="BackgroundImageFix"/>
<feBlend mode="normal" in="SourceGraphic" in2="BackgroundImageFix" result="shape"/>
<feGaussianBlur stdDeviation="10" result="effect1_foregroundBlur"/>
</filter>
<linearGradient id="paint0_linear" x1="7.05329" y1="33.4483" x2="27" y2="11.5" gradientUnits="userSpaceOnUse">
<stop stop-color="#FE8846"/>
<stop offset="1" stop-color="#FE8846"/>
</linearGradient>
<linearGradient id="paint1_linear" x1="22.5799" y1="31.1724" x2="27" y2="41" gradientUnits="userSpaceOnUse">
<stop stop-color="#FE4646"/>
<stop offset="1" stop-color="#FE8846"/>
</linearGradient>
<linearGradient id="paint2_linear" x1="-0.652038" y1="17.1034" x2="2" y2="23" gradientUnits="userSpaceOnUse">
<stop stop-color="#FED646"/>
<stop offset="1" stop-color="#FFEF63"/>
</linearGradient>
</defs>
</svg>
