<svg width="120" height="26" viewBox="0 0 120 26" fill="none" xmlns="http://www.w3.org/2000/svg">
<path d="M4.32708 24.6259C0.206001 21.6562 -1.34792 16.9287 1.32764 11.9102C1.504 11.5794 2.02851 11.6963 2.13777 12.0549C2.52805 13.3357 3.31941 13.9751 3.31941 13.9751C3.0677 13.3943 2.0887 7.12306 6.81203 4.23903C7.08708 4.07108 7.42325 4.31966 7.38053 4.63893C7.16564 6.24485 7.00537 9.69116 9.79955 8.72353C12.3342 7.84578 10.5126 3.25897 9.5809 1.26926C9.42938 0.945694 9.75315 0.586474 10.0841 0.721621C15.6985 3.01459 20.0911 6.75377 18.5042 13.524C18.9226 13.6024 20.2956 13.3628 21.0745 12.2379C21.2782 11.9437 21.7475 11.9305 21.8492 12.2734C22.6199 14.8712 23.7643 21.6956 17.6462 25.3078C17.3011 24.4404 16.6332 23.7856 16.3801 23.5792C16.317 23.5277 16.2567 23.5455 16.2081 23.611C15.9685 23.9338 15.1651 24.9353 14.3775 24.9961C12.9237 25.1082 12.1132 23.5287 12.4689 21.8066C12.509 21.6125 12.3352 21.4311 12.1465 21.4919C9.85593 22.2299 9.2591 23.7526 9.2591 23.7526C8.26765 22.9466 7.3905 21.4545 7.5763 18.0636C7.59026 17.8089 7.27241 17.6883 7.13035 17.9002C6.23182 19.2406 4.46252 22.169 4.32708 24.6259Z" fill="white"/>
<path d="M34.1981 10.3491C33.2847 10.3491 32.5943 10.5501 32.1267 10.9522C31.6592 11.3434 31.4254 11.9356 31.4254 12.7288V13.4296H36.1227V15.5485H31.4254V19.7047H28.7832V12.7451C28.7832 11.2782 29.2399 10.1372 30.1532 9.32229C31.0775 8.50734 32.3659 8.09986 34.0187 8.09986C34.6711 8.09986 35.2854 8.17049 35.8617 8.31175C36.438 8.44214 36.9381 8.63773 37.3622 8.89851L36.5467 10.9848C35.8943 10.561 35.1114 10.3491 34.1981 10.3491Z" fill="white"/>
<path d="M38.5806 10.9359H41.1249V19.7047H38.5806V10.9359ZM39.8528 9.71346C39.3852 9.71346 39.0047 9.57764 38.7111 9.30599C38.4175 9.03434 38.2707 8.69749 38.2707 8.29545C38.2707 7.89341 38.4175 7.55657 38.7111 7.28492C39.0047 7.01327 39.3852 6.87744 39.8528 6.87744C40.3203 6.87744 40.7009 7.00783 40.9945 7.26862C41.288 7.5294 41.4348 7.85538 41.4348 8.24656C41.4348 8.67033 41.288 9.02347 40.9945 9.30599C40.7009 9.57764 40.3203 9.71346 39.8528 9.71346Z" fill="white"/>
<path d="M46.0796 12.0931C46.384 11.6693 46.7918 11.3488 47.3028 11.1315C47.8247 10.9142 48.4228 10.8055 49.0969 10.8055V13.1525C48.8142 13.1308 48.6239 13.1199 48.5261 13.1199C47.7976 13.1199 47.2267 13.3264 46.8135 13.7393C46.4003 14.1413 46.1938 14.7498 46.1938 15.5648V19.7047H43.6494V10.9359H46.0796V12.0931Z" fill="white"/>
<path d="M55.1132 17.7977C55.5699 17.7977 55.9722 17.7326 56.3202 17.6022C56.679 17.4609 57.0106 17.2436 57.3151 16.9502L58.6688 18.4171C57.8424 19.3624 56.6355 19.8351 55.048 19.8351C54.0585 19.8351 53.1832 19.645 52.4221 19.2647C51.661 18.8735 51.0738 18.3356 50.6606 17.6511C50.2474 16.9665 50.0409 16.1896 50.0409 15.3203C50.0409 14.4619 50.242 13.6904 50.6443 13.0059C51.0575 12.3104 51.6175 11.7726 52.3242 11.3923C53.0419 11.0011 53.8465 10.8055 54.7381 10.8055C55.5753 10.8055 56.3365 10.9848 57.0215 11.3434C57.7065 11.6911 58.2502 12.2018 58.6525 12.8755C59.0657 13.5383 59.2723 14.3261 59.2723 15.2388L52.7809 16.4938C52.9658 16.9285 53.2539 17.2544 53.6453 17.4718C54.0476 17.6891 54.5369 17.7977 55.1132 17.7977ZM54.7381 12.7288C54.0966 12.7288 53.5747 12.9352 53.1724 13.3481C52.77 13.761 52.558 14.3315 52.5363 15.0595L56.8095 14.2283C56.6899 13.7719 56.4452 13.4079 56.0755 13.1362C55.7058 12.8646 55.26 12.7288 54.7381 12.7288Z" fill="white"/>
<path d="M65.0763 19.9003C64.1738 19.9003 63.2985 19.7808 62.4504 19.5417C61.6131 19.2918 60.939 18.9713 60.428 18.5801L61.325 16.5916C61.8143 16.9502 62.396 17.2382 63.0702 17.4555C63.7443 17.6728 64.4184 17.7814 65.0926 17.7814C65.8428 17.7814 66.3974 17.6728 66.7562 17.4555C67.115 17.2273 67.2944 16.9285 67.2944 16.559C67.2944 16.2874 67.1857 16.0646 66.9682 15.8908C66.7616 15.706 66.4898 15.5594 66.1527 15.4507C65.8265 15.342 65.3807 15.2225 64.8153 15.0921C63.9455 14.8857 63.2333 14.6792 62.6787 14.4728C62.1242 14.2663 61.6458 13.9349 61.2435 13.4785C60.852 13.0222 60.6563 12.4137 60.6563 11.653C60.6563 10.9902 60.8357 10.3926 61.1945 9.86015C61.5533 9.31685 62.0916 8.88765 62.8092 8.57253C63.5377 8.25742 64.4239 8.09986 65.4677 8.09986C66.1962 8.09986 66.9084 8.18679 67.6043 8.36065C68.3002 8.5345 68.9091 8.78442 69.431 9.1104L68.6155 11.1152C67.5608 10.5175 66.5061 10.2187 65.4514 10.2187C64.712 10.2187 64.1629 10.3383 63.8041 10.5773C63.4562 10.8164 63.2822 11.1315 63.2822 11.5226C63.2822 11.9138 63.4833 12.2072 63.8857 12.4028C64.2988 12.5875 64.924 12.7722 65.7613 12.957C66.6312 13.1634 67.3434 13.3699 67.8979 13.5763C68.4524 13.7828 68.9254 14.1087 69.3168 14.5543C69.7192 14.9998 69.9203 15.6028 69.9203 16.3634C69.9203 17.0154 69.7355 17.613 69.3658 18.1563C69.007 18.6888 68.4633 19.1125 67.7348 19.4276C67.0063 19.7428 66.1201 19.9003 65.0763 19.9003Z" fill="white"/>
<path d="M76.9938 19.281C76.7438 19.4657 76.4339 19.6069 76.0642 19.7047C75.7054 19.7917 75.3302 19.8351 74.9388 19.8351C73.8841 19.8351 73.074 19.5689 72.5086 19.0365C71.9432 18.504 71.6605 17.7217 71.6605 16.6894V8.99631H74.2048V11.1315H76.3741V13.0873H74.2048V16.6568C74.2048 17.0263 74.2973 17.3142 74.4821 17.5207C74.667 17.7163 74.9334 17.814 75.2813 17.814C75.6727 17.814 76.0207 17.7054 76.3251 17.4881L76.9938 19.281Z" fill="white"/>
<path d="M87.2284 10.9359V19.7047H84.7983V18.6942C84.1676 19.4548 83.2542 19.8351 82.0582 19.8351C81.2318 19.8351 80.4816 19.6504 79.8074 19.281C79.1442 18.9115 78.6222 18.3845 78.2417 17.7C77.8611 17.0154 77.6708 16.2222 77.6708 15.3203C77.6708 14.4184 77.8611 13.6252 78.2417 12.9407C78.6222 12.2561 79.1442 11.7291 79.8074 11.3597C80.4816 10.9902 81.2318 10.8055 82.0582 10.8055C83.1781 10.8055 84.0534 11.1586 84.6841 11.8649V10.9359H87.2284ZM82.4986 17.7489C83.1401 17.7489 83.6729 17.5315 84.0969 17.0969C84.521 16.6514 84.733 16.0592 84.733 15.3203C84.733 14.5814 84.521 13.9947 84.0969 13.56C83.6729 13.1145 83.1401 12.8918 82.4986 12.8918C81.8462 12.8918 81.3079 13.1145 80.8839 13.56C80.4598 13.9947 80.2478 14.5814 80.2478 15.3203C80.2478 16.0592 80.4598 16.6514 80.8839 17.0969C81.3079 17.5315 81.8462 17.7489 82.4986 17.7489Z" fill="white"/>
<path d="M92.1773 12.0931C92.4818 11.6693 92.8895 11.3488 93.4006 11.1315C93.9225 10.9142 94.5205 10.8055 95.1947 10.8055V13.1525C94.912 13.1308 94.7217 13.1199 94.6238 13.1199C93.8953 13.1199 93.3245 13.3264 92.9113 13.7393C92.4981 14.1413 92.2915 14.7498 92.2915 15.5648V19.7047H89.7472V10.9359H92.1773V12.0931Z" fill="white"/>
<path d="M102.155 19.281C101.905 19.4657 101.595 19.6069 101.225 19.7047C100.867 19.7917 100.491 19.8351 100.1 19.8351C99.0453 19.8351 98.2352 19.5689 97.6698 19.0365C97.1044 18.504 96.8217 17.7217 96.8217 16.6894V8.99631H99.366V11.1315H101.535V13.0873H99.366V16.6568C99.366 17.0263 99.4585 17.3142 99.6433 17.5207C99.8282 17.7163 100.095 17.814 100.442 17.814C100.834 17.814 101.182 17.7054 101.486 17.4881L102.155 19.281Z" fill="white"/>
<path d="M107.904 17.7977C108.361 17.7977 108.763 17.7326 109.111 17.6022C109.47 17.4609 109.802 17.2436 110.106 16.9502L111.46 18.4171C110.634 19.3624 109.427 19.8351 107.839 19.8351C106.85 19.8351 105.974 19.645 105.213 19.2647C104.452 18.8735 103.865 18.3356 103.452 17.6511C103.039 16.9665 102.832 16.1896 102.832 15.3203C102.832 14.4619 103.033 13.6904 103.435 13.0059C103.849 12.3104 104.409 11.7726 105.115 11.3923C105.833 11.0011 106.638 10.8055 107.529 10.8055C108.367 10.8055 109.128 10.9848 109.813 11.3434C110.498 11.6911 111.041 12.2018 111.444 12.8755C111.857 13.5383 112.063 14.3261 112.063 15.2388L105.572 16.4938C105.757 16.9285 106.045 17.2544 106.437 17.4718C106.839 17.6891 107.328 17.7977 107.904 17.7977ZM107.529 12.7288C106.888 12.7288 106.366 12.9352 105.964 13.3481C105.561 13.761 105.349 14.3315 105.327 15.0595L109.601 14.2283C109.481 13.7719 109.236 13.4079 108.867 13.1362C108.497 12.8646 108.051 12.7288 107.529 12.7288Z" fill="white"/>
<path d="M116.367 12.0931C116.671 11.6693 117.079 11.3488 117.59 11.1315C118.112 10.9142 118.71 10.8055 119.384 10.8055V13.1525C119.102 13.1308 118.911 13.1199 118.813 13.1199C118.085 13.1199 117.514 13.3264 117.101 13.7393C116.688 14.1413 116.481 14.7498 116.481 15.5648V19.7047H113.937V10.9359H116.367V12.0931Z" fill="white"/>
</svg>
