<svg width="25" height="25" viewBox="0 0 25 25" fill="none" xmlns="http://www.w3.org/2000/svg">
<path fill-rule="evenodd" clip-rule="evenodd" d="M17.7677 21.5882C16.1241 22.5686 14.2028 23.1318 12.15 23.1318C10.0789 23.1318 8.14168 22.5585 6.48844 21.5619L7.52854 13.8651L10.6803 20.1686L12.1502 17.4125L13.6139 20.157L16.7703 14.0082L17.7677 21.5882ZM18.7116 20.9569C19.1588 20.6231 19.5797 20.2562 19.9706 19.8596L18.8833 9.89212L17.5878 12.4158L18.7116 20.9569ZM20.8806 18.8125L19.5274 6.40781L17.3543 10.6412L16.8107 6.51031L12.1502 15.2488L7.49391 6.51835L6.96191 10.4551L4.93861 6.40855L3.43295 18.8302C2.01249 16.9795 1.16818 14.6633 1.16818 12.15C1.16818 6.08491 6.08491 1.16818 12.15 1.16818C18.2151 1.16818 23.1318 6.08491 23.1318 12.15C23.1318 14.6553 22.2929 16.9647 20.8806 18.8125ZM4.33333 19.8636C4.71107 20.2464 5.11671 20.6015 5.54696 20.9258L6.71971 12.2475L5.542 9.89205L4.33333 19.8636ZM24.15 12.15C24.15 18.7774 18.7774 24.15 12.15 24.15C5.52258 24.15 0.15 18.7774 0.15 12.15C0.15 5.52258 5.52258 0.15 12.15 0.15C18.7774 0.15 24.15 5.52258 24.15 12.15ZM15.4225 5.77859L14.5497 7.42286H9.74973L8.87701 5.77859L10.3316 6.03156V4.89322L11.3497 5.77859L12.1497 4.51377L12.9497 5.77859L13.9679 4.89322V6.03156L15.4225 5.77859ZM10.7094 17.9502L7.77074 12.0728L8.08037 9.78159L11.5732 16.3307L10.7094 17.9502ZM13.5967 17.9611L12.7271 16.3307L16.2153 9.79029L16.5368 12.2336L13.5967 17.9611Z" fill="#FF150F"/>
<path fill-rule="evenodd" clip-rule="evenodd" d="M0 12.15C0 5.43974 5.43974 0 12.15 0C18.8603 0 24.3 5.43974 24.3 12.15C24.3 18.8603 18.8603 24.3 12.15 24.3C5.43974 24.3 0 18.8603 0 12.15ZM12.15 0.3C5.60543 0.3 0.3 5.60543 0.3 12.15C0.3 18.6946 5.60543 24 12.15 24C18.6946 24 24 18.6946 24 12.15C24 5.60543 18.6946 0.3 12.15 0.3ZM1.01818 12.15C1.01818 6.00207 6.00207 1.01818 12.15 1.01818C18.2979 1.01818 23.2818 6.00207 23.2818 12.15C23.2818 14.6894 22.4314 17.0305 20.9998 18.9036L20.7722 19.2015L19.4325 6.92113L17.2682 11.1372L16.723 6.99352L12.1502 15.5676L7.58031 6.99909L7.04539 10.9575L5.02751 6.92174L3.53765 19.213L3.31396 18.9216C1.8741 17.0455 1.01818 14.6975 1.01818 12.15ZM12.15 1.31818C6.16775 1.31818 1.31818 6.16775 1.31818 12.15C1.31818 14.4949 2.06314 16.6654 3.32936 18.4383L4.84972 5.89535L6.87844 9.95278L7.40751 6.0376L12.1502 14.9301L16.8984 6.0271L17.4403 10.1451L19.6223 5.8945L20.988 18.4139C22.2437 16.6455 22.9818 14.4842 22.9818 12.15C22.9818 6.16775 18.1322 1.31818 12.15 1.31818ZM12.1497 4.23316L12.9831 5.55078L14.1179 4.564V5.85322L15.6986 5.57832L14.6399 7.57286H9.65953L8.60089 5.57832L10.1816 5.85322V4.564L11.3163 5.55078L12.1497 4.23316ZM12.1497 4.79438L11.3831 6.00641L10.4816 5.22243V6.20989L9.15312 5.97886L9.83994 7.27286H14.4595L15.1463 5.97886L13.8179 6.20989V5.22243L12.9163 6.00641L12.1497 4.79438ZM7.99397 9.30085L11.7432 16.3307L10.7051 18.277L7.6159 12.0985L7.99397 9.30085ZM16.3031 9.30707L16.6917 12.2604L13.5992 18.2846L12.5571 16.3307L16.3031 9.30707ZM18.9782 9.37881L20.1275 19.9142L20.0774 19.9649C19.6812 20.3669 19.2546 20.7388 18.8013 21.0771L18.5962 21.2301L17.4329 12.389L18.9782 9.37881ZM5.45311 9.37886L6.87455 12.2217L5.6613 21.1998L5.45669 21.0456C5.02058 20.7169 4.60943 20.3569 4.22657 19.969L4.17571 19.9175L5.45311 9.37886ZM8.16677 10.2623L7.92558 12.0471L10.7137 17.6234L11.4032 16.3307L8.16677 10.2623ZM12.8971 16.3307L13.5942 17.6376L16.382 12.2067L16.1276 10.2735L12.8971 16.3307ZM17.7426 12.4427L18.8265 20.6801C19.1732 20.4084 19.5029 20.116 19.8138 19.8047L18.7884 10.4054L17.7426 12.4427ZM5.6309 10.4052L4.49099 19.8095C4.78836 20.1068 5.10294 20.387 5.43309 20.6483L6.56487 12.2732L5.6309 10.4052ZM7.44506 13.3628L10.6846 19.8418L12.1502 17.0937L13.6114 19.8335L16.8564 13.5122L17.9293 21.6664L17.8445 21.717C16.1783 22.7109 14.2306 23.2818 12.15 23.2818C10.0508 23.2818 8.08696 22.7006 6.411 21.6903L6.32659 21.6394L7.44506 13.3628ZM7.61202 14.3675L6.65035 21.4838C8.26223 22.4356 10.1421 22.9818 12.15 22.9818C14.1398 22.9818 16.0039 22.4454 17.606 21.5094L16.6843 14.5043L13.6165 20.4805L12.1502 17.7312L10.676 20.4954L7.61202 14.3675Z" fill="#FF150F"/>
</svg>
