<svg width="32" height="32" viewBox="0 0 32 32" fill="none" xmlns="http://www.w3.org/2000/svg">
<path fill-rule="evenodd" clip-rule="evenodd" d="M4 9.33333C4 8.59695 4.59695 8 5.33333 8H26.6667C27.403 8 28 8.59695 28 9.33333C28 10.0697 27.403 10.6667 26.6667 10.6667H5.33333C4.59695 10.6667 4 10.0697 4 9.33333ZM4 16C4 15.2636 4.59695 14.6667 5.33333 14.6667H26.6667C27.403 14.6667 28 15.2636 28 16C28 16.7364 27.403 17.3333 26.6667 17.3333H5.33333C4.59695 17.3333 4 16.7364 4 16ZM5.33333 21.3333C4.59695 21.3333 4 21.9303 4 22.6667C4 23.403 4.59695 24 5.33333 24H19.4667C20.203 24 20.8 23.403 20.8 22.6667C20.8 21.9303 20.203 21.3333 19.4667 21.3333H5.33333Z" fill="white"/>
</svg>
