<svg width="24" height="25" viewBox="0 0 24 25" fill="none" xmlns="http://www.w3.org/2000/svg">
<path d="M21.8 24.2335L13.7667 16.2001C13.1 16.7779 12.3222 17.2279 11.4333 17.5501C10.5444 17.8724 9.6 18.0335 8.6 18.0335C6.2 18.0335 4.16667 17.2001 2.5 15.5335C0.833333 13.8668 0 11.8557 0 9.50013C0 7.14458 0.833333 5.13346 2.5 3.4668C4.16667 1.80013 6.18889 0.966797 8.56667 0.966797C10.9222 0.966797 12.9278 1.80013 14.5833 3.4668C16.2389 5.13346 17.0667 7.14458 17.0667 9.50013C17.0667 10.4557 16.9111 11.3779 16.6 12.2668C16.2889 13.1557 15.8222 13.989 15.2 14.7668L23.3 22.8001C23.5 22.9779 23.6 23.2057 23.6 23.4835C23.6 23.7612 23.4889 24.0112 23.2667 24.2335C23.0667 24.4335 22.8222 24.5335 22.5333 24.5335C22.2444 24.5335 22 24.4335 21.8 24.2335ZM8.56667 16.0335C10.3667 16.0335 11.9 15.3946 13.1667 14.1168C14.4333 12.839 15.0667 11.3001 15.0667 9.50013C15.0667 7.70013 14.4333 6.16124 13.1667 4.88346C11.9 3.60569 10.3667 2.9668 8.56667 2.9668C6.74444 2.9668 5.19444 3.60569 3.91667 4.88346C2.63889 6.16124 2 7.70013 2 9.50013C2 11.3001 2.63889 12.839 3.91667 14.1168C5.19444 15.3946 6.74444 16.0335 8.56667 16.0335Z" fill="#050000"/>
</svg>
