<svg width="24" height="24" viewBox="0 0 24 24" fill="none" xmlns="http://www.w3.org/2000/svg">
<g clip-path="url(#clip0_5368_4036)">
<path d="M15.5 14H14.71L14.43 13.73C15.41 12.59 16 11.11 16 9.5C16 5.91 13.09 3 9.5 3C5.91 3 3 5.91 3 9.5C3 13.09 5.91 16 9.5 16C11.11 16 12.59 15.41 13.73 14.43L14 14.71V15.5L19 20.49L20.49 19L15.5 14ZM9.5 14C7.01 14 5 11.99 5 9.5C5 7.01 7.01 5 9.5 5C11.99 5 14 7.01 14 9.5C14 11.99 11.99 14 9.5 14Z" fill="white"/>
<path d="M215.69 168.39L121.6 74.3C144.253 44.1435 156.481 7.43678 156.44 -30.28C156.44 -126.62 78.06 -205 -18.28 -205C-114.62 -205 -193 -126.62 -193 -30.28C-193 66.06 -114.62 144.44 -18.28 144.44C19.4368 144.481 56.1435 132.253 86.3 109.6L180.39 203.69C185.153 207.948 191.365 210.22 197.751 210.042C204.137 209.863 210.212 207.246 214.729 202.729C219.246 198.212 221.863 192.137 222.042 185.751C222.22 179.365 219.948 173.153 215.69 168.39ZM-143.08 -30.28C-143.08 -54.9631 -135.761 -79.0919 -122.047 -99.6152C-108.334 -120.138 -88.8431 -136.134 -66.0389 -145.58C-43.2347 -155.026 -18.1416 -157.497 6.06728 -152.682C30.2761 -147.867 52.5133 -135.981 69.9669 -118.527C87.4205 -101.073 99.3066 -78.8361 104.122 -54.6273C108.937 -30.4184 106.466 -5.32533 97.0202 17.4789C87.5743 40.2831 71.5784 59.7742 51.0552 73.4874C30.5319 87.2006 6.40311 94.52 -18.28 94.52C-51.3668 94.4803 -83.0871 81.319 -106.483 57.9231C-129.879 34.5272 -143.04 2.80684 -143.08 -30.28Z" fill="white"/>
</g>
<defs>
<clipPath id="clip0_5368_4036">
<rect width="24" height="24" fill="white"/>
</clipPath>
</defs>
</svg>
