<svg width="109" height="32" viewBox="0 0 109 32" fill="none" xmlns="http://www.w3.org/2000/svg">
<g clip-path="url(#clip0_475_513)">
<path fill-rule="evenodd" clip-rule="evenodd" d="M36.6798 19.766C36.5702 19.6702 36.4332 19.5607 36.5976 19.3008C36.6661 19.2187 36.7346 19.1229 36.8032 19.0408C36.9402 18.8629 37.0909 18.7534 37.2828 18.9176C37.3787 18.9997 38.379 19.9576 39.5986 19.9576C40.7086 19.9576 41.4349 19.2597 41.4349 18.4524C41.4349 17.5083 40.6127 16.9473 39.0368 16.2905C37.5294 15.6337 36.625 15.018 36.625 13.4581C36.625 12.5276 37.365 11.0225 39.5438 11.0225C40.8867 11.0225 41.8871 11.7203 41.8871 11.7203C41.9693 11.7614 42.1337 11.9256 41.9693 12.1855C41.9145 12.2676 41.8597 12.3634 41.8049 12.4455C41.6815 12.6371 41.5445 12.6918 41.3252 12.5687C41.2293 12.5139 40.366 11.9392 39.5301 11.9392C38.0776 11.9392 37.6391 12.8697 37.6391 13.4444C37.6391 14.3612 38.3379 14.8948 39.489 15.3737C41.3389 16.1263 42.5311 16.8241 42.5311 18.4114C42.5311 19.8344 41.1745 20.8743 39.5712 20.8743C37.9542 20.8743 36.858 19.9302 36.6798 19.766ZM44.5096 20.4775V11.2688C44.5096 11.1319 44.6334 11.0225 44.771 11.0225H45.1149L51.3196 18.7124H51.3471V11.4193C51.3471 11.2824 51.4572 11.1593 51.6085 11.1593H52.09C52.2276 11.1593 52.3514 11.2824 52.3514 11.4193V20.628C52.3514 20.7648 52.2276 20.8743 52.09 20.8743H51.8424L45.5276 13.0339H45.5139V20.4775C45.5139 20.6143 45.4038 20.7375 45.2525 20.7375H44.771C44.6334 20.7375 44.5096 20.6143 44.5096 20.4775ZM54.3301 15.9621C54.3301 13.2254 56.5181 11.0225 59.2702 11.0225C62.0223 11.0225 64.224 13.2254 64.224 15.9621C64.224 18.6987 62.0223 20.8743 59.2702 20.8743C56.5181 20.8743 54.3301 18.6987 54.3301 15.9621ZM55.3564 15.925C55.3564 18.0857 57.1336 19.8522 59.3072 19.8522C61.4808 19.8522 63.2716 18.0857 63.2716 15.925C63.2716 13.7644 61.4808 11.9707 59.3072 11.9707C57.1336 11.9707 55.3564 13.7644 55.3564 15.925ZM67.9983 20.6828L65.4118 11.4877C65.357 11.2961 65.4665 11.1593 65.6581 11.1593H66.2329C66.3424 11.1593 66.4519 11.2551 66.4792 11.3509L68.3815 18.4387H68.4363L70.7217 11.173C70.7491 11.0909 70.8312 11.0225 70.9544 11.0225H71.2007C71.3102 11.0225 71.406 11.0909 71.4334 11.173L73.7599 18.4387H73.8146L75.6758 11.3509C75.7032 11.2551 75.8127 11.1593 75.9222 11.1593H76.497C76.6885 11.1593 76.798 11.2961 76.7433 11.4877L74.1567 20.6828C74.1294 20.7922 74.0199 20.8743 73.9104 20.8743H73.6914C73.5956 20.8743 73.4998 20.8059 73.4588 20.7238L71.0912 13.3212H71.0228L68.6963 20.7238C68.6552 20.8059 68.5594 20.8743 68.4636 20.8743H68.2447C68.1352 20.8743 68.0257 20.7922 67.9983 20.6828ZM78.5889 20.54V11.43C78.5889 11.2924 78.6973 11.1686 78.8464 11.1686H81.8148C83.4684 11.1686 84.5935 12.2557 84.5935 13.7007C84.5935 14.7603 83.9022 15.5309 83.2651 15.9025C83.9835 16.2052 84.8917 16.8795 84.8917 18.1456C84.8917 19.6868 83.6853 20.8015 81.9368 20.8015H78.8464C78.6973 20.8015 78.5889 20.6777 78.5889 20.54ZM79.6151 15.4739H81.8524C82.9092 15.4739 83.4994 14.7203 83.4994 13.7612C83.4994 12.7747 82.9092 12.117 81.8524 12.117H79.6151V15.4739ZM79.541 19.8518H82.0095C82.9996 19.8518 83.7185 19.0972 83.7185 18.1094C83.7185 17.1353 82.8368 16.4219 81.7789 16.4219H79.541V19.8518ZM86.0313 20.7284C85.8262 20.7284 85.7169 20.5507 85.7989 20.3729L89.955 11.1729C89.996 11.0908 90.0643 11.0225 90.1874 11.0225H90.3241C90.4471 11.0225 90.5155 11.0908 90.5565 11.1729L94.6853 20.3729C94.7673 20.5507 94.6579 20.7284 94.4529 20.7284H93.906C93.783 20.7284 93.7009 20.6464 93.6736 20.578L92.6619 18.3224H87.8086L86.8106 20.578C86.7832 20.6464 86.7012 20.7284 86.5781 20.7284H86.0313ZM88.1895 17.5175H92.2937C91.6234 16.0382 90.9667 14.5453 90.2963 13.066H90.1869L88.1895 17.5175ZM96.2511 20.54V11.43C96.2511 11.2924 96.3595 11.1686 96.5085 11.1686H97.037C97.1725 11.1686 97.2945 11.2924 97.2945 11.43V19.8795H101.197C101.346 19.8795 101.455 20.0033 101.455 20.141V20.54C101.455 20.6777 101.346 20.8015 101.197 20.8015H96.5085C96.3595 20.8015 96.2511 20.6777 96.2511 20.54ZM102.847 20.5399V11.4299C102.847 11.2923 102.955 11.1685 103.104 11.1685H103.633C103.768 11.1685 103.89 11.2923 103.89 11.4299V19.8794H107.793C107.942 19.8794 108.05 20.0032 108.05 20.1409V20.5399C108.05 20.6775 107.942 20.8014 107.793 20.8014H103.104C102.955 20.8014 102.847 20.6775 102.847 20.5399Z" fill="white"/>
<g clip-path="url(#clip1_475_513)">
<path opacity="0.2" fill-rule="evenodd" clip-rule="evenodd" d="M16.0771 31.8232C24.8155 31.8232 31.8993 24.7393 31.8993 16.0009C31.8993 7.26256 24.8155 0.178711 16.0771 0.178711C7.33873 0.178711 0.254883 7.26256 0.254883 16.0009C0.254883 24.7393 7.33873 31.8232 16.0771 31.8232Z" fill="url(#paint0_linear_475_513)"/>
<path opacity="0.3" fill-rule="evenodd" clip-rule="evenodd" d="M16.0777 28.6583C23.0684 28.6583 28.7355 22.9913 28.7355 16.0006C28.7355 9.00986 23.0684 3.34277 16.0777 3.34277C9.087 3.34277 3.41992 9.00986 3.41992 16.0006C3.41992 22.9913 9.087 28.6583 16.0777 28.6583Z" fill="url(#paint1_linear_475_513)"/>
<path opacity="0.5" fill-rule="evenodd" clip-rule="evenodd" d="M16.0763 25.4945C21.3194 25.4945 25.5697 21.2442 25.5697 16.0011C25.5697 10.7581 21.3194 6.50781 16.0763 6.50781C10.8333 6.50781 6.58301 10.7581 6.58301 16.0011C6.58301 21.2442 10.8333 25.4945 16.0763 25.4945Z" fill="url(#paint2_linear_475_513)"/>
<path fill-rule="evenodd" clip-rule="evenodd" d="M16.0769 22.3297C19.5723 22.3297 22.4058 19.4961 22.4058 16.0008C22.4058 12.5054 19.5723 9.67188 16.0769 9.67188C12.5816 9.67188 9.74805 12.5054 9.74805 16.0008C9.74805 19.4961 12.5816 22.3297 16.0769 22.3297Z" fill="white"/>
</g>
</g>
<defs>
<linearGradient id="paint0_linear_475_513" x1="0.254883" y1="0.178711" x2="0.254883" y2="31.8232" gradientUnits="userSpaceOnUse">
<stop stop-color="white"/>
<stop offset="1" stop-color="white"/>
</linearGradient>
<linearGradient id="paint1_linear_475_513" x1="3.41992" y1="3.34277" x2="3.41992" y2="28.6583" gradientUnits="userSpaceOnUse">
<stop stop-color="white"/>
<stop offset="1" stop-color="white"/>
</linearGradient>
<linearGradient id="paint2_linear_475_513" x1="6.58301" y1="6.50781" x2="6.58301" y2="25.4945" gradientUnits="userSpaceOnUse">
<stop offset="0.00659321" stop-color="white"/>
<stop offset="0.974034" stop-color="white"/>
</linearGradient>
<clipPath id="clip0_475_513">
<rect width="108.444" height="32" fill="white" transform="translate(0.0771484)"/>
</clipPath>
<clipPath id="clip1_475_513">
<rect width="31.6444" height="31.6444" fill="white" transform="translate(0.254883 0.178711)"/>
</clipPath>
</defs>
</svg>
